<?xml version="1.0" encoding="UTF-8"?>
<svg id="Camada_1" data-name="Camada 1" xmlns="http://www.w3.org/2000/svg" viewBox="0 0 41.29 37.75">
  <defs>
    <style>
      .cls-1 {
        fill: #fff;
        stroke-width: 0px;
      }
    </style>
  </defs>
  <path class="cls-1" d="m2.52,22.84c.16-.33.44-.48.79-.57,1.21-.31,2.41-.64,3.62-.97.82-.23,1.56-.13,2.22.44.09.08.28.09.41.05,1.74-.46,3.49-.91,5.22-1.39,1.17-.33,2.24-.19,3.29.43,3.18,1.85,6.37,3.68,9.55,5.52,1.24.72,1.73,1.72,1.54,3.18.13-.03.25-.04.37-.07,1.93-.49,3.86-.98,5.79-1.46,1.37-.34,2.83.48,3.28,1.81.46,1.34-.13,2.9-1.41,3.43-1.18.5-2.41.87-3.63,1.28-2.16.73-4.33,1.46-6.5,2.18-.43.14-.89.21-1.33.31h-1.13c-1.66-.17-3.01-1.08-4.41-1.88-1.76-1.01-3.54-1.98-5.26-3.04-.94-.57-1.84-.53-2.81-.21-.08.03-.17.13-.19.21-.26.81-.82,1.3-1.63,1.51-1.26.33-2.53.67-3.79,1.01-.62.16-.93-.02-1.1-.65-.73-2.73-1.46-5.46-2.2-8.19-.23-.84-.47-1.67-.71-2.5,0-.14,0-.28,0-.42Zm9.3,7.63c.33-.07.63-.14.93-.2.97-.21,1.86,0,2.71.5,2.48,1.43,4.96,2.86,7.46,4.26,1.12.62,2.34.76,3.56.36,3.28-1.07,6.55-2.18,9.82-3.28.82-.27,1.21-1.01.98-1.78-.23-.76-.97-1.14-1.81-.93-1.77.45-3.54.9-5.31,1.36-.82.21-1.67.35-2.45.67-1.04.42-1.98.39-2.94-.17-1.9-1.11-3.82-2.21-5.73-3.31-.11-.06-.22-.13-.32-.22-.25-.22-.31-.55-.16-.84.15-.29.48-.45.81-.35.14.04.28.12.41.2,1.58.91,3.16,1.83,4.75,2.74.42.24.83.5,1.26.71.79.38,1.7-.06,1.94-.91.19-.67-.1-1.28-.82-1.7-3.23-1.86-6.45-3.72-9.68-5.59-.63-.37-1.27-.45-1.97-.26-1.68.46-3.37.9-5.05,1.36-.12.03-.23.08-.36.12.65,2.44,1.3,4.85,1.95,7.27Zm-5.17,2.61c.14-.03.25-.05.36-.08.92-.25,1.84-.5,2.76-.74.78-.21.93-.47.72-1.26-.67-2.5-1.35-5-2.02-7.51-.24-.89-.48-1.03-1.37-.78-.09.02-.17.06-.27.1.02.07.03.13.04.18.4,1.48.79,2.96,1.18,4.44.13.51-.05.89-.45,1-.42.11-.77-.12-.91-.62-.22-.82-.44-1.64-.66-2.46-.19-.72-.39-1.45-.59-2.19-.47.13-.9.24-1.36.37.86,3.2,1.71,6.37,2.56,9.56Z"/>
  <path class="cls-1" d="m38.77,15.05c-.25,3.09-1.78,5.7-5.02,7.02-2.9,1.18-5.61.6-7.93-1.52-1.76-1.61-2.6-3.67-2.62-6.05,0-1.36.34-2.65,1.06-3.8,2-3.18,4.03-6.35,6.05-9.52.38-.59.95-.59,1.32,0,2.02,3.16,4.04,6.31,6.04,9.49.77,1.23,1.1,2.59,1.08,4.38Zm-7.78-12.25c-.06.07-.08.1-.1.13-1.74,2.72-3.47,5.45-5.21,8.17-.5.78-.87,1.63-.99,2.55-.29,2.28.42,4.23,2.06,5.84,2.51,2.45,6.66,2.23,8.92-.44,1.9-2.25,2.31-5.4.54-8.09-1.7-2.59-3.34-5.22-5.01-7.84-.06-.1-.13-.19-.21-.31Z"/>
  <path class="cls-1" d="m8.18,29.8c.38,0,.68.33.68.71,0,.38-.32.69-.71.68-.39,0-.68-.31-.68-.71,0-.39.32-.69.7-.69Z"/>
  <path class="cls-1" d="m35.94,14.69c-.02,2.57-1.96,4.76-4.49,5.07-.2.02-.4.03-.6,0-.34-.06-.57-.35-.57-.67,0-.32.22-.61.56-.68.21-.04.42-.04.63-.08,1.41-.27,2.32-1.15,2.82-2.46.41-1.07.28-2.1-.29-3.09-.32-.56-.14-1.11.4-1.19.34-.05.59.1.77.39.52.83.77,1.74.77,2.72Z"/>
</svg>