<?xml version="1.0" encoding="UTF-8"?>
<svg id="Camada_1" data-name="Camada 1" xmlns="http://www.w3.org/2000/svg" viewBox="0 0 41.29 37.75">
  <defs>
    <style>
      .cls-1 {
        fill: #fff;
        stroke-width: 0px;
      }
    </style>
  </defs>
  <path class="cls-1" d="m34.31,27.39c-.8,2.27-2.2,3.38-4.19,3.35-1.93-.03-3.34-1.19-4.03-3.33-.11,0-.22-.02-.34-.02-3.4,0-6.79,0-10.19,0-.27,0-.38.07-.46.34-.55,1.84-2.15,3.03-4.03,3.01-1.88-.02-3.45-1.23-3.98-3.08-.02-.08-.05-.15-.09-.28-.77,0-1.55.01-2.32,0-1.5-.03-2.76-1.04-3.1-2.51-.07-.32-.1-.66-.1-.99,0-4.46,0-8.92,0-13.38,0-2.13,1.38-3.51,3.52-3.51,9.1,0,18.21,0,27.31,0,3.79,0,6.77,2.52,7.42,6.24.07.39.09.79.1,1.19,0,3.19.01,6.37,0,9.56,0,1.74-1.11,3.11-2.74,3.35-.66.1-1.35.04-2.03.05-.24,0-.48,0-.73,0Zm2.52-16.71c-.2-.22-.31-.34-.43-.46-1.13-1.05-2.46-1.58-4.01-1.58-6.74,0-13.49,0-20.23,0-2.46,0-4.91,0-7.37,0-.96,0-1.67.66-1.67,1.6,0,4.63,0,9.27,0,13.9,0,.84.59,1.53,1.43,1.59.81.06,1.64.01,2.45.01.69-2.07,2.03-3.23,3.78-3.33.89-.05,1.72.13,2.48.59,1.04.63,1.66,1.57,1.95,2.75h.42c3.35,0,6.69,0,10.04,0,.34,0,.46-.1.56-.42.54-1.78,2.15-2.95,4-2.94,1.84.01,3.44,1.23,3.96,3,.03.11.07.22.11.34.79,0,1.56.02,2.32,0,.77-.03,1.43-.6,1.52-1.33.06-.41,0-.84,0-1.31-.19,0-.36,0-.53,0-.5,0-1.01.02-1.51-.02-.46-.03-.75-.4-.74-.83.02-.41.33-.74.77-.78.18-.02.37,0,.56,0,.48,0,.97,0,1.44,0v-2.64c-1.78,0-3.54,0-5.29,0-8.88,0-17.76,0-26.64,0-.77,0-1.06-.28-1.07-1.05,0-.69,0-1.38,0-2.07,0-1.35,0-2.71,0-4.06,0-.68.3-.97.97-.98.15,0,.29,0,.44,0,9.86,0,19.73,0,29.59,0h.68Zm-25.11,6.5v-4.85h-4.9v4.85h4.9Zm1.68,0h4.93v-4.83h-4.93v4.83Zm6.61,0h4.93v-4.83h-4.93v4.83Zm6.62-4.85v4.85h4.91v-4.85h-4.91Zm6.6,4.85h4.94c0-1,.03-1.97-.01-2.93-.02-.52-.16-1.04-.24-1.57-.05-.28-.19-.37-.49-.37-1.29.02-2.57,0-3.86,0-.11,0-.23.01-.34.02v4.83Zm-5.57,9.41c0,1.39,1.14,2.53,2.53,2.54,1.38,0,2.53-1.14,2.55-2.53.02-1.39-1.16-2.56-2.56-2.55-1.39,0-2.52,1.16-2.52,2.54Zm-14.02,0c0-1.39-1.14-2.54-2.53-2.54-1.38,0-2.54,1.14-2.54,2.53,0,1.38,1.15,2.54,2.53,2.54,1.39,0,2.54-1.14,2.54-2.53Z"/>
</svg>