<?xml version="1.0" encoding="UTF-8"?>
<svg id="Camada_1" data-name="Camada 1" xmlns="http://www.w3.org/2000/svg" viewBox="0 0 41.29 37.75">
  <defs>
    <style>
      .cls-1 {
        fill: #fff;
        stroke-width: 0px;
      }
    </style>
  </defs>
  <path class="cls-1" d="m22.98,21.21c0,.95,0,1.85,0,2.75,0,.55-.2.76-.74.76-1.06,0-2.12,0-3.18,0-.57,0-.76-.2-.76-.78,0-.9,0-1.8,0-2.73-.91,0-1.78,0-2.65,0-.69,0-.86-.16-.86-.86,0-1.02,0-2.05,0-3.07,0-.55.2-.75.75-.75.9,0,1.8,0,2.76,0,0-.13,0-.24,0-.36,0-.82,0-1.63,0-2.45,0-.48.21-.7.69-.7,1.1,0,2.19,0,3.29,0,.49,0,.7.21.7.72,0,.91,0,1.82,0,2.77.13,0,.25.02.37.02.83,0,1.66,0,2.48,0,.43,0,.65.22.65.66,0,1.12,0,2.24,0,3.36,0,.44-.23.65-.69.66-.92,0-1.85,0-2.81,0Zm-1.17-6.99h-2.34c0,.94,0,1.85,0,2.76,0,.52-.21.72-.73.73-.57,0-1.14,0-1.72,0-.35,0-.69,0-1.04,0v2.34c.14,0,.25,0,.37,0,.8,0,1.61,0,2.41,0,.5,0,.7.21.71.72,0,.13,0,.27,0,.4,0,.79,0,1.57,0,2.37h2.34c0-.94,0-1.85,0-2.76,0-.52.21-.72.73-.73.56,0,1.12,0,1.68,0,.36,0,.72,0,1.08,0v-2.34c-.93,0-1.84,0-2.75,0-.54,0-.74-.2-.74-.75,0-.9,0-1.8,0-2.73Z"/>
  <path class="cls-1" d="m19.81,35.2c-1.21,0-2.41.03-3.62-.01-.93-.03-1.81-.36-2.65-.77-1.25-.61-2.5-1.21-3.74-1.82-1.18-.58-2.42-.88-3.73-.86-.76.01-1.51,0-2.27,0-.45,0-.72-.24-.71-.6.01-.35.27-.58.71-.56,1.33.04,2.66,0,3.97.16.83.1,1.64.43,2.42.77,1.32.58,2.61,1.25,3.91,1.88.95.46,1.94.7,3,.69,1.88,0,3.75,0,5.63,0,.19,0,.39-.04.56-.11,1.51-.61,3.01-1.25,4.52-1.85.28-.11.37-.26.32-.55-.1-.58-.41-.91-1-1-.72-.12-1.4.09-2.08.27-.4.11-.79.25-1.18.37-.41.13-.73-.01-.83-.36-.1-.34.05-.64.46-.74.98-.26,1.97-.53,2.97-.72.59-.11,1.19,0,1.73.32.88.51,1.32,1.62,1.01,2.59-.12.37-.33.64-.7.79-1.69.69-3.37,1.39-5.06,2.08-.15.06-.33.08-.5.08-1.05,0-2.1,0-3.14,0,0-.02,0-.03,0-.05Z"/>
  <path class="cls-1" d="m36,7.18c-2.04.16-3.93-.35-5.72-1.3-1.06-.56-2.16-1.06-3.25-1.58-.87-.41-1.79-.62-2.75-.62-1.92,0-3.85,0-5.77,0-.16,0-.34.04-.49.1-1.52.62-3.03,1.26-4.56,1.87-.29.12-.35.27-.31.55.1.58.42.9,1.01.99.72.11,1.4-.09,2.08-.27.38-.1.74-.23,1.11-.35.45-.14.76-.03.88.31.12.35-.05.67-.49.79-.97.26-1.95.53-2.94.7-.43.07-.93-.02-1.36-.16-1.07-.35-1.67-1.52-1.41-2.61.11-.44.35-.76.78-.94,1.66-.67,3.3-1.36,4.96-2.04.16-.07.35-.1.53-.1,1.99,0,3.97,0,5.96,0,1.18,0,2.29.26,3.35.77,1.41.68,2.82,1.38,4.24,2.05.99.47,2.05.69,3.15.69.82,0,1.63,0,2.45,0,.46,0,.73.22.73.58,0,.36-.27.59-.72.59-.49,0-.97,0-1.46,0Z"/>
  <path class="cls-1" d="m20.58,6.66c-.17.79.04,1.44.6,1.93.37.32.81.59,1.26.79,1.13.51,2.29.96,3.43,1.45.17.08.37.22.45.39.65,1.33,1.75,2.02,3.17,2.25,1.01.17,1.99.02,2.95-.32.18-.06.38-.12.56-.12,1.5,0,3-.01,4.5,0,.19,0,.44.08.54.21.11.14.14.41.09.6-.07.28-.33.36-.61.36-1.39,0-2.78,0-4.17,0-.24,0-.48.05-.71.12-2.09.66-4.1.58-5.9-.8-.5-.38-.86-.95-1.29-1.43-.12-.13-.25-.27-.4-.34-1.07-.46-2.16-.9-3.23-1.37-.77-.34-1.45-.8-1.94-1.51-.72-1.05-.68-2.15-.2-3.27.15-.35.45-.42.87-.24,1.5.62,2.99,1.24,4.48,1.86.65.27,1.3.54,1.95.81.42.18.59.48.45.82-.14.33-.47.44-.9.26-1.89-.78-3.77-1.57-5.66-2.35-.09-.04-.18-.07-.3-.12Z"/>
  <path class="cls-1" d="m20.71,31.09c.18-.81-.04-1.48-.64-1.97-.4-.33-.86-.6-1.33-.81-1.1-.49-2.22-.92-3.33-1.4-.17-.07-.36-.23-.44-.39-.65-1.33-1.75-2.01-3.17-2.24-1.01-.16-1.99-.01-2.94.32-.17.06-.35.11-.53.12-1.51,0-3.02.01-4.53,0-.19,0-.44-.08-.54-.21-.11-.14-.13-.41-.09-.6.07-.28.34-.35.61-.35,1.4,0,2.8,0,4.2,0,.21,0,.43-.04.64-.11,1.7-.56,3.37-.59,5.01.19.93.44,1.64,1.11,2.19,1.98.11.17.29.33.48.41,1,.44,2.02.84,3.03,1.27.82.35,1.55.82,2.07,1.57.72,1.04.69,2.15.21,3.26-.15.36-.46.43-.9.24-1.76-.73-3.53-1.46-5.29-2.2-.37-.15-.74-.31-1.11-.46-.43-.18-.59-.47-.46-.81.14-.35.47-.45.92-.26,1.82.75,3.64,1.51,5.46,2.26.15.06.29.12.48.2Z"/>
  <path class="cls-1" d="m32.92,18.91c-.03,2.64-.79,5.05-2.36,7.19-.13.17-.37.33-.58.35-.15.02-.41-.15-.47-.3-.07-.17-.05-.44.04-.6.26-.48.61-.91.87-1.39,1.24-2.3,1.61-4.74,1.15-7.31-.02-.08-.03-.17-.04-.25-.03-.38.16-.64.49-.69.31-.04.6.15.65.51.1.7.17,1.4.25,2.1.01.13,0,.27,0,.4Z"/>
  <path class="cls-1" d="m11.15,11.29c.58.01.84.5.6.91-.2.33-.44.64-.64.97-1.43,2.41-1.88,5-1.38,7.76.01.06.02.12.03.18.06.44-.11.72-.46.77-.36.05-.61-.15-.69-.58-.39-2.03-.31-4.04.3-6.02.4-1.31,1.01-2.53,1.83-3.63.13-.17.33-.28.43-.36Z"/>
</svg>