<?xml version="1.0" encoding="UTF-8"?>
<svg id="Camada_1" data-name="Camada 1" xmlns="http://www.w3.org/2000/svg" viewBox="0 0 41.29 37.75">
  <defs>
    <style>
      .cls-1 {
        fill: #fff;
        stroke-width: 0px;
      }
    </style>
  </defs>
  <path class="cls-1" d="m1.77,6.49c.21-.48.36-.99.63-1.43.37-.58.95-.96,1.62-1.14.22-.06.3-.16.36-.38.43-1.81,1.55-3,3.37-3.42,1.69-.39,3.13.16,4.28,1.43.48.53.8,1.18.95,1.89.05.22.14.3.36.32,2.63.23,4.55,2.33,4.49,4.96-.02.63-.21,1.25-.32,1.87,3.71.74,5.88,5.24,3.36,9.05,1.91,1.07,3.11,2.65,3.47,4.83.24,1.46.04,2.87-.67,4.18-.84,1.55-2.1,2.6-3.79,3.14-1.68.53-3.29.33-4.87-.49v5.16h10.65v-1.87c-.2,0-.41.01-.61,0-.35-.02-.58-.26-.61-.58-.02-.3.2-.58.54-.64.21-.04.44-.03.68-.05v-.6c-.17,0-.35,0-.53,0-.44-.03-.71-.29-.7-.65.02-.35.28-.58.71-.6.16,0,.32,0,.51,0v-1.9c-.18,0-.37,0-.56,0-.38-.02-.65-.28-.66-.62,0-.34.26-.61.64-.63.19-.01.39,0,.59,0,.1-.37.28-.63.69-.61.37.02.53.26.61.6h10.04c.09-.33.25-.6.64-.6.38,0,.57.24.63.5.4.12.77.2,1.1.35.1.04.16.28.16.42,0,.42-.27.55-1.21.61v1.88c.19,0,.4-.01.6,0,.37.03.61.27.62.6,0,.31-.22.57-.56.62-.21.03-.43.03-.67.04v.58c.5.06,1.21-.12,1.21.66,0,.77-.69.59-1.2.64v1.86c.44.08,1.04-.14,1.21.54.09.36-.16.56-.42.74H1.77v-.81c.19-.35.49-.45.89-.45,2.7.01,5.4,0,8.1,0h.43v-5.18c-.13.06-.23.09-.32.14-3.15,1.49-6.97.14-8.43-3.04-.31-.68-.45-1.44-.67-2.16,0-.44,0-.88,0-1.33.02-.06.05-.12.05-.17.23-1.83,1.07-3.32,2.52-4.45.31-.24.64-.44.98-.66-1.11-1.71-1.43-3.53-.72-5.45.72-1.93,2.17-3.1,4.14-3.59-.04-.42-.24-.55-.64-.53-.99.03-1.99,0-2.99.01-1.02,0-1.9-.32-2.59-1.1-.41-.46-.59-1.03-.77-1.6,0-.29,0-.59,0-.88Zm10.67,20.27c.01-.12.02-.16.02-.21,0-1.98,0-3.96,0-5.93,0-.15-.1-.32-.2-.43-.86-.88-1.73-1.74-2.6-2.61-.37-.37-.42-.75-.13-1.03.29-.28.65-.23,1.03.15.48.48.96.96,1.43,1.43.14.14.28.28.48.48,0-.99,0-1.87,0-2.75,0-.47.25-.75.64-.74.38,0,.61.28.62.76,0,.8,0,1.6,0,2.4,0,.09.02.18.03.33.58-.58,1.1-1.11,1.63-1.64.16-.16.33-.34.51-.47.27-.19.54-.15.77.07.22.23.25.5.08.77-.07.11-.17.21-.27.3-.85.85-1.71,1.7-2.55,2.56-.11.12-.21.31-.21.47-.01,1.94,0,3.88,0,5.82,0,.07.02.15.04.28,1.06-1.06,2.07-2.08,3.09-3.09.11-.11.23-.27.37-.29.22-.03.49-.02.67.08.24.14.29.42.17.68-.07.14-.18.26-.29.37-.97.98-1.94,1.95-2.92,2.92-.35.35-.7.68-1.04,1.02,1.02,1.74,3.24,2.69,5.17,2.25,2.31-.54,3.98-2.44,4.17-4.76.19-2.35-1.15-4.48-3.37-5.39-.7-.29-.79-.7-.3-1.26,1.24-1.41,1.57-3.02.89-4.76-.66-1.69-1.98-2.6-3.8-2.76-.8-.07-1.01-.51-.59-1.2.76-1.23.81-2.49.14-3.78-.71-1.35-2.44-2.1-3.85-1.7-1.75.5-2.71,2.03-2.63,3.63.03.69.25,1.32.62,1.9.4.62.19,1.04-.53,1.12-.21.02-.42.03-.62.07-1.68.35-2.85,1.32-3.37,2.95-.52,1.64-.21,3.16.94,4.46.55.62.47.99-.3,1.33-.04.02-.09.04-.13.06-3.19,1.38-4.23,5.4-2.11,8.16,2.15,2.8,6.46,2.64,8.28-.36-.09-.07-.21-.15-.3-.24-1.21-1.21-2.42-2.41-3.62-3.62-.1-.1-.19-.19-.27-.3-.18-.26-.15-.6.06-.81.22-.21.55-.24.81-.05.11.08.2.18.3.27,1.01,1.01,2.02,2.01,3.07,3.07Zm-.61-22.87c-.18-.41-.3-.83-.52-1.18-.75-1.16-2.07-1.67-3.39-1.35-1.27.3-2.18,1.37-2.35,2.75-.1.78-.15.84-.93.96-.95.14-1.64.96-1.61,1.9.03.97.76,1.78,1.73,1.81,1.16.04,2.33.01,3.5.01.02,0,.04-.02.08-.05.06-2.36,1.2-3.98,3.49-4.86Zm15.13,25.69v1.86h10.02v-1.86h-10.02Zm0,5.04v1.84h10.03v-1.84h-10.03Zm-13.24,1.85v-.42c0-1.68-.03-3.36.02-5.04.02-.6-.22-.96-.65-1.29q-.63.56-.63,1.37c0,1.66,0,3.31,0,4.97v.41h1.26Zm23.28-3.73h-10.04v.57h10.04v-.57Z"/>
  <path class="cls-1" d="m32.56,15.71c-1.33,0-2.65.04-3.98,0-1.5-.05-2.71-1.28-2.87-2.82-.16-1.44.79-2.88,2.19-3.28.24-.07.36-.17.41-.42.39-1.84,1.86-3.2,3.74-3.48,1.71-.25,3.56.68,4.41,2.26.21.39.34.84.46,1.27.05.2.13.28.31.34,1.45.45,2.3,1.62,2.29,3.1-.02,1.55-1.32,2.96-2.87,3.01-1.36.05-2.73.01-4.09.01Zm.03-1.25s0,0,0,0c1.25,0,2.5,0,3.76,0,.05,0,.1,0,.15,0,1.23-.07,2.06-1.28,1.67-2.44-.27-.81-.86-1.22-1.69-1.31-.5-.05-.66-.21-.72-.71-.01-.11-.03-.22-.04-.33-.18-1.63-1.71-2.88-3.36-2.72-1.56.15-2.71,1.31-2.86,2.87-.06.68-.17.8-.87.9-.61.09-1.09.38-1.4.91-.74,1.23.1,2.79,1.54,2.83,1.28.04,2.55,0,3.83,0Z"/>
</svg>