<?xml version="1.0" encoding="UTF-8"?>
<svg id="icones" xmlns="http://www.w3.org/2000/svg" viewBox="0 0 30 30">
  <defs>
    <style>
      .cls-1 {
        fill: #db334f;
      }
    </style>
  </defs>
  <path class="cls-1" d="m24.6,17.86c-.29-.46-.58-.91-.87-1.37-.77-1.2-1.54-2.41-2.3-3.61-.32-.5-.74-.6-1.24-.29l-.87.56s0,0,0,0c-.16.09-.31.21-.48.3-.4.22-.61.53-.51,1.01-.33.05-.63-.04-.91-.17-.21-.09-.41-.19-.63-.25-.4-.12-.79-.02-1.17.13-.23.09-.45.2-.68.3-.4-.47-.92-.45-1.46-.35-.44.09-.87.2-1.31.27-.24.04-.5,0-.77,0,.15-.55-.08-.88-.51-1.12-.18-.1-.36-.22-.53-.34h0s-1.01-.61-1.01-.61c-.42-.15-.81.02-1.06.43-1.01,1.61-2.04,3.21-3.06,4.81-.09.15-.17.3-.25.46v.32c.09.28.28.47.53.62.43.26.85.53,1.27.81.38.26.76.33,1.17.03-.27.46-.32.93-.12,1.41.23.54.71.64,1.22.62.2.75.52,1.03,1.26,1.13.05,0,.13.05.14.1.2.59.75.83,1.39.76.1-.01.16-.01.22.1.4.72,1.23.87,1.87.36.07-.05.13-.11.17-.14.41.19.79.41,1.2.55.78.26,1.32.03,1.72-.67.03-.05.13-.09.18-.08.79.15,1.27-.1,1.57-.84.05-.12.1-.16.23-.15.6.01,1.01-.27,1.18-.82.05-.16.12-.19.28-.19.71,0,1.27-.29,1.47-1.01.09-.32.06-.63-.11-.99.44.33.81.23,1.19-.02.44-.3.9-.58,1.35-.87.47-.3.56-.74.27-1.2Zm-8.8-3.16c.42-.18.84-.19,1.25.04.45.25.94.33,1.45.3.07,0,.18.05.22.11.84,1.31,1.68,2.62,2.51,3.93.01.02.02.04.03.06-.09.15-.18.11-.29.04-.84-.59-1.68-1.19-2.54-1.74-.51-.33-1.06-.59-1.61-.85-.41-.19-.79-.11-1.16.2-.51.41-1.07.77-1.64,1.11-.22.14-.49.2-.75.26-.29.06-.43-.07-.38-.37.03-.21.1-.44.2-.62.63-1.11,1.5-1.97,2.7-2.46Zm-8.2,4.6c-.12.2-.23.22-.43.09-.49-.31-.98-.62-1.47-.94-.2-.13-.22-.23-.1-.43,1.07-1.67,2.13-3.34,3.2-5.01.13-.2.22-.22.43-.09.49.31.98.62,1.47.94.08.05.14.14.2.21-.05.1-.07.16-.1.22-1.06,1.67-2.13,3.34-3.2,5.01Zm1.59,1.9c-.07.08-.22.09-.34.13-.49-.02-.64-.37-.58-.81.02-.16.1-.32.2-.45.22-.28.45-.55.7-.79.29-.29.87-.12.98.28.01.05,0,.12-.02.17-.22.55-.56,1.03-.94,1.48Zm1.39,1.11c-.05.07-.14.11-.16.12-.51-.03-.75-.24-.81-.65-.01-.09.01-.2.07-.27.42-.53.8-1.08,1.03-1.72.09-.24.56-.43.93-.38.3.04.48.2.52.49.01.09,0,.2-.06.27-.5.72-1,1.43-1.51,2.14Zm1.03,1.02c-.13-.03-.26-.05-.38-.1-.26-.12-.33-.39-.16-.62.48-.67.96-1.33,1.42-2.01.17-.24.37-.21.6-.18.23.03.41.14.46.38.06.31.02.6-.19.85-.38.46-.77.91-1.13,1.38-.17.22-.36.3-.62.31Zm2.73-.48c-.18.42-.44.78-.81,1.05-.11.08-.24.12-.37.18-.16-.06-.32-.1-.44-.18-.24-.16-.25-.31-.07-.53.35-.43.71-.85,1.05-1.28.08-.1.15-.12.27-.07.44.18.54.4.36.83Zm7.01-1.98c-.11.32-.34.47-.65.52-.31.05-.59,0-.87-.19-.89-.62-1.8-1.22-2.7-1.83-.06-.04-.11-.08-.17-.11-.13-.07-.25-.03-.34.08-.1.12-.08.25.02.36.05.05.1.08.16.12.91.62,1.82,1.24,2.74,1.85.12.08.14.15.1.28-.13.44-.63.62-1.03.36-.69-.45-1.39-.9-2.08-1.36-.06-.04-.12-.08-.2-.12-.11.16-.2.31-.3.47.41.27.8.52,1.2.78.31.2.62.41.94.61.1.06.11.12.07.23-.21.55-.63.73-1.28.34-.42-.25-.8-.56-1.2-.84-.04-.03-.09-.06-.13-.09-.16-.1-.32-.07-.4.07-.09.15-.06.29.08.39.36.26.72.51,1.08.77.05.04.11.08.16.12-.15.46-.45.66-.91.57-.42-.08-.77-.29-1.12-.52.12-.22.25-.42.34-.64.31-.72.1-1.25-.62-1.56-.05-.02-.1-.04-.15-.07.01-.08.02-.15.03-.22.12-.82-.34-1.37-1.16-1.39-.16,0-.24-.03-.29-.2-.18-.61-.81-.92-1.5-.75-.2.05-.39.14-.6.22-.22-.27-.51-.49-.9-.52-.39-.04-.71.1-.98.39-.1-.06-.13-.11-.06-.22.8-1.25,1.6-2.5,2.4-3.74.03-.04.11-.08.15-.07.63.17,1.23.04,1.84-.1.34-.08.68-.14,1.02-.18.13-.01.27.06.46.11-.21.18-.36.31-.5.44-.54.48-1.04,1.01-1.36,1.67-.14.29-.26.62-.29.95-.06.61.38,1,.99.9.29-.05.57-.14.84-.26.71-.31,1.32-.77,1.91-1.27.15-.12.29-.17.46-.09.36.16.74.29,1.07.5.74.46,1.46.97,2.18,1.45.34.23.67.46,1.01.69.14.1.27.2.38.32.21.23.28.49.17.8Zm2.66-2.25c-.48.31-.97.62-1.45.93-.2.13-.3.11-.43-.09-1.07-1.67-2.13-3.34-3.2-5.01-.04-.05-.06-.12-.1-.2.05-.06.08-.15.15-.19.52-.34,1.04-.67,1.57-1,.16-.1.27-.06.39.14.71,1.12,1.43,2.24,2.14,3.36.34.53.68,1.07,1.02,1.6.15.24.13.33-.1.47Z"/>
  <rect class="cls-1" x="14.49" y="8.33" width=".74" height="2.82" rx=".37" ry=".37"/>
  <rect class="cls-1" x="12" y="8.78" width=".74" height="2.82" rx=".37" ry=".37" transform="translate(-3.3 6.82) rotate(-27.34)"/>
  <rect class="cls-1" x="16.81" y="8.78" width=".74" height="2.82" rx=".37" ry=".37" transform="translate(29.82 25.66) rotate(-159.92)"/>
</svg>