<?xml version="1.0" encoding="UTF-8"?>
<svg id="icones" xmlns="http://www.w3.org/2000/svg" viewBox="0 0 30 30">
  <defs>
    <style>
      .cls-1 {
        fill: #db334f;
      }
    </style>
  </defs>
  <path class="cls-1" d="m7.74,24.38c-.57,0-1.02-.45-1.02-1.02.01-2.75.04-10.37.04-14.64,0-.42.37-.91.95-.91.46,0,.91,0,.97-.01,0-.02.02-.47.03-.94.01-.53.44-.96.98-.96,2.07,0,6.98-.03,9.56-.03.13,0,.25.05.34.15.61.62,1.23,1.24,1.86,1.86.11.1.16.25.16.4,0,1.41,0,2.82,0,4.23,0,.07,0,.14,0,.23.11-.03.18-.05.25-.08.67-.21,1.37-.33,2.07-.31.36,0,.44.08.45.43.01.82-.14,1.6-.41,2.37-.39,1.11-.98,2.1-1.72,3.02-.07.09-.1.21-.07.32.12.48.23.96.35,1.44.06.24.03.31-.17.46-.21.16-.43.3-.64.47-.06.04-.1.13-.1.2-.01.34,0,.67,0,1.01,0,.3-.09.38-.39.38-.45,0-1.46,0-1.54,0,0,.16,0,.38,0,.62,0,.66-.53,1.2-1.19,1.21-2.64.03-8.87.1-10.74.1Zm-.39-15.39v14.27c0,.24.21.44.45.44,5.94,0,9.38,0,10.72,0,.32,0,.58-.26.58-.58,0-.76,0-1.56.02-2.28,0-.27-.06-.46-.31-.61-.24.24-.49.49-.74.74-.15.15-.39.15-.54,0-.6-.6-1.19-1.19-1.79-1.79-.15-.15-.15-.4,0-.55.25-.24.49-.49.74-.73-.15-.22-.3-.34-.57-.31-.43.04-.87.02-1.3.04-.14,0-.27-.03-.31-.17-.03-.1,0-.25.05-.33.66-.94,1.34-1.87,2.01-2.81.1-.14.22-.19.39-.14.45.11,1.62.37,1.62.37l.75-.59s-.03-2.27-.03-3.37c0-.06,0-.12,0-.19-.07,0-.13,0-.19,0-.45,0-.9,0-1.35,0-.25,0-.45-.2-.45-.45,0-.45,0-.9,0-1.35v-.19H7.93c-.32,0-.58.26-.58.58Zm1.94-1.17c.09,0,.16,0,.24,0,2.57,0,5.14,0,7.71,0,.18,0,.34.07.47.2.59.6,1.19,1.2,1.8,1.8.11.11.18.26.18.42,0,1.07,0,2.14,0,3.21,0,.07,0,.13,0,.2.41-.21.8-.41,1.2-.6.09-.04.15-.14.15-.24,0-1.38,0-2.77,0-4.15,0-.06,0-.11-.01-.18-.56,0-1.1,0-1.64,0-.24,0-.34-.1-.34-.34,0-.28,0-.55,0-.83,0-.27,0-.54,0-.81-2.18,0-7.81.05-9.34.06-.25,0-.39.18-.39.4,0,.35-.01.82-.01.89Zm7.42,9.41c.94.95,1.85,1.86,2.77,2.77.03-.02.07-.05.11-.07.85-.62,1.6-1.33,2.25-2.15.88-1.11,1.56-2.33,1.85-3.73.08-.36.1-.73.15-1.12-.11,0-.18,0-.24,0-.71.02-1.39.2-2.05.45-1.55.61-2.85,1.58-3.97,2.81-.31.34-.58.7-.86,1.04Zm2.99,4.35c.74-.53,1.46-1.04,2.17-1.56.03-.02.06-.08.05-.12-.08-.34-.16-.69-.24-1.03-.03.01-.04.01-.05.02-.57.59-1.18,1.13-1.85,1.61-.04.03-.08.1-.08.15,0,.3,0,.6,0,.94Zm-4.54-4.56c.3,0,.59,0,.87,0,.11,0,.17-.04.24-.12.48-.57,1.58-1.75,1.63-1.79-.02-.02-.03-.05-.05-.07-.32-.08-.64-.15-.96-.23-.11-.03-.16,0-.22.09-.48.67-.96,1.34-1.44,2.01-.02.03-.04.07-.07.11Zm1.76,1.33c-.2.19-.4.39-.57.55.49.49.99.99,1.47,1.47.18-.18.38-.37.57-.56-.49-.49-.98-.98-1.46-1.46Zm1.68-8.53c-.3-.3-.62-.62-.92-.92v.92h.92Zm1.95-1.94c-.31-.31-.62-.62-.92-.92v.92h.92Zm-.18,13.98h.66v-.51c-.24.17-.66.5-.66.51Z"/>
  <path class="cls-1" d="m10.05,13.16c-.33,0-.66,0-.99,0-.25,0-.35-.1-.35-.35,0-.66,0-1.32,0-1.98,0-.24.1-.34.34-.34.67,0,1.33,0,2,0,.22,0,.33.11.33.33,0,.67,0,1.35,0,2.02,0,.21-.11.32-.32.32-.34,0-.67,0-1.01,0Zm-.75-2.09v1.5h1.5v-1.5h-1.5Z"/>
  <path class="cls-1" d="m11.44,14.78c.77,0,.7,0,1.47,0,.05,0,.11,0,.16,0,.15.03.23.13.23.28,0,.15-.08.25-.23.28-.05.01-.11,0-.16,0-1.55,0-2.26,0-3.82,0-.03,0-.06,0-.09,0-.18-.01-.3-.13-.3-.3,0-.16.12-.27.29-.28.11,0,.22,0,.33,0,.7,0,1.41,0,2.11,0Z"/>
  <path class="cls-1" d="m11.41,19.66c-.79,0-1.58,0-2.37,0-.2,0-.32-.09-.33-.26-.02-.17.09-.3.27-.32.11,0,.22,0,.33,0,1.46,0,1.79,0,3.25,0,.05,0,.11,0,.16,0,.17.02.28.13.28.29,0,.16-.11.28-.29.28-.3,0,.24,0-.06,0-.51,0-.73,0-1.24,0Z"/>
  <path class="cls-1" d="m11.43,21.24c.78,0,.41,0,1.19,0,.1,0,.22.03.29.1.15.14.08.39-.12.45-.08.02-.17.03-.25.03-1.51,0-1.88,0-3.39,0-.07,0-.13,0-.2-.01-.16-.03-.26-.15-.24-.31.02-.16.12-.25.28-.25.14,0,.28,0,.42,0,.67,0,1.35,0,2.02,0Z"/>
  <path class="cls-1" d="m10.85,17.51c-.58,0-1.15,0-1.73,0-.07,0-.15,0-.21-.02-.14-.04-.2-.14-.19-.29,0-.14.08-.22.22-.25.06-.01.13-.01.2-.01,1.15,0,2.31,0,3.46,0,.01,0,.02,0,.04,0,.24,0,.38.11.38.29,0,.18-.14.29-.38.29-.59,0-1.18,0-1.77,0Z"/>
  <path class="cls-1" d="m20.34,16.99c-.75,0-1.33-.59-1.32-1.33,0-.73.61-1.32,1.35-1.32.73,0,1.31.59,1.31,1.33,0,.75-.58,1.32-1.33,1.32Zm0-2.06c-.42,0-.75.33-.75.74,0,.42.33.76.75.76.41,0,.74-.33.75-.74,0-.42-.33-.76-.75-.76Z"/>
  <rect class="cls-1" x="14.43" y="20.86" width="1.98" height=".58" rx=".29" ry=".29" transform="translate(-10.44 17.09) rotate(-45)"/>
  <rect class="cls-1" x="14.25" y="19.93" width="1.33" height=".58" rx=".29" ry=".29" transform="translate(-9.93 16.47) rotate(-45)"/>
  <rect class="cls-1" x="15.68" y="21.42" width="1.34" height=".58" rx=".29" ry=".29" transform="translate(-10.56 17.92) rotate(-45)"/>
</svg>