<?xml version="1.0" encoding="UTF-8"?>
<svg id="icones" xmlns="http://www.w3.org/2000/svg" viewBox="0 0 30 30">
  <defs>
    <style>
      .cls-1 {
        fill: #db334f;
      }
    </style>
  </defs>
  <path class="cls-1" d="m8.95,4.46c3.99,0,7.99,0,11.98,0,.02.01.05.03.07.03,1.16.22,1.97,1.04,2.17,2.2.02.14.03.28.04.43.13,0,.23,0,.33,0,1.02-.06,1.72.76,1.71,1.71-.02,4.12,0,8.23,0,12.35,0,1.03-.65,1.68-1.68,1.69-.12,0-.24,0-.36,0,0,.1-.01.16-.01.22-.07,1.33-1.22,2.44-2.55,2.45-3.8,0-7.6,0-11.4,0-1.17,0-2.19-.81-2.48-1.95-.05-.2-.07-.4-.11-.61-.23,0-.46,0-.68,0-.37,0-.69-.11-.93-.4-.31-.36-.38-.77-.2-1.21.2-.46.57-.69,1.06-.71.25-.01.5,0,.76,0v-2.23c-.22,0-.43,0-.63,0-.15,0-.3,0-.45-.05-.55-.15-.89-.67-.83-1.24.06-.55.53-1,1.09-1.02.27-.01.54,0,.81,0v-2.23c-.25,0-.49.02-.72,0-.2-.02-.41-.06-.59-.14-.47-.23-.7-.77-.58-1.27.13-.52.56-.88,1.09-.89.26,0,.53,0,.8,0v-2.23c-.26,0-.5,0-.75,0-.81-.02-1.35-.75-1.12-1.5.15-.49.59-.81,1.16-.82.24,0,.47,0,.72,0,0-.07,0-.1.01-.13.08-.92.51-1.63,1.31-2.08.29-.16.64-.24.96-.35Zm2.06,20.45c.07,0,.13,0,.18,0,3.14,0,6.27,0,9.41,0,.18,0,.36-.02.53-.07.91-.25,1.46-1,1.46-1.99,0-.34,0-.69,0-1.03,0-.2.13-.31.31-.31.18,0,.29.12.3.32,0,.13,0,.27,0,.42.17,0,.31,0,.46,0,.57-.01.97-.41.97-.97,0-.64,0-1.29,0-1.93,0-.04-.01-.08-.02-.15-.42.34-.91.31-1.41.32,0,.25,0,.48,0,.7,0,.18-.13.3-.3.3-.17,0-.29-.09-.31-.27-.01-.08,0-.16,0-.25,0-4.25,0-8.49,0-12.74,0-.18,0-.37-.03-.55-.19-.96-.98-1.61-1.97-1.62-3.12,0-6.24,0-9.36,0-.06,0-.12,0-.2,0,0,.09,0,.16,0,.23,0,.69,0,1.37,0,2.06,0,.25-.15.38-.37.34-.19-.04-.24-.17-.24-.35,0-.69,0-1.37,0-2.06,0-.07,0-.15,0-.23-.4,0-.78,0-1.16,0-.38,0-.73.11-1.05.32-.56.38-.86.91-.9,1.62.1,0,.18,0,.26,0,.23,0,.47,0,.7.02.65.08,1.09.73.95,1.37-.12.56-.57.92-1.17.93-.24,0-.49,0-.73,0v2.23c.2,0,.38,0,.57,0,.15,0,.31,0,.45.03.57.12.96.65.91,1.23-.05.58-.53,1.04-1.12,1.06-.27,0-.53,0-.8,0v2.22c.11,0,.21,0,.3,0,.25.01.5,0,.74.04.56.11.94.65.89,1.22-.05.58-.53,1.03-1.11,1.05-.27,0-.54,0-.81,0v2.23c.27,0,.53,0,.78,0,.6.02,1.06.44,1.14,1.02.07.55-.28,1.09-.83,1.24-.18.05-.38.05-.57.06-.17,0-.35,0-.52,0-.02.83.59,1.68,1.4,1.85.54.11,1.11.09,1.68.14v-.33c0-5.13,0-10.26,0-15.39,0-.08,0-.17,0-.25.03-.17.15-.26.33-.25.16.01.27.1.28.27,0,.08,0,.15,0,.23,0,5.13,0,10.26,0,15.39v.27Zm12.2-12.81c.14,0,.26,0,.38,0,.66,0,1.04-.4,1.04-1.06,0-.75,0-1.51,0-2.26,0-.1,0-.21-.03-.31-.14-.58-.71-.87-1.4-.7v4.33Zm0,3.42c.16,0,.3,0,.45,0,.58-.01.97-.42.98-1,0-.58,0-1.15,0-1.73,0-.12,0-.24,0-.41-.44.35-.93.34-1.42.33v2.8Zm0,.62v.25c0,.67,0,1.34,0,2.01q0,.51.5.48c.55-.04.92-.42.93-.98,0-.54,0-1.08,0-1.62,0-.14,0-.28,0-.46-.44.33-.92.34-1.43.32ZM7.01,8.73s0,0,0,0c.33,0,.66,0,.99,0,.13,0,.27-.04.39-.1.2-.11.28-.36.21-.57-.07-.26-.27-.4-.58-.4-.69,0-1.37,0-2.06,0-.12,0-.25.04-.35.09-.2.11-.29.37-.23.59.07.24.26.39.54.4.36,0,.73,0,1.09,0Zm-.01,12.53c-.34,0-.69,0-1.03,0-.36,0-.6.22-.6.54,0,.32.23.54.59.55.69,0,1.37,0,2.06,0,.36,0,.6-.22.6-.54,0-.32-.24-.54-.61-.55-.34,0-.67,0-1.01,0Zm-.01-8c.34,0,.69,0,1.03,0,.36,0,.6-.22.6-.53,0-.32-.24-.54-.59-.54-.69,0-1.38,0-2.08,0-.35,0-.58.22-.58.53,0,.32.23.54.59.55.34,0,.69,0,1.03,0Zm0,4.54c.35,0,.7,0,1.05,0,.35,0,.58-.22.58-.53,0-.31-.24-.54-.58-.54-.7,0-1.4,0-2.1,0-.34,0-.58.22-.58.54,0,.31.23.53.57.54.35,0,.7,0,1.05,0Z"/>
  <path class="cls-1" d="m16.61,9.75c.99,0,1.98,0,2.96,0,.05,0,.11,0,.16,0,.16.02.25.12.24.28,0,.16-.09.25-.25.25-.18,0-.36,0-.54,0-1.87,0-3.74,0-5.6,0-.15,0-.28-.01-.34-.18-.07-.21.06-.36.31-.36.9,0,1.81,0,2.71,0,.11,0,.23,0,.34,0Z"/>
  <path class="cls-1" d="m15.52,12.08c-.66,0-1.31,0-1.97,0-.21,0-.3-.08-.31-.25-.01-.16.07-.26.23-.29.06,0,.12,0,.18,0,1.25,0,2.49,0,3.74,0,.05,0,.1,0,.14,0,.18.02.27.11.27.28,0,.17-.09.26-.28.26-.6,0-1.2,0-1.81,0-.07,0-.13,0-.2,0Z"/>
  <path class="cls-1" d="m20.05,23.61c-.04-.18-.1-.35-.16-.51-.17-.53-.5-.91-1.05-1.09-.33-.11-.65-.27-.98-.4-.43-.18-.42-.18-.47-.64-.01-.13.03-.21.1-.32.2-.28.37-.58.56-.87.04-.06.08-.13.14-.16.47-.31.73-1.01.55-1.5-.03-.08-.03-.18-.03-.26,0-.39.06-.78.01-1.16-.11-.87-.6-1.47-1.47-1.71-.66-.18-1.35-.21-2.03-.15-.2.02-.4.08-.6.12-.22.05-.33.19-.35.41,0,.11-.06.17-.14.23-.25.19-.44.43-.57.72-.2.42-.22.87-.18,1.32,0,.1,0,.18-.09.26-.08.08-.15.2-.18.32-.14.46.14,1.13.56,1.41.07.04.12.12.16.19.18.29.32.61.54.86.19.22.18.42.11.65-.02.06-.08.13-.14.16-.42.18-.85.36-1.28.52-.51.19-.92.59-1.09,1.1-.23.68-.29,1.38-.32,2.09,0,.19.14.35.34.35,2.24,0,6.51,0,7.86,0,.23,0,.4-.2.38-.42-.05-.47-.13-1.2-.2-1.51Zm-2.1-4.46c-.08-.3-.09-.56.09-.79.04-.05.1-.07.15-.1.03.06.08.12.08.18,0,.28-.12.5-.33.72Zm-4,0c-.2-.22-.33-.44-.33-.71,0-.07.05-.13.08-.2.06.04.13.07.17.13.16.23.16.48.08.78Zm.09-1.31c-.05-.08-.11-.12-.1-.16.02-.33.02-.66.08-.98.06-.32.26-.57.54-.74.16-.1.25-.22.25-.41,0-.09.05-.12.13-.13.22-.03.44-.08.66-.08.43,0,.86.03,1.28.09.78.11,1.25.6,1.35,1.38.03.24,0,.48.01.73,0,.13-.05.18-.18.19-.06,0-.11.03-.19.06,0-.15,0-.29,0-.44-.01-.34-.15-.44-.54-.39s-.81.06-1.18-.09-.72-.35-1.06-.54c-.2-.11-.45-.04-.54.16-.17.37-.29.76-.44,1.15-.02.05-.03.1-.06.2Zm.32,1.78s-.02-.1,0-.13c.17-.22.23-.47.17-.72-.12-.53.05-.99.23-1.46.05-.14.1-.27.17-.44.72.49,1.5.74,2.38.61,0,.2,0,.37,0,.53.01.34.02.68.06,1.02.02.15.1.28.14.42.01.05.04.11.02.14-.23.5-.56.92-1.06,1.18-.44.23-.94.19-1.34-.12-.36-.28-.6-.64-.79-1.05Zm2.47,2.14c-.27.41-.52.85-.78,1.27-.03.05-.06.09-.1.15-.06-.09-.11-.17-.16-.25-.22-.36-.43-.71-.65-1.07q-.16-.27-.07-.61c.62.31,1.21.26,1.81-.07.05.21.08.38-.05.57Zm1.73,3.22c0-.25,0-.49,0-.73,0-.06,0-.13,0-.19,0-.17-.12-.29-.27-.28-.15,0-.25.12-.26.28,0,.27,0,.53,0,.8,0,.04,0,.08,0,.13h-4.15c0-.31,0-.62,0-.92,0-.15-.1-.27-.24-.28-.13,0-.23.05-.27.18-.02.06-.02.12-.02.18,0,.23,0,.45,0,.68,0,.05,0,.11,0,.17h-1.12c.02-.25.03-.49.08-.73.06-.35.14-.7.23-1.04.09-.32.35-.57.66-.69.46-.17.92-.37,1.39-.57h0c.37.61.74,1.21,1.11,1.82.15.25.4.25.55,0,.33-.55.66-1.09.99-1.64.03-.06.07-.11.11-.18.06.02.11.04.17.06.4.16.8.33,1.2.49.29.11.53.33.65.62.19.48.26.98.31,1.49.01.12.02.24.03.37h-1.13Z"/>
</svg>