<?xml version="1.0" encoding="UTF-8"?>
<svg id="icones" xmlns="http://www.w3.org/2000/svg" viewBox="0 0 30 30">
  <defs>
    <style>
      .cls-1 {
        fill: #db334f;
      }
    </style>
  </defs>
  <path class="cls-1" d="m8.95,4.46c3.99,0,7.99,0,11.98,0,.02.01.05.03.07.03,1.16.22,1.97,1.04,2.17,2.2.02.14.03.28.04.43.13,0,.23,0,.33,0,1.02-.06,1.72.76,1.71,1.71-.02,4.12,0,8.23,0,12.35,0,1.03-.65,1.68-1.68,1.69-.12,0-.24,0-.36,0,0,.1-.01.16-.01.22-.07,1.33-1.22,2.44-2.55,2.45-3.8,0-7.6,0-11.4,0-1.17,0-2.19-.81-2.48-1.95-.05-.2-.07-.4-.11-.61-.23,0-.46,0-.68,0-.37,0-.69-.11-.93-.4-.31-.36-.38-.77-.2-1.21.2-.46.57-.69,1.06-.71.25-.01.5,0,.76,0v-2.23c-.22,0-.43,0-.63,0-.15,0-.3,0-.45-.05-.55-.15-.89-.67-.83-1.24.06-.55.53-1,1.09-1.02.27-.01.54,0,.81,0v-2.23c-.25,0-.49.02-.72,0-.2-.02-.41-.06-.59-.14-.47-.23-.7-.77-.58-1.27.13-.52.56-.88,1.09-.89.26,0,.53,0,.8,0v-2.23c-.26,0-.5,0-.75,0-.81-.02-1.35-.75-1.12-1.5.15-.49.59-.81,1.16-.82.24,0,.47,0,.72,0,0-.07,0-.1.01-.13.08-.92.51-1.63,1.31-2.08.29-.16.64-.24.96-.35Zm2.06,20.45c.07,0,.13,0,.18,0,3.14,0,6.27,0,9.41,0,.18,0,.36-.02.53-.07.91-.25,1.46-1,1.46-1.99,0-.34,0-.69,0-1.03,0-.2.13-.31.31-.31.18,0,.29.12.3.32,0,.13,0,.27,0,.42.17,0,.31,0,.46,0,.57-.01.97-.41.97-.97,0-.64,0-1.29,0-1.93,0-.04-.01-.08-.02-.15-.42.34-.91.31-1.41.32,0,.25,0,.48,0,.7,0,.18-.13.3-.3.3-.17,0-.29-.09-.31-.27-.01-.08,0-.16,0-.25,0-4.25,0-8.49,0-12.74,0-.18,0-.37-.03-.55-.19-.96-.98-1.61-1.97-1.62-3.12,0-6.24,0-9.36,0-.06,0-.12,0-.2,0,0,.09,0,.16,0,.23,0,.69,0,1.37,0,2.06,0,.25-.15.38-.37.34-.19-.04-.24-.17-.24-.35,0-.69,0-1.37,0-2.06,0-.07,0-.15,0-.23-.4,0-.78,0-1.16,0-.38,0-.73.11-1.05.32-.56.38-.86.91-.9,1.62.1,0,.18,0,.26,0,.23,0,.47,0,.7.02.65.08,1.09.73.95,1.37-.12.56-.57.92-1.17.93-.24,0-.49,0-.73,0v2.23c.2,0,.38,0,.57,0,.15,0,.31,0,.45.03.57.12.96.65.91,1.23-.05.58-.53,1.04-1.12,1.06-.27,0-.53,0-.8,0v2.22c.11,0,.21,0,.3,0,.25.01.5,0,.74.04.56.11.94.65.89,1.22-.05.58-.53,1.03-1.11,1.05-.27,0-.54,0-.81,0v2.23c.27,0,.53,0,.78,0,.6.02,1.06.44,1.14,1.02.07.55-.28,1.09-.83,1.24-.18.05-.38.05-.57.06-.17,0-.35,0-.52,0-.02.83.59,1.68,1.4,1.85.54.11,1.11.09,1.68.14v-.33c0-5.13,0-10.26,0-15.39,0-.08,0-.17,0-.25.03-.17.15-.26.33-.25.16.01.27.1.28.27,0,.08,0,.15,0,.23,0,5.13,0,10.26,0,15.39v.27Zm12.2-12.81c.14,0,.26,0,.38,0,.66,0,1.04-.4,1.04-1.06,0-.75,0-1.51,0-2.26,0-.1,0-.21-.03-.31-.14-.58-.71-.87-1.4-.7v4.33Zm0,3.42c.16,0,.3,0,.45,0,.58-.01.97-.42.98-1,0-.58,0-1.15,0-1.73,0-.12,0-.24,0-.41-.44.35-.93.34-1.42.33v2.8Zm0,.62v.25c0,.67,0,1.34,0,2.01q0,.51.5.48c.55-.04.92-.42.93-.98,0-.54,0-1.08,0-1.62,0-.14,0-.28,0-.46-.44.33-.92.34-1.43.32ZM7.01,8.73s0,0,0,0c.33,0,.66,0,.99,0,.13,0,.27-.04.39-.1.2-.11.28-.36.21-.57-.07-.26-.27-.4-.58-.4-.69,0-1.37,0-2.06,0-.12,0-.25.04-.35.09-.2.11-.29.37-.23.59.07.24.26.39.54.4.36,0,.73,0,1.09,0Zm-.01,12.53c-.34,0-.69,0-1.03,0-.36,0-.6.22-.6.54,0,.32.23.54.59.55.69,0,1.37,0,2.06,0,.36,0,.6-.22.6-.54,0-.32-.24-.54-.61-.55-.34,0-.67,0-1.01,0Zm-.01-8c.34,0,.69,0,1.03,0,.36,0,.6-.22.6-.53,0-.32-.24-.54-.59-.54-.69,0-1.38,0-2.08,0-.35,0-.58.22-.58.53,0,.32.23.54.59.55.34,0,.69,0,1.03,0Zm0,4.54c.35,0,.7,0,1.05,0,.35,0,.58-.22.58-.53,0-.31-.24-.54-.58-.54-.7,0-1.4,0-2.1,0-.34,0-.58.22-.58.54,0,.31.23.53.57.54.35,0,.7,0,1.05,0Z"/>
  <path class="cls-1" d="m16.65,9.55c.99,0,1.98,0,2.96,0,.05,0,.11,0,.16,0,.16.02.25.12.24.28,0,.16-.09.25-.25.25-.18,0-.36,0-.54,0-1.87,0-3.74,0-5.6,0-.15,0-.28-.01-.34-.18-.07-.21.06-.36.31-.36.9,0,1.81,0,2.71,0,.11,0,.23,0,.34,0Z"/>
  <path class="cls-1" d="m15.55,11.88c-.66,0-1.31,0-1.97,0-.21,0-.3-.08-.31-.25-.01-.16.07-.26.23-.29.06,0,.12,0,.18,0,1.25,0,2.49,0,3.74,0,.05,0,.1,0,.14,0,.18.02.27.11.27.28,0,.17-.09.26-.28.26-.6,0-1.2,0-1.81,0-.07,0-.13,0-.2,0Z"/>
  <path class="cls-1" d="m20.33,22.29c-.1-.43-.42-.73-.78-.98-.05-.03-.09-.08-.12-.12-.47-.56-.62-1.18-.33-1.87.28-.67.33-1.36.24-2.07-.2-1.52-1.37-2.66-2.88-2.75-.7-.04-1.32.17-1.71.81-.02.03-.05.06-.08.08-.32.2-.52.49-.64.84-.36,1.08-.28,2.15.07,3.21.03.1.05.2.06.31.03.45-.08.88-.27,1.28-.04.09-.12.17-.21.22-.29.16-.52.38-.65.68-.08.19-.15.4-.21.6-.07.24-.46,1.61-.69,2.42-.08.29.13.58.44.58,1.32,0,6.33,0,7.97,0,.27,0,.47-.25.41-.51-.18-.8-.53-2.28-.63-2.73Zm-5.79-5.83c.09-.28.23-.52.52-.65.05-.02.1-.08.12-.13.21-.46.61-.62,1.08-.64,1.05-.03,2.01.63,2.37,1.65.28.77.29,1.56-.02,2.33-.22.54-.3,1.09-.11,1.65.03.09.06.17.07.31-.22-.08-.44-.16-.66-.26-.15-.07-.19-.22-.24-.36-.09-.27-.13-.52.1-.74.06-.06.09-.15.13-.23.05-.1.1-.19.22-.23.07-.02.14-.11.16-.18.11-.31.21-.62.29-.94.02-.09-.03-.22-.09-.29-.08-.08-.09-.16-.1-.27-.02-.26-.03-.53-.07-.78-.03-.22-.13-.3-.35-.28-.25.02-.5.08-.74.14-.64.15-1.18,0-1.65-.45-.1-.1-.21-.17-.36-.11-.15.06-.17.18-.19.32-.05.39-.11.77-.18,1.16,0,.06-.07.12-.12.15-.16.08-.26.21-.22.38.08.34.18.66.28,1,.01.04.06.1.09.11.21.05.23.25.34.38.2.24.15.5.13.78-.03.4-.25.55-.59.62-.07.01-.15.03-.22.05.05-.28.11-.54.15-.81.04-.35,0-.68-.12-1.02-.28-.87-.33-1.77-.05-2.66Zm2.96,2.49c-.14.21-.26.43-.4.63-.06.09-.16.15-.26.21-.23.15-.45.14-.67-.03-.24-.19-.41-.42-.54-.7-.09-.19-.14-.41-.39-.49-.06-.02-.13-.24-.09-.29.21-.26.21-.58.28-.88.05-.19.07-.38.11-.61.35.23.71.36,1.1.35.38-.01.76-.07,1.19-.12,0,.29,0,.6,0,.91,0,.08,0,.17.05.24.11.19.06.32-.12.44-.11.07-.18.21-.26.33Zm-1.24,5.82v.19h-1.86c0-.17,0-.34,0-.51,0-.14,0-.28,0-.42,0-.19-.11-.32-.27-.32-.17,0-.28.12-.28.32,0,.25,0,.5,0,.76,0,.05,0,.11,0,.17h-1.05c.06-.25.1-.49.17-.73.17-.65.36-1.3.53-1.96.08-.29.27-.48.54-.58.26-.1.53-.16.8-.25.22-.07.43-.14.68-.21.15.3.28.63.48.92.25.36.31.74.29,1.17-.02.48,0,.96,0,1.44Zm-.38-4.01c-.06-.13.02-.32.03-.52.39.24.77.28,1.15.04.12.23.13.43-.01.65-.2.31-.37.64-.56.98-.22-.4-.44-.77-.61-1.16Zm3.37,4.21c0-.27,0-.52,0-.77,0-.07,0-.13,0-.2-.01-.17-.12-.28-.27-.28-.16,0-.28.12-.28.29,0,.26,0,.53,0,.79,0,.05,0,.11,0,.17h-1.86c0-.06,0-.11,0-.17,0-.73,0-1.47,0-2.2,0-.08.02-.18.06-.25.22-.4.44-.79.64-1.15.46.14.89.29,1.34.41.54.16.86.5.98,1.05.16.73.36,1.45.54,2.18,0,.04.01.07.02.12h-1.16Z"/>
</svg>