<?xml version="1.0" encoding="utf-8"?>
<!-- Generator: Adobe Illustrator 27.5.0, SVG Export Plug-In . SVG Version: 6.00 Build 0)  -->
<svg version="1.1" id="Camada_1" xmlns="http://www.w3.org/2000/svg" xmlns:xlink="http://www.w3.org/1999/xlink" x="0px" y="0px"
	 viewBox="0 0 30 30" style="enable-background:new 0 0 30 30;" xml:space="preserve">
<style type="text/css">
	.st0{fill:#DB334F;}
	.st1{fill:none;}
</style>
<g>
	<path class="st0" d="M27.78,17.11L2.03,10.56c-0.21-0.05-0.34-0.27-0.29-0.48l0,0C1.8,9.87,2.01,9.74,2.22,9.79l25.75,6.55
		c0.21,0.05,0.34,0.27,0.29,0.48v0C28.2,17.04,27.99,17.16,27.78,17.11z"/>
	<path class="st0" d="M13.98,25.24c-1.91,0-3.82,0-5.73,0c-0.52,0-0.67-0.27-0.42-0.71c1.92-3.32,3.83-6.64,5.75-9.96
		c0.26-0.45,0.57-0.45,0.82,0c1.92,3.32,3.83,6.64,5.75,9.96c0.26,0.44,0.1,0.71-0.42,0.71C17.81,25.24,15.89,25.24,13.98,25.24z
		 M13.99,15.41c-1.75,3.04-3.48,6.04-5.21,9.04c3.49,0,6.94,0,10.42,0C17.46,21.43,15.74,18.44,13.99,15.41z"/>
	<g>
		<g>
			<path class="st0" d="M7.61,9.75c-1.38,0-2.5-1.12-2.5-2.5s1.12-2.5,2.5-2.5s2.5,1.12,2.5,2.5S8.98,9.75,7.61,9.75z M7.61,5.41
				c-1.02,0-1.85,0.83-1.85,1.85S6.59,9.1,7.61,9.1s1.85-0.83,1.85-1.85S8.62,5.41,7.61,5.41z"/>
		</g>
		<g>
			<g>
				<path class="st0" d="M7.63,8.23c-0.19,0-0.35-0.03-0.47-0.08C7.04,8.11,6.94,8.03,6.88,7.93c-0.06-0.1-0.09-0.22-0.09-0.36V7.53
					h0.43v0.03c0,0.07,0.01,0.13,0.03,0.17C7.28,7.77,7.32,7.8,7.38,7.81c0.06,0.02,0.15,0.02,0.27,0.02c0.12,0,0.21-0.01,0.25-0.04
					c0.04-0.03,0.06-0.07,0.06-0.14c0-0.04-0.01-0.08-0.02-0.11C7.93,7.52,7.9,7.5,7.86,7.48c-0.04-0.02-0.11-0.03-0.2-0.05
					L7.31,7.37c-0.12-0.02-0.23-0.06-0.3-0.11C6.93,7.21,6.87,7.15,6.84,7.08C6.8,7,6.78,6.91,6.78,6.81s0.03-0.2,0.08-0.29
					S7,6.36,7.11,6.31c0.12-0.06,0.27-0.09,0.45-0.09c0.19,0,0.34,0.03,0.45,0.09s0.2,0.14,0.26,0.24c0.05,0.1,0.08,0.22,0.08,0.35
					v0.02H7.92V6.89c0-0.07-0.01-0.12-0.03-0.16C7.87,6.69,7.83,6.66,7.78,6.64C7.72,6.63,7.65,6.62,7.55,6.62
					c-0.12,0-0.21,0.01-0.26,0.04C7.24,6.69,7.22,6.73,7.22,6.8c0,0.04,0.01,0.07,0.02,0.1c0.02,0.02,0.04,0.04,0.08,0.06
					c0.04,0.01,0.1,0.03,0.17,0.04l0.35,0.07c0.14,0.03,0.24,0.07,0.33,0.12c0.08,0.06,0.14,0.12,0.17,0.2
					C8.38,7.46,8.4,7.55,8.4,7.64c0,0.1-0.03,0.2-0.08,0.29C8.27,8.02,8.19,8.09,8.08,8.15S7.82,8.23,7.63,8.23z M7.79,6.43H7.39
					V5.96h0.41V6.43z M7.79,8.5H7.39V8.02h0.41V8.5z"/>
			</g>
		</g>
	</g>
	<g>
		<g>
			<g>
				<path class="st0" d="M21.2,11.03c-0.3,0-0.55-0.04-0.75-0.12c-0.2-0.08-0.34-0.2-0.44-0.36c-0.1-0.16-0.14-0.35-0.14-0.58V9.92
					h0.68v0.05c0,0.11,0.02,0.2,0.06,0.27c0.04,0.06,0.1,0.11,0.2,0.13s0.24,0.04,0.43,0.04c0.2,0,0.33-0.02,0.39-0.06
					c0.06-0.04,0.1-0.12,0.1-0.22c0-0.07-0.01-0.13-0.03-0.17c-0.02-0.04-0.06-0.08-0.13-0.11s-0.17-0.05-0.32-0.08l-0.54-0.1
					c-0.2-0.03-0.36-0.09-0.48-0.17c-0.12-0.08-0.22-0.18-0.27-0.3s-0.09-0.26-0.09-0.42s0.04-0.31,0.12-0.45
					c0.08-0.14,0.21-0.26,0.4-0.35c0.18-0.09,0.42-0.14,0.71-0.14c0.3,0,0.53,0.05,0.72,0.14c0.18,0.09,0.32,0.22,0.4,0.38
					c0.09,0.16,0.13,0.35,0.13,0.55v0.04h-0.68V8.9c0-0.11-0.02-0.19-0.05-0.25c-0.03-0.06-0.09-0.11-0.18-0.13
					c-0.09-0.03-0.21-0.04-0.36-0.04c-0.2,0-0.33,0.02-0.41,0.07c-0.08,0.04-0.11,0.12-0.11,0.21c0,0.06,0.01,0.12,0.04,0.15
					C20.6,8.95,20.65,8.98,20.71,9c0.06,0.02,0.15,0.04,0.27,0.07l0.55,0.11c0.22,0.04,0.39,0.1,0.51,0.19s0.22,0.19,0.27,0.32
					s0.08,0.26,0.08,0.41c0,0.16-0.04,0.32-0.12,0.46c-0.08,0.14-0.21,0.26-0.38,0.35S21.49,11.03,21.2,11.03z M21.45,8.18h-0.64
					V7.43h0.64V8.18z M21.45,11.44h-0.64v-0.75h0.64V11.44z"/>
			</g>
		</g>
		<g>
			<path class="st0" d="M21.2,13.25c-2.11,0-3.83-1.72-3.83-3.83c0-2.11,1.72-3.83,3.83-3.83s3.83,1.72,3.83,3.83
				C25.03,11.53,23.32,13.25,21.2,13.25z M21.2,6.34c-1.7,0-3.08,1.38-3.08,3.08c0,1.7,1.38,3.08,3.08,3.08s3.08-1.38,3.08-3.08
				C24.28,7.72,22.9,6.34,21.2,6.34z"/>
		</g>
	</g>
</g>
</svg>
