<?xml version="1.0" standalone="no"?>
<!DOCTYPE svg PUBLIC "-//W3C//DTD SVG 20010904//EN"
 "http://www.w3.org/TR/2001/REC-SVG-20010904/DTD/svg10.dtd">
<svg version="1.0" xmlns="http://www.w3.org/2000/svg"
 width="512.000000pt" height="512.000000pt" viewBox="0 0 512.000000 512.000000"
 preserveAspectRatio="xMidYMid meet">

<g transform="translate(0.000000,512.000000) scale(0.100000,-0.100000)"
fill="#000000" stroke="none">
<path d="M1010 5109 c-244 -21 -389 -78 -513 -200 -52 -52 -77 -87 -106 -151
-66 -140 -73 -191 -78 -549 l-5 -317 -86 -4 c-99 -5 -143 -26 -190 -95 l-27
-38 0 -476 0 -475 28 -42 c45 -69 92 -93 191 -99 l85 -6 3 -936 3 -936 22 -54
c12 -29 33 -70 47 -91 23 -36 25 -45 28 -226 3 -177 5 -192 27 -237 33 -64 85
-115 151 -146 54 -26 58 -26 313 -29 296 -3 333 3 414 66 27 22 61 62 78 93
25 47 30 67 33 151 l4 98 1128 0 1128 0 4 -97 c3 -85 8 -105 33 -152 36 -66
108 -125 177 -146 66 -19 517 -22 582 -3 84 24 155 85 197 166 22 44 24 59 27
236 3 181 5 190 28 226 14 21 35 62 47 91 l22 54 3 936 3 936 85 6 c99 6 146
30 191 99 l28 42 0 475 0 476 -27 38 c-47 69 -90 90 -190 95 l-88 4 0 242 c0
454 -45 645 -190 799 -68 73 -152 122 -270 159 l-75 23 -1585 1 c-872 1 -1628
-2 -1680 -7z m3156 -198 c241 -20 350 -106 404 -316 38 -149 41 -321 38 -2075
l-3 -1685 -21 -45 c-29 -60 -68 -95 -139 -124 -131 -52 -83 -51 -1885 -51
-1802 0 -1754 -1 -1885 51 -73 30 -119 73 -142 133 -17 43 -18 151 -18 1856 0
1681 1 1816 17 1888 57 253 202 347 563 367 196 10 2948 11 3071 1z m-3858
-1634 l2 -408 -52 3 -53 3 -3 395 c-1 217 0 401 3 408 3 9 20 12 52 10 l48 -3
3 -408z m4607 3 l0 -405 -52 -3 -53 -3 0 404 c0 222 3 407 7 411 4 4 28 6 53
4 l45 -3 0 -405z m-4180 -2845 c47 -11 141 -18 283 -22 l212 -6 0 -61 c0 -72
-25 -121 -67 -133 -15 -5 -130 -8 -255 -8 l-228 0 -31 32 c-30 30 -32 36 -37
129 l-5 97 29 -6 c16 -3 61 -14 99 -22z m3773 -71 c-5 -91 -7 -97 -37 -127
l-31 -32 -228 0 c-125 0 -240 3 -255 8 -42 12 -67 61 -67 135 l0 62 158 0
c165 0 295 12 377 35 92 25 88 28 83 -81z"/>
<path d="M1475 4803 c-34 -9 -86 -50 -113 -90 -27 -37 -27 -41 -27 -203 0
-156 1 -167 24 -207 14 -24 43 -55 65 -70 l41 -28 1145 0 1145 0 38 27 c22 14
51 43 65 65 27 38 27 40 27 210 l0 171 -30 43 c-16 23 -50 53 -74 66 l-44 23
-1121 -1 c-617 -1 -1130 -4 -1141 -6z m2210 -298 l0 -100 -1072 -3 -1073 -2 0
105 0 105 1073 -2 1072 -3 0 -100z"/>
<path d="M1046 4089 c-138 -18 -248 -98 -297 -215 l-24 -59 -3 -710 c-2 -521
0 -725 9 -765 32 -150 128 -246 279 -280 43 -9 391 -11 1550 -8 l1495 5 59 22
c121 43 201 113 254 221 l27 55 0 725 0 725 -24 63 c-30 79 -99 153 -173 187
-30 13 -90 29 -138 34 -105 14 -2912 13 -3014 0z m3074 -224 c19 -12 44 -38
55 -60 19 -39 20 -60 20 -721 l0 -680 -27 -42 c-15 -22 -49 -54 -75 -69 l-48
-28 -1435 -8 c-789 -4 -1468 -4 -1507 -1 -83 7 -125 29 -157 84 -21 34 -21 50
-24 699 -3 700 0 749 41 797 49 56 -26 53 1612 51 1497 -2 1510 -2 1545 -22z"/>
<path d="M1063 1725 c-82 -22 -148 -60 -208 -120 -181 -182 -181 -468 0 -650
185 -184 479 -178 659 15 92 98 138 245 117 376 -42 269 -311 448 -568 379z
m240 -224 c149 -92 170 -297 42 -410 -52 -45 -96 -62 -164 -62 -126 -1 -225
79 -253 203 -29 129 69 273 202 296 58 10 132 -2 173 -27z"/>
<path d="M3826 1724 c-217 -53 -372 -287 -337 -510 58 -372 511 -524 776 -259
181 182 181 468 0 650 -116 116 -275 159 -439 119z m254 -232 c82 -51 132
-167 112 -260 -28 -124 -127 -204 -253 -203 -256 1 -342 336 -121 473 70 43
182 39 262 -10z"/>
</g>
</svg>
