<?xml version="1.0" encoding="UTF-8"?>
<svg id="icones" xmlns="http://www.w3.org/2000/svg" viewBox="0 0 30 30">
  <defs>
    <style>
      .cls-1 {
        fill: #db334f;
      }
    </style>
  </defs>
  <path class="cls-1" d="m13.96,22.66h-.23c-2.24,0-4.48,0-6.72,0-.37,0-.68-.3-.68-.68,0-3.27,0-6.53,0-9.8,0-.06,0-.12,0-.19.03-.32.22-.51.55-.51.48,0,.97,0,1.45,0,.07,0,.13,0,.22,0,0-.05.01-1.47.02-2.64,0-.84.69-1.52,1.53-1.52h9.74c.88,0,1.59.71,1.59,1.59,0,1.15,0,2.51,0,2.56.07,0,.14,0,.2,0,.46,0,.92,0,1.38,0,.36,0,.64.29.64.65,0,2.8,0,5.6,0,8.39,0,.5,0,1,0,1.49,0,.35-.29.64-.64.64-2.26,0-4.52,0-6.77,0-.07,0-.15,0-.23,0m4.91-12.8h-11.86c0,.64,0,1.28,0,1.92,0,2.1,0,4.19,0,6.29,0,.38.2.65.54.79.17.07.37.09.56.09,2.58,0,5.16,0,7.74,0,.67,0,1.34,0,2.01,0,.59,0,1.01-.41,1.01-1.01-.02-1.99,0-3.98,0-5.97,0-.7,0-1.4,0-2.12Zm.52,2.14c0,.08,0,.16,0,.23,0,1.9,0,3.81,0,5.71,0,.84-.68,1.52-1.52,1.52-3.28,0-6.56,0-9.84,0-.84,0-1.52-.68-1.52-1.52,0-1.9,0-3.81,0-5.71,0-.07,0-.15,0-.23h-1.7v8.67h16.28v-8.68h-1.7Zm-12.39-2.67h11.87v-.26c0-.68-.55-1.23-1.22-1.23-2.46,0-7.9,0-9.58,0-.59,0-1.06.47-1.06,1.06v.43Zm14.09,11.88H6.86v.92h16.28v-.92Zm-7.64,1.46h-1"/>
  <path class="cls-1" d="m14.39,15.12c.2,0,.41-.02.61,0,.89.12,1.48.8,1.51,1.71.01.46,0,.93,0,1.4,0,.23-.09.31-.32.31-2.16,0-4.33,0-6.49,0-.2,0-.32-.08-.31-.24,0-.59-.03-1.18.04-1.76.1-.81.82-1.4,1.64-1.42.02,0,.05,0,.07,0,.43,0,.43,0,.5-.44,0-.05-.02-.11-.05-.14-.33-.41-.47-.88-.49-1.39,0-.07-.01-.15-.04-.22-.29-.68-.19-1.34.18-1.96.25-.42.62-.67,1.15-.56.07.02.16-.02.23-.04.6-.15,1.18-.12,1.68.26.58.44.75,1.06.69,1.75-.04.42-.11.84-.18,1.26-.06.32-.2.61-.44.85-.11.11-.12.2-.08.33.03.09.06.19.09.31Zm1.6,2.91s.01-.06.01-.08c0-.38,0-.77,0-1.15,0-.55-.38-1.02-.92-1.14-.2-.04-.42-.04-.63-.03-.11,0-.23.04-.32.11-.34.24-.66.5-.99.76-.15.12-.28.13-.43,0-.22-.19-.47-.35-.68-.55-.28-.27-.59-.36-.97-.33-.55.04-1.05.38-1.13.93-.07.48-.01.98-.01,1.48h.69c0-.23,0-.44,0-.66,0-.21.09-.32.25-.33.17,0,.26.11.26.33,0,.22,0,.43,0,.65h3.65c0-.25,0-.5,0-.74,0-.14.08-.24.22-.25.16-.02.25.07.28.22.02.07,0,.15,0,.22,0,.18,0,.37,0,.55h.71Zm-2.92-3.4c.26,0,.6-.15.89-.43.51-.49.45-1.25.22-1.8-.02-.04-.12-.07-.17-.06-.53.12-.96-.03-1.31-.45-.04-.04-.08-.08-.11-.13-.09-.14-.18-.12-.3-.03-.58.43-.79,1-.67,1.7.13.76.62,1.21,1.45,1.2Zm1.39-2.72c-.1-.7-.57-1.12-1.24-1.11-.21,0-.42.07-.64.11-.09.01-.19.03-.27,0-.24-.07-.41,0-.56.18-.18.21-.27.47-.32.71.23-.18.45-.4.71-.57.26-.18.5-.13.72.09.09.09.17.18.25.28.22.25.48.34.8.23.19-.06.37-.06.55.07Zm-1.54,4.12c.26-.2.5-.39.74-.58.27-.21.27-.21.12-.52-.56.26-1.12.27-1.7,0,0,.15-.16.28,0,.41.27.22.55.45.84.68Z"/>
  <path class="cls-1" d="m18.81,12.73c-.41,0-.82,0-1.23,0-.23,0-.31-.09-.31-.32,0-.46,0-.92,0-1.38,0-.23.09-.32.32-.32.82,0,1.65,0,2.47,0,.23,0,.31.09.31.32,0,.46,0,.92,0,1.38,0,.23-.08.31-.31.31-.42,0-.83,0-1.25,0Zm-1.03-.53h2.07v-.95h-2.07v.95Z"/>
  <path class="cls-1" d="m18.84,13.74c.48,0,.97,0,1.45,0,.21,0,.32.09.33.25,0,.16-.11.26-.32.26-.98,0-1.96,0-2.93,0-.21,0-.32-.09-.31-.26,0-.16.11-.25.32-.25.49,0,.98,0,1.47,0Z"/>
  <path class="cls-1" d="m18.81,16.3c.48,0,.95,0,1.43,0,.07,0,.15,0,.2.03.07.06.16.16.16.24,0,.07-.09.16-.16.21-.04.03-.12.03-.18.03-.95,0-1.91,0-2.86,0-.03,0-.06,0-.09,0-.15-.02-.26-.09-.26-.26,0-.17.11-.24.27-.25.19,0,.37,0,.56,0,.32,0,.63,0,.95,0Z"/>
  <path class="cls-1" d="m18.83,17.59c.48,0,.97,0,1.45,0,.21,0,.33.09.33.24,0,.16-.12.27-.33.27-.97,0-1.95,0-2.92,0-.21,0-.32-.09-.32-.26,0-.17.1-.25.32-.25.49,0,.98,0,1.47,0Z"/>
  <path class="cls-1" d="m18.81,15.52c-.48,0-.97,0-1.45,0-.21,0-.32-.08-.32-.25,0-.16.1-.25.32-.25.97,0,1.95,0,2.92,0,.21,0,.32.09.32.25,0,.15-.12.24-.33.24-.49,0-.98,0-1.47,0Z"/>
  <path class="cls-1" d="m14.15,8.85c-.13,0-.26,0-.39,0-.16,0-.26-.08-.27-.25-.01-.14.09-.25.26-.26.28,0,.56,0,.83,0,.15,0,.27.09.26.25,0,.16-.11.24-.27.25-.14,0-.28,0-.43,0Z"/>
  <path class="cls-1" d="m12.46,8.34c.13,0,.26,0,.39,0,.15,0,.26.08.26.25,0,.16-.1.25-.26.26-.28,0-.56,0-.83,0-.15,0-.26-.09-.26-.26,0-.16.11-.23.25-.24.15-.01.3,0,.44,0,0,0,0,0,0,0Z"/>
  <path class="cls-1" d="m10.72,8.85c-.14,0-.27,0-.41,0-.16,0-.26-.08-.26-.25,0-.17.11-.25.26-.25.27,0,.55,0,.82,0,.15,0,.27.08.26.25,0,.17-.11.24-.27.25-.14,0-.27,0-.41,0Z"/>
  <path class="cls-1" d="m20.58,21.93c-.12,0-.24,0-.35,0-.15,0-.24-.1-.24-.25,0-.16.09-.25.24-.25.24,0,.48,0,.73,0,.15,0,.24.1.24.25,0,.15-.1.24-.25.25-.12,0-.24,0-.35,0Z"/>
  <path class="cls-1" d="m22.08,21.93c-.12,0-.25,0-.37,0-.15-.01-.24-.11-.24-.26,0-.14.09-.23.23-.24.25,0,.5,0,.74,0,.14,0,.23.1.23.24,0,.15-.09.24-.24.25-.12,0-.24,0-.35,0Z"/>
</svg>