<?xml version="1.0" encoding="UTF-8"?>
<svg id="icones" xmlns="http://www.w3.org/2000/svg" viewBox="0 0 30 30">
  <defs>
    <style>
      .cls-1 {
        fill: #db334f;
      }
    </style>
  </defs>
  <path class="cls-1" d="m24.53,22.78c-.06.15-.1.31-.19.44-.24.38-.59.57-1.04.57-.84,0-1.67,0-2.51,0-.22,0-.35-.11-.35-.27,0-.17.13-.28.34-.28.81,0,1.63,0,2.44,0,.51,0,.75-.25.75-.76,0-.26-.01-.52,0-.78,0-.18-.06-.23-.23-.23-1.88,0-3.76,0-5.64,0-.2,0-.41,0-.64,0,0,.17,0,.32,0,.48,0,.42-.27.68-.69.68-1.18,0-2.37,0-3.55,0-.42,0-.68-.27-.69-.69,0-.15,0-.3,0-.46-.08,0-.15-.01-.21-.01-2.02,0-4.03,0-6.05,0-.24,0-.24,0-.24.25,0,.28,0,.56,0,.84,0,.41.27.67.68.68.07,0,.14,0,.2,0,4.01,0,8.01,0,12.02,0,.09,0,.18,0,.26.03.14.04.19.15.17.29-.02.13-.1.21-.23.23-.06,0-.12,0-.19,0-4.05,0-8.1,0-12.15,0-.8,0-1.38-.59-1.33-1.34.02-.29,0-.58,0-.87,0-.41.27-.67.68-.68.14,0,.28,0,.44,0v-.24c0-1.37,0-2.74,0-4.11,0-.06,0-.13,0-.19.04-.15.14-.24.3-.22.15.01.23.1.25.25,0,.06,0,.11,0,.17,0,1.36,0,2.73,0,4.09v.23h15.7c0-.07,0-.13,0-.2,0-3.14,0-6.28,0-9.42,0-.32-.09-.41-.41-.41-.57,0-1.14,0-1.71,0-.06,0-.12,0-.2,0,0,.1,0,.18,0,.26,0,1.57,0,3.14,0,4.71,0,.69-.37,1.21-.98,1.37-.14.04-.29.05-.44.05-.96,0-1.91,0-2.87,0-.13,0-.18.04-.22.16-.17.54-.35,1.07-.53,1.61-.09.27-.26.41-.49.4-.23,0-.39-.13-.48-.4-.17-.52-.35-1.04-.52-1.57-.05-.16-.12-.2-.29-.2-.93,0-1.86,0-2.79,0-.9,0-1.45-.55-1.45-1.45,0-1.56,0-3.11,0-4.67,0-.08,0-.16,0-.23-.03-.02-.04-.03-.05-.03-.66,0-1.33,0-1.99,0-.2,0-.28.13-.29.36,0,1.14,0,2.27,0,3.41,0,.06,0,.12,0,.19-.02.15-.11.24-.26.24-.15,0-.25-.08-.28-.22-.01-.05-.01-.11-.01-.17,0-1.15,0-2.3,0-3.44,0-.58.34-.93.92-.93.58,0,1.15,0,1.73,0,.07,0,.13,0,.23,0,0-.09,0-.16,0-.23,0-.83,0-1.66,0-2.49,0-.7.42-1.22,1.06-1.36.11-.02.23-.02.35-.02,1.63,0,3.26,0,4.89,0,.05,0,.1,0,.15,0,.15.02.24.11.25.26,0,.14-.06.24-.2.28-.07.02-.15.02-.22.02-1.61,0-3.23,0-4.84,0-.6,0-.89.29-.89.89,0,2.72,0,5.43,0,8.15,0,.59.3.89.89.89.99,0,1.97,0,2.96,0,.36,0,.48.09.6.43.15.45.3.89.45,1.34.02.06.04.11.07.21.04-.09.06-.14.08-.2.15-.45.3-.89.45-1.34.12-.36.23-.44.61-.44.99,0,1.97,0,2.96,0,.58,0,.88-.3.88-.88,0-2.72,0-5.45,0-8.17,0-.6-.29-.88-.89-.88-.48,0-.96,0-1.43,0-.06,0-.11,0-.17,0-.15-.04-.24-.14-.22-.3.01-.15.1-.25.26-.25.63,0,1.25-.02,1.88.01.59.04,1.11.57,1.13,1.18.03.87.01,1.74.02,2.6,0,.09,0,.19,0,.31.08,0,.14,0,.21,0,.58,0,1.17,0,1.75,0,.58,0,.93.34.93.93,0,3.13,0,6.26,0,9.4,0,.08,0,.16,0,.27.46-.03.92-.05,1.12.49v1.38Zm-11.44-1.3c0,.15,0,.27,0,.39-.01.15.05.21.2.2.69,0,1.38,0,2.06,0,.46,0,.92,0,1.38,0,.06,0,.16-.06.17-.11.02-.16,0-.32,0-.48h-3.82Z"/>
  <path class="cls-1" d="m13.84,11.21c-.12-.15-.21-.28-.43-.21-.18.06-.35-.03-.49-.16-.16-.15-.31-.3-.46-.46-.26-.28-.25-.58.02-.85.65-.65,1.31-1.31,1.96-1.96.24-.24.53-.26.8-.04.18.16.35.33.51.51.14.16.19.35.13.57-.01.05.01.13.05.17.58.59,1.16,1.17,1.75,1.75.04.04.12.06.17.05.23-.06.42,0,.59.14.17.15.32.31.47.47.25.28.24.57-.02.84-.65.65-1.3,1.3-1.95,1.95-.28.28-.58.28-.87.01-.14-.14-.29-.28-.42-.42-.17-.18-.23-.38-.18-.63.02-.09-.1-.22-.18-.36-.19.22-.35.39-.5.57-.57.66-1.13,1.32-1.71,1.96-.32.36-.74.5-1.21.38-.46-.11-.78-.41-.9-.87-.13-.5,0-.93.4-1.27.71-.63,1.43-1.24,2.15-1.87.1-.09.2-.18.32-.28Zm3.48-.17c-.63-.63-1.26-1.26-1.87-1.87-.46.46-.94.93-1.39,1.38.62.62,1.24,1.25,1.87,1.87.46-.46.93-.93,1.39-1.39Zm-2.46,1.19c-.21-.21-.41-.41-.62-.62-.85.74-1.71,1.48-2.56,2.23-.16.14-.21.33-.18.54.04.28.2.48.47.57.29.09.54,0,.73-.23.44-.51.89-1.02,1.33-1.53.28-.32.56-.64.83-.96Zm-1.56-1.81c.67-.67,1.34-1.34,1.99-1.99-.14-.14-.3-.3-.43-.43-.66.66-1.33,1.33-2,2,.14.13.29.28.44.43Zm4.76.73c-.68.68-1.35,1.35-2,2,.14.14.29.3.42.43.66-.66,1.33-1.33,2-2-.13-.14-.28-.3-.42-.44Z"/>
</svg>