<?xml version="1.0" encoding="UTF-8"?>
<svg id="icones" xmlns="http://www.w3.org/2000/svg" viewBox="0 0 30 30">
  <defs>
    <style>
      .cls-1 {
        fill: #db334f;
      }
    </style>
  </defs>
  <path class="cls-1" d="m6.8,23.93c-.36-.12-.63-.32-.71-.71-.02-.09-.02-.18-.02-.28,0-5.29,0-10.58,0-15.87,0-.63.36-1,.99-1,3.9,0,7.8,0,11.7,0,.63,0,.99.36.99.98,0,1.8,0,3.6,0,5.41,0,.06,0,.12-.02.17-.03.13-.12.21-.26.21-.14,0-.25-.06-.29-.2-.02-.08-.02-.17-.02-.26,0-1.76,0-3.51,0-5.27,0-.37-.08-.45-.45-.45-3.86,0-7.73,0-11.59,0-.37,0-.45.09-.45.45,0,5.25,0,10.51,0,15.76,0,.37.08.45.45.45,3.86,0,7.73,0,11.59,0,.37,0,.45-.08.45-.45,0-.89,0-1.78,0-2.67,0-.08,0-.16.02-.24.04-.14.14-.21.29-.2.15,0,.24.08.27.22.02.07.02.15.02.23,0,.85-.02,1.7,0,2.55.02.56-.16.97-.72,1.16H6.8Z"/>
  <path class="cls-1" d="m23.93,10.71c-.08.18-.16.35-.25.55.19.17.13.35,0,.55-.22.37-.44.75-.66,1.14.08.05.15.09.23.14.46.28.61.78.35,1.25-.38.67-.77,1.34-1.16,2.01-.11.18-.27.24-.42.15-.16-.09-.19-.26-.08-.45.35-.62.71-1.23,1.06-1.84.23-.4.19-.53-.26-.73-.03.05-.06.1-.1.16-.71,1.24-1.44,2.47-2.13,3.72-.28.49-.63.91-.98,1.35-.26.33-.51.68-.74,1.03-.23.34-.52.51-.94.48-.06,0-.14.04-.18.08-.2.24-.38.48-.58.72-.34.42-.87.35-1.08-.16-.05-.12-.1-.25-.16-.39-.04.05-.07.08-.09.12-.18.26-.42.38-.68.31-.27-.07-.44-.29-.46-.63-.03-.33-.06-.67-.12-1.01-.02.05-.04.1-.06.15-.21.63-.42,1.27-.63,1.9-.08.24-.27.32-.46.19-.13-.09-.16-.21-.11-.35.24-.73.48-1.47.73-2.2.09-.27.36-.41.64-.38.25.03.47.23.5.51.05.38.07.77.11,1.19.06-.09.11-.16.16-.22.27-.32.75-.28.96.08.09.17.16.35.24.54.21-.26.41-.5.61-.75.02-.03.02-.1,0-.14-.16-.32-.15-.63.03-.93.38-.64.57-1.36.84-2.04.04-.1.08-.19.13-.28.78-1.36,1.57-2.72,2.35-4.07.03-.05.06-.11.09-.16-.39-.27-.46-.39-.35-.56.1-.17.23-.17.66.03.03-.04.06-.09.09-.14.21-.36.42-.71.62-1.07.08-.14.19-.22.37-.21.05,0,.13-.06.16-.11.15-.26.34-.47.65-.54.47-.1.91.16,1.05.61.01.04.03.07.04.11,0,.1,0,.21,0,.31Zm-2.75,1.85c-.8,1.38-1.59,2.75-2.38,4.13.36.2.69.4,1.03.59.8-1.38,1.59-2.75,2.38-4.12-.35-.2-.68-.39-1.03-.6Zm1.92-.95c-.35-.2-.69-.4-1.03-.59-.2.35-.4.69-.59,1.03.35.2.68.4,1.03.59.2-.35.39-.68.59-1.03Zm-3.61,6.16c-.32-.19-.62-.36-.94-.54-.14.38-.28.75-.42,1.13.2.12.39.23.59.34.25-.31.5-.61.77-.93Zm3.65-6.82c.1-.19.28-.35.13-.56-.05-.07-.18-.13-.27-.13-.23,0-.27.23-.38.39.18.1.34.19.52.3Zm-5.26,7.97c-.1.19-.27.35-.13.55.05.07.18.14.27.13.23-.01.27-.23.37-.39-.18-.1-.34-.19-.51-.29Z"/>
  <path class="cls-1" d="m9.36,9.45v.6c.08,0,.16,0,.23,0,2.34,0,4.67,0,7.01,0,.08,0,.16,0,.24.02.15.03.25.16.24.3-.02.15-.09.25-.25.27-.06,0-.13.01-.19.01-2.48,0-4.95,0-7.43,0-.38,0-.45-.07-.46-.46,0-.29,0-.58,0-.87,0-.37.08-.45.45-.45,1.27,0,2.55,0,3.82,0,1.2,0,2.41,0,3.61,0,.08,0,.16,0,.24.02.14.04.21.15.2.29,0,.15-.09.25-.24.27-.07.01-.15,0-.23,0-2.34,0-4.68,0-7.03,0h-.22Z"/>
  <path class="cls-1" d="m14.39,13.91c-1.04,0-2.08,0-3.12,0-.07,0-.14,0-.21-.01-.13-.03-.21-.12-.22-.26-.01-.14.04-.24.17-.29.07-.03.16-.03.24-.03,2.1,0,4.2,0,6.31,0,.07,0,.15,0,.22.03.13.05.2.16.18.3-.01.14-.09.22-.23.25-.07.01-.14.01-.21.01-1.05,0-2.09,0-3.14,0Z"/>
  <path class="cls-1" d="m11.41,15.7c-.92,0-1.85,0-2.77,0-.06,0-.13,0-.19,0-.18-.02-.29-.13-.29-.29,0-.16.1-.27.28-.29.06,0,.12,0,.17,0,1.87,0,3.74,0,5.61,0,.08,0,.16,0,.24.02.15.04.22.14.22.3,0,.14-.09.24-.23.27-.07.01-.15.01-.23.01-.94,0-1.88,0-2.82,0Z"/>
  <path class="cls-1" d="m12.91,11.84c-.94,0-1.88,0-2.82,0-.3,0-.44-.1-.44-.3,0-.2.14-.3.44-.3,1.89,0,3.77,0,5.66,0,.3,0,.44.1.44.3,0,.2-.15.29-.43.29-.95,0-1.89,0-2.84,0Z"/>
  <path class="cls-1" d="m9.94,17.19c-.49,0-.98,0-1.46,0-.14,0-.27-.06-.29-.19-.02-.1.02-.23.08-.31.04-.06.15-.08.23-.08.96,0,1.92,0,2.88,0,.22,0,.35.13.35.31,0,.17-.13.28-.35.29-.48,0-.95,0-1.43,0Z"/>
  <path class="cls-1" d="m9.71,20.48c.33-.33.64-.64.94-.95.04-.04.07-.08.11-.11.13-.1.29-.1.4,0,.11.11.14.29.02.41-.36.37-.73.75-1.11,1.1-.2.19-.51.17-.72,0-.24-.21-.46-.44-.68-.67-.13-.13-.11-.31,0-.42.12-.11.29-.11.42.02.2.2.4.41.62.63Z"/>
  <path class="cls-1" d="m13.65,17.19c-.33,0-.65,0-.98,0-.22,0-.36-.12-.36-.3,0-.18.14-.29.36-.3.65,0,1.3,0,1.95,0,.22,0,.36.12.36.29,0,.18-.14.3-.37.3-.33,0-.65,0-.98,0Z"/>
</svg>