<?xml version="1.0" encoding="UTF-8"?>
<svg id="icones" xmlns="http://www.w3.org/2000/svg" viewBox="0 0 30 30">
  <defs>
    <style>
      .cls-1 {
        fill: #db334f;
      }
    </style>
  </defs>
  <g>
    <path class="cls-1" d="m14.53,15.45v-.23c0-2.66,0-5.32,0-7.99,0-.31.07-.38.38-.38.45,0,.9,0,1.36,0,.24,0,.33.09.33.33,0,.23,0,.45,0,.69h1.03c0-.22,0-.44,0-.67,0-.27.08-.35.36-.35.45,0,.9,0,1.36,0,.27,0,.35.08.35.36,0,2.05,0,4.1,0,6.15v.21c.08,0,.14,0,.2,0,1.87,0,3.74,0,5.62,0,.31,0,.39.08.37.38-.06,1.09-.53,1.95-1.4,2.6-.04.03-.08.06-.16.11.14,0,.24,0,.34,0,.31,0,.61,0,.92,0,.21,0,.31.09.31.3,0,1.86,0,3.72,0,5.58,0,.22-.1.31-.32.31-.53,0-1.07,0-1.6,0-4.56,0-9.12,0-13.68,0-.34,0-.41-.06-.41-.4,0-1.79,0-3.58,0-5.37,0-.36.05-.42.42-.42.03,0,.06,0,.11,0,.17-.97.69-1.66,1.65-1.95.96-.29,1.77,0,2.48.74Zm10.83,5.34v-3.59h-14.95v3.59h14.95Zm-14.96,1.55h14.95v-1.01h-14.95v1.01Zm14.96-8.24h-6.18c.14,1.04.65,1.83,1.59,2.27.94.44,1.93.45,2.88.06,1.02-.42,1.56-1.23,1.72-2.33Zm-9.3,2.56V7.39h-1.01v9.27h1.01Zm2.09-9.28v9.27h1.02c0-.31,0-.6,0-.9,0-.09-.03-.19-.07-.27-.28-.5-.43-1.04-.44-1.61,0-.2.09-.3.29-.3.07,0,.14,0,.21,0v-6.19h-1.01Zm-3.66,9.28c-.06-.72-.76-1.57-1.82-1.54-.87.02-1.71.77-1.71,1.54h3.54Zm3.12-5.16v-3.08h-1.01v3.08h1.01Zm0,4.15h-1.01v1.01h1.01v-1.01Zm-1.01-2.59v1.01h1.01v-1.01h-1.01Zm0,2.04h1.02v-.49h-1.02v.49Zm1.02-3.07h-1.01v.5h1.01v-.5Zm2.08,4.62h.5c-.17-.14-.33-.26-.5-.39v.39Z"/>
    <path class="cls-1" d="m17.64,18.23h.5v1.53h-.5v-1.53Z"/>
    <path class="cls-1" d="m14,19.76h-.5v-1.53h.5v1.53Z"/>
    <path class="cls-1" d="m15.57,18.23h.5v1.53h-.5v-1.53Z"/>
    <path class="cls-1" d="m20.2,19.76h-.5v-1.53h.5v1.53Z"/>
    <path class="cls-1" d="m21.77,18.22h.49v1.53h-.49v-1.53Z"/>
    <path class="cls-1" d="m23.84,18.23h.5v1.53h-.5v-1.53Z"/>
    <path class="cls-1" d="m11.94,19.76h-.49v-1.53h.49v1.53Z"/>
  </g>
  <g>
    <g>
      <path class="cls-1" d="m6.01,10c-.38,0-.69-.05-.94-.15-.25-.1-.43-.25-.55-.45-.12-.2-.18-.44-.18-.72v-.07h.85v.06c0,.14.02.25.07.33.05.08.13.13.25.17s.3.05.53.05c.25,0,.41-.03.49-.08.08-.05.12-.15.12-.28,0-.09-.01-.16-.04-.21-.03-.05-.08-.1-.16-.14s-.22-.07-.4-.1l-.68-.12c-.25-.04-.45-.11-.6-.21-.16-.1-.27-.22-.34-.37s-.11-.32-.11-.52.05-.39.15-.57c.1-.18.27-.32.5-.44.23-.11.53-.17.89-.17s.67.06.9.17c.23.12.4.27.51.48.11.2.16.43.16.69v.05h-.86v-.06c0-.13-.02-.24-.06-.32-.04-.08-.12-.13-.23-.17-.11-.03-.26-.05-.45-.05-.25,0-.42.03-.51.08-.09.06-.14.15-.14.27,0,.08.02.15.05.19.03.05.09.09.16.11.08.03.19.06.34.09l.69.13c.27.05.48.13.64.24s.27.24.34.4.1.33.1.51c0,.2-.05.4-.15.58-.1.18-.26.32-.48.43s-.51.16-.88.16Zm.32-3.57h-.8v-.94h.8v.94Zm0,4.09h-.8v-.94h.8v.94Z"/>
      <path class="cls-1" d="m5.92,24.26c-.21,0-.38-.17-.38-.38v-11.29c0-.21.17-.38.38-.38s.38.17.38.38v11.29c0,.21-.17.38-.38.38Z"/>
    </g>
    <path class="cls-1" d="m5.92,24.51c-.11,0-.21-.05-.28-.13l-1.44-1.63c-.14-.16-.12-.39.03-.53.16-.14.39-.12.53.03l1.16,1.31,1.16-1.31c.14-.15.37-.17.53-.03.16.14.17.37.03.53l-1.44,1.63c-.07.08-.17.13-.28.13Z"/>
  </g>
</svg>