<?xml version="1.0" encoding="UTF-8"?>
<svg id="icones" xmlns="http://www.w3.org/2000/svg" viewBox="0 0 30 30">
  <defs>
    <style>
      .cls-1 {
        fill: #db334f;
      }
    </style>
  </defs>
  <g>
    <path class="cls-1" d="m13.8,18.18c-.6,0-1.1-.09-1.49-.26-.39-.17-.68-.42-.87-.73-.19-.31-.28-.68-.28-1.09v-.15h1.01v.1c0,.26.05.48.14.66.09.18.26.31.5.4.24.09.59.13,1.04.13.48,0,.81-.07,1-.2.19-.14.28-.35.28-.64,0-.2-.03-.36-.09-.48s-.17-.22-.34-.3c-.17-.08-.42-.15-.75-.21l-1.09-.22c-.37-.07-.68-.18-.92-.33-.25-.15-.44-.34-.57-.58-.13-.24-.2-.52-.2-.85s.08-.61.25-.89c.17-.28.43-.5.78-.67.35-.17.8-.26,1.35-.26.58,0,1.06.1,1.42.3.37.2.63.46.8.78.17.32.25.67.25,1.05v.11h-1.02v-.11c0-.27-.04-.49-.13-.66-.09-.17-.24-.31-.46-.4-.22-.09-.52-.14-.89-.14-.48,0-.82.07-1.02.21-.21.14-.31.35-.31.62,0,.2.03.35.1.47.07.11.18.21.35.27.16.07.39.14.69.2l1.09.23c.4.08.73.21.98.37s.44.36.56.6c.12.24.18.52.18.84s-.08.64-.25.92-.42.5-.77.67c-.35.16-.79.25-1.34.25Zm.33-6.1h-.95v-1.33h.95v1.33Zm0,6.96h-.95v-1.36h.95v1.36Z"/>
    <g>
      <path class="cls-1" d="m18.38,16.83c.21,0,.38.17.38.38v4.58c0,.21-.17.38-.38.38s-.38-.17-.38-.38v-4.58c0-.21.17-.38.38-.38Z"/>
      <path class="cls-1" d="m18.38,16.57c.11,0,.21.05.28.13l1.44,1.63c.14.16.12.39-.03.53-.16.14-.39.12-.53-.03l-1.16-1.31-1.16,1.31c-.14.15-.37.17-.53.03-.16-.14-.17-.37-.03-.53l1.44-1.63c.07-.08.17-.13.28-.13Z"/>
    </g>
    <g>
      <path class="cls-1" d="m22.3,21.66c-.21,0-.38-.17-.38-.38v-4.58c0-.21.17-.38.38-.38s.38.17.38.38v4.58c0,.21-.17.38-.38.38Z"/>
      <path class="cls-1" d="m22.3,21.91c-.11,0-.21-.05-.28-.13l-1.44-1.63c-.14-.16-.12-.39.03-.53.16-.14.39-.12.53.03l1.16,1.31,1.16-1.31c.14-.15.37-.17.53-.03.16.14.17.37.03.53l-1.44,1.63c-.07.08-.17.13-.28.13Z"/>
    </g>
  </g>
  <path class="cls-1" d="m13.77,22.88c-4.35,0-7.88-3.54-7.88-7.88s3.54-7.88,7.88-7.88,7.88,3.54,7.88,7.88c0,.21-.17.38-.38.38s-.38-.17-.38-.38c0-3.93-3.2-7.13-7.13-7.13s-7.13,3.2-7.13,7.13,3.2,7.13,7.13,7.13c.75,0,1.49-.12,2.2-.35.19-.07.41.04.47.24.06.2-.04.41-.24.47-.78.25-1.6.38-2.43.38Z"/>
</svg>