<?xml version="1.0" encoding="utf-8"?>
<!-- Generator: Adobe Illustrator 27.5.0, SVG Export Plug-In . SVG Version: 6.00 Build 0)  -->
<svg version="1.1" id="Camada_1" xmlns="http://www.w3.org/2000/svg" xmlns:xlink="http://www.w3.org/1999/xlink" x="0px" y="0px"
	 viewBox="0 0 30 30" style="enable-background:new 0 0 30 30;" xml:space="preserve">
<style type="text/css">
	.st0{fill:#DB334F;}
	.st1{fill:none;}
</style>
<g>
	<g>
		<path class="st0" d="M26.5,18.44c0,1.46-0.02,2.92,0.01,4.37c0.01,0.76-0.29,1.33-0.86,1.78c-0.79,0.62-1.71,0.95-2.67,1.14
			c-2.24,0.45-4.47,0.42-6.64-0.37c-0.53-0.19-1.04-0.51-1.5-0.84c-0.55-0.4-0.81-0.97-0.8-1.68c0.02-2.93,0.02-5.85,0-8.78
			c0-0.65,0.24-1.14,0.71-1.54c0.57-0.49,1.23-0.82,1.94-1.04c2.65-0.83,5.29-0.81,7.87,0.28c0.52,0.22,0.99,0.59,1.43,0.95
			c0.38,0.31,0.53,0.75,0.52,1.25C26.49,15.47,26.5,16.96,26.5,18.44z M15,20.11c0,0.97,0.01,1.9,0,2.82c0,0.3,0.08,0.58,0.32,0.74
			c0.42,0.29,0.85,0.61,1.33,0.78c2.25,0.8,4.54,0.82,6.82,0.15c0.56-0.16,1.09-0.48,1.6-0.78c0.35-0.21,0.5-0.56,0.49-1
			c-0.03-0.66-0.01-1.32-0.01-1.98c0-0.23,0-0.47,0-0.73C23.04,21.89,17.4,21.82,15,20.11z M15,15.52c0,0.95,0.01,1.86-0.01,2.76
			c-0.01,0.39,0.13,0.7,0.43,0.9c0.37,0.25,0.75,0.5,1.17,0.66c2.07,0.76,4.2,0.79,6.34,0.32c0.76-0.17,1.5-0.42,2.13-0.91
			c0.34-0.26,0.52-0.58,0.5-1.03c-0.03-0.65-0.01-1.3-0.01-1.95c0-0.24,0-0.49,0-0.76C23.03,17.29,17.42,17.24,15,15.52z
			 M20.23,15.88c1.08-0.02,2.1-0.11,3.09-0.41c0.7-0.21,1.39-0.46,1.92-0.99c0.4-0.4,0.43-0.83,0-1.19
			c-0.39-0.32-0.84-0.63-1.32-0.8c-2.26-0.81-4.55-0.81-6.85-0.17c-0.66,0.18-1.28,0.44-1.78,0.94c-0.4,0.41-0.42,0.82,0,1.2
			c0.28,0.26,0.62,0.48,0.96,0.64C17.53,15.71,18.89,15.85,20.23,15.88z"/>
		<path class="st0" d="M23.63,8.76c-2.15-0.41-3.39-1.67-3.77-3.81c-3.93,0-7.87,0-11.84,0C7.9,5.87,7.54,6.69,6.88,7.36
			C6.22,8.02,5.42,8.42,4.47,8.55c0,1.11,0,2.22,0,3.34c1.97,0.37,3.16,1.55,3.56,3.58c0.08,0,0.19,0,0.29,0c1.36,0,2.72,0,4.07,0
			c0.09,0,0.18-0.01,0.27,0.01c0.26,0.05,0.41,0.21,0.41,0.47c0,0.26-0.16,0.42-0.42,0.47c-0.09,0.02-0.18,0.01-0.27,0.01
			c-2.74,0-5.47,0-8.21,0c-0.55,0-0.69-0.14-0.69-0.69c0-3.69,0-7.39,0-11.08c0-0.55,0.14-0.69,0.69-0.69c6.57,0,13.14,0,19.71,0
			c0.55,0,0.69,0.14,0.7,0.68c0,1.7,0,3.4,0,5.09c0,0.04,0,0.08,0,0.12c-0.01,0.35-0.18,0.57-0.47,0.57c-0.29,0-0.48-0.21-0.48-0.56
			C23.62,9.51,23.63,9.14,23.63,8.76z M20.87,4.93c0.04,1.34,1.47,2.79,2.73,2.8c0-0.93,0-1.86,0-2.8c-0.85,0-1.67,0-2.5,0
			C21.03,4.93,20.97,4.93,20.87,4.93z M4.46,7.56C5.74,7.46,7.1,6.04,7,4.94c-0.84,0-1.69,0-2.54,0C4.46,5.82,4.46,6.68,4.46,7.56z
			 M7.02,15.46c-0.18-1.33-1.39-2.52-2.55-2.55c0,0.85,0,1.7,0,2.55C5.33,15.46,6.17,15.46,7.02,15.46z"/>
		<path class="st0" d="M8.28,18.35c1.37,0,2.74,0,4.1,0c0.09,0,0.18-0.01,0.27,0.01c0.26,0.05,0.41,0.21,0.41,0.47
			c0,0.26-0.16,0.42-0.41,0.47c-0.09,0.02-0.18,0.01-0.27,0.01c-2.74,0-5.47,0-8.21,0c-0.09,0-0.18,0.01-0.27-0.01
			c-0.26-0.05-0.41-0.21-0.41-0.47c0-0.27,0.16-0.42,0.41-0.47c0.09-0.02,0.18-0.01,0.27-0.01C5.55,18.35,6.92,18.35,8.28,18.35z"/>
		<path class="st0" d="M8.28,21.22c1.37,0,2.74,0,4.1,0c0.09,0,0.18-0.01,0.27,0.01c0.26,0.05,0.41,0.21,0.41,0.47
			c0,0.26-0.16,0.42-0.41,0.47c-0.09,0.02-0.18,0.01-0.27,0.01c-2.74,0-5.47,0-8.21,0c-0.09,0-0.18,0.01-0.27-0.01
			C3.65,22.13,3.5,21.97,3.5,21.7c0-0.27,0.16-0.42,0.41-0.47c0.09-0.02,0.18-0.01,0.27-0.01C5.55,21.22,6.92,21.22,8.28,21.22z"/>
	</g>
	<g>
		<path class="st0" d="M14.02,14.41c-0.98-0.09-1.86-0.56-2.49-1.31c-0.63-0.76-0.92-1.71-0.83-2.69c0.19-2.02,1.98-3.51,4-3.33
			c2.02,0.19,3.51,1.98,3.33,4c-0.03,0.37-0.12,0.73-0.26,1.07l-0.92-0.38c0.1-0.25,0.17-0.51,0.19-0.78
			c0.07-0.71-0.15-1.41-0.61-1.96s-1.1-0.89-1.81-0.96c-1.47-0.14-2.78,0.95-2.91,2.42c-0.07,0.71,0.15,1.41,0.61,1.96
			c0.46,0.55,1.1,0.89,1.81,0.96L14.02,14.41z"/>
	</g>
</g>
</svg>
