<?xml version="1.0" encoding="UTF-8"?>
<svg id="icones" xmlns="http://www.w3.org/2000/svg" viewBox="0 0 30 30">
  <defs>
    <style>
      .cls-1 {
        fill: #db334f;
      }
    </style>
  </defs>
  <path class="cls-1" d="m4.31,21.44c.08-.43.4-.71.86-.78.15-.02.3,0,.48,0,0-.11,0-.19,0-.27,0-3.77,0-7.54,0-11.3,0-.63.51-1.15,1.15-1.15s2.22,0,2.86,0c0-.19,0-.57,0-.94,0-.55.45-1,1-1h8.71c.55,0,1,.45,1,1,0,.36,0,.72,0,.93.64,0,2.27,0,2.9,0,.12,0,.24,0,.35.03.44.11.74.48.76.93,0,.08,0,.15,0,.23,0,3.75,0,7.5,0,11.25,0,.08,0,.16,0,.27.13,0,.25,0,.37,0,.53.02.95.44.97.96,0,.01,0,.03,0,.04.03,1.12,0,1.15-.89,1.85-.41.32-.92.5-1.44.5-5.63-.01-11.26,0-16.89,0-.43,0-.84-.15-1.18-.42-.11-.09-.23-.18-.35-.26-.31-.2-.6-.45-.66-.83-.05-.35-.06-.7,0-1.05Zm6.03-2.48h9.35V7.11c0-.28-.22-.5-.5-.5h-8.35c-.28,0-.5.22-.5.5v11.86Zm10.05-9.36c.31,0,1.6,0,1.89,0,.33,0,.44.11.44.44,0,3.05,0,6.11,0,9.16,0,.33-.11.44-.44.44-4.84,0-9.67,0-14.51,0-.33,0-.44-.11-.44-.44,0-3.05,0-6.11,0-9.16,0-.33.11-.44.44-.44.3,0,1.59,0,1.89,0v-1c-.63,0-2.25,0-2.87,0-.37,0-.47.1-.47.47,0,3.78,0,7.56,0,11.33,0,.07,0,.15,0,.22h17.4c0-.08,0-.14,0-.2,0-3.79,0-7.58,0-11.37,0-.05,0-.1,0-.15-.02-.17-.12-.3-.3-.3-.67-.01-2.35,0-3.03,0v1Zm-5.38,13.72c2.77,0,5.53,0,8.3,0,.45,0,.82-.11,1.17-.4.67-.54.58-.33.58-1.2,0-.3-.12-.41-.42-.41-1.87,0-3.74,0-5.6,0-.13,0-.2.05-.27.14-.24.33-.5.66-.74.99-.11.15-.24.21-.43.21-1.72,0-3.44,0-5.16,0-.18,0-.3-.06-.41-.2-.25-.34-.5-.68-.77-1.02-.05-.06-.14-.11-.22-.12-1.89,0-3.78,0-5.67,0-.26,0-.38.12-.39.38,0,.18-.03.37,0,.54.03.14.1.29.2.39.18.17.4.3.59.46.21.17.44.24.71.24,2.84,0,5.67,0,8.51,0Zm7.03-4.36v-8.68h-1.65c0,.09,0,.17,0,.26,0,2.43,0,6.19,0,8.62,0,.39-.09.49-.5.49-3.91,0-5.82,0-9.73,0-.4,0-.49-.09-.49-.5,0-2.43,0-6.19,0-8.62v-.24h-1.66v8.67h14.03Zm-4.01,2.36h-6.01c.16.22.3.41.45.6.03.04.11.06.16.06,1.59,0,3.18,0,4.76,0,.06,0,.13-.02.17-.05.15-.19.29-.38.46-.6Z"/>
  <path class="cls-1" d="m16.01,10.56c-1.4,0-2.8,0-4.2,0-.37,0-.47-.1-.47-.47,0-.49,0-.98,0-1.46,0-.29.12-.41.41-.41,2.85,0,3.7,0,6.55,0,.29,0,.4.12.41.41,0,.5,0,1,0,1.51,0,.31-.12.43-.43.43-1.42,0-.84,0-2.27,0Zm-3.99-.68h6.01v-.98h-6.01v.98Z"/>
  <path class="cls-1" d="m14.34,12.61c-1.17,0-1.34,0-2.51,0-.06,0-.11,0-.17,0-.2-.02-.33-.16-.33-.34,0-.17.13-.31.32-.33.04,0,.08,0,.13,0,2.38,0,4,0,6.38,0,.06,0,.11,0,.17,0,.18.04.29.15.28.33,0,.18-.11.28-.27.32-.07.01-.14,0-.21,0-1.18,0-2.61,0-3.78,0Z"/>
  <path class="cls-1" d="m13.01,14.19c-.76,0-.52,0-1.28,0-.23,0-.37-.11-.39-.29-.03-.21.13-.37.37-.38.49,0,.98,0,1.46,0,1.03,0,.6,0,1.63,0,.25,0,.39.1.42.29.03.21-.13.38-.39.38-.76,0-1.06,0-1.82,0Z"/>
  <path class="cls-1" d="m14.25,15.1c.64,0-.72,0-.08,0,.26,0,.42.12.42.33,0,.21-.15.34-.41.34-1.28,0-1.14,0-2.42,0-.26,0-.42-.12-.42-.33,0-.21.15-.34.41-.34.64,0,1.85,0,2.49,0Z"/>
  <path class="cls-1" d="m13.01,17.34c-.42,0-.84,0-1.25,0-.26,0-.42-.13-.42-.33,0-.21.15-.33.42-.33.84,0,1.45,0,2.29,0,.26,0,.42.13.42.33,0,.21-.15.33-.42.33-.42,0-.62,0-1.03,0Z"/>
  <path class="cls-1" d="m17.51,17.26c-.31,0-.56-.04-.75-.13-.2-.09-.34-.21-.44-.37-.09-.16-.14-.34-.14-.55v-.08h.51v.05c0,.13.02.24.07.33.05.09.13.16.25.2.12.05.3.07.52.07.24,0,.41-.03.5-.1.09-.07.14-.18.14-.33,0-.1-.01-.18-.04-.24s-.09-.11-.17-.15c-.09-.04-.21-.07-.38-.11l-.55-.11c-.19-.04-.34-.09-.47-.17-.13-.08-.22-.17-.29-.29-.07-.12-.1-.26-.1-.43s.04-.31.13-.45c.09-.14.22-.25.39-.34.18-.09.41-.13.68-.13.3,0,.54.05.72.15.18.1.32.23.4.39.09.16.13.34.13.53v.06h-.52v-.05c0-.13-.02-.25-.06-.33-.04-.09-.12-.16-.23-.2-.11-.05-.26-.07-.45-.07-.24,0-.41.04-.52.11-.1.07-.16.17-.16.31,0,.1.02.18.05.24.03.06.09.1.18.14.08.03.2.07.35.1l.55.12c.2.04.37.1.5.19s.22.18.28.3c.06.12.09.26.09.43s-.04.32-.13.46-.21.25-.39.34c-.17.08-.4.13-.68.13Zm.17-3.08h-.48v-.67h.48v.67Zm0,3.51h-.48v-.69h.48v.69Z"/>
</svg>