<?xml version="1.0" encoding="UTF-8"?>
<svg id="icones" xmlns="http://www.w3.org/2000/svg" viewBox="0 0 30 30">
  <defs>
    <style>
      .cls-1 {
        fill: #db334f;
      }
    </style>
  </defs>
  <path class="cls-1" d="m14.99,23.7c-2.52,0-5.03,0-7.55,0-1.11,0-1.81-.7-1.81-1.82,0-4.59,0-9.19,0-13.78,0-1.1.7-1.8,1.8-1.8,5.05,0,10.09,0,15.14,0,1.1,0,1.8.7,1.8,1.8,0,4.6,0,9.2,0,13.81,0,1.09-.7,1.79-1.79,1.79-2.53,0-5.06,0-7.59,0Zm8.71-13.5H6.3v.24c0,3.81,0,7.63,0,11.44,0,.75.39,1.14,1.15,1.14,5.03,0,10.07,0,15.1,0,.77,0,1.15-.39,1.15-1.16,0-3.81,0-7.61,0-11.42,0-.08,0-.15,0-.24Zm-17.4-.7h17.4c0-.47,0-.92,0-1.37,0-.79-.38-1.17-1.16-1.17-5.02,0-10.05,0-15.07,0-.07,0-.14,0-.21,0-.49.02-.92.41-.94.9-.03.54,0,1.08,0,1.64Z"/>
  <path class="cls-1" d="m16.06,18.67c.68,0,1.37,0,2.05,0,.2,0,.34.07.39.27.04.17-.07.34-.24.38-.08.02-.17.02-.25.02-1.3,0-2.59,0-3.89,0-.05,0-.1,0-.15,0-.23-.02-.36-.16-.35-.36,0-.19.15-.31.37-.31.69,0,1.38,0,2.07,0Z"/>
  <path class="cls-1" d="m16.05,13.5c-.68,0-1.35,0-2.03,0-.26,0-.4-.12-.4-.33,0-.21.14-.34.41-.34,1.36,0,2.72,0,4.08,0,.16,0,.31.04.36.19.03.1.02.26-.04.34-.06.08-.21.13-.33.13-.68.01-1.37,0-2.05,0Z"/>
  <path class="cls-1" d="m15.52,20.06c.51,0,1.02,0,1.52,0,.25,0,.39.12.4.33,0,.2-.15.34-.39.34-1.01,0-2.02,0-3.03,0-.26,0-.41-.13-.41-.34,0-.21.15-.32.4-.32.5,0,1,0,1.5,0Z"/>
  <path class="cls-1" d="m15.53,14.23c.5,0,1,0,1.5,0,.26,0,.4.11.4.32,0,.21-.14.35-.4.35-1.01,0-2.02,0-3.03,0-.25,0-.39-.13-.39-.34,0-.21.14-.33.39-.33.51,0,1.02,0,1.52,0Z"/>
  <path class="cls-1" d="m9.64,8.58c-.42,0-.85,0-1.27,0-.25,0-.41-.16-.39-.36.02-.18.15-.3.36-.3.87,0,1.74,0,2.61,0,.22,0,.36.14.36.33,0,.18-.14.33-.35.34-.44,0-.88,0-1.32,0,0,0,0,0,0,0Z"/>
  <path class="cls-1" d="m19.34,8.24c0,.18-.15.33-.33.33-.18,0-.33-.16-.33-.34,0-.17.15-.32.32-.32.18,0,.34.14.34.32Z"/>
  <path class="cls-1" d="m20.35,7.92c.18,0,.34.14.34.32,0,.18-.15.33-.33.33-.17,0-.32-.15-.33-.32,0-.18.14-.34.32-.34Z"/>
  <path class="cls-1" d="m21.69,7.92c.18,0,.34.14.34.33,0,.18-.15.33-.33.33-.17,0-.32-.15-.33-.32,0-.18.14-.34.32-.34Z"/>
  <path class="cls-1" d="m20.72,15.63c-.36,0-.65-.05-.88-.16-.23-.1-.4-.25-.51-.43-.11-.19-.17-.4-.17-.65v-.09h.6v.06c0,.15.03.28.08.39.05.11.15.18.3.24.14.05.35.08.62.08.28,0,.48-.04.59-.12.11-.08.17-.21.17-.38,0-.12-.02-.21-.05-.29s-.1-.13-.2-.18c-.1-.05-.25-.09-.44-.12l-.64-.13c-.22-.04-.4-.11-.55-.19-.15-.09-.26-.2-.34-.34-.08-.14-.12-.31-.12-.5s.05-.36.15-.53c.1-.16.25-.3.46-.4.21-.1.48-.15.8-.15.35,0,.63.06.84.17.22.12.37.27.47.46.1.19.15.4.15.62v.07h-.6v-.06c0-.16-.03-.29-.08-.39-.05-.1-.14-.18-.27-.24-.13-.05-.31-.08-.53-.08-.28,0-.48.04-.61.12-.12.08-.18.21-.18.37,0,.12.02.21.06.28.04.07.11.12.21.16.1.04.23.08.41.12l.64.14c.24.05.43.12.58.22s.26.21.33.36c.07.14.11.31.11.5s-.05.38-.15.54-.25.3-.45.4c-.21.1-.47.15-.79.15Zm.2-3.61h-.56v-.79h.56v.79Zm0,4.12h-.56v-.81h.56v.81Z"/>
  <path class="cls-1" d="m20.72,21.47c-.36,0-.65-.05-.88-.16-.23-.1-.4-.25-.51-.43-.11-.19-.17-.4-.17-.65v-.09h.6v.06c0,.15.03.28.08.39.05.11.15.18.3.24.14.05.35.08.62.08.28,0,.48-.04.59-.12.11-.08.17-.21.17-.38,0-.12-.02-.21-.05-.29s-.1-.13-.2-.18c-.1-.05-.25-.09-.44-.12l-.64-.13c-.22-.04-.4-.11-.55-.19-.15-.09-.26-.2-.34-.34-.08-.14-.12-.31-.12-.5s.05-.36.15-.53c.1-.16.25-.3.46-.4.21-.1.48-.15.8-.15.35,0,.63.06.84.17.22.12.37.27.47.46.1.19.15.4.15.62v.07h-.6v-.06c0-.16-.03-.29-.08-.39-.05-.1-.14-.18-.27-.24-.13-.05-.31-.08-.53-.08-.28,0-.48.04-.61.12-.12.08-.18.21-.18.37,0,.12.02.21.06.28.04.07.11.12.21.16.1.04.23.08.41.12l.64.14c.24.05.43.12.58.22s.26.21.33.36c.07.14.11.31.11.5s-.05.38-.15.54-.25.3-.45.4c-.21.1-.47.15-.79.15Zm.2-3.61h-.56v-.79h.56v.79Zm0,4.12h-.56v-.81h.56v.81Z"/>
  <g>
    <path class="cls-1" d="m9.17,15.76c.35.14.74.21,1.24.22h0c.45,0,.82-.06,1.15-.17.25-.08.43-.18.57-.31.15-.14.23-.31.22-.51,0-.25-.06-.47-.14-.68-.1-.24-.24-.45-.43-.64-.09-.09-.19-.11-.3-.07-.11.04-.18.12-.19.24-.01.09.02.18.1.25.23.24.36.52.39.87,0,.09-.02.13-.07.16-.08.05-.17.1-.27.14-.24.09-.5.14-.83.15-.46.02-.85-.03-1.2-.15-.13-.05-.22-.1-.29-.16-.04-.04-.05-.06-.04-.08v-.1c.02-.07.03-.14.05-.21.05-.22.17-.43.34-.6.08-.08.11-.18.09-.28-.02-.11-.1-.19-.21-.22-.11-.03-.21,0-.29.08-.34.34-.52.77-.56,1.26-.02.26.08.47.3.62.12.08.25.15.37.2Z"/>
    <path class="cls-1" d="m10.43,13.8h0c.33,0,.65-.13.89-.37.24-.24.38-.55.38-.89,0-.72-.56-1.29-1.27-1.29h0c-.7,0-1.27.57-1.27,1.26,0,.7.57,1.28,1.27,1.28Zm-.7-1.27c0-.38.31-.69.69-.69h0c.19,0,.36.07.5.2.13.13.2.3.2.49s-.07.36-.2.49c-.13.13-.31.2-.5.2-.38,0-.69-.31-.69-.7Z"/>
    <path class="cls-1" d="m11.79,19.57c-.09-.08-.19-.11-.3-.07-.11.04-.18.12-.19.24-.01.09.02.18.1.25.23.24.36.52.39.87,0,.09-.02.13-.07.16-.08.05-.17.1-.27.14-.24.09-.5.14-.83.15-.46.02-.85-.03-1.2-.15-.13-.05-.22-.1-.29-.16-.05-.04-.04-.06-.04-.08v-.1c.02-.07.03-.14.05-.21.05-.22.17-.43.34-.6.08-.08.11-.18.09-.28-.02-.11-.1-.19-.21-.22-.11-.03-.21,0-.29.08-.34.34-.52.77-.56,1.26-.02.26.08.47.3.62.12.08.25.15.37.2.35.14.74.21,1.24.22h0c.45,0,.82-.06,1.15-.17.17-.06.39-.14.57-.31.15-.14.23-.31.22-.51,0-.25-.06-.47-.14-.68-.1-.24-.24-.45-.43-.64Z"/>
    <path class="cls-1" d="m10.43,17.16h0c-.7,0-1.27.57-1.27,1.26,0,.7.57,1.28,1.27,1.28h0c.69,0,1.27-.58,1.27-1.26,0-.72-.56-1.29-1.27-1.29Zm0,.58h0c.39,0,.7.31.7.69,0,.19-.07.36-.2.49-.13.13-.31.2-.5.2-.38,0-.69-.31-.69-.7,0-.38.32-.69.69-.69Z"/>
  </g>
</svg>