<?xml version="1.0" encoding="UTF-8"?>
<svg id="icones" xmlns="http://www.w3.org/2000/svg" viewBox="0 0 30 30">
  <defs>
    <style>
      .cls-1 {
        fill: #db334f;
      }
    </style>
  </defs>
  <path class="cls-1" d="m8.57,11.05c-1.58,0-2.87-1.29-2.87-2.87s1.29-2.87,2.87-2.87,2.87,1.29,2.87,2.87-1.29,2.87-2.87,2.87Zm0-5.09c-1.22,0-2.22,1-2.22,2.22s1,2.22,2.22,2.22,2.22-1,2.22-2.22-1-2.22-2.22-2.22Z"/>
  <path class="cls-1" d="m23.22,16.07c-.06-.07-.09-.18-.1-.27,0-1.87,0-3.74,0-5.6,0-1.24-.79-2.25-1.97-2.53-.2-.05-.42-.07-.63-.07-3.05,0-6.1,0-9.15,0,.04.19.06.38.06.59,0,.05-.01.09-.01.14,3.02,0,6.03,0,9.05,0,.98,0,1.72.59,1.9,1.52.02.12.03.24.03.36,0,1.68,0,3.36,0,5.04,0,.04,0,.08,0,.14-.22-.1-.43-.19-.62-.3-.04-.02-.07-.1-.07-.16,0-.33,0-.66,0-.99,0-1.15-.81-1.98-1.96-2-1.04-.02-2.08,0-3.13,0-.6,0-1.1.24-1.48.7-.02.03-.05.05-.08.09-.04-.05-.08-.08-.11-.12-.37-.41-.82-.66-1.37-.66-1.11-.01-2.22-.02-3.33,0-1.02.03-1.8.85-1.84,1.87-.01.35,0,.7,0,1.05,0,.14-.03.22-.18.28-.2.07-.39.19-.59.29,0-.07,0-.12,0-.17,0-1.46,0-2.92,0-4.37-.26-.09-.5-.21-.72-.37,0,1.78,0,3.56,0,5.34,0,.14-.04.23-.13.34-.53.61-.85,1.32-.95,2.12,0,.03-.02.07-.03.1v5.02c.1.38.27.72.6.95.47.33.98.39,1.5.14.53-.25.8-.69.83-1.28,0-.16,0-.31,0-.48h12.64c0,.16,0,.32,0,.48.02.72.57,1.33,1.26,1.41.76.09,1.43-.36,1.62-1.08.04-.14.05-.29.05-.43,0-1.45,0-2.89,0-4.34,0-1.06-.37-1.97-1.08-2.76Zm-7.73-2.63c.18-.47.53-.76,1.04-.77,1.1-.02,2.2-.02,3.31,0,.6.01,1.07.46,1.12,1.07.04.37,0,.74,0,1.1h-5.56c.03-.49-.08-.95.09-1.4Zm-6.3.07c.1-.5.56-.83,1.07-.84,1.1-.02,2.19-.02,3.29,0,.58.01,1.05.45,1.12,1.04.04.36,0,.73,0,1.13h-5.58c.03-.42,0-.88.09-1.32Zm-1.23,9.92c-.09.37-.43.57-.81.53-.35-.04-.62-.34-.64-.7,0-.16,0-.31,0-.49h1.5c-.01.23,0,.45-.05.66Zm-1.44-1.4v-1.42h.22c3.07,0,10.14,0,13.37,0,0,0,0,0,0,0,1.07,0,2.14,0,3.22,0h.23v1.42H6.53Zm17.03,1.34c-.06.39-.41.63-.8.59-.37-.03-.66-.34-.67-.72,0-.15,0-.3,0-.46h1.47c0,.2.03.4,0,.59Zm-.22-3.48c-1,0-2,0-3,0,0,0,0,0,0,0-3.12,0-10.42,0-13.54,0h-.24s-.03-.03-.03-.04c0-.72-.07-1.45.19-2.15.47-1.29,1.67-2.15,3.07-2.15,3.51,0,7.02-.01,10.54,0,1.84,0,3.26,1.45,3.27,3.3,0,.34,0,.67,0,1.04h-.24Z"/>
  <path class="cls-1" d="m8.66,9.41c-.23,0-.43-.03-.58-.09-.15-.06-.26-.15-.34-.27-.07-.12-.11-.27-.11-.45v-.05h.52v.04c0,.09.01.16.04.2.03.05.08.08.15.1.07.02.18.03.33.03s.25-.02.3-.05.07-.09.07-.17c0-.05,0-.1-.02-.13-.02-.03-.05-.06-.1-.08s-.13-.04-.25-.06l-.42-.08c-.15-.03-.28-.07-.37-.13s-.17-.14-.21-.23c-.04-.09-.07-.2-.07-.32s.03-.24.09-.35.17-.2.31-.27c.14-.07.32-.1.55-.1s.41.04.55.11c.14.07.25.17.31.29.07.12.1.27.1.43v.03h-.53v-.04c0-.08-.01-.15-.04-.2-.03-.05-.07-.08-.14-.1-.07-.02-.16-.03-.28-.03-.15,0-.26.02-.31.05-.06.03-.09.09-.09.17,0,.05,0,.09.03.12s.05.05.1.07c.05.02.12.03.21.05l.42.08c.17.03.3.08.4.15s.17.15.21.24c.04.09.06.2.06.32,0,.13-.03.24-.09.35-.06.11-.16.2-.3.27s-.32.1-.54.1Zm.2-2.2h-.5v-.58h.5v.58Zm0,2.52h-.5v-.58h.5v.58Z"/>
</svg>