<?xml version="1.0" encoding="UTF-8"?>
<svg id="icones" xmlns="http://www.w3.org/2000/svg" viewBox="0 0 30 30">
  <defs>
    <style>
      .cls-1 {
        fill: #db334f;
      }
    </style>
  </defs>
  <path class="cls-1" d="m25.71,10.65c-.15.71-.74,1.09-1.19,1.57-.12.13-.28.1-.41-.02-.14-.13-.15-.29-.02-.43.23-.25.48-.49.71-.73.36-.38.36-.85-.02-1.22-.49-.48-.98-.95-1.48-1.45-.2.2-.39.39-.57.59-.03.04-.04.12-.03.17.07.43-.05.79-.29,1.14-.65.94-1.29,1.89-1.93,2.83-.04.06-.08.13-.1.15.37.39.73.78,1.09,1.17.25-.25.48-.48.71-.71.17-.17.34-.35.51-.52.16-.16.32-.17.46-.04.15.14.15.31-.02.48-.65.67-1.31,1.33-1.96,2-2.53,2.58-5.06,5.17-7.61,7.74-.5.5-.83,1.11-1.24,1.67-.32.44-.74.69-1.28.64-.26-.02-.54-.11-.76-.26-1.79-1.19-3.57-2.41-5.35-3.62-.69-.47-.85-1.32-.38-2.02.34-.52.7-1.03,1.05-1.54.15-.21.3-.26.47-.14.17.11.19.28.05.49-.34.5-.68.99-1.01,1.48-.32.48-.24.92.23,1.24,1.73,1.17,3.46,2.35,5.19,3.52.54.37.96.29,1.33-.25,2.3-3.37,4.6-6.74,6.91-10.11.04-.06.08-.12.12-.19-2.23-1.52-4.46-3.03-6.71-4.55-.05.07-.09.13-.13.19-1.61,2.36-3.22,4.72-4.83,7.08-.04.06-.08.13-.13.19-.12.13-.26.14-.4.05-.15-.1-.19-.24-.11-.4.03-.06.07-.11.1-.16,2.66-3.89,5.31-7.78,7.96-11.67.26-.38.59-.61,1.03-.73h.46c.73.21,1.25.78,1.92,1.14.15-.16.31-.31.46-.47.65-.66,1.51-.67,2.17-.03,1.43,1.39,2.85,2.79,4.28,4.17.33.32.64.65.75,1.12v.42Zm-6.25-3.48c-.07-.05-.13-.09-.18-.13-.94-.64-1.88-1.27-2.82-1.91-.51-.35-.94-.27-1.29.24-.84,1.23-1.68,2.46-2.52,3.69-.04.05-.07.11-.11.18,1.26.85,2.5,1.7,3.76,2.55,1.05-1.54,2.1-3.08,3.15-4.62Zm-.21,6.62c.05-.07.09-.13.14-.19.45-.66.9-1.32,1.35-1.98.4-.59.8-1.17,1.2-1.76.25-.37.21-.82-.12-1.07-.59-.43-1.21-.84-1.84-1.27-1.06,1.55-2.1,3.08-3.16,4.63.82.55,1.62,1.1,2.43,1.65Zm-3.84,6.75l.04.04c1.86-1.9,3.73-3.79,5.55-5.65-.35-.37-.67-.72-1.02-1.09-1.53,2.24-3.05,4.47-4.57,6.7Zm7.45-12.59s-.07-.08-.1-.11c-.85-.83-1.69-1.66-2.54-2.48-.31-.3-.71-.37-1.02-.14-.23.16-.41.38-.63.58,1.3.88,2.56,1.74,3.82,2.59.14-.13.3-.28.47-.44Z"/>
  <path class="cls-1" d="m9.92,19.22c-.28.46-.59.89-.9,1.33-.33.47-.79.65-1.3.53-.57-.14-1-.59-1.07-1.13-.04-.28.04-.54.19-.78.33-.49.66-.99,1-1.47.34-.46.92-.63,1.45-.45,1.38.67.76,1.74.63,1.96Zm-2.01,1.27c.29,0,.45-.08.59-.29.3-.43.6-.87.89-1.31.23-.35.16-.7-.17-.93-.33-.22-.7-.15-.93.18-.3.43-.6.87-.9,1.31-.14.21-.19.43-.06.67.14.24.35.37.56.38Z"/>
  <path class="cls-1" d="m11.23,16.85c-.07,0-.15-.02-.21-.07-.17-.12-.21-.35-.09-.52l2.33-3.33c.12-.17.35-.21.52-.09.17.12.21.35.09.52l-2.33,3.33c-.07.1-.19.16-.31.16Z"/>
  <path class="cls-1" d="m14.29,9.49c-.07,0-.15-.02-.22-.07-.17-.12-.21-.35-.09-.52l1.66-2.34c.12-.17.35-.21.52-.09.17.12.21.35.09.52l-1.66,2.34c-.07.1-.19.16-.31.16Z"/>
  <path class="cls-1" d="m15.78,10.4c-.07,0-.15-.02-.21-.06-.17-.12-.22-.35-.1-.52l1.11-1.63c.12-.17.35-.21.52-.1.17.12.22.35.1.52l-1.11,1.63c-.07.11-.19.16-.31.16Z"/>
  <path class="cls-1" d="m19.06,12.77c-.07,0-.15-.02-.21-.06l-.88-.6c-.17-.12-.22-.35-.1-.52.12-.17.35-.22.52-.1l.88.6c.17.12.22.35.1.52-.07.11-.19.16-.31.16Z"/>
  <path class="cls-1" d="m19.75,11.77c-.07,0-.15-.02-.21-.06l-.88-.6c-.17-.12-.22-.35-.1-.52.12-.17.35-.22.52-.1l.88.6c.17.12.22.35.1.52-.07.11-.19.16-.31.16Z"/>
  <path class="cls-1" d="m20.37,10.78c-.07,0-.15-.02-.21-.06l-.88-.6c-.17-.12-.22-.35-.1-.52.12-.17.35-.22.52-.1l.88.6c.17.12.22.35.1.52-.07.11-.19.16-.31.16Z"/>
  <path class="cls-1" d="m21.09,9.79c-.07,0-.15-.02-.21-.06l-.88-.6c-.17-.12-.22-.35-.1-.52.12-.17.35-.22.52-.1l.88.6c.17.12.22.35.1.52-.07.11-.19.16-.31.16Z"/>
  <path class="cls-1" d="m9.74,22.4c-.07,0-.14-.02-.21-.06-.17-.11-.22-.35-.1-.52l5.32-7.99c.12-.17.35-.22.52-.1.17.11.22.35.1.52l-5.32,7.99c-.07.11-.19.17-.31.17Z"/>
  <path class="cls-1" d="m11.15,23.34c-.07,0-.14-.02-.21-.06-.17-.11-.22-.35-.11-.52l4-6.1c.11-.17.34-.22.52-.11.17.11.22.35.11.52l-4,6.1c-.07.11-.19.17-.31.17Z"/>
</svg>