<?xml version="1.0" encoding="UTF-8"?>
<svg id="icones" xmlns="http://www.w3.org/2000/svg" viewBox="0 0 30 30">
  <defs>
    <style>
      .cls-1 {
        fill: #db334f;
      }
    </style>
  </defs>
  <path class="cls-1" d="m19.95,15.09c-2.94-1.1-4.96-3.11-6.04-6.06,0,.01-.04.07-.07.12-.37.69-.74,1.37-1.1,2.06-.03.06-.06.12-.1.17-.11.13-.24.17-.39.09-.14-.07-.19-.2-.16-.35.01-.06.05-.12.08-.18.63-1.18,1.26-2.36,1.89-3.54.36-.67,1.07-.98,1.93-.87.8.11,1.51.43,2.18.84,1.8,1.1,3.18,2.59,4.02,4.55.25.6.39,1.23.27,1.89-.1.52-.38.89-.85,1.14-2.29,1.22-4.58,2.45-6.86,3.69-.29.16-.51.45-.78.69.15.13.28.24.43.37.19-.2.41-.42.63-.64.22-.22.36-.22.58,0,.25.24.49.49.74.74.18.19.18.35,0,.54-.22.23-.45.45-.69.69.24.24.48.47.71.7.23.23.24.38,0,.61-.52.52-1.04,1.04-1.56,1.56-.22.22-.37.22-.6,0-.75-.74-1.49-1.49-2.23-2.23-.05-.05-.08-.1-.16-.2-.15.17-.27.31-.4.44-.43.42-.92.41-1.33,0-.99-.99-1.99-1.99-2.98-2.98-.41-.41-.41-.91,0-1.32.45-.45.9-.9,1.34-1.34.12-.12.26-.16.42-.07.14.08.18.22.14.36-.02.08-.09.15-.15.21-.41.42-.83.83-1.24,1.25-.23.23-.23.3,0,.52.96.96,1.92,1.92,2.88,2.88.23.23.3.23.54,0,.73-.73,1.45-1.45,2.17-2.18.12-.12.24-.23.38-.35-1.22-.34-2.1-1.09-2.79-2.07-.37-.53-.65-1.11-.62-1.78.01-.23.08-.48.18-.68.31-.63.65-1.24.98-1.85.11-.21.26-.28.44-.21.2.08.25.27.13.5-.29.55-.56,1.1-.88,1.63-.27.46-.28.91-.06,1.37.49,1.07,1.29,1.85,2.37,2.33.37.17.75.17,1.13-.03,1.81-.99,3.62-1.96,5.43-2.93.03-.02.07-.04.07-.04Zm1.9-1.69c0-.49-.1-.9-.27-1.28-.98-2.16-2.55-3.73-4.72-4.69-.42-.19-.87-.29-1.34-.27-.55.03-.9.32-.99.84-.02.12-.02.25-.02.38.02.63.24,1.2.54,1.74.84,1.54,2.03,2.75,3.52,3.66.62.38,1.29.67,2.03.72.68.04,1.1-.24,1.22-.83.02-.1.02-.21.02-.26Zm-9.53,7.65c.72.72,1.46,1.46,2.17,2.18.4-.4.81-.81,1.2-1.2-.72-.72-1.45-1.45-2.17-2.17-.4.39-.81.8-1.2,1.19Zm2.86-.52c.17-.16.34-.31.49-.45-.12-.13-.24-.26-.35-.38-.17.17-.33.33-.5.49.13.12.25.24.36.34Z"/>
  <path class="cls-1" d="m20.77,18.84c.83,0,1.67,0,2.5,0,.63,0,1.01.38,1.01,1.01,0,1.15,0,2.29,0,3.44,0,.61-.39.99-1,1-1.68,0-3.36,0-5.04,0-.61,0-1-.39-1-1,0-1.15,0-2.31,0-3.46,0-.6.39-.98.99-.98.85,0,1.69,0,2.54,0Zm-.01.64c-.83,0-1.67,0-2.5,0-.28,0-.38.1-.38.39,0,1.13,0,2.25,0,3.38,0,.3.09.4.39.4,1.66,0,3.32,0,4.98,0,.3,0,.39-.09.39-.4,0-1.12,0-2.24,0-3.36,0-.31-.09-.4-.4-.41-.83,0-1.65,0-2.48,0Z"/>
  <path class="cls-1" d="m9.09,5.72c.84,0,1.68,0,2.52,0,.52,0,.83.31.83.83,0,.94,0,1.88,0,2.82,0,.52-.31.83-.84.83-.47,0-.93,0-1.4,0-.09,0-.19.05-.26.1-.17.14-.33.31-.5.46-.18.16-.33.16-.51,0,0,0-.02-.02-.03-.03-.34-.46-.8-.62-1.37-.55-.34.04-.69.01-1.04,0-.46,0-.78-.33-.78-.79,0-.97,0-1.93,0-2.9,0-.48.32-.79.81-.8.85,0,1.71,0,2.56,0Zm.11,4.41c.14-.14.28-.26.41-.39.12-.13.26-.18.44-.18.5,0,1,0,1.5,0,.19,0,.26-.05.26-.25,0-.9,0-1.8,0-2.7,0-.19-.05-.26-.25-.26-1.65,0-3.3,0-4.96,0-.18,0-.24.06-.24.24,0,.91,0,1.81,0,2.72,0,.18.06.25.24.24.59,0,1.19-.01,1.78,0,.12,0,.26.06.35.14.16.12.3.28.46.43Z"/>
  <path class="cls-1" d="m17.47,10.19c.62,0,1.16.36,1.4.92.23.54.1,1.21-.3,1.61-.14.14-.33.16-.46.05-.14-.12-.15-.3-.02-.46.02-.03.05-.06.08-.09.37-.49.14-1.18-.44-1.35-.26-.08-.51-.04-.74.12-.04.03-.08.07-.13.1-.15.12-.33.11-.45-.02-.12-.14-.12-.32.03-.46.29-.27.63-.41,1.03-.41Z"/>
  <path class="cls-1" d="m20.12,21.55c0-.29,0-.57,0-.86,0-.16.05-.29.21-.35.15-.06.28,0,.39.12.25.28.51.56.76.84.17.19.17.33,0,.51-.26.29-.52.57-.78.86-.11.12-.24.17-.39.11-.15-.06-.2-.18-.2-.34,0-.3,0-.6,0-.9Z"/>
  <path class="cls-1" d="m8.6,8.92c-.4,0-.8,0-1.2,0-.25,0-.4-.12-.4-.32,0-.2.15-.32.4-.32.8,0,1.6,0,2.4,0,.25,0,.4.12.4.32,0,.2-.15.32-.4.32-.4,0-.8,0-1.2,0Z"/>
  <path class="cls-1" d="m7.95,7.64c-.2,0-.4,0-.6,0-.22,0-.36-.14-.35-.33,0-.18.14-.31.35-.31.41,0,.81,0,1.22,0,.22,0,.36.14.35.33,0,.18-.14.31-.35.31-.21,0-.41,0-.62,0Z"/>
</svg>