<?xml version="1.0" encoding="UTF-8"?>
<svg id="layout" xmlns="http://www.w3.org/2000/svg" viewBox="0 0 132.57 132.57">
  <defs>
    <style>
      .cls-1 {
        fill: #fff;
        stroke-width: 0px;
      }
    </style>
  </defs>
  <path class="cls-1" d="m97.03,20.69c.85.45.96,1.21.96,2.08-.01,22.72,0,45.43-.02,68.15,0,.79.19,1.36.79,1.91,2.29,2.11,4.53,4.27,6.77,6.42,1.79,1.71,1.8,3.56.06,5.31-.66.66-1.32,1.33-1.98,1.98-1.51,1.48-3.45,1.45-4.95-.11-2.94-3.06-5.86-6.14-8.79-9.21-.19-.2-.36-.43-.71-.85-.04.49-.07.72-.07.94,0,2.18,0,4.36,0,6.54,0,1.29-.44,1.73-1.74,1.73-18.59,0-37.17,0-55.76,0-1.33,0-1.78-.45-1.78-1.78,0-24.16,0-48.32,0-72.48,0-1.31.47-1.78,1.8-1.78,1.98,0,3.96.02,5.94.04.33,0,.67,0,1.12,0,0-.77,0-1.47,0-2.16,0-1.61.02-3.23-.01-4.84-.02-.84.21-1.5.98-1.9h57.39Zm-10.72,44.54v-32.62h-4.76c0,.35,0,.66,0,.96,0,3.37.03,6.74-.03,10.1,0,.51-.32,1.24-.72,1.46-.4.22-1.17.07-1.61-.19-1.25-.72-2.43-1.56-3.6-2.4-.42-.3-.71-.28-1.12,0-1.3.86-2.63,1.66-3.94,2.5-.53.34-1.05.57-1.66.24-.64-.35-.73-.93-.73-1.59.01-3.4,0-6.79,0-10.19,0-.31,0-.61,0-1.07h-35.56v70.4h22.46c.26-1.17.5-2.3.77-3.43.36-1.54,1.31-2.33,2.89-2.33,5.07-.02,10.13-.02,15.2,0,1.63,0,2.56.79,2.92,2.39.26,1.12.51,2.24.75,3.35h8.8c0-2.98.01-5.9-.02-8.81,0-.29-.2-.64-.41-.87-1.25-1.35-2.52-2.67-3.79-4.01-1.5-1.57-3.01-3.14-4.55-4.76-.62.79-1.2,1.52-1.75,2.23,1.05,1.65.94,2.84-.38,4.16-.56.56-1.11,1.13-1.68,1.68-1.19,1.13-2.79,1.18-3.95.03-3.26-3.22-6.51-6.46-9.72-9.73-1.12-1.14-1.07-2.72.03-3.89.66-.7,1.34-1.38,2.04-2.04.93-.88,2.18-1.01,3.3-.4.19.1.38.21.53.3,3.94-2.75,7.24-6.06,9.95-9.95-1.05-1.88-.91-2.83.61-4.36.42-.42.84-.84,1.26-1.26,1.47-1.45,2.98-1.46,4.44,0,1.3,1.3,2.59,2.61,4.04,4.08Zm8.89-41.76h-53.82c0,1.8.04,3.55-.02,5.3-.02.74.25.88.93.88,8.8.02,17.6.06,26.4.1,6.22.03,12.45.07,18.67.11,1.29,0,1.71.44,1.72,1.75,0,.23,0,.45,0,.68,0,11.6,0,23.2-.01,34.8,0,.61.14,1.07.61,1.48.69.62,1.34,1.3,1.99,1.97,1.16,1.22,1.16,2.8-.01,4.02-.68.71-1.43,1.38-2.09,2.11-.24.26-.45.65-.46.98-.04,1.75-.05,3.51,0,5.26.01.39.22.88.5,1.15,1.65,1.63,3.35,3.21,5.03,4.81.15.14.33.25.57.44V23.46Zm-15.81,58.82c.31.34.52.57.73.79,4.9,5.14,9.79,10.28,14.69,15.41,1.83,1.92,3.67,3.85,5.5,5.77.82.85.87.85,1.73,0,.46-.46.92-.92,1.38-1.38.94-.94.95-.95,0-1.85-7.15-6.81-14.29-13.61-21.44-20.42-.14-.13-.29-.25-.5-.42-.7.7-1.37,1.37-2.1,2.09Zm-11.34-3.7c2,2,3.96,3.96,5.95,5.96,2.76-3.73,6.08-7.01,9.81-9.81-2.01-2.01-3.96-3.96-5.95-5.96-2.71,3.79-5.97,7.09-9.8,9.81Zm2.84-46.04v9.05c.95-.6,1.85-1.07,2.64-1.69,1.1-.87,2.06-.8,3.11.07.63.53,1.37.94,2.12,1.44v-8.87h-7.86Zm3.18,67.29h-15.59c-.23,1.02-.45,2-.67,3h16.95c-.24-1.04-.46-2.02-.69-3Zm15.56-27.18c-3.26-3.26-6.48-6.49-9.63-9.64-.6.59-1.26,1.24-1.87,1.83,3.2,3.2,6.43,6.42,9.67,9.66.6-.6,1.25-1.26,1.82-1.84Zm-27.44,8.08c3.24,3.24,6.47,6.47,9.67,9.67.59-.58,1.25-1.22,1.87-1.83-3.24-3.24-6.48-6.46-9.68-9.66-.61.59-1.27,1.24-1.85,1.82Zm21.71-2.6c.77.9,1.54,1.81,2.46,2.88,0-1.39.03-2.56-.01-3.73-.02-.59-.41-.74-.9-.37-.6.46-1.19.94-1.54,1.22Z"/>
  <path class="cls-1" d="m59.42,54.97c-5.35,0-10.69,0-16.04,0-.28,0-.57.03-.85-.03-.72-.15-1.15-.6-1.17-1.35-.02-.7.53-1.25,1.28-1.33.2-.02.4-.01.59-.01,10.81,0,21.61,0,32.42,0,.23,0,.46-.02.68.02.7.1,1.13.5,1.19,1.22.06.76-.33,1.24-1.05,1.43-.27.07-.56.05-.84.05-5.4,0-10.81,0-16.21,0Z"/>
  <path class="cls-1" d="m55.26,64.84c-3.96,0-7.92,0-11.88,0-.23,0-.45.01-.68,0-.79-.06-1.35-.64-1.34-1.37,0-.73.57-1.28,1.37-1.34.2-.01.4,0,.59,0,8.01,0,16.02,0,24.02,0,.25,0,.52-.02.76.02.73.14,1.17.61,1.16,1.35,0,.74-.45,1.2-1.19,1.32-.25.04-.51.02-.76.02-4.02,0-8.04,0-12.05,0Z"/>
  <path class="cls-1" d="m49.58,74.7c-2.17,0-4.35,0-6.52,0-1.07,0-1.69-.5-1.7-1.35,0-.83.64-1.37,1.69-1.37,4.35,0,8.7,0,13.05,0,1.05,0,1.69.53,1.7,1.36,0,.84-.62,1.35-1.69,1.35-2.17,0-4.35,0-6.52,0Z"/>
  <path class="cls-1" d="m49.66,42.4c2.17,0,4.35,0,6.52,0,1,0,1.61.52,1.61,1.33,0,.8-.63,1.37-1.6,1.38-4.41.01-8.81.01-13.22,0-.98,0-1.61-.56-1.61-1.37,0-.82.6-1.34,1.6-1.34,2.23,0,4.46,0,6.69,0Z"/>
  <path class="cls-1" d="m49.5,84.56c-2.15,0-4.29,0-6.44,0-1.08,0-1.7-.5-1.7-1.34,0-.83.64-1.37,1.68-1.38,4.35,0,8.7,0,13.05,0,1.05,0,1.7.53,1.7,1.35,0,.84-.61,1.35-1.68,1.36-2.2,0-4.41,0-6.61,0Z"/>
  <path class="cls-1" d="m49.58,94.42c-2.17,0-4.35,0-6.52,0-1.07,0-1.7-.5-1.69-1.34,0-.82.64-1.37,1.7-1.37,4.35,0,8.7,0,13.04,0,.62,0,1.26.11,1.49.74.14.4.17,1.04-.06,1.32-.28.35-.88.61-1.35.63-2.2.06-4.4.03-6.61.03Z"/>
</svg>