<?xml version="1.0" encoding="UTF-8"?>
<svg id="layout" xmlns="http://www.w3.org/2000/svg" viewBox="0 0 132.57 132.57">
  <defs>
    <style>
      .cls-1 {
        fill: #fff;
        stroke-width: 0px;
      }
    </style>
  </defs>
  <path class="cls-1" d="m56,87.55c0-1.71,0-3.24,0-4.77,0-1.27.52-1.8,1.77-1.8,5.66,0,11.32,0,16.98,0,1.3,0,1.8.53,1.81,1.86,0,1.52,0,3.05,0,4.72,1.03-.44,1.95-.84,2.87-1.23,2.5-1.07,5.02-2.05,7.29-3.62.98-.68,2.18-1.04,3.34-1.58-2.43-2.41-3.59-5.37-3.15-8.84.34-2.66,1.58-4.86,3.65-6.58,4.09-3.38,10.01-3.09,13.78.63,3.5,3.45,4.67,10.06-.37,14.98.3.12.57.24.85.34,3.29,1.25,5.48,4.22,5.51,7.73.05,6.42.02,12.85.01,19.27,0,1.09-.56,1.66-1.63,1.66-7.22.01-14.44.01-21.67,0-1.14,0-1.65-.59-1.66-1.83,0-4.04,0-8.08,0-12.12,0-.33,0-.67,0-1.14-.35.1-.63.16-.89.25-2.4.81-4.8,1.64-7.21,2.42-.57.18-.74.45-.73,1.04.04,2.2.02,4.41.01,6.61,0,1.32-.52,1.84-1.83,1.84-5.63,0-11.26,0-16.89,0-1.32,0-1.83-.52-1.84-1.83,0-2.23,0-4.47,0-6.7,0-.43-.04-.72-.54-.89-2.64-.86-5.27-1.77-7.9-2.66-.08-.03-.18,0-.38,0,0,.33,0,.65,0,.97,0,4.01,0,8.02,0,12.02,0,1.56-.47,2.03-2.02,2.03-6.98,0-13.95,0-20.93,0-1.56,0-2.01-.46-2.01-2.03,0-6.06,0-12.12,0-18.17,0-4.28,2.01-7.16,6.04-8.65.11-.04.2-.12.31-.18-5.15-5.06-3.71-11.73-.28-15.02,3.93-3.76,9.9-3.9,14-.36,3.45,2.99,5.53,9.81.38,15.13,2.1,1.16,4.2,2.43,6.4,3.5,2.22,1.08,4.53,1.96,6.93,2.99Zm-17.39-3.57c.33,2.28.6,4.53.98,6.75.24,1.39.2,2.67-.42,4-.84,1.79-1.51,3.67-2.23,5.52-.28.71-.67,1.26-1.49,1.27-.83.01-1.24-.52-1.51-1.24-.7-1.79-1.36-3.6-2.17-5.35-.66-1.43-.76-2.82-.47-4.35.41-2.15.63-4.34.94-6.5-3.88-.7-7.06,1.86-7.08,5.67-.03,5.69,0,11.38,0,17.07,0,.17.03.35.04.52h19.05c0-.4,0-.73,0-1.06,0-4.22,0-8.44,0-12.66,0-1.63.81-2.23,2.35-1.71,2.72.91,5.44,1.83,8.16,2.75.39.13.78.25,1.26.4,0-1.29-.04-2.45.02-3.61.02-.57-.22-.78-.69-.99-3.9-1.74-7.96-3.12-11.55-5.53-1.51-1.01-3.31-1.17-5.17-.94Zm49.71,23.36h19.09c0-.28,0-.49,0-.7,0-5.6.01-11.19,0-16.79,0-3.88-3.07-6.41-7.01-5.79,0,.17-.02.35,0,.52.29,2.06.62,4.11.85,6.17.11.95.27,2-.02,2.86-.75,2.26-1.74,4.43-2.61,6.65-.28.71-.68,1.25-1.51,1.25-.83,0-1.22-.54-1.5-1.26-.87-2.22-1.78-4.42-2.64-6.64-.16-.41-.24-.9-.21-1.33.08-.97.27-1.94.41-2.9.26-1.8.51-3.6.76-5.42-2.4-.29-4.43.38-6.36,1.59-1.31.83-2.7,1.55-4.1,2.2-2.27,1.05-4.59,1.99-6.87,2.98v4.29c.38-.11.71-.2,1.02-.3,2.78-.94,5.56-1.87,8.33-2.83.74-.26,1.49-.38,1.99.34.25.36.35.91.36,1.37.03,4.55.02,9.11.02,13.74Zm-29.34-2.93h14.58v-20.46h-14.58v20.46Zm-30.62-29.31c.46,3.39,3.83,6.02,7.48,5.87,3.3-.14,6.55-2.95,6.7-5.87-2.64.1-4.98-.73-7.08-2.37-2.08,1.68-4.48,2.37-7.1,2.38Zm68.72-2.38c-2.1,1.7-4.5,2.36-7.1,2.39.47,3.45,3.95,6.08,7.62,5.85,3.28-.21,6.48-3.07,6.53-5.86-2.6.07-4.93-.72-7.05-2.38Zm7.11-.58c-.51-3.41-3.82-5.97-7.44-5.85-3.29.12-6.51,2.88-6.74,5.83,2.17.14,4.01-.57,5.59-2.03,1.25-1.16,1.72-1.16,3,.03,1.56,1.44,3.39,2.12,5.59,2.02Zm-75.85-.02c2.15.15,3.96-.53,5.51-1.91,1.47-1.31,1.77-1.3,3.2-.02,1.56,1.39,3.38,2.08,5.51,1.92-.44-3.17-3.56-5.76-6.9-5.82-3.54-.07-6.67,2.39-7.32,5.83Zm7.21,11.81c-.08,0-.16,0-.23,0-.07.27-.17.54-.21.82-.32,2.2-.57,4.42-.97,6.6-.32,1.75.75,3.01,1.28,4.73.37-.9.59-1.57.91-2.18.51-.97.48-1.96.31-3-.32-1.92-.56-3.86-.84-5.79-.06-.4-.16-.79-.24-1.18Zm61.57,12.16c.44-1.08.8-1.91,1.1-2.76.14-.39.29-.83.24-1.22-.31-2.48-.67-4.95-1.03-7.42-.04-.26-.15-.52-.23-.77-.08,0-.16.02-.24.03-.07.35-.15.69-.2,1.04-.29,1.99-.58,3.98-.85,5.97-.08.62-.22,1.3-.06,1.88.27,1.02.76,1.98,1.26,3.25Z"/>
  <path class="cls-1" d="m46.78,58.52c.18-.45.32-.85.49-1.24.29-.64.51-1.34.92-1.89.78-1.04.32-1.96-.13-2.89-.11-.23-.43-.41-.7-.51-1.12-.4-2.26-.76-3.39-1.13-.8-.26-1.2-.79-1.19-1.64,0-2.33.01-4.65,0-6.98,0-.89.42-1.42,1.26-1.68,1.05-.33,2.09-.69,3.13-1.04,1.11-.38,1.75-1.88,1.26-2.94-.43-.91-.85-1.83-1.3-2.73-.36-.71-.29-1.33.18-1.96,1.47-1.98,3.19-3.7,5.18-5.17.6-.44,1.21-.53,1.88-.2.99.48,1.98.95,2.98,1.41.84.38,2.4-.3,2.7-1.17.37-1.1.75-2.2,1.09-3.31.27-.84.81-1.24,1.69-1.24,2.29.01,4.59.02,6.88,0,.93,0,1.47.42,1.74,1.3.32,1.05.69,2.09,1.04,3.13.32.95,2,1.65,2.92,1.22.91-.43,1.83-.85,2.73-1.3.71-.36,1.33-.3,1.96.17,1.98,1.47,3.71,3.19,5.17,5.17.44.6.53,1.21.2,1.88-.36.74-.65,1.53-1.07,2.23-.49.81-.5,1.53-.09,2.39.3.64.63,1.03,1.32,1.21.94.25,1.85.62,2.79.9.96.28,1.39.87,1.38,1.88-.03,2.23-.02,4.47,0,6.7,0,.92-.37,1.5-1.26,1.78-1.08.34-2.15.71-3.22,1.07-.83.28-1.59,1.98-1.23,2.77.43.94.86,1.89,1.33,2.82.38.74.39,1.44-.19,2.03-1.66,1.7-3.34,3.39-5.03,5.05-.65.64-1.4.62-2.2.2-.81-.43-1.65-.79-2.48-1.19-1.09-.52-2.69.16-3.08,1.31-.34,1.01-.69,2.02-1.01,3.04-.27.84-.81,1.25-1.7,1.24-2.29-.01-4.59-.02-6.88,0-.93,0-1.48-.42-1.74-1.3-.32-1.05-.69-2.09-1.04-3.13-.35-1.05-1.86-1.7-2.88-1.23-.92.42-1.84.84-2.73,1.3-.74.38-1.37.31-2.04-.19-1.96-1.45-3.67-3.14-5.09-5.12-.23-.31-.36-.69-.55-1.04Zm35.71-.24c-.08-.2-.15-.37-.23-.53-.34-.72-.63-1.46-1.03-2.15-.55-.94-.58-1.8-.03-2.76.36-.63.49-1.4.86-2.01.31-.5.76-1.03,1.28-1.27.93-.45,1.97-.66,2.93-1.05.25-.1.54-.48.55-.74.06-1.34,0-2.69.04-4.04.01-.49-.17-.7-.63-.83-.94-.27-1.85-.62-2.79-.91-.73-.22-1.19-.64-1.43-1.39-.26-.81-.74-1.56-.95-2.38-.15-.6-.18-1.32,0-1.9.28-.9.76-1.73,1.2-2.57.24-.45.2-.78-.16-1.13-.92-.89-1.83-1.8-2.72-2.72-.37-.38-.7-.36-1.14-.13-.84.44-1.67.92-2.57,1.2-.56.18-1.25.16-1.82,0-.88-.24-1.74-.6-2.53-1.05-.49-.27-.97-.73-1.2-1.23-.44-.93-.66-1.97-1.04-2.93-.1-.25-.47-.56-.73-.57-1.37-.06-2.75-.06-4.13,0-.25.01-.62.32-.72.58-.35.88-.61,1.79-.92,2.69-.55,1.63-4.22,3.22-5.77,2.49-.86-.4-1.7-.84-2.58-1.19-.27-.11-.75-.07-.95.11-.99.91-1.94,1.86-2.85,2.85-.18.2-.23.68-.12.94.36.91.82,1.77,1.23,2.66.51,1.11-.83,4.94-1.92,5.48-.22.11-.46.17-.69.25-.87.29-1.73.62-2.61.86-.48.13-.63.35-.62.83.03,1.31.04,2.63,0,3.95-.02.54.18.74.67.88.97.28,1.92.62,2.87.96,1.2.43,2.88,4.14,2.42,5.33-.07.17-.15.33-.23.5-.37.77-.71,1.56-1.11,2.31-.22.43-.27.77.12,1.14.94.91,1.84,1.88,2.81,2.76.21.19.73.22,1.02.11.88-.34,1.72-.8,2.58-1.19,1.12-.52,4.93.79,5.48,1.89.11.22.18.45.25.69.29.87.6,1.73.86,2.61.13.45.32.65.82.64,1.35-.03,2.69.02,4.04-.04.26-.01.64-.29.75-.54.35-.84.65-1.72.88-2.6.24-.91.74-1.48,1.67-1.74.7-.2,1.39-.49,2.03-.84.78-.43,1.49-.4,2.26.01.78.42,1.58.81,2.41,1.12.29.11.81.07,1.02-.12.97-.88,1.88-1.83,2.8-2.77.14-.15.24-.34.36-.51Z"/>
  <path class="cls-1" d="m70.65,92.79v2.82h-8.73v-2.82h8.73Z"/>
  <path class="cls-1" d="m61.92,101.47v-2.83h8.7v2.83h-8.7Z"/>
  <path class="cls-1" d="m61.92,89.72v-2.82h8.73v2.82h-8.73Z"/>
  <path class="cls-1" d="m66.26,32.51c7.3,0,13.25,5.94,13.24,13.24-.01,7.26-5.94,13.18-13.2,13.19-7.3,0-13.25-5.94-13.24-13.24,0-7.26,5.94-13.18,13.2-13.19Zm10.3,13.2c0-5.65-4.64-10.27-10.3-10.26-5.65,0-10.27,4.64-10.26,10.29,0,5.65,4.65,10.27,10.3,10.26,5.65,0,10.27-4.64,10.26-10.3Z"/>
</svg>