<?xml version="1.0" encoding="UTF-8"?>
<svg id="layout" xmlns="http://www.w3.org/2000/svg" viewBox="0 0 132.57 132.57">
  <defs>
    <style>
      .cls-1 {
        fill: #fff;
        stroke-width: 0px;
      }
    </style>
  </defs>
  <path class="cls-1" d="m52.43,38.82c0-1.54-.02-3,0-4.45.05-2.77,1.84-5.02,4.5-5.66.55-.13,1.13-.15,1.69-.16,5.94-.01,11.89-.01,17.83,0,3.81,0,6.22,2.44,6.23,6.28,0,1.3,0,2.59,0,3.99.39,0,.71,0,1.03,0,5.56,0,11.13.09,16.69-.03,3.52-.07,6.38,2.48,6.37,6.36-.05,14.65-.02,29.3-.02,43.95,0,3.89-2.42,6.3-6.29,6.3-21.93,0-43.86,0-65.78,0-3.89,0-6.32-2.41-6.32-6.28,0-14.68,0-29.36,0-44.04,0-3.84,2.42-6.27,6.24-6.27,5.59,0,11.18,0,16.77,0,.32,0,.64,0,1.05,0Zm21.97,27.39c.31,0,.49,0,.68,0,5.75,0,11.51.02,17.26,0,6.29-.03,11.03-4.82,11.06-11.12.01-3.36,0-6.73,0-10.09,0-1.87-.98-2.85-2.86-2.86-21.98,0-43.96,0-65.94,0-1.89,0-2.87.98-2.87,2.85,0,3.39,0,6.78,0,10.17,0,.54.01,1.09.1,1.62.92,5.62,5.33,9.41,11.03,9.43,5.73.02,11.45,0,17.18,0,.21,0,.42-.03.69-.05,0-1.62,0-3.18,0-4.75,0-1.43.59-2.03,2.03-2.03,3.2,0,6.4,0,9.61,0,1.44,0,2.04.59,2.04,2.02,0,1.57,0,3.14,0,4.81Zm-42.68-1.76c0,.45,0,.66,0,.87,0,7.98,0,15.95,0,23.93,0,1.87.98,2.84,2.87,2.84,21.98,0,43.96,0,65.93,0,1.89,0,2.88-.97,2.88-2.84,0-7.98,0-15.95,0-23.93,0-.23-.03-.45-.05-.74-.14.11-.21.14-.26.2-3.06,3.3-6.85,4.79-11.33,4.74-5.45-.06-10.91-.01-16.36-.01h-.99c0,1.67,0,3.21,0,4.76,0,1.49-.57,2.05-2.08,2.05-3.15,0-6.29,0-9.44,0-1.65,0-2.16-.53-2.16-2.21,0-1.51,0-3.02,0-4.6-.42,0-.74,0-1.06,0-5.51,0-11.02.04-16.52-.03-1.53-.02-3.09-.22-4.57-.6-2.66-.68-4.85-2.22-6.84-4.44Zm47.55-25.68c0-1.69.09-3.34-.03-4.98-.08-1.08-1.16-1.91-2.31-1.92-6.24-.02-12.47-.02-18.71,0-1.09,0-2.19.71-2.28,1.73-.16,1.7-.04,3.43-.04,5.16h23.37Zm-15.18,24v10.2h6.92v-10.2h-6.92Z"/>
</svg>