<?xml version="1.0" encoding="UTF-8"?>
<svg xmlns="http://www.w3.org/2000/svg" viewBox="0 0 132.57 132.57">
  <defs>
    <style>
      .cls-1 {
        fill: #db334f;
        stroke-width: 0px;
      }
    </style>
  </defs>
  <path class="cls-1" d="m106.89,84.68c-.94,1.82-1.93,2.19-3.87,1.41-6.91-2.76-13.81-5.53-20.72-8.29-.24-.1-.49-.19-.85-.33-.02.32-.04.57-.04.81,0,1.85,0,3.7,0,5.55-.03,4.56-3.17,7.76-7.72,7.76-13.4.02-26.8.02-40.2,0-4.62,0-7.78-3.24-7.78-7.88,0-11.63,0-23.26,0-34.89,0-4.67,3.18-7.87,7.87-7.87,13.32-.01,26.64-.01,39.96,0,4.7,0,7.86,3.16,7.88,7.85,0,1.8,0,3.59,0,5.39,0,.26,0,.51,0,.89.38-.14.64-.23.9-.33,6.91-2.76,13.81-5.53,20.72-8.29,1.95-.78,2.93-.42,3.87,1.41v36.8Zm-53.33,2.17c6.66,0,13.32,0,19.98,0,2.03,0,3.09-1.05,3.09-3.07,0-11.65,0-23.3,0-34.96,0-2.07-1.05-3.1-3.14-3.1-13.29,0-26.58,0-39.87,0-2.16,0-3.18,1.04-3.18,3.22,0,11.52,0,23.04,0,34.56,0,2.37.98,3.34,3.38,3.34,6.58,0,13.16,0,19.74,0Zm48.52-6.27v-28.57c-.16.05-.25.08-.35.12-6.61,2.64-13.22,5.3-19.85,7.92-.51.2-.5.51-.5.92,0,3.54.02,7.08-.01,10.62,0,.59.22.82.73,1.02,3.51,1.38,7.01,2.78,10.51,4.18,3.13,1.25,6.26,2.51,9.46,3.79Z"/>
</svg>