<?xml version="1.0" encoding="UTF-8"?>
<svg id="layout" xmlns="http://www.w3.org/2000/svg" viewBox="0 0 132.57 132.57">
  <defs>
    <style>
      .cls-1 {
        fill: #fff;
        stroke-width: 0px;
      }
    </style>
  </defs>
  <polygon class="cls-1" points="64.01 67.79 68.67 67.79 68.67 58.68 77.72 58.68 77.72 54.18 68.67 54.18 68.67 45.08 64.01 45.08 64.01 54.18 54.9 54.18 54.9 58.68 64.01 58.68 64.01 67.79"/>
  <path class="cls-1" d="m101.11,106.72c-.21-.7-.72-1.52-2.34-1.41-.16,0-.31,0-.46,0h-56.42s-.3,0-.3,0c-.24,0-.49.01-.74-.01-2.38-.19-4.07-1.33-5.01-3.39-.95-2.08-.73-4.07.67-5.93,1.18-1.56,2.82-2.29,5.15-2.29,15.83.01,31.67,0,47.5,0h9.5c1.85,0,2.54-.65,2.54-2.41,0-20.88,0-41.75,0-62.63,0-3.27-2.21-5.47-5.5-5.47-17.26,0-34.51,0-51.77,0-.97,0-1.87.09-2.67.26-5.91,1.25-9.89,6.18-9.89,12.25,0,10.58,0,21.16,0,31.73v17.61c0,4.76,0,9.52,0,14.28,0,3.5,1.46,6.32,4.23,8.14.87.57,1.87.92,2.83,1.26.42.15.85.3,1.26.46l60.1.04.13-.07c1.1-.63,1.5-1.46,1.19-2.45Zm-65.81-27.14c0-14.65,0-29.29,0-43.94,0-4.85,3.65-8.5,8.49-8.51,7.86-.01,15.71-.02,23.57-.02,5.99,0,11.99,0,17.98,0h10.39c1.07,0,1.52.47,1.52,1.56v61.08s-13.73,0-13.73,0c-13.81,0-27.62,0-41.43-.02h-.03c-2.77,0-4.96.63-6.78,1.97v-12.14Z"/>
  <path class="cls-1" d="m92.56,97.54c-16.89,0-33.79,0-50.69,0-.47,0-.96.02-1.41.19-.85.32-1.29,1.09-1.16,2.06.12.87.69,1.46,1.57,1.63.19.03.4.04.6.04.07,0,.14,0,.21,0h50.81s.21,0,.21,0c.26,0,.52,0,.77-.03.97-.14,1.6-.79,1.69-1.76.09-.94-.41-1.71-1.3-1.99-.43-.14-.88-.15-1.31-.15Z"/>
  <path class="cls-1" d="m66.2,77.48h.02c5.72,0,11.09-2.23,15.12-6.28,4.02-4.03,6.22-9.38,6.2-15.06-.03-11.67-9.56-21.16-21.23-21.16h-.01c-5.69,0-11.04,2.23-15.06,6.26-4.02,4.03-6.23,9.37-6.22,15.03.02,11.7,9.52,21.21,21.18,21.21Zm-17.24-21.38c0-9.29,7.9-17.16,17.24-17.19h.05c4.61,0,8.96,1.8,12.23,5.07,3.3,3.29,5.11,7.66,5.12,12.3,0,9.31-7.82,17.21-17.08,17.24h-.07c-4.73,0-9.13-1.8-12.41-5.06-3.27-3.26-5.08-7.66-5.08-12.37Z"/>
</svg>