<?xml version="1.0" encoding="UTF-8"?>
<svg id="layout" xmlns="http://www.w3.org/2000/svg" viewBox="0 0 132.57 132.57">
  <defs>
    <style>
      .cls-1 {
        fill: #fff;
        stroke-width: 0px;
      }
    </style>
  </defs>
  <g>
    <path class="cls-1" d="m101.81,106.71c-.21-.7-.72-1.52-2.35-1.41-.16,0-.31,0-.46,0h-56.6s-.3,0-.3,0c-.24,0-.49.01-.74-.01-2.39-.19-4.08-1.33-5.03-3.4-.96-2.08-.73-4.08.67-5.94,1.18-1.57,2.83-2.3,5.17-2.3,15.88.01,31.77,0,47.65,0h9.53c1.86,0,2.55-.66,2.55-2.42,0-20.94,0-41.89,0-62.83,0-3.29-2.21-5.49-5.51-5.49-17.32,0-34.62,0-51.94,0-.97,0-1.87.09-2.67.26-5.93,1.26-9.92,6.2-9.92,12.29,0,10.61,0,21.22,0,31.83v17.67c0,4.78,0,9.55,0,14.33,0,3.51,1.47,6.34,4.24,8.17.87.58,1.87.93,2.84,1.27.42.15.85.3,1.26.47l60.29.04.13-.07c1.1-.63,1.5-1.46,1.2-2.46Zm-66.02-27.23c0-14.69,0-29.38,0-44.08,0-4.86,3.67-8.53,8.52-8.54,7.88-.01,15.76-.02,23.65-.02,6.01,0,12.02,0,18.04,0h10.42c1.07,0,1.53.47,1.53,1.57v61.28s-13.77,0-13.77,0c-13.85,0-27.71,0-41.56-.02h-.03c-2.78,0-4.97.63-6.8,1.97v-12.18Z"/>
    <path class="cls-1" d="m93.24,97.5c-16.95,0-33.9,0-50.85,0-.47,0-.96.02-1.41.19-.85.32-1.29,1.09-1.16,2.07.12.87.69,1.47,1.58,1.64.2.03.4.04.6.04.07,0,.14,0,.21,0h50.97s.21,0,.21,0c.26,0,.52,0,.78-.03.97-.14,1.6-.8,1.69-1.77.09-.94-.41-1.71-1.3-2-.43-.14-.88-.15-1.31-.15Z"/>
  </g>
  <path class="cls-1" d="m88.83,68.64c-.5.74-.92,1.38-1.35,2.02-.64.96-1.41,1.23-2.13.76-.73-.48-.89-1.39-.15-2.23,1.96-2.24,2.59-4.79,2.3-7.71-.17-1.75-.03-3.53-.03-5.48-.8.37-1.46.78-2.18.98-1.64.45-2.11,1.42-1.98,3.09.18,2.34.02,4.71.05,7.07.01.85-.31,1.41-1.08,1.79-5.27,2.62-10.53,5.25-15.79,7.9-.68.34-1.29.34-1.98-.01-5.21-2.62-10.42-5.24-15.65-7.82-.85-.42-1.23-.98-1.22-1.94.04-2.84,0-5.68.03-8.52,0-.47-.14-.71-.57-.91-1.75-.79-3.49-1.64-5.24-2.44-.61-.28-1.05-.68-1.05-1.38,0-.7.45-1.09,1.06-1.37,7.56-3.54,15.11-7.09,22.65-10.67.73-.35,1.35-.29,2.06.04,7.33,3.46,14.66,6.91,22,10.36.24.11.5.2.74.32.63.31.94.81.94,1.54-.02,3.7-.04,7.39-.03,11.09,0,.4.15.84.36,1.18.63,1.03,1.33,2.01,1.99,3.02.54.83.42,1.66-.28,2.11-.67.42-1.45.21-1.99-.58-.47-.68-.92-1.38-1.48-2.21Zm-43.35-14.86c.21.12.33.21.47.28,6.35,2.99,12.71,5.98,19.07,8.94.28.13.74.11,1.03-.02,5.35-2.48,10.69-4.99,16.03-7.5.1-.05.19-.14.3-.23h-15.51c0,.46.02.87,0,1.26-.06.87-.58,1.39-1.35,1.4-.77,0-1.36-.51-1.37-1.37-.04-1.82-.04-3.64,0-5.46.02-.85.61-1.39,1.37-1.38.76,0,1.29.55,1.35,1.41.03.42,0,.84,0,1.27h15.55c-.14-.11-.2-.17-.26-.2-5.4-2.54-10.79-5.09-16.2-7.6-.28-.13-.73-.08-1.03.06-3.79,1.75-7.56,3.54-11.33,5.32-2.68,1.26-5.37,2.53-8.12,3.82Zm35.12,5.58c-.17.02-.25,0-.32.04-4.33,2.03-8.66,4.05-12.97,6.11-.21.1-.4.48-.42.74-.05.8,0,1.61-.02,2.41-.02,1.02-.56,1.63-1.39,1.62-.83-.01-1.34-.62-1.35-1.65-.01-.75-.03-1.5,0-2.25.02-.49-.13-.76-.6-.98-4.17-1.94-8.32-3.9-12.48-5.86-.18-.09-.38-.13-.65-.22,0,2.25.03,4.42-.02,6.59-.01.6.19.89.72,1.15,4.58,2.26,9.15,4.55,13.71,6.85.51.26.9.25,1.41,0,4.13-2.09,8.24-4.23,12.44-6.18,1.53-.71,2.16-1.52,1.98-3.22-.18-1.68-.04-3.4-.04-5.13Z"/>
</svg>