<?xml version="1.0" encoding="UTF-8"?>
<svg id="icones" xmlns="http://www.w3.org/2000/svg" viewBox="0 0 20 20">
  <defs>
    <style>
      .cls-1 {
        fill: #db334f;
      }
    </style>
  </defs>
  <g>
    <path class="cls-1" d="m13.52,10.39c0,.47,0,.94,0,1.41,0,.29-.15.43-.43.44-.22,0-.44,0-.66,0-.28,0-.43-.15-.43-.43,0-.94,0-1.89,0-2.83,0-.28.15-.43.43-.43.23,0,.46,0,.69,0,.25,0,.4.16.4.4,0,.48,0,.96,0,1.44Zm-1.07-1.4v2.8h.62v-2.8h-.62Z"/>
    <path class="cls-1" d="m6.58,10.39c0-.47,0-.94,0-1.41,0-.29.15-.43.43-.43.22,0,.45,0,.67,0,.25,0,.41.15.41.4,0,.96,0,1.93,0,2.89,0,.24-.15.39-.38.4-.25.01-.5,0-.75,0-.24,0-.39-.16-.39-.41,0-.48,0-.96,0-1.44Zm.45-1.4v2.79h.62v-2.79h-.62Z"/>
    <path class="cls-1" d="m9.29,10.37c0-.46,0-.92,0-1.38,0-.31.14-.45.45-.45.22,0,.44,0,.66,0,.25,0,.4.15.41.4,0,.96,0,1.93,0,2.89,0,.24-.15.39-.4.4-.24,0-.48,0-.72,0-.25,0-.4-.16-.4-.41,0-.48,0-.97,0-1.45Zm.45-1.38v2.79h.61v-2.79h-.61Z"/>
  </g>
  <path class="cls-1" d="m15.84,17.83H4.16c-.31,0-.57-.25-.57-.57v-.91c0-.31.25-.57.57-.57h11.68c.31,0,.56.25.56.57v.91c0,.31-.25.57-.56.57Zm-11.68-1.54s-.07.03-.07.07v.91s.03.07.07.07h11.68s.07-.03.07-.07v-.91s-.03-.07-.07-.07H4.16Z"/>
  <g>
    <path class="cls-1" d="m4.39,15.79h5.28c0-.32-.01-.63,0-.94.01-.2.19-.33.38-.33.2,0,.37.14.38.34.02.31,0,.61,0,.93h.45c0-.06,0-.1,0-.15,0-.25,0-.5,0-.75-.02-.46-.38-.81-.83-.81-.45,0-.81.35-.83.82,0,.22,0,.43,0,.65,0,.08,0,.16,0,.25h-1.05c0-.06,0-.1,0-.15,0-.25,0-.51,0-.76,0-.35-.24-.65-.57-.76-.52-.17-1.06.21-1.08.76,0,.3,0,.6,0,.92h-1.68v-.19c0-1.81,0-3.62,0-5.43,0-.06,0-.13-.01-.19-.02-.11-.11-.18-.21-.16-.08.02-.15.09-.2.16-.03.05-.02.13-.02.2,0,1.81,0,3.62,0,5.43v.19Zm2.57-.95c0-.19.2-.32.4-.31.19,0,.36.15.36.34.01.31,0,.61,0,.93h-.76c0-.32-.01-.64,0-.95Z"/>
    <path class="cls-1" d="m4.27,6.91c.11.04.12.09.12.19,0,.63,0,1.25,0,1.88,0,.06,0,.12.01.17.03.1.1.16.2.16.11,0,.19-.06.21-.17.01-.06.01-.12.01-.18,0-.61,0-1.22,0-1.83v-.18h10.47v8.83h-1.7c0-.31,0-.61,0-.9-.01-.42-.33-.76-.74-.8-.44-.04-.81.23-.9.65-.02.1-.02.2-.02.31,0,.25,0,.49,0,.75h.45c0-.32-.01-.64,0-.95,0-.19.2-.32.39-.32.19,0,.36.15.36.33.01.31,0,.61,0,.93h2.6v-7.09c0-.54,0-1.09,0-1.63,0-.09,0-.14.11-.17.21-.08.31-.24.32-.46,0-.15,0-.29,0-.44,0-.34-.19-.54-.53-.55-.27,0-.55,0-.82,0-.18,0-.27.08-.27.22,0,.14.09.21.27.22.17,0,.34,0,.51,0q.39,0,.39.39,0,.22-.22.22H4.78q-.4,0-.4-.4,0-.21.21-.21c3.04,0,6.09,0,9.13,0,.22,0,.33-.07.34-.22,0-.15-.11-.23-.34-.23-1.08,0-2.16,0-3.24,0-.06,0-.11,0-.17,0v-1.34h.18c.68,0,1.36,0,2.04,0,.26,0,.39-.12.39-.39,0-.37,0-.73,0-1.1,0-.32-.11-.43-.43-.44-.71,0-1.43,0-2.14,0-.41,0-.49.08-.49.49,0,.87,0,1.73,0,2.6v.19h-.2c-1.68,0-3.37,0-5.05,0-.07,0-.14,0-.21,0-.26.02-.45.22-.46.49,0,.17,0,.34,0,.51,0,.22.12.39.33.45Zm6.02-4.29h2.17v1.03c-.05,0-.1,0-.15,0-.62,0-1.25,0-1.87,0-.12,0-.16-.03-.16-.16,0-.29,0-.58,0-.88Z"/>
  </g>
  <path class="cls-1" d="m10.24,3.83c-.07,0-.13-.04-.16-.11-.03-.09.02-.18.1-.21l1.1-.38-1.13-.47c-.08-.03-.13-.13-.09-.22.03-.08.13-.12.22-.09l1.54.63c.06.03.1.09.1.16s-.05.13-.11.15l-1.51.52s-.04,0-.05,0Z"/>
</svg>