<?xml version="1.0" encoding="UTF-8"?>
<svg id="icones" xmlns="http://www.w3.org/2000/svg" viewBox="0 0 20 20">
  <defs>
    <style>
      .cls-1 {
        fill: #db334f;
      }
    </style>
  </defs>
  <path class="cls-1" d="m16.92,16.14s-.01.02-.02.04c-.17.54-.46.75-1.02.75-3.93,0-7.85,0-11.78,0-.08,0-.16,0-.24-.01-.48-.08-.79-.46-.79-.97,0-3.13,0-9.69,0-12.03,0-.47.38-.85.85-.85h12.15c.47,0,.85.38.85.85v12.22Zm-.46-10.75H3.54v.17c0,3.44,0,6.88,0,10.32,0,.32.26.58.58.58,3.92,0,7.84,0,11.76,0,.32,0,.58-.26.58-.58,0-3.44,0-6.88,0-10.32,0-.05,0-.11,0-.17Zm0-.48c0-.28,0-.54,0-.8,0-.32-.26-.58-.58-.58-3.92,0-7.84,0-11.76,0-.05,0-.09,0-.14,0-.22.01-.42.17-.44.39-.02.33,0,.65,0,.99h12.92Z"/>
  <path class="cls-1" d="m9.76,12.31v-1.14s-.08,0-.12,0c-1.01,0-2.02,0-3.03,0-.23,0-.3.07-.3.3,0,.28,0,.56,0,.85.08,0,.14,0,.2,0,1-.05,1.24.19,1.19,1.2-.02.42,0,.84,0,1.26,0,.5-.28.78-.78.78-.57,0-1.14,0-1.7,0-.46,0-.75-.29-.75-.75,0-.58,0-1.16,0-1.74,0-.45.29-.74.74-.74.21,0,.42,0,.65,0,0-.21,0-.41,0-.6,0-.09,0-.17,0-.26,0-.47.28-.75.75-.75,1,0,1.99,0,2.99,0,.05,0,.11,0,.17,0v-1.16s-.09,0-.14,0c-.47,0-.94,0-1.41,0-.46,0-.75-.29-.75-.75,0-.58,0-1.15,0-1.73,0-.46.28-.75.74-.75,1.2,0,2.4,0,3.6,0,.46,0,.74.29.74.75,0,.58,0,1.16,0,1.74,0,.45-.29.74-.75.74-.46,0-.93,0-1.39,0-.05,0-.1,0-.16,0v1.16c.06,0,.11,0,.16,0,.99,0,1.97.01,2.96,0,.49,0,.82.32.79.8-.01.27,0,.53,0,.81.04,0,.08,0,.12,0,.18,0,.37,0,.55,0,.4.01.7.29.71.69,0,.62,0,1.24,0,1.87,0,.38-.3.67-.68.68-.62,0-1.24,0-1.85,0-.39,0-.69-.29-.69-.69-.01-.62,0-1.24,0-1.85,0-.41.3-.69.71-.69.22,0,.44,0,.67,0,0-.33,0-.64,0-.95,0-.12-.09-.19-.21-.2-.04,0-.08,0-.12,0-.98,0-1.97,0-2.95,0-.05,0-.1,0-.16,0v1.15c.2,0,.4,0,.59,0,.5,0,.78.28.78.78,0,.56,0,1.13,0,1.69,0,.48-.29.77-.77.77-.57,0-1.14,0-1.7,0-.48,0-.77-.29-.77-.77,0-.57,0-1.14,0-1.7,0-.48.29-.76.77-.77.2,0,.4,0,.61,0Zm.24-3.23c.59,0,1.18,0,1.77,0,.23,0,.31-.08.31-.31,0-.56,0-1.13,0-1.69,0-.23-.08-.31-.31-.31-1.18,0-2.36,0-3.54,0-.23,0-.31.08-.31.31,0,.56,0,1.13,0,1.69,0,.23.08.31.31.31.59,0,1.18,0,1.77,0Zm-3.94,6c.29,0,.58,0,.87,0,.22,0,.3-.08.3-.3,0-.57,0-1.14,0-1.7,0-.22-.08-.3-.3-.31-.57,0-1.14,0-1.72,0-.21,0-.29.08-.3.3,0,.57,0,1.14,0,1.72,0,.22.08.3.31.3.28,0,.56,0,.84,0Zm3.93,0c.29,0,.58,0,.87,0,.21,0,.3-.08.3-.29,0-.58,0-1.15,0-1.73,0-.2-.09-.29-.29-.29-.58,0-1.15,0-1.73,0-.21,0-.29.08-.29.29,0,.58,0,1.15,0,1.73,0,.21.08.29.3.29.28,0,.57,0,.85,0Zm5.09-1.16c0-.28,0-.57,0-.85,0-.22-.08-.3-.3-.3-.57,0-1.14,0-1.7,0-.22,0-.3.08-.31.3,0,.57,0,1.14,0,1.72,0,.21.08.3.3.3.57,0,1.14,0,1.72,0,.22,0,.3-.08.3-.31,0-.28,0-.57,0-.85Z"/>
  <path class="cls-1" d="m15.07,4.46c-.22,0-.44,0-.66,0-.16,0-.25-.09-.25-.22,0-.14.09-.24.25-.24.45,0,.89,0,1.34,0,.15,0,.26.1.25.24,0,.13-.1.22-.26.22-.22,0-.45,0-.67,0Z"/>
  <path class="cls-1" d="m5.39,4.45c-.16,0-.25-.09-.25-.22,0-.14.09-.24.25-.24.11,0,.13,0,.19,0,.15,0,.26.1.25.24,0,.13-.1.22-.26.22-.22,0,.03,0-.19,0Z"/>
  <path class="cls-1" d="m4.25,4.45c-.16,0-.25-.09-.25-.22,0-.14.09-.24.25-.24.11,0,.13,0,.19,0,.15,0,.26.1.25.24,0,.13-.1.22-.26.22-.22,0,.03,0-.19,0Z"/>
  <path class="cls-1" d="m6.56,4.45c-.16,0-.25-.09-.25-.22,0-.14.09-.24.25-.24.11,0,.13,0,.19,0,.15,0,.26.1.25.24,0,.13-.1.22-.26.22-.22,0,.03,0-.19,0Z"/>
</svg>