<?xml version="1.0" encoding="UTF-8"?>
<svg id="icones" xmlns="http://www.w3.org/2000/svg" viewBox="0 0 20 20">
  <defs>
    <style>
      .cls-1 {
        fill: #db334f;
      }
    </style>
  </defs>
  <path class="cls-1" d="m10.13,13.01c-.57,0-1.03-.08-1.4-.25-.37-.16-.64-.39-.81-.69-.18-.3-.26-.64-.26-1.03v-.14h.95v.1c0,.24.04.45.13.62.09.17.24.29.47.38.23.08.55.13.98.13.45,0,.76-.06.94-.19.18-.13.26-.33.26-.6,0-.18-.03-.34-.08-.45s-.16-.21-.32-.28c-.16-.07-.39-.14-.7-.2l-1.02-.21c-.35-.07-.64-.17-.87-.31-.23-.14-.41-.32-.53-.54-.12-.22-.18-.49-.18-.8s.08-.58.24-.84c.16-.26.4-.47.73-.63.33-.16.75-.24,1.27-.24.55,0,1,.09,1.34.28.34.19.59.43.75.73.16.3.24.63.24.99v.11h-.96v-.1c0-.25-.04-.46-.12-.62-.08-.16-.22-.29-.43-.38-.21-.09-.49-.13-.84-.13-.45,0-.77.07-.96.2-.19.13-.29.33-.29.58,0,.19.03.33.09.44.06.11.17.19.33.26.15.06.37.13.64.19l1.02.21c.38.08.68.19.92.34s.41.34.53.56c.11.22.17.49.17.79s-.08.6-.23.86-.4.47-.72.63c-.33.15-.74.23-1.26.23Zm.31-5.73h-.9v-1.25h.9v1.25Zm0,6.54h-.9v-1.28h.9v1.28Z"/>
  <g>
    <path class="cls-1" d="m10,3.5c.85,0,1.67.16,2.45.48.09.04.18.04.27,0,.09-.04.15-.1.19-.19.04-.09.04-.18,0-.27s-.1-.15-.19-.19c-.86-.35-1.78-.53-2.72-.53-3.71,0-6.78,2.82-7.16,6.43l-.24-.27c-.13-.14-.35-.16-.5-.03-.14.13-.16.35-.03.5l.8.91c.07.07.16.12.26.12.08,0,.16-.03.23-.08l.94-.8c.15-.13.17-.35.04-.5-.13-.15-.35-.17-.5-.04l-.32.27c.35-3.26,3.11-5.81,6.47-5.81Z"/>
    <path class="cls-1" d="m17.93,10.62l-.8-.91c-.13-.14-.34-.16-.49-.04l-.94.79c-.07.06-.12.15-.12.24,0,.09.02.18.08.26.06.07.15.12.24.12.1,0,.18-.02.25-.08l.32-.27c-.37,3.24-3.12,5.76-6.46,5.76-.99,0-1.94-.22-2.82-.64-.08-.04-.18-.05-.27-.02-.09.03-.16.1-.2.18-.08.17-.01.39.16.47.98.47,2.03.71,3.13.71,3.7,0,6.75-2.8,7.16-6.39l.24.27c.07.07.16.12.26.12.09,0,.17-.03.23-.09.14-.13.16-.35.03-.5Z"/>
  </g>
</svg>