<?xml version="1.0" encoding="UTF-8"?>
<svg xmlns="http://www.w3.org/2000/svg" viewBox="0 0 512 512">
  <defs>
    <style>
      .cls-1 {
        fill: #db334f;
      }
    </style>
  </defs>
  <g transform="scale(1, -1) translate(0, -512)">
    <path class="cls-1" d="M101 510.9c-24.4-2.1-38.9-7.8-51.3-20-5.2-5.2-7.7-8.7-10.6-15.1-6.6-14-7.3-19.1-7.8-54.9l-0.5-31.7-8.6-0.4c-9.9-0.5-14.3-2.6-19-9.5l-2.7-3.8 0-47.6 0-47.5 2.8-4.2c4.5-6.9 9.2-9.3 19.1-9.9l8.5-0.6 0.3-93.6 0.3-93.6 2.2-5.4c1.2-2.9 3.3-7 4.7-9.1 2.3-3.6 2.5-4.5 2.8-22.6 0.3-17.7 0.5-19.2 2.7-23.7 3.3-6.4 8.5-11.5 15.1-14.6 5.4-2.6 5.8-2.6 31.3-2.9 29.6-0.3 33.3 0.3 41.4 6.6 2.7 2.2 6.1 6.2 7.8 9.3 2.5 4.7 3 6.7 3.3 15.1l0.4 9.8 112.8 0 112.8 0 0.4-9.7c0.3-8.5 0.8-10.5 3.3-15.2 3.6-6.6 10.8-12.5 17.7-14.6 6.6-1.9 51.7-2.2 58.2-0.3 8.4 2.4 15.5 8.5 19.7 16.6 2.2 4.4 2.4 5.9 2.7 23.6 0.3 18.1 0.5 19 2.8 22.6 1.4 2.1 3.5 6.2 4.7 9.1l2.2 5.4 0.3 93.6 0.3 93.6 8.5 0.6c9.9 0.6 14.6 3 19.1 9.9l2.8 4.2 0 47.5 0 47.6-2.7 3.8c-4.7 6.9-9 9-19 9.5l-8.8 0.4 0 24.2c0 45.4-4.5 64.5-19 79.9-6.8 7.3-15.2 12.2-27 15.9l-7.5 2.3-158.5 0.1c-87.2 0.1-162.8-0.2-168-0.7zm315.6-19.8c24.1-2 35-10.6 40.4-31.6 3.8-14.9 4.1-32.1 3.8-207.5l-0.3-168.5-2.1-4.5c-2.9-6-6.8-9.5-13.9-12.4-13.1-5.2-8.3-5.1-188.5-5.1-180.2 0-175.4-0.1-188.5 5.1-7.3 3-11.9 7.3-14.2 13.3-1.7 4.3-1.8 15.1-1.8 185.6 0 168.1 0.1 181.6 1.7 188.8 5.7 25.3 20.2 34.7 56.3 36.7 19.6 1 294.8 1.1 307.1 0.1zm-385.8-163.4l0.2-40.8-5.2 0.3-5.3 0.3-0.3 39.5c-0.1 21.7 0 40.1 0.3 40.8 0.3 0.9 2 1.2 5.2 1l4.8-0.3 0.3-40.8zm460.7 0.3l0-40.5-5.2-0.3-5.3-0.3 0 40.4c0 22.2 0.3 40.7 0.7 41.1 0.4 0.4 2.8 0.6 5.3 0.4l4.5-0.3 0-40.5zm-418-284.5c4.7-1.1 14.1-1.8 28.3-2.2l21.2-0.6 0-6.1c0-7.2-2.5-12.1-6.7-13.3-1.5-0.5-13-0.8-25.5-0.8l-22.8 0-3.1 3.2c-3 3-3.2 3.6-3.7 12.9l-0.5 9.7 2.9-0.6c1.6-0.3 6.1-1.4 9.9-2.2zm377.3-7.1c-0.5-9.1-0.7-9.7-3.7-12.7l-3.1-3.2-22.8 0c-12.5 0-24 0.3-25.5 0.8-4.2 1.2-6.7 6.1-6.7 13.5l0 6.2 15.8 0c16.5 0 29.5 1.2 37.7 3.5 9.2 2.5 8.8 2.8 8.3-8.1z"/>
    <path class="cls-1" d="M147.5 480.3c-3.4-0.9-8.6-5-11.3-9-2.7-3.7-2.7-4.1-2.7-20.3 0-15.6 0.1-16.7 2.4-20.7 1.4-2.4 4.3-5.5 6.5-7l4.1-2.8 114.5 0 114.5 0 3.8 2.7c2.2 1.4 5.1 4.3 6.5 6.5 2.7 3.8 2.7 4 2.7 21l0 17.1-3 4.3c-1.6 2.3-5 5.3-7.4 6.6l-4.4 2.3-112.1-0.1c-61.7-0.1-113-0.4-114.1-0.6zm221-29.8l0-10-107.2-0.3-107.3-0.2 0 10.5 0 10.5 107.3-0.2 107.2-0.3 0-10z"/>
    <path class="cls-1" d="M104.6 408.9c-13.8-1.8-24.8-9.8-29.7-21.5l-2.4-5.9-0.3-71c-0.2-52.1 0-72.5 0.9-76.5 3.2-15 12.8-24.6 27.9-28 4.3-0.9 39.1-1.1 155-0.8l149.5 0.5 5.9 2.2c12.1 4.3 20.1 11.3 25.4 22.1l2.7 5.5 0 72.5 0 72.5-2.4 6.3c-3 7.9-9.9 15.3-17.3 18.7-3 1.3-9 2.9-13.8 3.4-10.5 1.4-291.2 1.3-301.4 0zm307.4-22.4c1.9-1.2 4.4-3.8 5.5-6 1.9-3.9 2-6 2-72.1l0-68-2.7-4.2c-1.5-2.2-4.9-5.4-7.5-6.9l-4.8-2.8-143.5-0.8c-78.9-0.4-146.8-0.4-150.7-0.1-8.3 0.7-12.5 2.9-15.7 8.4-2.1 3.4-2.1 5-2.4 69.9-0.3 70 0 74.9 4.1 79.7 4.9 5.6-2.6 5.3 161.2 5.1 149.7-0.2 151-0.2 154.5-2.2z"/>
    <path class="cls-1" d="M106.3 172.5c-8.2-2.2-14.8-6-20.8-12-18.1-18.2-18.1-46.8 0-65 18.5-18.4 47.9-17.8 65.9 1.5 9.2 9.8 13.8 24.5 11.7 37.6-4.2 26.9-31.1 44.8-56.8 37.9zm24-22.4c14.9-9.2 17-29.7 4.2-41-5.2-4.5-9.6-6.2-16.4-6.2-12.6-0.1-22.5 7.9-25.3 20.3-2.9 12.9 6.9 27.3 20.2 29.6 5.8 1 13.2-0.2 17.3-2.7z"/>
    <path class="cls-1" d="M382.6 172.4c-21.7-5.3-37.2-28.7-33.7-51 5.8-37.2 51.1-52.4 77.6-25.9 18.1 18.2 18.1 46.8 0 65-11.6 11.6-27.5 15.9-43.9 11.9zm25.4-23.2c8.2-5.1 13.2-16.7 11.2-26-2.8-12.4-12.7-20.4-25.3-20.3-25.6 0.1-34.2 33.6-12.1 47.3 7 4.3 18.2 3.9 26.2-1z"/>
  </g>
</svg>