<?xml version="1.0" encoding="UTF-8"?>
<svg id="icones" xmlns="http://www.w3.org/2000/svg" viewBox="0 0 20 20">
  <defs>
    <style>
      .cls-1 {
        fill: #db334f;
      }
    </style>
  </defs>
  <path class="cls-1" d="m17.23,15.27c-.09.2-.25.26-.46.26-1.79,0-3.58,0-5.37,0-.12,0-.22.02-.31.12-.11.12-.26.15-.41.15-.45,0-.9,0-1.36,0-.18,0-.32-.06-.46-.19-.06-.05-.16-.08-.24-.08-1.79,0-3.58,0-5.37,0-.05,0-.1,0-.16,0-.18-.02-.29-.12-.32-.3,0-.06,0-.11,0-.17,0-2.65,0-5.31,0-7.96,0-.36.11-.47.47-.47.1,0,.2,0,.31,0,0-.21,0-.41,0-.61,0-.08,0-.15,0-.23.01-.22.13-.34.35-.35.18,0,.36,0,.55,0,0-.21,0-.39,0-.58,0-.34.1-.47.44-.53,1.28-.22,2.53-.16,3.75.3.49.18.94.43,1.36.74.06.05.15.07.23.07,1.9,0,3.79,0,5.69,0,.11,0,.23.02.33.06.14.07.2.2.2.36,0,.25,0,.5,0,.75.29.05.63-.1.78.27v8.39Zm-7.01-9.41v8.49h5.79V5.86h-5.79Zm-.44,8.28v-.17c0-2.7,0-5.39,0-8.09,0-.11-.03-.17-.12-.23-.78-.55-1.65-.85-2.59-.97-.69-.09-1.38-.06-2.07.05-.12.02-.15.06-.15.18,0,2.73,0,5.47,0,8.2,0,.05,0,.1,0,.15,1.74-.29,3.38-.07,4.91.89Zm6.66-7.09v.2c0,2.33,0,4.65,0,6.98,0,.06,0,.12,0,.18-.02.21-.17.37-.38.38-.04,0-.08,0-.13,0-3.98,0-7.95,0-11.93,0-.06,0-.12,0-.18-.01-.15-.03-.24-.13-.26-.28,0-.06,0-.12,0-.18,0-2.36,0-4.72,0-7.07,0-.06,0-.12,0-.19h-.35v8.05h.19c1.75,0,3.49,0,5.24,0,.21,0,.39.04.54.2.04.04.11.06.16.06.44,0,.88,0,1.33,0,.06,0,.13-.02.16-.06.15-.16.34-.21.55-.21,1.75,0,3.5,0,5.25,0,.06,0,.12,0,.17,0V7.05h-.35ZM3.99,14.36h5.3c-.13-.09-.26-.16-.39-.22-1.03-.49-2.13-.64-3.26-.54-.23.02-.46.06-.69.09-.29.04-.48-.12-.5-.41,0-.05,0-.1,0-.16,0-2.35,0-4.71,0-7.06,0-.06,0-.13,0-.19h-.46v8.49Z"/>
  <path class="cls-1" d="m14.48,7.81h-2.73v.88c.13,0,.26,0,.39,0,.17,0,.26.08.26.22,0,.13-.09.21-.26.21-.16,0-.32,0-.48,0-.22,0-.34-.12-.34-.34,0-.33,0-.67,0-1,0-.28.11-.38.39-.38,1.23,0,1.29,0,2.52,0,.12,0,.24,0,.35,0,.21,0,.33.12.33.32,0,.36,0,.72,0,1.07,0,.21-.13.33-.34.33-.84,0-1.68,0-2.53,0-.16,0-.25-.08-.25-.21,0-.13.09-.21.26-.21.75,0,1.5,0,2.24,0,.06,0,.11,0,.18,0v-.88Z"/>
  <path class="cls-1" d="m6.09,10.98c-.22.01-.32-.04-.33-.18,0-.15.08-.22.3-.24.11,0,.22-.02.34-.03.14,0,.24.08.24.2,0,.11-.08.2-.21.22-.11.01-.22.02-.34.03Z"/>
  <path class="cls-1" d="m6.09,9.57c-.22.01-.32-.04-.33-.18,0-.15.08-.22.3-.24.11,0,.22-.02.34-.03.14,0,.24.08.24.2,0,.11-.08.2-.21.22-.11.01-.22.02-.34.03Z"/>
  <path class="cls-1" d="m6.09,8.15c-.22.01-.32-.04-.33-.18,0-.15.08-.22.3-.24.11,0,.22-.02.34-.03.14,0,.24.08.24.2,0,.11-.08.2-.21.22-.11.01-.22.02-.34.03Z"/>
  <path class="cls-1" d="m6.09,6.74c-.22.01-.32-.04-.33-.18,0-.15.08-.22.3-.24.11,0,.22-.02.34-.03.14,0,.24.08.24.2,0,.11-.08.2-.21.22-.11.01-.22.02-.34.03Z"/>
  <rect class="cls-1" x="11.49" y="10.09" width="3.25" height=".44" rx=".22" ry=".22"/>
  <rect class="cls-1" x="11.49" y="11.21" width="3.25" height=".44" rx=".22" ry=".22"/>
  <rect class="cls-1" x="11.49" y="12.37" width="3.25" height=".44" rx=".22" ry=".22"/>
</svg>