<?xml version="1.0" encoding="UTF-8"?>
<svg id="icones" xmlns="http://www.w3.org/2000/svg" viewBox="0 0 20 20">
  <defs>
    <style>
      .cls-1 {
        fill: #db334f;
      }
    </style>
  </defs>
  <path class="cls-1" d="m16.28,5.01H3.72s-.01,0-.02,0c-.02,0-.03,0-.05,0-.01,0-.03,0-.04.01,0,0-.01,0-.02,0,0,0-.01.01-.02.01-.01,0-.02.01-.03.02-.01,0-.02.02-.03.03,0,0-.02.02-.02.03,0,.01-.02.03-.02.04,0,0,0,.01-.01.02,0,0,0,0,0,0,0,.02,0,.03-.01.05,0,.01,0,.02,0,.04,0,0,0,0,0,0v9.39s0,0,0,0c0,.01,0,.02,0,.03,0,.02,0,.03.01.05,0,0,0,0,0,0,0,0,0,.01.01.02,0,.02.01.03.02.05,0,.01.02.02.02.03.01.01.02.02.03.03.01,0,.02.01.03.02,0,0,.01.01.02.01,0,0,.02,0,.02,0,0,0,.01,0,.02,0,.03,0,.05.01.08.01h10.68c1.19,0,2.16-.97,2.16-2.16v-7.52c0-.16-.13-.29-.29-.29Zm-12.26.93l2.53,2.17s.06.04.09.05l1.99,1.69c.06.05.06.11.06.14s0,.09-.06.14l-4.62,3.92V5.94Zm8.52,1.66h-5.65l-2.36-2h11.46v2h-3.45Zm-3.52,2.99c.17-.15.27-.36.27-.59s-.1-.44-.27-.59l-1.45-1.23h8.42v3.63H7.57l1.45-1.23Zm6.97,2.24c0,.87-.71,1.58-1.58,1.58H4.52l1.33-1.13,1.03-.87h9.1v.42Z"/>
</svg>