<?xml version="1.0" encoding="UTF-8"?>
<svg id="icones" xmlns="http://www.w3.org/2000/svg" viewBox="0 0 20 20">
  <defs>
    <style>
      .cls-1 {
        fill: #db334f;
      }
    </style>
  </defs>
  <g>
    <path class="cls-1" d="m7.69,3.5c1.13,0,2.26,0,3.39,0,.5,0,.79.29.79.79,0,.36,0,.72,0,1.08,0,.16-.1.26-.24.26-.14,0-.24-.1-.24-.27,0-.03,0-.07,0-.1,0-.33,0-.65,0-.98,0-.22-.08-.31-.3-.31-2.27,0-4.54,0-6.81,0-.22,0-.3.08-.31.31,0,.51,0,1.03,0,1.54,0,.23.09.31.32.31,2.17,0,4.34,0,6.5,0,.24,0,.35.08.35.24,0,.16-.12.23-.35.23-2.16,0-4.33,0-6.49,0-.53,0-.81-.29-.81-.82,0-.5,0-1.01,0-1.51,0-.49.3-.78.79-.78,1.14,0,2.27,0,3.41,0Z"/>
    <path class="cls-1" d="m7.67,15.19c-.18,0-.36,0-.53,0-.34,0-.61-.27-.62-.62,0-.26,0-.51,0-.77,0-.33.26-.6.59-.61.37-.01.74-.01,1.11,0,.34,0,.59.28.6.62,0,.25,0,.5,0,.76,0,.35-.27.61-.63.62-.17,0-.35,0-.52,0Zm0-1.52c-.16,0-.33,0-.49,0-.12,0-.18.06-.18.18,0,.22,0,.45,0,.67,0,.13.06.19.19.19.32,0,.64,0,.97,0,.14,0,.19-.05.19-.2,0-.22,0-.44,0-.66,0-.13-.06-.19-.19-.19-.16,0-.33,0-.49,0Z"/>
    <path class="cls-1" d="m7.67,10.32c.16,0,.33,0,.49,0,.39,0,.65.27.65.65,0,.23,0,.47,0,.7,0,.37-.26.64-.63.65-.35,0-.69,0-1.04,0-.38,0-.63-.28-.63-.66,0-.23,0-.47,0-.7,0-.37.27-.63.64-.64.17,0,.35,0,.52,0Zm0,1.53c.15,0,.31,0,.46,0,.16,0,.21-.05.21-.21,0-.21,0-.43,0-.64,0-.14-.05-.2-.19-.2-.32,0-.64,0-.95,0-.15,0-.2.05-.2.21,0,.21,0,.43,0,.64,0,.14.05.19.19.2.16,0,.32,0,.48,0Z"/>
    <path class="cls-1" d="m4.65,9.45c-.17,0-.34,0-.5,0-.37,0-.63-.26-.64-.62,0-.25,0-.5,0-.76.01-.36.28-.62.64-.62.34,0,.68,0,1.02,0,.36,0,.62.26.63.63,0,.25,0,.5,0,.74,0,.37-.27.62-.65.63-.17,0-.34,0-.5,0Zm0-.48c.16,0,.32,0,.48,0,.15,0,.2-.04.2-.19,0-.22,0-.45,0-.67,0-.12-.05-.18-.18-.18-.33,0-.65,0-.98,0-.13,0-.19.07-.19.19,0,.22,0,.44,0,.66,0,.14.05.19.19.2.16,0,.32,0,.48,0Z"/>
    <path class="cls-1" d="m4.65,10.31c.16,0,.33,0,.49,0,.38,0,.64.26.65.64,0,.24,0,.49,0,.73,0,.37-.26.63-.63.64-.35,0-.69,0-1.04,0-.37,0-.63-.27-.64-.65,0-.24,0-.48,0-.71,0-.38.28-.64.65-.64.17,0,.34,0,.5,0Zm0,.48c-.16,0-.33,0-.49,0-.14,0-.2.05-.2.2,0,.22,0,.44,0,.66,0,.14.05.19.2.2.32,0,.63,0,.95,0,.15,0,.19-.05.19-.2,0-.22,0-.44,0-.66,0-.14-.05-.19-.19-.2-.15,0-.31,0-.46,0Z"/>
    <path class="cls-1" d="m4.65,13.19c.18,0,.36,0,.53,0,.35.01.6.26.61.61,0,.26,0,.52,0,.78-.01.35-.28.6-.63.61-.34,0-.68,0-1.02,0-.36,0-.63-.26-.65-.62,0-.26-.01-.51,0-.77.01-.35.27-.6.62-.61.18,0,.35,0,.53,0,0,0,0,0,0,0Zm-.01,1.52c.16,0,.33,0,.49,0,.13,0,.19-.06.19-.19,0-.22,0-.45,0-.67,0-.13-.06-.19-.19-.19-.32,0-.64,0-.97,0-.13,0-.19.06-.19.19,0,.22,0,.45,0,.67,0,.12.06.19.19.19.16,0,.32,0,.48,0Z"/>
    <path class="cls-1" d="m7.67,9.45c-.18,0-.36,0-.53,0-.34,0-.6-.27-.61-.61,0-.26,0-.52,0-.78,0-.34.28-.6.61-.6.35,0,.71,0,1.07,0,.35,0,.61.27.62.61,0,.26,0,.51,0,.77,0,.34-.27.6-.61.61-.18,0-.36,0-.55,0Zm0-1.52c-.16,0-.32,0-.48,0-.14,0-.19.05-.2.19,0,.22,0,.44,0,.66,0,.13.06.19.19.19.33,0,.65,0,.98,0,.12,0,.18-.06.18-.18,0-.22,0-.45,0-.67,0-.14-.05-.19-.2-.19-.16,0-.32,0-.48,0Z"/>
    <path class="cls-1" d="m10.72,9.45c-.18,0-.36,0-.55,0-.34-.01-.6-.27-.6-.61,0-.26,0-.51,0-.77,0-.34.27-.61.62-.61.35,0,.71,0,1.07,0,.34,0,.6.27.61.61,0,.26,0,.52,0,.78-.01.34-.28.6-.61.61-.18,0-.35,0-.53,0Zm0-.48c.16,0,.33,0,.49,0,.13,0,.19-.06.19-.19,0-.22,0-.45,0-.67,0-.13-.06-.19-.19-.19-.32,0-.64,0-.97,0-.13,0-.19.06-.19.19,0,.22,0,.45,0,.67,0,.13.06.19.19.19.16,0,.32,0,.48,0Z"/>
    <path class="cls-1" d="m8.7,16.52H3.2c-.69,0-1.24-.56-1.24-1.24V3.38c0-.69.56-1.24,1.24-1.24h8.89c.69,0,1.24.56,1.24,1.24v6.18c0,.13-.11.24-.24.24s-.24-.11-.24-.24V3.38c0-.42-.34-.76-.76-.76H3.2c-.42,0-.76.34-.76.76v11.9c0,.42.34.76.76.76h5.5c.13,0,.24.11.24.24s-.11.24-.24.24Z"/>
    <path class="cls-1" d="m10.74,5.64h-.67v-.26h.16v-.5s-.07.01-.12.01c-.02,0-.03,0-.04,0v-.25s.01,0,.02,0c.07,0,.14-.01.2-.04.06-.03.1-.06.13-.1h.17v.88h.15v.26Z"/>
  </g>
  <g>
    <path class="cls-1" d="m18.03,13.07s-.02-.04-.03-.06c-.03-.05-.05-.1-.09-.15-.09-.12-.23-.18-.4-.18-.28,0-.46-.13-.57-.38-.1-.25-.06-.47.13-.67.22-.24.21-.54-.02-.77-.14-.14-.28-.28-.43-.43l-.08-.08c-.24-.24-.53-.25-.79-.02-.17.15-.39.2-.6.14-.21-.06-.36-.21-.42-.42-.01-.04-.02-.1-.02-.16-.01-.27-.14-.44-.38-.52l-.03-.02h-1.04c-.28.1-.42.31-.41.61,0,.02,0,.06-.02.1-.06.21-.21.36-.42.42-.21.06-.44,0-.6-.14-.25-.23-.55-.22-.78.02l-.11.11c-.14.14-.27.27-.4.41-.05.05-.11.13-.15.23-.06.19-.02.37.13.53.16.17.21.35.16.57-.07.29-.29.47-.59.49-.31.01-.53.22-.54.51,0,.28,0,.55,0,.83,0,.24.18.45.42.5.04,0,.08,0,.11.01.03,0,.06,0,.09,0,.24.05.4.19.48.41.08.23.04.44-.13.62-.23.26-.22.54.02.79.17.17.34.34.51.51.23.23.53.23.77.02.21-.19.43-.23.67-.13.25.1.37.29.38.57.01.31.23.53.55.53.12,0,.25,0,.37,0s.25,0,.37,0c.32,0,.54-.21.56-.53,0-.05,0-.12.02-.18.06-.2.21-.35.42-.41.21-.06.43,0,.6.14.26.24.54.23.8-.02l.1-.1c.14-.14.27-.27.41-.41.22-.23.23-.52.02-.76-.19-.21-.23-.43-.13-.67.1-.25.29-.38.57-.38.18,0,.33-.08.43-.22.03-.04.05-.08.07-.13l.02-.05v-1.05s0-.02,0-.02Zm-1.57,1.65c-.18.43-.1.85.21,1.21.02.02.03.03.03.03,0,0-.01.02-.03.03-.17.17-.34.34-.51.51-.01.01-.02.02-.02.02,0,0-.02-.01-.03-.03-.34-.31-.73-.39-1.15-.24-.43.15-.69.47-.76.92,0,.03,0,.07,0,.1l-.02.06h-.11c-.22,0-.44,0-.67,0,0,0,0-.01,0-.05,0-.25-.09-.48-.25-.68-.2-.25-.49-.4-.8-.42-.03,0-.06,0-.09,0-.28,0-.56.1-.77.3-.02.02-.04.03-.04.04,0,0-.02-.02-.04-.04l-.49-.49s-.03-.03-.03-.03c0,0,.01-.02.03-.04.32-.36.39-.78.22-1.21-.18-.44-.53-.68-1.02-.71-.02,0-.04,0-.04,0,0,0,0-.02,0-.04,0-.24,0-.49,0-.73,0-.02,0-.03,0-.03,0,0,.02,0,.04,0,.48-.02.84-.27,1.02-.7s.11-.86-.22-1.23c-.01-.01-.02-.02-.02-.02,0,0,.01-.01.02-.03.17-.17.34-.34.5-.5.02-.02.03-.03.03-.03,0,0,.02.01.04.03.3.28.72.37,1.11.25.39-.12.68-.43.77-.83.02-.06.02-.13.03-.19v-.05s0-.03,0-.03c0,0,.01,0,.03,0,.25,0,.5,0,.75,0,.01,0,.02,0,.02,0,0,0,0,.02,0,.03.03.56.39.98.93,1.09.37.07.7-.02.99-.28.02-.02.03-.03.04-.03,0,0,.02.02.04.03l.13.13c.13.13.25.25.38.38,0,0,.01.02.02.03,0,.01-.02.02-.03.04-.23.26-.34.6-.29.94.05.34.25.64.54.82.16.1.35.15.54.16.03,0,.04,0,.05,0,0,0,0,.02,0,.05,0,.24,0,.48,0,.71,0,.02,0,.03,0,.03,0,0-.02,0-.04,0-.48.03-.83.27-1.02.71Z"/>
    <path class="cls-1" d="m13.78,11.55c-1.13,0-2.05.92-2.05,2.05,0,.55.21,1.06.6,1.45.39.39.9.6,1.45.6,1.13,0,2.05-.92,2.05-2.05,0-.55-.21-1.06-.6-1.45-.39-.39-.9-.6-1.45-.6Zm1.59,2.05c0,.87-.71,1.59-1.59,1.59-.42,0-.82-.17-1.12-.47-.3-.3-.46-.7-.46-1.12,0-.42.17-.82.46-1.12.3-.3.7-.46,1.12-.46h0c.42,0,.82.17,1.12.46s.46.7.46,1.12Z"/>
  </g>
  <polygon class="cls-1" points="12.86 9.09 12.86 10 13.1 9.91 13.01 9.01 12.86 9.09"/>
</svg>