<?xml version="1.0" encoding="UTF-8"?>
<svg id="icones" xmlns="http://www.w3.org/2000/svg" viewBox="0 0 20 20">
  <defs>
    <style>
      .cls-1 {
        fill: #db334f;
      }
    </style>
  </defs>
  <path class="cls-1" d="m6.7,14.2c.02-.47.19-.84.53-1.13.26-.23.58-.36.92-.36,1.23,0,2.47-.01,3.7,0,.78,0,1.4.63,1.45,1.41,0,.02,0,.04,0,.06.02,0,.04,0,.05-.01.29-.2.61-.27.96-.26.39,0,.78,0,1.17,0,.77.02,1.39.65,1.42,1.42,0,.24,0,.48,0,.72-.02.46-.38.83-.85.85-.05,0-.1,0-.15,0-3.94,0-7.87,0-11.81,0-.16,0-.33-.02-.48-.09-.32-.14-.51-.4-.52-.76,0-.31-.02-.63.03-.94.12-.69.71-1.19,1.41-1.21.44-.01.88,0,1.32,0,.3,0,.57.11.83.29Zm3.31,2.11c.78,0,1.56,0,2.33,0,.26,0,.37-.11.37-.37,0-.56,0-1.13,0-1.69,0-.56-.38-.95-.94-.95-1.17,0-2.34,0-3.52,0-.56,0-.94.39-.94.95,0,.56,0,1.12,0,1.67,0,.28.1.38.38.38.77,0,1.55,0,2.32,0Zm-4.82,0c.39,0,.79,0,1.18,0,.21,0,.33-.11.33-.32,0-.2,0-.4,0-.6-.03-.52-.41-.87-.93-.88-.38,0-.77,0-1.15,0-.53,0-.92.39-.92.93,0,.17,0,.35,0,.52,0,.24.11.35.35.35.38,0,.76,0,1.14,0Zm9.61,0c.39,0,.78,0,1.17,0,.22,0,.34-.12.34-.33,0-.2,0-.39,0-.59-.01-.48-.4-.87-.87-.87-.42,0-.84,0-1.27,0-.43,0-.8.33-.85.76-.03.23-.02.46-.02.69,0,.24.12.35.35.35.38,0,.76,0,1.14,0Z"/>
  <path class="cls-1" d="m4.44,7c.1.01.25.03.39.05.15.03.26-.02.35-.15.13-.18.26-.36.39-.53.09-.12.1-.24.04-.37-.06-.11-.11-.23-.16-.34-.17-.38-.07-.8.25-1.06.16-.13.33-.26.51-.37.34-.22.75-.18,1.06.08.1.09.2.18.3.28.11.1.22.12.36.08.21-.07.42-.14.63-.2.14-.04.22-.13.25-.27.02-.13.05-.26.07-.39.09-.41.43-.69.86-.7.17,0,.34,0,.51,0,.49,0,.83.3.92.78.02.11.04.21.06.32.02.13.1.22.23.26.22.07.44.14.65.21.13.04.25.02.35-.08.09-.09.19-.18.29-.27.31-.27.74-.31,1.08-.08.17.11.33.23.49.35.33.26.42.68.26,1.07-.05.11-.1.22-.16.33-.07.14-.06.27.04.39.13.17.26.35.38.52.09.13.2.18.35.15.14-.02.28-.04.42-.05.36-.02.66.13.82.45.13.26.22.55.27.84.06.36-.1.65-.4.85-.08.06-.18.11-.27.15-.14.07-.25.15-.3.31-.05.15-.22.21-.36.16-.14-.05-.23-.19-.2-.35.05-.24.19-.43.4-.55.12-.07.25-.13.37-.2.15-.09.21-.21.16-.38-.05-.16-.1-.31-.15-.47-.06-.16-.16-.22-.33-.21-.11,0-.22.03-.33.04-.39.05-.7-.08-.93-.4-.12-.18-.25-.35-.38-.52-.22-.3-.26-.61-.11-.95.05-.11.11-.22.16-.33.07-.16.05-.29-.09-.4-.13-.1-.27-.2-.41-.3-.13-.08-.26-.07-.38.03-.1.09-.19.18-.29.27-.27.24-.57.31-.91.19-.22-.07-.44-.15-.67-.22-.35-.11-.55-.35-.63-.71-.02-.11-.04-.23-.06-.35-.04-.18-.14-.27-.32-.27-.15,0-.31,0-.46,0-.19,0-.29.1-.33.28-.02.11-.04.22-.06.33-.07.36-.28.6-.63.71-.23.07-.45.15-.68.22-.34.11-.64.04-.9-.2-.09-.08-.18-.18-.28-.26-.13-.12-.26-.12-.41-.03-.13.09-.26.18-.39.28-.14.11-.17.24-.1.4.05.12.12.24.17.36.14.33.1.63-.11.92-.13.19-.27.37-.41.56-.22.3-.52.43-.9.38-.12-.02-.24-.04-.36-.05-.16-.01-.26.06-.31.21-.06.16-.11.32-.16.48-.05.16,0,.28.16.37.11.07.23.12.35.19.22.13.36.31.42.56.04.16-.04.31-.19.36-.15.05-.32-.02-.37-.17-.05-.14-.14-.23-.27-.29-.08-.04-.17-.09-.25-.13-.37-.21-.54-.62-.43-1.03.05-.18.11-.37.18-.55.14-.37.48-.6.91-.59Z"/>
  <path class="cls-1" d="m10,7.9c1.16,0,2.11.95,2.11,2.1,0,1.16-.95,2.11-2.11,2.11-1.15,0-2.1-.94-2.1-2.1,0-1.16.94-2.11,2.1-2.11Zm0,3.6c.83,0,1.5-.67,1.5-1.5,0-.83-.66-1.49-1.49-1.5-.83,0-1.5.66-1.51,1.49,0,.83.66,1.5,1.5,1.5Z"/>
  <path class="cls-1" d="m9.87,6.09c2.11,0,3.78,1.49,4.01,3.46,0,.05,0,.09,0,.14,0,.19-.11.33-.28.33-.16,0-.29-.11-.31-.3-.04-.46-.17-.89-.39-1.3-.67-1.24-2.05-1.92-3.44-1.69-1.39.22-2.5,1.33-2.73,2.72-.01.08-.02.17-.03.25-.02.2-.15.33-.32.32-.18-.01-.29-.15-.28-.37.05-.66.26-1.28.64-1.82.78-1.14,1.88-1.7,3.11-1.74Z"/>
  <path class="cls-1" d="m5.19,10.3c.83,0,1.51.67,1.5,1.5,0,.83-.68,1.5-1.51,1.5-.82,0-1.49-.67-1.5-1.49,0-.83.67-1.5,1.5-1.5Zm.9,1.5c0-.5-.4-.9-.9-.9-.49,0-.89.4-.9.89,0,.49.4.91.9.91.5,0,.9-.4.9-.9Z"/>
  <path class="cls-1" d="m14.81,10.3c.83,0,1.5.67,1.5,1.5,0,.83-.68,1.5-1.51,1.49-.82,0-1.49-.67-1.5-1.5,0-.83.67-1.5,1.5-1.5Zm0,.6c-.5,0-.9.4-.9.9,0,.5.4.9.9.9.49,0,.89-.4.9-.89,0-.49-.4-.91-.9-.91Z"/>
</svg>