<?xml version="1.0" encoding="UTF-8"?>
<svg id="icones" xmlns="http://www.w3.org/2000/svg" viewBox="0 0 20 20">
  <defs>
    <style>
      .cls-1 {
        fill: #db334f;
      }
    </style>
  </defs>
  <path class="cls-1" d="m16.63,3.08c-3.59,0-7.18,0-10.77,0-.07,0-.14,0-.21.01-.38.08-.63.38-.64.76,0,.26,0,.51,0,.78,0,.11,0,.22,0,.33h-.43c-.4,0-.8,0-1.2,0-.07,0-.14,0-.21.01-.32.06-.53.26-.65.62v10.01s0,.02,0,.02c0,0,0,0,0,.01,0,0,0,.01,0,.02.19.82.74,1.26,1.57,1.26,1.67,0,3.33,0,5,0h2.5c.17,0,.36-.03.37-.25,0-.07-.02-.13-.06-.17-.06-.06-.16-.09-.31-.09h-6.47c.25-.3.38-.63.38-1.01,0-1.52,0-3.05,0-4.57v-.46c0-.19-.09-.3-.25-.31h0c-.09,0-.25.04-.25.3,0,.03,0,.07,0,.1v1.4c0,1.17,0,2.34,0,3.51,0,.29-.11.56-.31.75-.18.18-.42.28-.68.28h-.01c-.56,0-.98-.45-.98-1.03,0-3.19,0-6.38,0-9.56,0-.25.1-.35.34-.35.52,0,1.04,0,1.56,0,.02,0,.05,0,.07,0,0,0,.01,0,.02,0v.15c0,1.27,0,2.54,0,3.81,0,.26.13.32.24.32,0,0,0,0,0,0,.07,0,.12-.02.17-.06.06-.06.09-.15.09-.26,0-.03,0-.05,0-.08V3.97c0-.3.08-.38.38-.38h10.68c.3,0,.39.08.39.39v11.35c0,.68-.41,1.09-1.09,1.09-.8,0-1.61,0-2.41,0h-.84s-.09,0-.13,0c-.14.02-.22.12-.21.24.01.09.09.18.15.23.04.04.11.03.16.03h.03c.67,0,1.34,0,2,0,.42,0,.84,0,1.27,0,.92,0,1.56-.64,1.56-1.56,0-3.81,0-7.63,0-11.44,0-.51-.33-.84-.84-.84Z"/>
  <path class="cls-1" d="m6.79,11.24c0,.39.21.6.6.6.19,0,.38,0,.57,0h.86s.36,0,.36,0c.36,0,.71,0,1.07,0,.41,0,.63-.22.63-.62,0-.95,0-1.9,0-2.85,0-.4-.22-.62-.62-.62-.95,0-1.91,0-2.86,0-.39,0-.61.22-.61.61,0,.96,0,1.92,0,2.88Zm.5-2.86c0-.05,0-.08.03-.1s.05-.02.11-.02h0c.34,0,.68,0,1.02,0h.39s.4,0,.4,0c.33,0,.67,0,1.01,0h0s.08,0,.1.02c.02.02.02.05.02.1,0,.94,0,1.89,0,2.83,0,.05,0,.08-.02.1-.02.02-.05.02-.1.02h0c-.94,0-1.89,0-2.83,0h0c-.05,0-.08,0-.1-.02s-.02-.05-.02-.1c0-1.05,0-1.98,0-2.83Z"/>
  <path class="cls-1" d="m6.98,13.63s.08,0,.12,0h.03c2.81,0,5.63,0,8.44,0h.03s.02,0,.03,0c.02,0,.04,0,.06,0,.14-.02.24-.14.23-.27-.01-.14-.1-.22-.24-.24-.03,0-.07,0-.1,0h-.04c-2.8,0-5.6,0-8.4,0-.01,0-.03,0-.04,0-.04,0-.07,0-.11,0-.13.02-.21.1-.22.24,0,.13.06.22.19.26Z"/>
  <path class="cls-1" d="m6.99,15.42c.05.01.11.01.16.01h8.42s.02,0,.03,0c.02,0,.03,0,.05,0,.17,0,.27-.11.28-.25,0-.14-.11-.24-.27-.25-.04,0-.07,0-.11,0h-4.19c-1.4,0-2.79,0-4.19,0h-.03s-.09,0-.14,0c-.14.02-.21.1-.22.24,0,.13.07.23.2.25Z"/>
  <path class="cls-1" d="m13.62,4.53c-.07-.02-.12-.02-.16,0-.04.02-.07.06-.09.14-.07.23-.14.46-.2.7l-.16.53s-.01.04-.02.06c0,0,0,0,0,0-.02-.07-.03-.13-.05-.2-.05-.19-.1-.38-.14-.57-.03-.12-.09-.18-.21-.18h0c-.12,0-.19.06-.21.18,0,.03-.01.06-.02.1l-.17.67s0-.03-.01-.04l-.11-.39c-.09-.3-.17-.59-.26-.89-.02-.06-.04-.09-.08-.11-.04-.02-.09-.02-.17,0-.13.04-.17.11-.14.22.17.54.34,1.08.51,1.62.04.12.11.17.26.17,0,0,.01,0,.02,0,.15,0,.22-.05.25-.18.04-.15.07-.29.11-.44l.03-.12v.06c.05.16.09.32.13.48.04.16.09.21.25.21.17,0,.24-.04.29-.19.16-.52.33-1.05.49-1.57.02-.08.02-.13,0-.17-.02-.04-.06-.07-.14-.09Z"/>
  <path class="cls-1" d="m6.88,6.53s0,0,.01,0c.07,0,.12-.02.15-.05.03-.03.05-.08.05-.14,0-.17,0-.35,0-.52v-.35s0-.01,0-.02c.13.22.25.44.37.66.02.03.03.06.05.09.04.07.07.14.11.21.04.07.12.11.21.11.03,0,.06,0,.09-.01.12-.03.11-.12.11-.21v-.07c0-.5,0-1.02,0-1.53,0-.11-.05-.17-.16-.19-.08-.01-.14,0-.18.03-.04.04-.06.09-.06.17,0,.3,0,.59,0,.89l-.09-.17c-.12-.22-.23-.45-.35-.67-.03-.06-.06-.12-.1-.16-.06-.08-.19-.12-.31-.08-.11.03-.11.12-.1.19,0,0,0,.02,0,.03,0,.53,0,1.06,0,1.59,0,.13.06.19.19.19Z"/>
  <path class="cls-1" d="m10.01,4.87c.14,0,.29,0,.43,0,.11,0,.17-.06.17-.18,0-.12-.06-.18-.17-.18-.29,0-.6,0-.91,0-.14,0-.19.05-.19.2,0,.54,0,1.08,0,1.61,0,.15.05.2.2.2.15,0,.29,0,.43,0,.16,0,.31,0,.46,0,.06,0,.11-.01.14-.05.03-.03.04-.07.04-.14,0-.12-.06-.17-.18-.18-.14,0-.28,0-.42,0h-.25s0-.49,0-.49h.1c.08,0,.15,0,.23,0,.13,0,.18-.05.18-.16s-.06-.16-.18-.16c-.08,0-.16,0-.24,0h-.08v-.49h.26Z"/>
  <path class="cls-1" d="m15.3,6.18c-.14.04-.26.01-.38-.08-.02-.01-.04-.03-.05-.04-.01-.01-.03-.02-.04-.03-.04-.03-.08-.05-.12-.04-.04,0-.08.03-.11.08-.08.11-.06.24.06.32.15.11.32.17.51.17.1,0,.21-.02.32-.05.22-.07.35-.23.37-.47.03-.29-.08-.49-.3-.62-.08-.04-.16-.08-.24-.12-.06-.03-.12-.06-.18-.09-.11-.06-.16-.13-.13-.21.03-.13.15-.14.2-.13.11,0,.23.03.35.07.11.03.2.03.24-.12.04-.12-.01-.21-.13-.25-.08-.03-.17-.04-.26-.06-.04,0-.08-.02-.13-.03h0s0,0,0,0c-.04,0-.07.02-.11.03-.09.02-.18.04-.26.08-.17.08-.28.24-.29.44-.02.19.07.37.22.48.07.05.16.09.23.13.05.02.1.05.14.07l.03.02c.06.03.12.07.17.11.05.06.07.13.06.19-.02.07-.08.12-.15.14Z"/>
  <path class="cls-1" d="m11.69,11.84c.33,0,.66,0,.98,0h1.65c.44,0,.89,0,1.34,0,.17,0,.28-.1.28-.25,0-.14-.11-.25-.27-.26-.02,0-.05,0-.08,0h-.03c-1.27,0-2.54,0-3.8,0h-.02s-.09,0-.14,0c-.14.03-.22.14-.2.28.02.14.12.21.3.21Z"/>
  <path class="cls-1" d="m12.32,7.76h-.19c-.16,0-.32,0-.49,0-.15,0-.25.09-.26.23,0,.14.09.25.24.27.02,0,.04,0,.05,0,0,0,.02,0,.03,0h.03s1.28,0,1.28,0c.85,0,1.71,0,2.57,0h.02s.09,0,.13,0c.07-.02.14-.06.17-.13.03-.06.04-.13.02-.2-.06-.16-.19-.18-.28-.18h0c-.49,0-.99,0-1.48,0h-.94c-.3,0-.59,0-.89,0Z"/>
  <path class="cls-1" d="m11.66,10.06s.02,0,.03,0h.03c1.3,0,2.59,0,3.89,0,.06,0,.1,0,.14-.01.12-.03.19-.12.19-.25,0-.13-.09-.22-.22-.24-.04,0-.08,0-.12,0h-.03c-1.27,0-2.55,0-3.82,0h-.03s-.09,0-.14,0c-.13.03-.21.12-.19.23.01.07.06.15.15.23.03.03.08.03.12.03Z"/>
</svg>