<?xml version="1.0" encoding="UTF-8"?>
<svg id="icones" xmlns="http://www.w3.org/2000/svg" viewBox="0 0 20 20">
  <defs>
    <style>
      .cls-1 {
        fill: #db334f;
      }
    </style>
  </defs>
  <path class="cls-1" d="m10,3.59c-3.53,0-6.41,2.88-6.41,6.41,0,1.18.32,2.33.94,3.34l-.6,1.66c-.11.3-.04.62.19.85s.54.3.84.2l1.68-.59c1.01.62,2.17.95,3.36.95,3.53,0,6.41-2.87,6.41-6.41s-2.88-6.41-6.41-6.41Zm-5.49,11.62l.7-1.93v-.02s-.08-.13-.08-.13c-.6-.93-.92-2.02-.92-3.13,0-3.19,2.6-5.79,5.79-5.79s5.79,2.6,5.79,5.79-2.6,5.79-5.79,5.79c-1.13,0-2.22-.32-3.16-.94l-.13-.08-1.97.69c-.1.03-.17-.01-.2-.05-.03-.03-.08-.1-.04-.2Z"/>
  <path class="cls-1" d="m10,8.7c.77,0,1.39-.62,1.39-1.39s-.62-1.39-1.39-1.39-1.39.62-1.39,1.39.62,1.39,1.39,1.39Zm-.77-1.39c0-.42.35-.77.77-.77s.77.35.77.77-.35.77-.77.77-.77-.35-.77-.77Z"/>
  <path class="cls-1" d="m10,14.56c.77,0,1.4-.63,1.4-1.4v-2.73c0-.77-.63-1.4-1.4-1.4s-1.4.63-1.4,1.4v2.73c0,.77.63,1.4,1.4,1.4Zm-.78-4.12c0-.43.35-.78.78-.78s.78.35.78.78v2.73c0,.43-.35.78-.78.78s-.78-.35-.78-.78v-2.73Z"/>
</svg>