<?xml version="1.0" encoding="UTF-8"?>
<svg id="icones" xmlns="http://www.w3.org/2000/svg" viewBox="0 0 20 20">
  <defs>
    <style>
      .cls-1 {
        fill: #db334f;
      }
    </style>
  </defs>
  <path class="cls-1" d="m18.79,16.69c-.09.14-.21.18-.38.18-1.37,0-2.73.02-4.1.03-.27,0-.55-.03-.82-.03-2.12,0-4.23.03-6.35.03-1.86,0-3.73-.02-5.59-.03-.22,0-.34-.1-.34-.27,0-.17.13-.27.34-.28.22,0,.43,0,.67,0,0-.09,0-.16,0-.23,0-3.08,0-6.16,0-9.24,0-.35.07-.67.29-.94.24-.29.55-.47.93-.48.81-.01,1.62,0,2.44,0,.18,0,.29.11.3.27,0,.16-.13.28-.33.28-.74,0-1.48,0-2.21,0-.1,0-.21,0-.31.03-.32.08-.53.36-.56.68,0,.06,0,.11,0,.17,0,3.08,0,6.17,0,9.25v.2h3.88V3.66c-.15,0-.32,0-.48,0-.07,0-.15,0-.22,0-.16-.02-.27-.13-.27-.28,0-.15.12-.26.28-.26.36,0,.72,0,1.08,0,2.3,0,4.6,0,6.9,0,.1,0,.22.03.28.09.06.06.09.21.05.27-.04.08-.16.16-.26.17-.21.03-.43,0-.66,0v12.64h3.85c0-.06,0-.12,0-.18,0-3.1,0-6.2,0-9.3,0-.56-.3-.86-.86-.86-.72,0-1.43,0-2.15,0-.06,0-.13,0-.19-.01-.14-.03-.22-.13-.21-.27,0-.14.09-.23.23-.25.06,0,.11,0,.17,0,.7,0,1.41.02,2.11,0,.84-.03,1.44.61,1.44,1.43-.02,3.08,0,6.16,0,9.24,0,.07,0,.15,0,.24.21,0,.41,0,.6,0,.17,0,.31.03.42.17v.21Zm-6-.38V3.68h-5.56v12.63h.95c0-.07,0-.13,0-.19,0-.54,0-1.09,0-1.63.02-.99.77-1.78,1.72-1.81,1.07-.03,1.89.75,1.9,1.82,0,.54,0,1.09,0,1.63,0,.06,0,.12,0,.19h.97Zm-1.52,0c0-.58,0-1.15,0-1.71,0-.07,0-.15,0-.22-.07-.66-.59-1.14-1.23-1.15-.66,0-1.22.45-1.27,1.12-.05.64-.01,1.29-.01,1.94,0,0,.01.02.02.03h2.5Z"/>
  <path class="cls-1" d="m4.71,8.65c.28,0,.56,0,.84,0,.2,0,.32.1.33.27,0,.17-.12.28-.32.28-.56,0-1.13,0-1.69,0-.2,0-.32-.11-.32-.28,0-.17.12-.27.33-.27.28,0,.56,0,.84,0Z"/>
  <path class="cls-1" d="m15.29,8.65c.28,0,.56,0,.84,0,.2,0,.33.1.33.27,0,.17-.12.28-.33.28-.55,0-1.11,0-1.66,0-.21,0-.34-.11-.34-.28,0-.17.13-.27.34-.27.27,0,.55,0,.82,0Z"/>
  <path class="cls-1" d="m4.72,10.82c-.28,0-.56,0-.84,0-.21,0-.33-.1-.33-.27,0-.16.12-.28.32-.28.57,0,1.13,0,1.7,0,.19,0,.31.11.31.27,0,.17-.12.28-.32.28-.28,0-.56,0-.84,0Z"/>
  <path class="cls-1" d="m15.28,10.82c-.28,0-.56,0-.84,0-.2,0-.32-.11-.32-.28,0-.16.12-.27.31-.27.57,0,1.13,0,1.7,0,.2,0,.32.12.32.28,0,.16-.12.26-.31.27-.29,0-.57,0-.86,0Z"/>
  <path class="cls-1" d="m4.72,11.87c.28,0,.56,0,.84,0,.2,0,.32.11.32.28,0,.16-.12.27-.31.27-.57,0-1.13,0-1.7,0-.2,0-.32-.12-.32-.28,0-.16.13-.26.33-.27.28,0,.56,0,.84,0Z"/>
  <path class="cls-1" d="m15.28,11.87c.29,0,.57,0,.86,0,.19,0,.31.11.31.27,0,.16-.12.28-.31.28-.57,0-1.14,0-1.72,0-.19,0-.31-.11-.31-.27,0-.16.12-.27.32-.27.28,0,.56,0,.84,0Z"/>
  <path class="cls-1" d="m10.92,7.41c0,.15,0,.3,0,.45-.01.3-.22.51-.51.51-.27,0-.55,0-.82,0-.26,0-.47-.18-.49-.44-.02-.35-.02-.71,0-1.06.01-.24.2-.41.44-.43.31-.02.62-.02.93,0,.26.01.45.24.46.52,0,.15,0,.31,0,.46Zm-1.29.4h.73v-.84c-.22,0-.43,0-.64,0-.03,0-.09.07-.09.1,0,.24,0,.48,0,.73Z"/>
  <path class="cls-1" d="m10.92,9.84c0,.15,0,.3,0,.45-.01.28-.19.49-.46.5-.3.02-.61.02-.91,0-.26-.02-.44-.2-.46-.47-.02-.33-.02-.66,0-.99.02-.29.23-.47.51-.47.26,0,.51,0,.77,0,.33,0,.54.23.55.56,0,.14,0,.29,0,.43h0Zm-1.29-.43c0,.26,0,.51,0,.75,0,.03.05.09.07.09.22,0,.44,0,.66,0v-.84h-.73Z"/>
</svg>