<?xml version="1.0" encoding="UTF-8"?>
<svg id="icones" xmlns="http://www.w3.org/2000/svg" viewBox="0 0 30 30">
  <defs>
    <style>
      .cls-1 {
        fill: #db334f;
      }
    </style>
  </defs>
  <g>
    <g>
      <path class="cls-1" d="m5.15,20c.38,0,.69.05.94.15.25.1.43.25.55.45.12.2.18.44.18.72v.07h-.85v-.06c0-.14-.02-.25-.07-.33-.05-.08-.13-.13-.25-.17s-.3-.05-.53-.05c-.25,0-.41.03-.49.08-.08.05-.12.15-.12.28,0,.09.01.16.04.21.03.05.08.1.16.14s.22.07.4.1l.68.12c.25.04.45.11.6.21.16.1.27.22.34.37s.11.32.11.52-.05.39-.15.57c-.1.18-.27.32-.5.44-.23.11-.53.17-.89.17s-.67-.06-.9-.17c-.23-.12-.4-.27-.51-.48-.11-.2-.16-.43-.16-.69v-.05h.86v.06c0,.13.02.24.06.32.04.08.12.13.23.17.11.03.26.05.45.05.25,0,.42-.03.51-.08.09-.06.14-.15.14-.27,0-.08-.02-.15-.05-.19-.03-.05-.09-.09-.16-.11-.08-.03-.19-.06-.34-.09l-.69-.13c-.27-.05-.48-.13-.64-.24s-.27-.24-.34-.4-.1-.33-.1-.51c0-.2.05-.4.15-.58.1-.18.26-.32.48-.43s.51-.16.88-.16Zm-.32,3.57h.8v.94h-.8v-.94Zm0-4.09h.8v.94h-.8v-.94Z"/>
      <path class="cls-1" d="m5.23,5.74c.21,0,.38.17.38.38v11.29c0,.21-.17.38-.38.38s-.38-.17-.38-.38V6.12c0-.21.17-.38.38-.38Z"/>
    </g>
    <path class="cls-1" d="m5.23,5.49c.11,0,.21.05.28.13l1.44,1.63c.14.16.12.39-.03.53-.16.14-.39.12-.53-.03l-1.16-1.31-1.16,1.31c-.14.15-.37.17-.53.03-.16-.14-.17-.37-.03-.53l1.44-1.63c.07-.08.17-.13.28-.13Z"/>
  </g>
  <g>
    <path class="cls-1" d="m22.81,14.98c.64.02,1.26.02,1.87.06.49.04.96.16,1.4.39.43.21.65.53.64,1.04-.03,1.12-.02,2.25,0,3.38,0,.4-.17.67-.49.87-.44.27-.92.41-1.42.45-.59.05-1.18.04-1.77.05-.07,0-.14,0-.23,0,0,.15,0,.29,0,.44,0,.92-.61,1.52-1.53,1.52-3.16,0-6.32,0-9.47,0-.92,0-1.53-.61-1.53-1.52,0-4.44,0-8.87,0-13.31,0-.92.61-1.52,1.52-1.52,3.16,0,6.32,0,9.47,0,.93,0,1.53.61,1.53,1.54,0,2.14,0,4.28,0,6.42v.2Zm-11.9,0c0,2.21,0,4.42,0,6.64,0,.28.06.53.28.73.19.17.42.2.67.2,3.13,0,6.25,0,9.38,0,.06,0,.13,0,.19,0,.43-.03.74-.35.75-.78,0-.17,0-.35,0-.52,0-.12-.04-.16-.15-.2-.31-.12-.62-.25-.9-.42-.26-.15-.36-.41-.36-.72,0-1.18.01-2.35,0-3.53,0-.34.11-.6.39-.77.27-.16.56-.28.85-.39.12-.05.17-.09.17-.22,0-2.22,0-4.44,0-6.66,0-.1,0-.19-.03-.29-.1-.38-.4-.58-.85-.58-1.59,0-3.18,0-4.77,0-1.56,0-3.13,0-4.69,0-.25,0-.47.04-.66.21-.21.19-.27.44-.27.72,0,2.2,0,4.4,0,6.6Zm13.01,1.91c.24-.03.64-.04,1.03-.12.35-.08.68-.22,1-.37.18-.08.17-.2,0-.3-.16-.1-.33-.18-.5-.24-1.01-.31-2.04-.32-3.07-.09-.3.07-.58.2-.85.34-.17.08-.16.18,0,.29.11.08.23.14.36.19.6.24,1.24.28,2.03.3Zm-2.51,1.46c-.03.49,0,.55.46.73.02,0,.04.01.05.02.8.28,1.62.31,2.45.25.47-.04.93-.12,1.36-.32.35-.16.41-.29.33-.67-1.55.55-3.1.56-4.66,0Zm4.66-1.24c-1.55.56-3.11.56-4.66,0-.03.48,0,.54.43.72.08.03.16.06.24.08.71.21,1.44.26,2.18.21.51-.04,1.02-.11,1.5-.34.34-.16.4-.29.32-.67Zm-4.66,2.49c-.05.45,0,.53.4.71.06.03.12.05.18.07.83.27,1.68.32,2.53.2.42-.06.84-.18,1.24-.32.34-.12.39-.3.29-.65-1.55.55-3.09.55-4.65,0Z"/>
    <path class="cls-1" d="m19.83,18.51c0,1.81-1.47,3.28-3.29,3.28-1.81,0-3.29-1.48-3.29-3.29,0-1.81,1.48-3.28,3.29-3.28,1.82,0,3.29,1.47,3.28,3.29Zm-5.94,0c0,1.46,1.2,2.65,2.65,2.65,1.46,0,2.66-1.2,2.65-2.67,0-1.47-1.2-2.65-2.67-2.65-1.45,0-2.64,1.21-2.64,2.67Z"/>
    <path class="cls-1" d="m16.57,12.92c1.31,0,2.61,0,3.92,0,.08,0,.17,0,.25.03.15.04.21.16.21.31,0,.14-.08.24-.22.28-.07.02-.15.02-.23.02-2.63,0-5.26,0-7.89,0-.02,0-.04,0-.06,0-.25,0-.4-.12-.4-.32,0-.19.15-.32.4-.32,1.14,0,2.29,0,3.43,0,.2,0,.4,0,.6,0Z"/>
    <path class="cls-1" d="m16.53,9.35c-1.3,0-2.6,0-3.9,0-.06,0-.13,0-.19,0-.18-.02-.3-.15-.3-.31,0-.16.13-.3.31-.31.06,0,.12,0,.17,0,2.62,0,5.23,0,7.85,0,.03,0,.06,0,.1,0,.24,0,.38.12.38.32,0,.2-.14.31-.38.31-1.34,0-2.69,0-4.03,0Z"/>
    <path class="cls-1" d="m16.53,11.45c-1.31,0-2.62,0-3.94,0-.06,0-.13,0-.19,0-.17-.03-.26-.14-.26-.31,0-.17.09-.28.27-.3.07-.01.14,0,.21,0,2.62,0,5.23,0,7.85,0,.06,0,.13,0,.19,0,.17.02.28.14.28.31,0,.17-.11.29-.28.31-.06,0-.12,0-.17,0-1.32,0-2.64,0-3.95,0Z"/>
    <path class="cls-1" d="m16.59,19.72c-.23,0-.42-.03-.57-.09-.15-.06-.26-.15-.33-.27-.07-.12-.11-.27-.11-.44v-.05h.52v.04c0,.09.01.15.04.2.03.05.08.08.15.1s.18.03.33.03c.15,0,.25-.02.3-.05.05-.03.07-.09.07-.17,0-.05,0-.1-.02-.13-.02-.03-.05-.06-.1-.08s-.13-.04-.24-.06l-.42-.07c-.15-.03-.27-.07-.37-.13-.1-.06-.16-.13-.21-.23s-.06-.2-.06-.32.03-.24.09-.34c.06-.11.16-.2.3-.27.14-.07.32-.1.54-.1s.41.04.55.11c.14.07.24.17.31.29.07.12.1.26.1.42v.03h-.52v-.04c0-.08-.01-.15-.04-.19-.03-.05-.07-.08-.14-.1-.07-.02-.16-.03-.27-.03-.15,0-.25.02-.31.05-.06.03-.09.09-.09.16,0,.05,0,.09.03.12.02.03.05.05.1.07.05.02.12.03.21.05l.42.08c.16.03.29.08.39.15s.17.15.21.24.06.2.06.31c0,.12-.03.24-.09.35-.06.11-.16.2-.29.26s-.31.1-.54.1Zm.19-2.17h-.49v-.57h.49v.57Zm0,2.49h-.49v-.57h.49v.57Z"/>
  </g>
</svg>