<?xml version="1.0" encoding="UTF-8"?>
<svg id="icones" xmlns="http://www.w3.org/2000/svg" viewBox="0 0 20 20">
  <defs>
    <style>
      .cls-1 {
        fill: #db334f;
      }
    </style>
  </defs>
  <g>
    <path class="cls-1" d="m7.87,4.51c1.13,0,2.26,0,3.39,0,.5,0,.79.29.79.79,0,.36,0,.72,0,1.08,0,.16-.1.26-.24.26-.14,0-.24-.1-.24-.27,0-.03,0-.07,0-.1,0-.33,0-.65,0-.98,0-.22-.08-.31-.3-.31-2.27,0-4.54,0-6.81,0-.22,0-.3.08-.31.31,0,.51,0,1.03,0,1.54,0,.23.09.31.32.31,2.17,0,4.34,0,6.5,0,.24,0,.35.08.35.24,0,.16-.12.23-.35.23-2.16,0-4.33,0-6.49,0-.53,0-.81-.29-.81-.82,0-.5,0-1.01,0-1.51,0-.49.3-.78.79-.78,1.14,0,2.27,0,3.41,0Z"/>
    <path class="cls-1" d="m7.85,16.2c-.18,0-.36,0-.53,0-.34,0-.61-.27-.62-.62,0-.26,0-.51,0-.77,0-.33.26-.6.59-.61.37-.01.74-.01,1.11,0,.34,0,.59.28.6.62,0,.25,0,.5,0,.76,0,.35-.27.61-.63.62-.17,0-.35,0-.52,0Zm0-1.52c-.16,0-.33,0-.49,0-.12,0-.18.06-.18.18,0,.22,0,.45,0,.67,0,.13.06.19.19.19.32,0,.64,0,.97,0,.14,0,.19-.05.19-.2,0-.22,0-.44,0-.66,0-.13-.06-.19-.19-.19-.16,0-.33,0-.49,0Z"/>
    <path class="cls-1" d="m7.85,11.33c.16,0,.33,0,.49,0,.39,0,.65.27.65.65,0,.23,0,.47,0,.7,0,.37-.26.64-.63.65-.35,0-.69,0-1.04,0-.38,0-.63-.28-.63-.66,0-.23,0-.47,0-.7,0-.37.27-.63.64-.64.17,0,.35,0,.52,0Zm0,1.53c.15,0,.31,0,.46,0,.16,0,.21-.05.21-.21,0-.21,0-.43,0-.64,0-.14-.05-.2-.19-.2-.32,0-.64,0-.95,0-.15,0-.2.05-.2.21,0,.21,0,.43,0,.64,0,.14.05.19.19.2.16,0,.32,0,.48,0Z"/>
    <path class="cls-1" d="m4.82,10.46c-.17,0-.34,0-.5,0-.37,0-.63-.26-.64-.62,0-.25,0-.5,0-.76.01-.36.28-.62.64-.62.34,0,.68,0,1.02,0,.36,0,.62.26.63.63,0,.25,0,.5,0,.74,0,.37-.27.62-.65.63-.17,0-.34,0-.5,0Zm0-.48c.16,0,.32,0,.48,0,.15,0,.2-.04.2-.19,0-.22,0-.45,0-.67,0-.12-.05-.18-.18-.18-.33,0-.65,0-.98,0-.13,0-.19.07-.19.19,0,.22,0,.44,0,.66,0,.14.05.19.19.2.16,0,.32,0,.48,0Z"/>
    <path class="cls-1" d="m4.83,11.33c.16,0,.33,0,.49,0,.38,0,.64.26.65.64,0,.24,0,.49,0,.73,0,.37-.26.63-.63.64-.35,0-.69,0-1.04,0-.37,0-.63-.27-.64-.65,0-.24,0-.48,0-.71,0-.38.28-.64.65-.64.17,0,.34,0,.5,0Zm0,.48c-.16,0-.33,0-.49,0-.14,0-.2.05-.2.2,0,.22,0,.44,0,.66,0,.14.05.19.2.2.32,0,.63,0,.95,0,.15,0,.19-.05.19-.2,0-.22,0-.44,0-.66,0-.14-.05-.19-.19-.2-.15,0-.31,0-.46,0Z"/>
    <path class="cls-1" d="m4.83,14.2c.18,0,.36,0,.53,0,.35.01.6.26.61.61,0,.26,0,.52,0,.78-.01.35-.28.6-.63.61-.34,0-.68,0-1.02,0-.36,0-.63-.26-.65-.62,0-.26-.01-.51,0-.77.01-.35.27-.6.62-.61.18,0,.35,0,.53,0,0,0,0,0,0,0Zm-.01,1.52c.16,0,.33,0,.49,0,.13,0,.19-.06.19-.19,0-.22,0-.45,0-.67,0-.13-.06-.19-.19-.19-.32,0-.64,0-.97,0-.13,0-.19.06-.19.19,0,.22,0,.45,0,.67,0,.12.06.19.19.19.16,0,.32,0,.48,0Z"/>
    <path class="cls-1" d="m7.84,10.46c-.18,0-.36,0-.53,0-.34,0-.6-.27-.61-.61,0-.26,0-.52,0-.78,0-.34.28-.6.61-.6.35,0,.71,0,1.07,0,.35,0,.61.27.62.61,0,.26,0,.51,0,.77,0,.34-.27.6-.61.61-.18,0-.36,0-.55,0Zm0-1.52c-.16,0-.32,0-.48,0-.14,0-.19.05-.2.19,0,.22,0,.44,0,.66,0,.13.06.19.19.19.33,0,.65,0,.98,0,.12,0,.18-.06.18-.18,0-.22,0-.45,0-.67,0-.14-.05-.19-.2-.19-.16,0-.32,0-.48,0Z"/>
    <path class="cls-1" d="m10.9,10.46c-.18,0-.36,0-.55,0-.34-.01-.6-.27-.6-.61,0-.26,0-.51,0-.77,0-.34.27-.61.62-.61.35,0,.71,0,1.07,0,.34,0,.6.27.61.61,0,.26,0,.52,0,.78-.01.34-.28.6-.61.61-.18,0-.35,0-.53,0Zm0-.48c.16,0,.33,0,.49,0,.13,0,.19-.06.19-.19,0-.22,0-.45,0-.67,0-.13-.06-.19-.19-.19-.32,0-.64,0-.97,0-.13,0-.19.06-.19.19,0,.22,0,.45,0,.67,0,.13.06.19.19.19.16,0,.32,0,.48,0Z"/>
    <path class="cls-1" d="m10.05,17.53H3.38c-.69,0-1.24-.56-1.24-1.24V4.39c0-.69.56-1.24,1.24-1.24h8.89c.69,0,1.24.56,1.24,1.24v6.18c0,.13-.11.24-.24.24s-.24-.11-.24-.24v-6.18c0-.42-.34-.76-.76-.76H3.38c-.42,0-.76.34-.76.76v11.9c0,.42.34.76.76.76h6.67c.13,0,.24.11.24.24s-.11.24-.24.24Z"/>
    <path class="cls-1" d="m15.67,11.81c-.27-.31-.6-.55-.97-.73-.13-.07-.26-.03-.33.08-.07.12-.03.25.1.33.04.02.07.04.11.06.92.54,1.43,1.34,1.49,2.4.09,1.56-1.06,2.89-2.61,3.06-1.63.19-3.12-1.05-3.24-2.68-.12-1.71,1.21-3.15,2.93-3.16.29,0,.35-.06.35-.35v-.85h-.48v.71c-.15.02-.29.03-.43.05-1.92.34-3.13,2.08-2.8,3.99.32,1.84,2.2,3.11,4.03,2.71,2.6-.56,3.61-3.67,1.83-5.64Z"/>
    <path class="cls-1" d="m13.23,15.77c-.3,0-.55-.04-.75-.13-.2-.09-.34-.21-.43-.37-.09-.16-.14-.34-.14-.55v-.08h.51v.05c0,.13.02.24.07.33.05.09.13.16.25.2.12.04.29.07.52.07.24,0,.4-.03.5-.1.09-.07.14-.18.14-.32,0-.1-.01-.18-.04-.24s-.09-.11-.17-.15c-.08-.04-.21-.07-.37-.11l-.54-.11c-.18-.04-.34-.09-.46-.16-.12-.07-.22-.17-.28-.29-.07-.12-.1-.26-.1-.42s.04-.31.13-.45c.08-.14.21-.25.39-.34.18-.09.4-.13.67-.13.29,0,.53.05.71.15.18.1.32.23.4.39.08.16.13.34.13.53v.06h-.51v-.05c0-.13-.02-.24-.06-.33-.04-.09-.12-.15-.23-.2-.11-.05-.26-.07-.45-.07-.24,0-.41.04-.51.1-.1.07-.16.17-.16.31,0,.1.02.18.05.23.03.06.09.1.17.14.08.03.2.07.34.1l.54.11c.2.04.36.1.49.18s.22.18.28.3c.06.12.09.26.09.42s-.04.32-.12.46-.21.25-.38.33c-.17.08-.4.12-.67.12Zm.17-3.05h-.48v-.67h.48v.67Zm0,3.48h-.48v-.68h.48v.68Z"/>
    <path class="cls-1" d="m10.92,6.65h-.67v-.26h.16v-.5s-.07.01-.12.01c-.02,0-.03,0-.04,0v-.25s.01,0,.02,0c.07,0,.14-.01.2-.04.06-.03.1-.06.13-.1h.17v.88h.15v.26Z"/>
  </g>
  <path class="cls-1" d="m17.87,9.09h-3.21v-.69h3.21v.69Zm-1.25,1.25h-.71v-3.2h.71v3.2Z"/>
  <path class="cls-1" d="m17.87,4.42h-3.21v-.69h3.21v.69Zm-1.25,1.25h-.71v-3.2h.71v3.2Z"/>
</svg>