<?xml version="1.0" encoding="UTF-8"?>
<svg id="icones" xmlns="http://www.w3.org/2000/svg" viewBox="0 0 20 20">
  <defs>
    <style>
      .cls-1 {
        fill: #db334f;
      }
    </style>
  </defs>
  <g>
    <path class="cls-1" d="m7.16,3.15c1.13,0,2.26,0,3.39,0,.5,0,.79.29.79.79,0,.36,0,.72,0,1.08,0,.16-.1.26-.24.26-.14,0-.24-.1-.24-.27,0-.03,0-.07,0-.1,0-.33,0-.65,0-.98,0-.22-.08-.31-.3-.31-2.27,0-4.54,0-6.81,0-.22,0-.3.08-.31.31,0,.51,0,1.03,0,1.54,0,.23.09.31.32.31,2.17,0,4.34,0,6.5,0,.24,0,.35.08.35.24,0,.16-.12.23-.35.23-2.16,0-4.33,0-6.49,0-.53,0-.81-.29-.81-.82,0-.5,0-1.01,0-1.51,0-.49.3-.78.79-.78,1.14,0,2.27,0,3.41,0Z"/>
    <path class="cls-1" d="m7.14,14.84c-.18,0-.36,0-.53,0-.34,0-.61-.27-.62-.62,0-.26,0-.51,0-.77,0-.33.26-.6.59-.61.37-.01.74-.01,1.11,0,.34,0,.59.28.6.62,0,.25,0,.5,0,.76,0,.35-.27.61-.63.62-.17,0-.35,0-.52,0Zm0-1.52c-.16,0-.33,0-.49,0-.12,0-.18.06-.18.18,0,.22,0,.45,0,.67,0,.13.06.19.19.19.32,0,.64,0,.97,0,.14,0,.19-.05.19-.2,0-.22,0-.44,0-.66,0-.13-.06-.19-.19-.19-.16,0-.33,0-.49,0Z"/>
    <path class="cls-1" d="m7.14,9.96c.16,0,.33,0,.49,0,.39,0,.65.27.65.65,0,.23,0,.47,0,.7,0,.37-.26.64-.63.65-.35,0-.69,0-1.04,0-.38,0-.63-.28-.63-.66,0-.23,0-.47,0-.7,0-.37.27-.63.64-.64.17,0,.35,0,.52,0Zm0,1.53c.15,0,.31,0,.46,0,.16,0,.21-.05.21-.21,0-.21,0-.43,0-.64,0-.14-.05-.2-.19-.2-.32,0-.64,0-.95,0-.15,0-.2.05-.2.21,0,.21,0,.43,0,.64,0,.14.05.19.19.2.16,0,.32,0,.48,0Z"/>
    <path class="cls-1" d="m4.12,9.1c-.17,0-.34,0-.5,0-.37,0-.63-.26-.64-.62,0-.25,0-.5,0-.76.01-.36.28-.62.64-.62.34,0,.68,0,1.02,0,.36,0,.62.26.63.63,0,.25,0,.5,0,.74,0,.37-.27.62-.65.63-.17,0-.34,0-.5,0Zm0-.48c.16,0,.32,0,.48,0,.15,0,.2-.04.2-.19,0-.22,0-.45,0-.67,0-.12-.05-.18-.18-.18-.33,0-.65,0-.98,0-.13,0-.19.07-.19.19,0,.22,0,.44,0,.66,0,.14.05.19.19.2.16,0,.32,0,.48,0Z"/>
    <path class="cls-1" d="m4.12,9.96c.16,0,.33,0,.49,0,.38,0,.64.26.65.64,0,.24,0,.49,0,.73,0,.37-.26.63-.63.64-.35,0-.69,0-1.04,0-.37,0-.63-.27-.64-.65,0-.24,0-.48,0-.71,0-.38.28-.64.65-.64.17,0,.34,0,.5,0Zm0,.48c-.16,0-.33,0-.49,0-.14,0-.2.05-.2.2,0,.22,0,.44,0,.66,0,.14.05.19.2.2.32,0,.63,0,.95,0,.15,0,.19-.05.19-.2,0-.22,0-.44,0-.66,0-.14-.05-.19-.19-.2-.15,0-.31,0-.46,0Z"/>
    <path class="cls-1" d="m4.12,12.84c.18,0,.36,0,.53,0,.35.01.6.26.61.61,0,.26,0,.52,0,.78-.01.35-.28.6-.63.61-.34,0-.68,0-1.02,0-.36,0-.63-.26-.65-.62,0-.26-.01-.51,0-.77.01-.35.27-.6.62-.61.18,0,.35,0,.53,0,0,0,0,0,0,0Zm-.01,1.52c.16,0,.33,0,.49,0,.13,0,.19-.06.19-.19,0-.22,0-.45,0-.67,0-.13-.06-.19-.19-.19-.32,0-.64,0-.97,0-.13,0-.19.06-.19.19,0,.22,0,.45,0,.67,0,.12.06.19.19.19.16,0,.32,0,.48,0Z"/>
    <path class="cls-1" d="m7.14,9.09c-.18,0-.36,0-.53,0-.34,0-.6-.27-.61-.61,0-.26,0-.52,0-.78,0-.34.28-.6.61-.6.35,0,.71,0,1.07,0,.35,0,.61.27.62.61,0,.26,0,.51,0,.77,0,.34-.27.6-.61.61-.18,0-.36,0-.55,0Zm0-1.52c-.16,0-.32,0-.48,0-.14,0-.19.05-.2.19,0,.22,0,.44,0,.66,0,.13.06.19.19.19.33,0,.65,0,.98,0,.12,0,.18-.06.18-.18,0-.22,0-.45,0-.67,0-.14-.05-.19-.2-.19-.16,0-.32,0-.48,0Z"/>
    <path class="cls-1" d="m10.19,9.09c-.18,0-.36,0-.55,0-.34-.01-.6-.27-.6-.61,0-.26,0-.51,0-.77,0-.34.27-.61.62-.61.35,0,.71,0,1.07,0,.34,0,.6.27.61.61,0,.26,0,.52,0,.78-.01.34-.28.6-.61.61-.18,0-.35,0-.53,0Zm0-.48c.16,0,.33,0,.49,0,.13,0,.19-.06.19-.19,0-.22,0-.45,0-.67,0-.13-.06-.19-.19-.19-.32,0-.64,0-.97,0-.13,0-.19.06-.19.19,0,.22,0,.45,0,.67,0,.13.06.19.19.19.16,0,.32,0,.48,0Z"/>
    <path class="cls-1" d="m8.17,16.17H2.67c-.69,0-1.24-.56-1.24-1.24V3.03c0-.69.56-1.24,1.24-1.24h8.89c.69,0,1.24.56,1.24,1.24v5.95c0,.13-.11.24-.24.24s-.24-.11-.24-.24V3.03c0-.42-.34-.76-.76-.76H2.67c-.42,0-.76.34-.76.76v11.9c0,.42.34.76.76.76h5.5c.13,0,.24.11.24.24s-.11.24-.24.24Z"/>
    <path class="cls-1" d="m10.21,5.28h-.67v-.26h.16v-.5s-.07.01-.12.01c-.02,0-.03,0-.04,0v-.25s.01,0,.02,0c.07,0,.14-.01.2-.04.06-.03.1-.06.13-.1h.17v.88h.15v.26Z"/>
  </g>
  <g>
    <path class="cls-1" d="m16.06,9.22s.04.04.07.06c.18.15.24.39.17.61-.07.22-.27.37-.5.38-.08,0-.11.03-.13.1,0,.01,0,.02-.01.04-.06.16-.06.17.09.26.34.22.63.49.87.81.1.14.11.14.27.07.04-.02.08-.03.13-.05-.01-.16,0-.3.09-.42.24-.34.76-.33.95.04.14.27.27.56.39.84.1.24,0,.51-.2.66-.21.15-.5.13-.69-.04-.02-.02-.05-.04-.07-.06-.01,0-.02,0-.02,0-.31.14-.27.1-.22.39.07.37.08.74.02,1.11-.02.15-.01.17.13.22.05.02.09.03.14.05.02-.02.04-.05.07-.07.19-.19.47-.22.7-.09.22.13.32.41.23.66-.09.26-.19.53-.29.79-.1.26-.35.41-.61.37-.27-.04-.46-.26-.48-.55,0-.02,0-.04,0-.06-.34-.14-.29-.13-.45.11-.21.31-.47.58-.77.8-.12.09-.13.11-.06.25,0,.01.01.02.02.03.02.08.06.11.15.11.26,0,.48.17.54.42.06.25-.05.52-.28.63-.27.13-.54.25-.81.37-.25.11-.53.03-.68-.19-.15-.22-.13-.5.06-.71.01-.02.03-.03.05-.05,0-.01,0-.02,0-.03-.14-.3-.1-.27-.39-.21-.37.07-.74.08-1.11.02-.14-.02-.16,0-.21.13-.02.05-.04.1-.05.15.2.17.28.37.21.62-.09.31-.42.48-.73.37-.27-.1-.53-.2-.8-.3-.25-.1-.4-.36-.36-.61.05-.27.27-.46.54-.47.02,0,.05,0,.07,0,.14-.34.13-.28-.12-.45-.31-.21-.58-.47-.8-.77-.09-.12-.11-.12-.24-.06-.02,0-.04.02-.06.03-.07.02-.09.06-.09.14,0,.27-.17.49-.42.55-.25.06-.51-.05-.63-.29-.13-.26-.25-.53-.37-.79-.12-.26-.03-.54.19-.7.23-.16.51-.13.72.07.01.01.02.02.05.05.06-.03.12-.07.19-.1.07-.03.09-.08.07-.15-.1-.43-.12-.87-.05-1.31.01-.08-.02-.14-.1-.16,0,0-.02,0-.03,0-.1-.05-.17-.05-.26.04-.17.16-.38.19-.59.09-.22-.1-.32-.27-.33-.51,0-.03,0-.07,0-.1.12-.33.24-.66.37-.98.02-.02.04-.04.06-.06.16-.18.35-.25.58-.19.23.06.38.22.4.45.01.13.06.18.17.2.01,0,.02,0,.04.01.07.03.13.01.17-.05.24-.38.54-.71.91-.97.06-.04.06-.09.04-.16-.03-.07-.05-.13-.08-.19-.03,0-.04,0-.06,0-.29.02-.53-.15-.6-.42-.07-.27.05-.53.32-.66.25-.12.51-.24.77-.35.2-.09.4-.06.57.07.17.14.24.32.21.53-.02.14-.09.25-.2.35.02.04.05.09.07.13.07.15.08.15.24.12.39-.09.79-.1,1.19-.05.18.02.18.02.25-.14,0-.01,0-.02.01-.04.03-.06.02-.1-.03-.16-.16-.16-.21-.35-.15-.57.07-.22.22-.34.44-.39.06-.01.13,0,.19-.01.33.12.66.24.98.37Zm-.62.17c-.13-.05-.25-.09-.38-.14-.12-.04-.22,0-.26.09-.04.1,0,.19.11.25.13.07.17.18.12.31-.04.11-.08.21-.12.32-.08.22-.29.35-.52.31-.42-.06-.83-.05-1.25.05-.23.05-.43-.06-.53-.27-.05-.1-.1-.21-.14-.32-.06-.13-.02-.24.1-.31.11-.07.15-.17.1-.27-.05-.1-.15-.12-.28-.06-.24.11-.47.22-.71.32-.12.05-.16.15-.12.25.04.1.13.14.26.1.14-.04.25,0,.31.14.05.1.09.2.14.3.1.22.04.45-.15.59-.34.25-.61.55-.83.9-.13.2-.36.27-.58.19-.09-.03-.19-.07-.28-.1-.18-.07-.22-.14-.18-.33.02-.11-.03-.2-.12-.23-.1-.03-.19.01-.23.12-.1.25-.19.51-.28.76-.04.11,0,.21.09.25.1.04.19,0,.25-.11.07-.13.18-.18.32-.12.1.04.21.07.31.11.22.08.35.29.32.52-.06.42-.05.83.05,1.25.05.23-.06.43-.27.54-.09.04-.18.08-.27.13-.19.09-.26.07-.38-.11-.06-.09-.16-.12-.24-.07-.09.05-.13.14-.09.24.12.26.23.52.36.78.05.1.15.13.25.09.09-.04.12-.13.09-.26-.04-.15,0-.24.13-.31.1-.05.21-.1.32-.14.21-.09.44-.04.58.15.25.34.56.62.91.85.2.12.26.36.18.58-.04.1-.07.21-.11.31-.05.14-.16.2-.3.16-.12-.03-.21.02-.25.12-.03.1.02.19.14.24.25.09.49.18.74.27.12.04.22,0,.26-.09.04-.1,0-.19-.11-.25-.13-.07-.18-.18-.13-.31.04-.11.08-.22.12-.33.08-.21.29-.34.51-.31.42.07.83.05,1.25-.04.23-.05.43.06.53.27.05.1.1.21.14.32.06.14.03.24-.1.32-.11.07-.14.16-.1.26.05.1.15.13.27.07.24-.11.47-.22.71-.32.12-.06.17-.15.12-.25-.04-.1-.14-.13-.26-.1-.14.05-.24,0-.31-.13-.05-.1-.1-.2-.14-.31-.1-.22-.04-.45.15-.59.34-.25.61-.55.83-.9.13-.2.36-.27.58-.19.11.04.21.08.32.12.14.05.19.15.15.3-.03.12.01.22.12.25.1.03.2-.02.24-.14.09-.25.18-.49.27-.74.04-.12.01-.22-.09-.26-.1-.05-.2,0-.26.12-.06.13-.17.17-.3.12-.11-.04-.22-.08-.33-.12-.21-.08-.35-.29-.31-.51.06-.42.05-.84-.05-1.26-.05-.22.06-.43.26-.53.1-.05.21-.1.32-.14.13-.06.24-.02.32.1.07.11.16.14.26.1.1-.05.13-.15.07-.27-.11-.24-.22-.47-.32-.71-.06-.12-.15-.17-.25-.12-.1.04-.13.13-.1.26.04.14,0,.25-.13.31-.1.05-.2.1-.31.14-.22.1-.45.04-.59-.15-.25-.34-.55-.61-.9-.83-.2-.12-.27-.36-.19-.58.04-.11.08-.21.12-.32.05-.14.16-.19.31-.16.12.03.21-.02.25-.12.03-.1-.02-.19-.13-.23-.12-.05-.25-.09-.37-.14Z"/>
    <g>
      <path class="cls-1" d="m16.32,13.94c.04.66-.57,1.23-1.21,1.15-.53-.07-.93-.45-.99-.94-.02-.12.04-.21.15-.22.1-.01.18.05.2.17.06.38.36.6.63.64.39.06.78-.22.84-.6.07-.41-.2-.8-.6-.87-.14-.02-.2-.07-.2-.17,0-.11.08-.2.2-.19.28.03.52.15.7.37.18.2.27.43.27.68Z"/>
      <path class="cls-1" d="m14.03,11.98c0,.41-.34.75-.75.75-.41,0-.75-.34-.75-.75,0-.41.34-.75.75-.75.42,0,.75.33.75.75Zm-.36,0c0-.22-.18-.39-.39-.39-.22,0-.39.18-.39.39,0,.22.18.4.4.39.22,0,.39-.18.39-.4Z"/>
      <path class="cls-1" d="m13.42,14.62c0,.36-.29.65-.64.65-.36,0-.65-.29-.65-.65,0-.36.29-.65.65-.65.36,0,.65.29.65.65Zm-.36,0c0-.16-.13-.3-.29-.29-.16,0-.29.13-.29.29,0,.16.13.3.29.29.16,0,.29-.13.29-.29Z"/>
      <path class="cls-1" d="m13.98,15.43c.1,0,.18.08.18.18,0,.1-.09.18-.19.18-.1,0-.17-.09-.17-.18,0-.1.08-.17.18-.17Z"/>
      <path class="cls-1" d="m11.79,13.49c0-.1.07-.18.17-.18.1,0,.18.08.18.18,0,.1-.08.18-.18.18-.1,0-.18-.07-.18-.17Z"/>
      <path class="cls-1" d="m14.99,11.8c.1,0,.18.08.18.18,0,.1-.08.18-.18.18-.1,0-.17-.09-.17-.18,0-.1.08-.17.18-.17Z"/>
      <path class="cls-1" d="m14.57,13.16c.1,0,.17.08.17.18,0,.1-.08.18-.18.18-.1,0-.18-.09-.18-.18,0-.1.08-.17.18-.17Z"/>
    </g>
  </g>
</svg>