<?xml version="1.0" encoding="UTF-8"?>
<svg id="icones" xmlns="http://www.w3.org/2000/svg" viewBox="0 0 30 30">
  <defs>
    <style>
      .cls-1 {
        fill: #db334f;
      }
    </style>
  </defs>
  <path class="cls-1" d="m16.36,5.18c.08.08.17.14.25.23,1.13,1.24,2.26,2.47,3.38,3.72.08.09.14.25.14.37.01.98,0,1.96,0,2.95v.24c.08-.04.13-.06.18-.09.5-.31.92-.22,1.24.29.77,1.2,1.54,2.41,2.3,3.61.29.46.58.91.87,1.37.29.47.2.9-.27,1.2-.45.29-.91.56-1.35.87-.37.26-.74.36-1.19.02.16.36.2.67.11.99-.2.73-.76,1.02-1.47,1.01-.16,0-.23.03-.28.19-.17.56-.57.84-1.18.82-.13,0-.18.03-.23.15-.3.74-.78.99-1.57.84-.05-.01-.15.04-.18.08-.4.7-.95.93-1.72.67-.41-.14-.78-.36-1.2-.55-.04.03-.1.09-.17.14-.64.51-1.48.36-1.87-.36-.06-.11-.12-.11-.22-.1-.63.07-1.19-.17-1.39-.76-.01-.04-.09-.09-.14-.1-.74-.1-1.06-.38-1.26-1.13-.52.02-.99-.08-1.22-.62-.2-.48-.15-.95.12-1.41-.41.3-.78.23-1.17-.03-.41-.28-.84-.55-1.27-.81-.25-.15-.44-.34-.53-.62,0-.11,0-.21,0-.32.08-.15.15-.31.25-.46,1.02-1.6,2.05-3.2,3.06-4.81.28-.45.73-.64,1.2-.38,0,0,.02,0,.05-.01,0-.07,0-.14,0-.22,0-1.92,0-3.85,0-5.77,0-.14,0-.28.04-.42.11-.45.42-.69.85-.8,1.94,0,3.88,0,5.81,0Zm3.22,4.49c-.1,0-.18,0-.25,0-.96,0-1.92,0-2.89,0-.35,0-.42-.07-.42-.42,0-1.08,0-2.16-.01-3.25,0-.08,0-.16,0-.24-.06,0-.09,0-.12,0-1.72,0-3.43,0-5.15,0-.34,0-.51.19-.51.55,0,2.12,0,4.24,0,6.35,0,.07.06.17.13.22.21.15.43.29.66.42.43.24.66.57.51,1.12.27,0,.53.03.77,0,.44-.07.87-.19,1.31-.27.54-.11,1.06-.13,1.46.35.23-.1.45-.21.68-.3.38-.15.77-.25,1.17-.13.22.06.42.16.63.25.29.13.58.22.91.17-.1-.48.11-.79.51-1.01.16-.09.31-.21.48-.3.11-.06.14-.14.14-.26,0-.83,0-1.66,0-2.49,0-.24,0-.48,0-.74Zm-3.11,11.15c.08.05.14.09.2.12.69.45,1.39.91,2.08,1.36.4.26.9.08,1.03-.36.04-.13.01-.2-.1-.28-.92-.61-1.83-1.23-2.74-1.85-.06-.04-.11-.07-.16-.12-.11-.11-.12-.24-.02-.36.09-.11.21-.15.34-.08.06.03.11.07.17.11.9.61,1.81,1.21,2.7,1.83.28.19.56.24.87.19.31-.05.54-.2.65-.52.1-.3.04-.57-.17-.8-.11-.12-.25-.23-.38-.32-.33-.24-.67-.47-1.01-.69-.73-.49-1.44-.99-2.18-1.45-.33-.21-.71-.34-1.07-.5-.17-.07-.31-.03-.46.09-.59.5-1.2.96-1.91,1.27-.27.12-.55.21-.84.26-.61.1-1.06-.29-.99-.9.03-.32.14-.65.29-.95.32-.66.82-1.18,1.36-1.67.15-.13.3-.26.5-.44-.19-.05-.33-.13-.46-.11-.34.04-.69.1-1.02.18-.61.14-1.21.27-1.84.1-.04-.01-.13.03-.15.07-.8,1.25-1.6,2.5-2.4,3.74-.07.11-.03.16.06.22.27-.28.59-.42.98-.39.39.04.68.25.9.52.22-.08.41-.17.61-.22.7-.17,1.32.14,1.5.75.05.17.13.2.29.2.83.03,1.28.58,1.16,1.39-.01.07-.02.14-.03.22.05.02.1.04.15.07.72.31.93.84.62,1.56-.09.22-.22.42-.34.64.35.23.7.44,1.12.52.46.09.77-.1.91-.57-.05-.04-.1-.08-.16-.12-.36-.26-.72-.51-1.08-.77-.14-.1-.17-.24-.08-.39.09-.14.24-.17.4-.07.05.03.09.06.13.09.4.28.78.59,1.2.84.65.39,1.07.21,1.28-.34.04-.11.03-.17-.07-.23-.32-.2-.63-.41-.94-.61-.4-.26-.79-.52-1.2-.78.1-.16.19-.3.3-.47Zm-5.43-6.75c-.06-.07-.12-.16-.2-.21-.49-.32-.98-.63-1.47-.94-.21-.13-.3-.11-.43.09-1.07,1.67-2.13,3.34-3.2,5.01-.13.2-.11.3.1.43.49.31.98.63,1.47.94.2.13.31.11.43-.09,1.07-1.67,2.13-3.34,3.2-5.01.04-.06.06-.12.1-.22Zm7.93.15c.04.08.06.15.1.2,1.06,1.67,2.13,3.34,3.2,5.01.13.2.23.22.43.09.48-.31.97-.62,1.45-.93.23-.15.25-.24.1-.47-.34-.53-.68-1.07-1.02-1.6-.71-1.12-1.43-2.24-2.14-3.36-.13-.2-.23-.24-.39-.14-.53.33-1.05.66-1.57,1-.06.04-.1.13-.15.19Zm2.43,4.92s-.02-.05-.03-.06c-.84-1.31-1.67-2.62-2.51-3.93-.04-.06-.15-.11-.22-.11-.51.03-1-.05-1.45-.3-.41-.23-.82-.22-1.25-.04-1.2.5-2.06,1.36-2.7,2.46-.11.19-.17.41-.2.62-.05.3.08.43.38.37.26-.05.53-.12.75-.26.56-.34,1.13-.7,1.64-1.11.38-.3.75-.39,1.16-.2.55.25,1.1.52,1.61.85.87.55,1.7,1.16,2.54,1.74.11.08.2.11.29-.04Zm-10.85,3.28s.11-.06.16-.12c.51-.71,1.02-1.42,1.51-2.14.05-.07.07-.19.06-.27-.04-.29-.23-.45-.52-.49-.37-.04-.84.14-.93.38-.23.64-.62,1.19-1.03,1.72-.05.07-.08.18-.07.27.06.41.3.62.81.65Zm1.19.89c.26,0,.45-.09.62-.31.36-.47.75-.92,1.13-1.38.21-.25.25-.54.19-.85-.05-.24-.23-.35-.46-.38-.22-.03-.43-.06-.6.18-.46.68-.95,1.34-1.42,2.01-.16.23-.1.5.16.62.12.05.25.07.38.1Zm4.84-14.22h2.63c-.88-.97-1.74-1.91-2.63-2.88v2.88Zm-7.6,12.22c.11-.04.27-.05.34-.13.38-.45.72-.92.94-1.48.02-.05.04-.12.02-.17-.11-.39-.69-.57-.98-.28-.25.25-.48.52-.7.79-.1.13-.18.29-.2.45-.06.44.09.79.58.81Zm4.31,2.75c.13-.06.27-.1.37-.19.36-.28.63-.64.81-1.05.18-.43.08-.65-.36-.83-.12-.05-.19-.03-.27.07-.35.43-.7.86-1.05,1.28-.18.22-.18.37.07.53.12.08.28.11.44.18Z"/>
  <path class="cls-1" d="m15.32,12.84c-.85,0-1.71,0-2.56,0-.06,0-.12,0-.18,0-.14-.03-.22-.11-.23-.26,0-.15.07-.24.21-.28.07-.02.15-.01.22-.01,1.7,0,3.39,0,5.09,0,.06,0,.12,0,.18,0,.16.03.26.12.25.28,0,.17-.1.25-.26.27-.07,0-.13,0-.2,0-.83,0-1.67,0-2.5,0Z"/>
  <path class="cls-1" d="m15.32,11.05c-.85,0-1.7,0-2.54,0-.07,0-.13,0-.2,0-.15-.02-.23-.11-.23-.26,0-.15.06-.24.21-.28.07-.02.15-.02.22-.02,1.7,0,3.39,0,5.09,0,.08,0,.16,0,.24.02.14.04.23.15.19.28-.03.1-.13.18-.22.24-.04.03-.13.01-.2.01-.85,0-1.7,0-2.54,0Z"/>
  <path class="cls-1" d="m13.19,8.05c.53,0,1.05,0,1.58,0,.24,0,.36.1.36.28,0,.18-.13.28-.36.28-1.05,0-2.09,0-3.14,0-.28,0-.43-.19-.33-.4.06-.14.18-.16.32-.16.53,0,1.05,0,1.58,0Z"/>
</svg>