<?xml version="1.0" encoding="UTF-8"?>
<svg id="icones" xmlns="http://www.w3.org/2000/svg" viewBox="0 0 20 20">
  <defs>
    <style>
      .cls-1 {
        fill: #db334f;
      }
    </style>
  </defs>
  <path class="cls-1" d="m17.06,11.47s-.01-.02-.01-.04c-.16-.7-.67-1.1-1.38-1.11-.22,0-.43,0-.65,0h-.49s-.06,0-.09,0v-1.22s.03.02.05.02c.09.04.18.08.27.09.18.02.36-.03.49-.14.15-.12.23-.31.24-.53,0-.11,0-.21,0-.32,0-.03,0-.07,0-.1.01,0,.02,0,.03,0,.8-.06,1.41-.66,1.46-1.42.05-.69.05-1.37,0-2.02-.06-.85-.69-1.45-1.55-1.46-1.19-.02-2.39-.02-3.58,0-.81.01-1.48.69-1.5,1.51,0,.25,0,.5,0,.74,0,.12,0,.25,0,.37,0,.03,0,.06,0,.09h0s-1.74.01-1.74.01v-.05c0-.15,0-.31,0-.46,0-.33,0-.68-.01-1.02-.03-.65-.58-1.18-1.22-1.19-.94-.02-1.91-.02-2.89,0-.64,0-1.18.51-1.22,1.14-.04.57-.04,1.13,0,1.68.03.51.34.9.86,1.08.17.06.37.07.54.08.11,0,.22,0,.32,0,.14,0,.28,0,.43,0-.14.31-.2.64-.19,1.01,0,.24,0,.49,0,.74,0,.1,0,.19,0,.29-.04,0-.07,0-.1,0-.1,0-.2,0-.3,0-1.06.04-1.89.89-1.89,1.95,0,.74,0,1.48,0,2.22,0,.94.68,1.75,1.6,1.92.08.02.16.02.25.03.03,0,.05,0,.08,0v.13c0,.14,0,.29,0,.43,0,.38.18.66.5.78.09.04.19.05.28.05.22,0,.44-.1.62-.3l.26-.3c.21-.24.43-.49.64-.73.03-.03.09-.06.14-.06.19,0,.39,0,.58,0h.17c.14,0,.23-.05.27-.16.03-.08.02-.16-.02-.23-.05-.07-.14-.12-.24-.12-.14,0-.27,0-.41,0-.15,0-.3,0-.46,0,0,0,0,0-.01,0-.14,0-.24.05-.34.16-.34.4-.66.76-.97,1.1-.06.07-.13.12-.2.13-.08.02-.15,0-.2-.04-.06-.05-.1-.14-.1-.24,0-.15,0-.3,0-.45,0-.11,0-.23,0-.34,0-.22-.09-.3-.31-.31-.02,0-.05,0-.07,0h-.05c-.88-.01-1.5-.63-1.5-1.51,0-.69,0-1.39,0-2.08,0-.09,0-.21.03-.33.16-.81.9-1.29,1.76-1.16,0,.02,0,.05,0,.07,0,.08,0,.17,0,.26,0,.09,0,.18,0,.26,0,.21,0,.43.05.65.21,1,1.06,1.68,2.13,1.69.36,0,.73,0,1.09,0,.38,0,.75,0,1.13,0,.05,0,.12.03.15.06.17.18.33.37.49.56.13.15.26.29.39.44.04.05.05.08.03.14-.2.51-.56.81-1.05.92-.16.03-.32.03-.48.04-.08,0-.16,0-.24,0-.16,0-.27.11-.27.26,0,.14.11.24.27.25.16,0,.31,0,.44,0,.82-.04,1.41-.43,1.77-1.17,0,0,0-.01.01-.02.29.11.56.07.83-.1.23.21.49.32.81.36v.06c0,.08,0,.15,0,.22,0,.29.15.5.39.59.24.08.48.01.67-.2.06-.06.11-.13.17-.19.12-.13.23-.27.36-.4.03-.04.1-.07.15-.07.21,0,.41,0,.62,0,.21,0,.43,0,.64,0,.56-.01,1.06-.38,1.24-.92.02-.05.03-.11.05-.16l.02-.08v-1.77s0-.04,0-.04Zm-3.86,2.54c-.06-.06-.15-.07-.29-.07,0,0-.01,0-.02,0-.24,0-.43-.08-.59-.23-.02-.02-.03-.07-.03-.11,0-.18,0-.35,0-.53v-.24s0-.07,0-.1h0c1.29-.2,1.83-.68,2.13-1.88.02,0,.05,0,.08,0h.24c.32,0,.64,0,.96,0,.52,0,.87.35.87.88,0,.45,0,.9,0,1.34,0,.52-.35.87-.87.87-.44,0-.87,0-1.3,0h0c-.15,0-.25.05-.34.16-.19.23-.39.46-.59.67-.03.03-.1.07-.13.06-.01-.01-.04-.07-.04-.12,0-.09,0-.18,0-.27,0-.04,0-.07,0-.11,0-.15-.01-.25-.08-.31ZM5.52,3.74h.8c.3,0,.61,0,.91,0,.54,0,.87.33.87.87,0,.41,0,.81,0,1.22,0,.55-.32.87-.87.88-.24,0-.32.09-.32.33,0,.04,0,.08,0,.12,0,.09,0,.18,0,.27,0,.03-.02.07-.04.1,0,0,0,0,0,.01,0,0-.01,0-.02,0-.04-.02-.08-.03-.1-.05-.19-.21-.38-.42-.55-.63-.09-.11-.19-.16-.34-.16h0c-.34,0-.68,0-1.03,0h-.19c-.53,0-.87-.33-.87-.87,0-.42,0-.83,0-1.25,0-.53.33-.86.86-.86.3,0,.61,0,.91,0Zm.22,4.38c0-.29.06-.54.19-.78l.44.5c.2.22.43.29.67.2.25-.09.38-.3.38-.6,0-.06,0-.12,0-.18v-.05h.02s.09-.02.13-.03c.38-.09.67-.3.86-.63.04-.06.07-.08.15-.08.98,0,1.95,0,2.93,0h.73s.03,0,.03,0c.03,0,.07,0,.1,0,.15-.02.24-.13.23-.27-.01-.14-.1-.23-.24-.23-.13,0-.25,0-.39,0h-.12c-.22,0-.45,0-.68,0h-.31s0-.2,0-.2c0-.11,0-.22,0-.32,0-.2,0-.4,0-.61,0-.63.46-1.08,1.07-1.09,1.15-.01,2.32-.01,3.48,0,.62,0,1.07.47,1.08,1.1,0,.56,0,1.13,0,1.69,0,.63-.47,1.09-1.11,1.1h-.04s-.05,0-.07,0c-.2,0-.29.1-.29.29,0,.17,0,.35,0,.52v.05c0,.12-.01.18-.1.21-.08.03-.13,0-.21-.08h0c-.17-.17-.25-.35-.26-.62-.03-.78-.41-1.38-1.12-1.79-.09-.05-.17-.06-.25-.04-.06.02-.11.06-.14.12-.07.14-.02.28.15.37.57.32.86.8.87,1.44.01.99.01,1.75,0,2.47-.02.92-.7,1.6-1.63,1.62-.04,0-.08,0-.12,0h-.07c-.23,0-.31.09-.31.32,0,.12,0,.23,0,.35,0,.19,0,.37,0,.56,0,.11-.05.2-.12.26-.07.05-.16.07-.24.05-.07-.02-.16-.07-.23-.15-.32-.36-.67-.75-1.08-1.24-.09-.1-.19-.15-.33-.15h0c-.64,0-1.49,0-2.36,0-.79,0-1.42-.49-1.61-1.23-.03-.13-.05-.26-.05-.41,0-.57,0-1.13,0-1.7v-.74Z"/>
  <path class="cls-1" d="m9.91,10.02h-.6v-.15c0-.16.03-.29.1-.39.06-.1.18-.19.33-.26l.33-.16c.15-.07.27-.15.35-.22.09-.07.13-.18.13-.32,0-.11-.02-.21-.06-.28s-.11-.14-.21-.18c-.1-.04-.25-.06-.44-.06-.22,0-.38.02-.5.07-.12.05-.21.12-.26.22-.05.1-.08.22-.08.37v.08h-.59v-.09c0-.22.05-.42.16-.6s.26-.32.47-.43c.21-.11.48-.16.82-.16.3,0,.55.05.74.14.19.09.32.22.41.37.09.16.13.33.13.53,0,.17-.04.32-.11.44-.07.12-.16.22-.27.3-.11.08-.22.15-.34.2l-.32.15c-.09.04-.14.08-.17.12-.03.04-.04.1-.04.17v.14Zm.05,1.22h-.68v-.82h.68v.82Z"/>
</svg>