<?xml version="1.0" encoding="UTF-8"?>
<svg id="icones" xmlns="http://www.w3.org/2000/svg" viewBox="0 0 20 20">
  <defs>
    <style>
      .cls-1 {
        fill: #db334f;
      }
    </style>
  </defs>
  <path class="cls-1" d="m16.4,14.2c-.07.21-.17.4-.38.5-.1.05-.2.07-.31.1-.18.05-.36.08-.53.13-.33.09-.61.01-.84-.26-.17.08-.34.15-.51.23.02.68-.16.93-.79,1.1,0,.36-.13.66-.46.84-.33.18-.66.14-.97-.08-.16.36-.43.57-.83.58-.4.01-.64-.26-.89-.53-.02.03-.03.06-.04.08-.28.55-.96.68-1.41.25-.41-.39-.8-.79-1.2-1.18-.46-.45-.91-.9-1.37-1.35-.03-.03-.06-.06-.1-.09-.02.03-.03.04-.04.07-.18.3-.48.44-.82.36-.25-.05-.5-.11-.74-.17-.39-.1-.62-.47-.53-.86.3-1.34.61-2.68.92-4.02.1-.42.46-.65.89-.56.25.05.5.11.74.17.27.07.44.24.52.5.02.07.05.1.13.1.76,0,1.52,0,2.27,0,.05,0,.12-.03.16-.07.52-.47,1.09-.56,1.72-.25.41.21.82.43,1.21.68.38.24.74.22,1.11-.01,0-.13-.02-.27,0-.4.06-.28.24-.46.51-.54.26-.07.53-.13.79-.18.39-.08.75.15.85.54.18.76.35,1.51.52,2.27.13.58.27,1.16.4,1.74,0,.02.02.04.02.05v.27Zm-9.74-3.6s-.02.07-.03.09c-.24,1.03-.47,2.07-.71,3.1-.03.11,0,.17.07.25.91.9,1.82,1.8,2.73,2.69.03.03.05.05.08.08.13.1.29.11.42.03.14-.08.21-.21.17-.37-.02-.09-.07-.19-.14-.25-.22-.23-.44-.45-.67-.67-.08-.08-.11-.18-.06-.27.04-.07.13-.14.21-.15.08,0,.18.05.24.11.42.41.84.83,1.26,1.25.09.09.18.19.28.27.12.11.28.12.42.05.14-.08.22-.2.19-.36-.02-.1-.07-.21-.14-.28-.33-.35-.67-.68-1.01-1.02-.12-.12-.24-.24-.36-.36-.09-.1-.08-.24,0-.33.08-.09.22-.11.32-.04.04.03.08.06.11.1.59.59,1.18,1.18,1.77,1.77.04.04.08.08.12.11.15.11.36.09.49-.04.13-.13.14-.33.04-.48-.03-.04-.07-.08-.11-.12-.51-.51-1.02-1.02-1.53-1.53-.09-.09-.18-.17-.26-.27-.08-.1-.08-.24,0-.33.09-.09.23-.1.33-.02.04.03.07.06.1.09.55.55,1.11,1.11,1.66,1.66.1.1.21.17.35.15.15-.02.26-.11.31-.26.05-.16,0-.29-.11-.41-.75-.74-1.49-1.49-2.24-2.23-.34-.34-.71-.37-1.1-.1-.2.14-.41.27-.63.38-.75.39-1.42.27-1.94-.34-.13-.15-.13-.28.02-.41.51-.44.92-.96,1.35-1.47,0-.01.02-.02.03-.05h-2.04Zm6.76.35s-.06.02-.07.03c-.48.24-.93.2-1.39-.08-.38-.23-.76-.44-1.15-.65-.15-.08-.33-.13-.5-.15-.32-.03-.57.13-.78.35-.36.39-.71.8-1.06,1.19-.21.23-.43.46-.64.7,0,0,0,.02.01.02,0,0,.02.02.03.02.31.25.65.25.98.09.26-.12.51-.28.75-.43.25-.16.52-.25.81-.23.36.02.65.17.89.42.72.72,1.44,1.44,2.15,2.15.03.03.08.07.11.06.2-.08.39-.17.59-.25-.25-1.09-.5-2.16-.74-3.25Zm-7.19-.73c-.01-.14-.08-.21-.2-.24-.21-.05-.43-.1-.64-.15-.24-.05-.32,0-.38.23-.3,1.3-.6,2.61-.9,3.92-.04.17.03.28.2.32.2.05.4.09.6.14.26.06.35.01.41-.25.26-1.12.51-2.25.77-3.37.05-.2.09-.41.13-.59Zm7.54,0s0,.05.01.07c.3,1.31.6,2.63.9,3.94.05.21.14.27.35.22.21-.05.42-.1.63-.15.19-.04.25-.14.21-.33-.17-.75-.34-1.51-.52-2.26-.13-.56-.26-1.13-.39-1.69-.04-.16-.14-.24-.27-.21-.25.05-.5.11-.75.17-.11.03-.17.11-.18.23Z"/>
  <g>
    <path class="cls-1" d="m7.24,15.59h-1.39c-.39,0-.71-.32-.71-.71v-.19h-.45v.19c0,.64.52,1.16,1.16,1.16h1.39c.12,0,.22-.1.22-.22s-.1-.22-.22-.22Z"/>
    <path class="cls-1" d="m14.15,2.6H5.85c-.64,0-1.16.52-1.16,1.16v5.93h.45V3.76c0-.39.32-.71.71-.71h8.31c.39,0,.71.32.71.71v5.77c0,.12.1.22.22.22s.22-.1.22-.22V3.76c0-.64-.52-1.16-1.16-1.16Z"/>
  </g>
  <path class="cls-1" d="m13.38,5.09h-6.77c-.14,0-.25-.11-.25-.25s.11-.25.25-.25h6.77c.14,0,.25.11.25.25s-.11.25-.25.25Z"/>
  <path class="cls-1" d="m13.38,6.63h-6.77c-.14,0-.25-.11-.25-.25s.11-.25.25-.25h6.77c.14,0,.25.11.25.25s-.11.25-.25.25Z"/>
  <path class="cls-1" d="m13.38,8.17h-6.77c-.14,0-.25-.11-.25-.25s.11-.25.25-.25h6.77c.14,0,.25.11.25.25s-.11.25-.25.25Z"/>
  <path class="cls-1" d="m12.76,15.59h1.39c.39,0,.71-.32.71-.71v-.19h.45v.19c0,.64-.52,1.16-1.16,1.16h-1.39c-.12,0-.22-.1-.22-.22,0-.12.1-.22.22-.22Z"/>
</svg>