<?xml version="1.0" encoding="UTF-8"?>
<svg id="icones" xmlns="http://www.w3.org/2000/svg" viewBox="0 0 30 30">
  <defs>
    <style>
      .cls-1 {
        fill: #db334f;
      }
    </style>
  </defs>
  <path class="cls-1" d="m18.2,4.78c.63,0,1.14.51,1.14,1.13,0,.78,0,1.76,0,2.22.13.05.28.1.42.17,1.13.57,1.72,1.5,1.74,2.76.02,1.5-.04,4.66,0,4.71s3.26,1.13,3.04,5.06c-.12,2.18-1.8,3.87-3.92,4.29-.33.07-.67.09-1.01.09-3.7,0-7.4,0-11.1,0-1.68,0-3.05-1.36-3.06-3.05,0-1.3,0-2.6,0-3.9,0-.05,0-.11,0-.16.02-.18.16-.31.34-.34.19-.02.36.08.42.26.03.09.03.18.03.28,0,1.28,0,2.56,0,3.83,0,1.1.67,2,1.71,2.2.54.1,1.11.07,1.66.1v-1.45c-.25,0-.86.05-1.22-.05-.39-.1-.66-.43-.67-.82-.02-.42-.02-.85,0-1.28.02-.46.38-.84.84-.86.28-.02.56,0,.85,0v-1.43c-.24,0-.48,0-.73,0-.53,0-.96-.44-.97-.97,0-.37-.02-.73,0-1.1.01-.19.14-.38.15-.57,0-.18-.13-.36-.15-.55-.03-.36-.02-.73,0-1.1.01-.53.44-.95.98-.97.29,0,.58,0,.88,0,.07,0,.14,0,.22,0,0-.41,0-.8,0-1.19,0-.57.47-1.03,1.04-1.04,2.54,0,5.09,0,7.63,0,.57,0,1.04.47,1.04,1.04,0,.33,0,.65,0,.98,0,.55-.46.99-1.01,1-.35,0-.7,0-1.07,0,0,.35-.02,1.48,0,1.83,1.08-.57,2.13-.6,3.32-.37.01-.75,0-2.08-.03-3.33-.01-.73-.01-1.31-.17-1.85-.25-.83-1.15-1.42-1.58-1.51-.19-.04-.38-.06-.57-.06-3.28,0-6.56,0-9.84,0-1.18,0-2.08.73-2.28,1.85-.03.16-.03.33-.03.5,0,1.11,0,5.95,0,7.06,0,.09,0,.17-.02.26-.05.2-.21.31-.42.29-.19-.02-.33-.15-.35-.35,0-.03,0-.05,0-.08,0-1.22-.01-6.18,0-7.4.02-1.27.83-2.35,2.02-2.77.05-.02.1-.04.09-.03,0-.3-.01-1.37-.02-2.23,0-.63.51-1.14,1.14-1.14h9.52Zm1.46,19.66c2.26,0,4.1-1.84,4.09-4.11,0-2.24-1.86-4.09-4.1-4.09-2.24,0-4.11,1.88-4.1,4.11,0,2.23,1.88,4.09,4.11,4.09Zm-5-12.56c-1.26,0-2.53,0-3.79,0-.25,0-.27.03-.27.28,0,.27,0,.53,0,.8,0,.34,0,.35.35.35,2.11,0,4.22,0,6.33,0,.4,0,.8,0,1.2,0,.18,0,.25-.07.25-.25,0-.29,0-.59,0-.88,0-.27-.02-.29-.3-.29-1.25,0-2.5,0-3.75,0Zm-2.08,3.64c1.26,0,2.53,0,3.79,0,.19,0,.26-.07.26-.26,0-.27,0-.55,0-.82,0-.33-.01-.35-.35-.35-2.02,0-4.05,0-6.07,0-.48,0-.96,0-1.44,0-.23,0-.26.03-.26.27,0,.29,0,.57,0,.86,0,.27.02.29.3.29,1.26,0,2.52,0,3.77,0Zm0,.8c-1.26,0-2.53,0-3.79,0-.24,0-.28.03-.28.28,0,.29,0,.59,0,.88,0,.24.04.27.28.27.21,0,.43,0,.64,0,1.96,0,3.92,0,5.88,0,.08,0,.19-.03.23-.09.46-.67,1.33-1.32,1.33-1.32,0,0-3.06,0-4.3,0Zm2.5,5.87c-.09-.42-.2-.83-.27-1.25-.03-.14-.07-.17-.2-.17-.35,0-.69,0-1.04,0-1.58,0-3.17,0-4.75,0-.28,0-.3.02-.3.31,0,.27,0,.53,0,.8,0,.3.02.31.32.31,2.02,0,4.04,0,6.07,0h.18Zm1.8,2.23c-.5-.39-.92-.82-1.28-1.33-.04-.05-.13-.09-.2-.09-1.58,0-3.15,0-4.73,0-.18,0-.26.07-.25.25,0,.29,0,.57,0,.86,0,.3.03.32.32.32,1.98,0,3.97,0,5.95,0,.06,0,.13,0,.19,0Zm-1.71-5.86s-.17,0-.2,0c-1.51,0-3.02,0-4.53,0-.18,0-.24.08-.23.24,0,.29,0,.58,0,.88,0,.27.03.31.31.31,1.05,0,2.1,0,3.15,0,.31,0,.62,0,.94,0,.06,0,.15-.05.16-.09.1-.44.23-.87.39-1.33Zm-5.35-10.55v-2.44c-.08,0-.13,0-.19,0-.31,0-.61,0-.92,0-.22,0-.37.15-.37.36,0,.57,0,1.14,0,1.71,0,.2.15.35.34.35.38.01.76,0,1.15,0Zm7.4-2.44v2.44c.3,0,.6,0,.89,0,.06,0,.12,0,.18,0,.18-.02.32-.15.32-.35.01-.58.01-1.15,0-1.73,0-.21-.15-.35-.36-.35-.34,0-.68,0-1.03,0Zm-5.2.01h-1.37v2.41h1.37v-2.41Zm4.38,2.42v-2.42h-1.36v2.42h1.36Zm-3.56,0h1.37v-2.41h-1.37v2.41Z"/>
  <path class="cls-1" d="m19.75,22.58c-.41,0-.75-.06-1.02-.18-.27-.12-.46-.29-.59-.5-.13-.21-.19-.46-.19-.74v-.1h.69v.07c0,.18.03.33.09.45.06.12.18.21.34.27.16.06.4.09.71.09.32,0,.55-.05.68-.14.13-.09.19-.24.19-.44,0-.13-.02-.24-.06-.33s-.12-.15-.23-.2c-.11-.05-.28-.1-.51-.14l-.74-.15c-.25-.05-.46-.12-.63-.22-.17-.1-.3-.23-.39-.39-.09-.16-.13-.35-.13-.58s.06-.42.17-.61c.11-.19.29-.34.53-.46.24-.12.55-.18.92-.18.4,0,.72.07.97.2.25.13.43.31.55.53.11.22.17.46.17.72v.08h-.69v-.07c0-.18-.03-.33-.09-.45-.06-.12-.16-.21-.31-.27-.15-.06-.35-.09-.61-.09-.32,0-.56.05-.7.14-.14.1-.21.24-.21.42,0,.13.02.24.07.32.05.08.12.14.24.19.11.05.27.09.47.14l.74.16c.27.06.5.14.67.25s.3.25.38.41c.08.16.12.35.12.57s-.06.43-.17.62-.29.34-.52.45c-.24.11-.54.17-.91.17Zm.23-4.16h-.65v-.91h.65v.91Zm0,4.74h-.65v-.93h.65v.93Z"/>
</svg>