<?xml version="1.0" encoding="UTF-8"?>
<svg id="icones" xmlns="http://www.w3.org/2000/svg" viewBox="0 0 30 30">
  <defs>
    <style>
      .cls-1 {
        fill: #db334f;
      }
    </style>
  </defs>
  <path class="cls-1" d="m14.98,25.21c-1.55,0-3.04-.34-4.43-1.01-.19-.09-.27-.31-.18-.5s.31-.27.5-.18c1.29.62,2.67.93,4.1.93,5.22,0,9.47-4.25,9.47-9.47,0-.21.17-.38.38-.38s.38.17.38.38c0,5.63-4.58,10.22-10.22,10.22Z"/>
  <path class="cls-1" d="m5.14,15.37c-.21,0-.38-.17-.38-.38,0-5.63,4.58-10.22,10.22-10.22,1.33,0,2.63.25,3.85.75.19.08.28.3.21.49s-.3.28-.49.21c-1.13-.46-2.33-.7-3.57-.7-5.22,0-9.47,4.25-9.47,9.47,0,.21-.17.38-.38.38Z"/>
  <path class="cls-1" d="m25.22,9.89c-.03.12-.05.24-.08.36-.33,1.42-1.59,2.42-3.02,2.39-1.42-.03-2.65-1.08-2.91-2.51-.16-.88.01-1.7.55-2.41.55-.74,1.79-2.29,2.25-2.86.09-.11.26-.11.35,0,.45.56,1.65,2.05,2.17,2.73.28.36.48.76.6,1.2.04.14.06.28.1.42v.68Zm-3.02-4.06c-.63.83-1.24,1.61-1.83,2.42-.36.5-.47,1.07-.38,1.68.14.91.82,1.65,1.72,1.86.85.2,1.75-.15,2.28-.88.54-.74.61-1.8.11-2.53-.6-.86-1.25-1.69-1.89-2.56Z"/>
  <path class="cls-1" d="m14.86,21.28c-2.5,0-4.79-1.9-5.26-4.48-.29-1.58.03-3.04,1-4.31,1.33-1.75,2.71-3.47,4.06-5.2.22-.28.49-.28.71,0,1.35,1.74,2.73,3.47,4.05,5.23,1.8,2.4,1.29,5.83-1.11,7.64-.98.74-2.09,1.11-3.46,1.12Zm.16-13.14s-.06.06-.09.09c-1.22,1.56-2.45,3.11-3.66,4.68-.86,1.12-1.15,2.39-.89,3.78.51,2.72,3.4,4.43,6.04,3.57,3.1-1,4.29-4.71,2.33-7.32-.63-.83-1.28-1.65-1.92-2.48-.6-.78-1.21-1.55-1.81-2.34Z"/>
  <path class="cls-1" d="m9.89,21.6c0,1.85-1.45,3.24-3.16,3.17-1.76-.07-3.11-1.71-2.88-3.45.08-.6.3-1.12.67-1.6.66-.85,1.31-1.71,1.97-2.56.26-.33.52-.33.77,0,.68.89,1.36,1.79,2.04,2.69.41.54.59,1.17.6,1.75Zm-3.04-3.65s-1.16,1.55-1.71,2.28c-.41.54-.58,1.15-.48,1.83.19,1.26,1.37,2.1,2.63,1.87,1.21-.22,2.04-1.52,1.76-2.72-.11-.47-.36-.86-.65-1.24-.51-.66-1-1.32-1.54-2.02Z"/>
  <path class="cls-1" d="m22.26,11.29c-.27.01-.45-.12-.47-.35-.02-.21.13-.39.38-.43.65-.12.84-.32.94-.97.04-.25.2-.39.44-.37.21.02.36.19.36.43-.01.9-.74,1.66-1.64,1.69Z"/>
  <path class="cls-1" d="m18.93,16.56c-.13.32-.23.66-.39.97-.41.78-1.02,1.35-1.82,1.72-.3.14-.53.1-.64-.13-.11-.23,0-.45.3-.59.63-.29,1.12-.74,1.44-1.35.12-.23.2-.49.29-.74.08-.22.24-.33.43-.31.21.02.36.2.39.43Z"/>
  <path class="cls-1" d="m18.2,14.9c0-.22.19-.39.4-.38.22,0,.4.2.39.42-.01.21-.21.39-.41.38-.21-.01-.39-.2-.38-.41Z"/>
  <path class="cls-1" d="m6.94,23.42c-.27.01-.45-.12-.48-.35-.03-.22.13-.4.39-.44.62-.11.83-.32.92-.96.04-.25.2-.39.43-.38.22.02.36.19.36.42,0,.89-.74,1.66-1.63,1.7Z"/>
  <path class="cls-1" d="m25.98,16.59c-.1,0-.21-.04-.28-.13l-.91-1.03-1.07.9c-.16.13-.39.11-.53-.04-.13-.16-.11-.39.04-.53l1.35-1.14c.16-.13.39-.11.52.04l1.15,1.3c.14.16.12.39-.03.53-.07.06-.16.09-.25.09Z"/>
  <path class="cls-1" d="m5.14,15.51c-.1,0-.21-.04-.28-.13l-1.15-1.3c-.14-.16-.12-.39.03-.53.16-.14.39-.12.53.03l.91,1.03,1.07-.91c.16-.13.39-.11.53.04.13.16.11.39-.04.53l-1.35,1.14c-.07.06-.16.09-.24.09Z"/>
</svg>