<?xml version="1.0" encoding="UTF-8"?>
<svg id="icones" xmlns="http://www.w3.org/2000/svg" viewBox="0 0 30 30">
  <defs>
    <style>
      .cls-1 {
        fill: #db334f;
      }
    </style>
  </defs>
  <path class="cls-1" d="m21.24,20.73c.07-.06.12-.11.18-.17,1.1-1.1,2.19-2.2,3.29-3.29.08-.08.18-.15.28-.19.18-.05.36.09.4.28.01.06,0,.12,0,.17,0,2.55,0,5.09,0,7.64v.21c-.1,0-.17,0-.25,0-2.98,0-5.96,0-8.94,0-.41,0-.51-.1-.51-.51,0-2.75,0-5.5,0-8.25v-.23h.69v8.29h.7v-.22c0-.92,0-1.85,0-2.77,0-.18.06-.31.18-.44.64-.63,1.28-1.27,1.92-1.91.25-.25.41-.25.66,0,.41.41.83.83,1.24,1.24.05.05.1.1.16.15Zm-1.73-.74c-.57.57-1.13,1.13-1.68,1.68-.03.03-.05.07-.05.11,0,.21,0,.43,0,.64.02,0,.04.02.06.03.22-.23.44-.47.67-.7.23-.24.39-.24.63,0,.42.42.85.85,1.27,1.27.05.05.1.09.16.15.25-.25.47-.48.7-.71.25-.25.4-.25.66,0,.23.23.46.47.7.72.47-.47.9-.91,1.35-1.34.1-.1.22-.21.34-.24.12-.02.26.06.38.1v-3.42c-.59.59-1.15,1.15-1.71,1.71-.48.48-.96.96-1.44,1.44-.21.21-.38.21-.6,0-.13-.13-.26-.25-.38-.38-.35-.35-.69-.69-1.05-1.05Zm4.84,2.45c-.05.05-.1.09-.15.14-.41.41-.83.83-1.24,1.24-.25.25-.41.25-.66,0-.23-.23-.46-.47-.71-.72-.26.27-.5.51-.74.75-.22.22-.39.22-.61,0-.42-.42-.84-.84-1.26-1.25-.05-.05-.11-.1-.17-.16-.33.33-.65.65-.96.97-.04.04-.07.1-.07.15,0,.38,0,.76,0,1.15h6.93c0-.53-.02-1.05,0-1.57.02-.32-.11-.51-.36-.68Z"/>
  <path class="cls-1" d="m9.8,10.84c.82,0,1.6,0,2.39,0,.56,0,1.11,0,1.67,0,.33,0,.45.12.45.46-.03.95-.31,1.81-.84,2.6-.06.08-.12.16-.21.3.13.04.23.1.33.1,1.54,0,3.07,0,4.61,0,.08,0,.16,0,.25,0v.69h-.23c-1.54,0-3.09,0-4.63,0-.3,0-.58-.02-.75-.32-.06.04-.1.07-.13.1-1.42,1.23-3.05,1.59-4.82.98-1.77-.61-2.84-1.9-3.19-3.74-.54-2.88,1.72-5.64,4.64-5.68.36,0,.48.11.48.48,0,1.26,0,2.51,0,3.77,0,.08,0,.16,0,.26Zm-.69-3.79c-1.77.11-3.36,1.52-3.72,3.27-.38,1.89.52,3.75,2.22,4.59,1.71.85,3.64.35,4.71-.75-.34-.33-.68-.66-.99-.97.16-.18.3-.34.46-.52.33.33.64.66.97,1,.49-.65.76-1.35.83-2.15-.09,0-.17,0-.25,0-1.25,0-2.5,0-3.75,0-.39,0-.49-.1-.49-.48,0-1.25,0-2.5,0-3.75,0-.08,0-.16,0-.25Z"/>
  <path class="cls-1" d="m15.03,6.49s.06-.04.08-.06c.27-.39.65-.47,1.11-.45.74.03,1.48,0,2.24,0v.69c-.07,0-.15,0-.22,0-.68,0-1.36.01-2.03,0-.26,0-.46.05-.62.26-.04.06-.1.1-.09.15.16.53.34,1.07.47,1.6.06.23.06.49.07.73,0,.24-.13.38-.37.38-1.49,0-2.97,0-4.46,0-.23,0-.36-.14-.36-.37,0-1.49,0-2.97,0-4.46,0-.25.14-.37.41-.37,1.33.03,2.47.52,3.4,1.47.13.13.24.27.38.42Zm-1.32,1.31c.28-.26.56-.52.82-.77-.59-.93-1.97-1.71-2.99-1.7v3.76h3.78c-.04-.52-.17-1.01-.44-1.52-.24.26-.45.49-.67.73-.17-.17-.32-.33-.51-.52Z"/>
  <path class="cls-1" d="m4.61,16.39h.69v8.31h9.69v.69c-.08,0-.15,0-.23,0-3.22,0-6.44,0-9.65,0-.4,0-.5-.1-.5-.49,0-2.76,0-5.51,0-8.27v-.24Z"/>
  <path class="cls-1" d="m11.54,20.17c0-1.1,0-2.21,0-3.31,0-.37.11-.48.48-.48.4,0,.79,0,1.19,0,.28,0,.41.13.41.41,0,2.27,0,4.53,0,6.8,0,.28-.13.41-.41.41-.41,0-.82,0-1.23,0-.31,0-.43-.12-.43-.43,0-1.13,0-2.27,0-3.4Zm1.37,3.13v-6.21h-.67v6.21h.67Z"/>
  <path class="cls-1" d="m10.84,20.91c0,.88,0,1.76,0,2.64,0,.34-.11.46-.45.46-.4,0-.81,0-1.21,0-.29,0-.41-.13-.41-.41,0-1.8,0-3.61,0-5.41,0-.29.13-.41.41-.42.42,0,.84,0,1.26,0,.29,0,.42.13.42.43,0,.9,0,1.8,0,2.71Zm-.71,2.4v-4.83h-.66v4.83h.66Z"/>
  <path class="cls-1" d="m8.07,21.93c0,.55,0,1.1,0,1.65,0,.31-.12.43-.43.43-.41,0-.82,0-1.23,0-.28,0-.41-.13-.41-.41,0-1.11,0-2.22,0-3.33,0-.28.13-.41.41-.41.42,0,.84,0,1.26,0,.28,0,.41.13.41.41,0,.56,0,1.11,0,1.67Zm-1.37-1.38v2.74h.67v-2.74h-.67Z"/>
  <path class="cls-1" d="m21.93,11.55v.66h-2.75v-.66h2.75Z"/>
  <path class="cls-1" d="m25.39,11.55v.67h-2.74v-.67h2.74Z"/>
  <path class="cls-1" d="m25.38,9.45h-2.74v-.67h2.74v.67Z"/>
  <path class="cls-1" d="m22.63,13.6v-.67h2.74v.67h-2.74Z"/>
  <path class="cls-1" d="m19.17,14.98v-.67h2.74v.67h-2.74Z"/>
  <path class="cls-1" d="m25.38,14.99h-2.75v-.67h2.75v.67Z"/>
  <path class="cls-1" d="m19.17,9.44v-.67h2.74v.67h-2.74Z"/>
  <path class="cls-1" d="m25.39,7.39v.67h-2.74v-.67h2.74Z"/>
  <path class="cls-1" d="m21.92,7.39v.67h-2.74v-.67h2.74Z"/>
  <path class="cls-1" d="m21.92,6.01v.67h-2.74v-.67h2.74Z"/>
  <path class="cls-1" d="m21.92,12.94v.67h-2.74v-.67h2.74Z"/>
</svg>