<?xml version="1.0" encoding="UTF-8"?>
<svg id="icones" xmlns="http://www.w3.org/2000/svg" viewBox="0 0 30 30">
  <defs>
    <style>
      .cls-1 {
        fill: #db334f;
      }
    </style>
  </defs>
  <path class="cls-1" d="m15,24.79c-1.83,0-3.61-.51-5.16-1.47l-2.6.91c-.44.15-.92.04-1.24-.29-.33-.33-.43-.81-.27-1.25l.94-2.58c-.95-1.54-1.44-3.3-1.44-5.12,0-5.4,4.39-9.79,9.79-9.79s9.79,4.39,9.79,9.79-4.39,9.79-9.79,9.79Zm-5.05-2.41l.17.11c1.45.94,3.14,1.44,4.87,1.44,4.93,0,8.94-4.01,8.94-8.94s-4.01-8.94-8.94-8.94S6.06,10.07,6.06,15c0,1.72.49,3.4,1.42,4.84l.11.18-1.08,2.97c-.07.19.03.31.08.36s.17.15.36.08l3-1.05Z"/>
  <g>
    <path class="cls-1" d="m15,12.96c-1.15,0-2.08-.93-2.08-2.08s.93-2.08,2.08-2.08,2.08.93,2.08,2.08-.93,2.08-2.08,2.08Zm0-3.31c-.68,0-1.23.55-1.23,1.23s.55,1.23,1.23,1.23,1.23-.55,1.23-1.23-.55-1.23-1.23-1.23Z"/>
    <path class="cls-1" d="m15,21.95c-1.16,0-2.1-.94-2.1-2.1v-4.19c0-1.16.94-2.1,2.1-2.1s2.1.94,2.1,2.1v4.19c0,1.16-.94,2.1-2.1,2.1Zm0-7.53c-.69,0-1.25.56-1.25,1.25v4.19c0,.69.56,1.25,1.25,1.25s1.25-.56,1.25-1.25v-4.19c0-.69-.56-1.25-1.25-1.25Z"/>
  </g>
</svg>