<?xml version="1.0" encoding="UTF-8"?>
<svg id="icones" xmlns="http://www.w3.org/2000/svg" viewBox="0 0 30 30">
  <defs>
    <style>
      .cls-1 {
        fill: #db334f;
      }
    </style>
  </defs>
  <path class="cls-1" d="m12.42,5.56c.27-1.24,1.14-1.95,2.38-1.95.27,0,.54-.02.8.02,1.04.14,1.75.83,1.99,1.93.16,0,.33,0,.5,0,.37,0,.64.17.76.52.04.12.1.13.21.13.48,0,.95,0,1.43,0,1.66,0,2.96,1.29,2.96,2.95,0,4.53,0,9.06,0,13.59,0,1.66-1.29,2.95-2.96,2.95-3.66,0-7.32,0-10.98,0-1.66,0-2.95-1.29-2.96-2.95,0-4.53,0-9.06,0-13.59,0-1.65,1.29-2.94,2.94-2.94.48,0,.95,0,1.43,0,.12,0,.19-.02.24-.15.12-.33.38-.49.74-.5.17,0,.34,0,.52,0Zm6.49,2.28c.39,0,.77,0,1.15,0,1.09,0,1.75.67,1.76,1.75,0,.77,0,4.27,0,5.04,0,.07,0,.15-.01.22-.03.16-.14.25-.3.25-.17,0-.29-.09-.32-.26-.01-.08-.01-.16-.01-.24,0-.79,0-4.3,0-5.08,0-.63-.4-1.02-1.03-1.03-.36,0-.72,0-1.08,0-.06,0-.16.03-.18.07-.16.49-.54.58-1,.57-1.93,0-3.85,0-5.78,0-.09,0-.17,0-.26,0-.34-.02-.58-.19-.69-.5-.04-.13-.11-.14-.22-.14-.34,0-.68,0-1.02,0-.7,0-1.08.39-1.08,1.09,0,4.25,0,8.5,0,12.75,0,.71.38,1.1,1.1,1.1.64,0,1.27,0,1.91,0,.1,0,.2,0,.3.01.16.03.26.14.26.3,0,.16-.08.28-.24.32-.06.02-.13.02-.19.02-.69,0-1.39.01-2.08,0-.25,0-.51-.04-.73-.14-.67-.3-.98-.84-.98-1.57,0-4.27,0-8.54,0-12.82,0-.07,0-.14.01-.22.04-.53.3-.94.74-1.23.29-.19.61-.26.95-.26.4,0,.81,0,1.21,0v-.98c-.52,0-1.02,0-1.53,0-1.38,0-2.36.98-2.36,2.36,0,4.49,0,8.98,0,13.47,0,1.38.98,2.36,2.36,2.36,3.62,0,7.25,0,10.87,0,.21,0,.42-.02.62-.07,1.06-.26,1.74-1.16,1.74-2.29,0-4.49,0-8.98,0-13.47,0-.07,0-.14,0-.22-.05-1.04-.85-1.96-1.88-2.1-.55-.07-1.12-.04-1.68-.05-.1,0-.21,0-.31,0v.98Zm-3.93.65c.25,0,.49,0,.74,0,.76,0,1.53,0,2.29,0,.15,0,.25-.02.24-.21,0-.62,0-1.24,0-1.86,0-.15-.05-.21-.2-.21-.22,0-.43,0-.65,0-.34,0-.43-.09-.45-.43-.05-.73-.58-1.35-1.3-1.48-.28-.05-.57-.04-.86-.04-1,0-1.65.6-1.73,1.6-.02.23-.13.34-.36.34-.23,0-.46.01-.69,0-.19,0-.25.06-.25.25,0,.58,0,1.17,0,1.75,0,.27,0,.28.28.28.98,0,1.96,0,2.94,0Z"/>
  <path class="cls-1" d="m21.82,18.65c0,1.23,0,2.47,0,3.7,0,.86-.48,1.49-1.26,1.67-.17.04-.36.05-.54.05-1.72,0-3.45,0-5.17,0-.34,0-.51-.11-.5-.34,0-.22.15-.31.5-.31,1.73,0,3.46,0,5.2,0,.28,0,.55-.04.77-.23.28-.23.36-.54.36-.89,0-2.48,0-4.96,0-7.45,0-.09,0-.17.01-.26.03-.17.14-.27.31-.27.17,0,.29.09.31.27.01.08.01.16.01.24,0,1.27,0,2.54,0,3.81Z"/>
  <path class="cls-1" d="m16.15,12.38c.87,0,1.73,0,2.6,0,.07,0,.15,0,.22.01.16.03.25.14.26.3,0,.16-.07.28-.24.32-.08.02-.17.02-.26.02-1.72,0-3.45,0-5.17,0-.34,0-.51-.11-.5-.34,0-.22.16-.31.5-.31.87,0,1.73,0,2.6,0Z"/>
  <path class="cls-1" d="m16.15,14.33c.87,0,1.73,0,2.6,0,.07,0,.15,0,.22.01.16.03.25.14.26.3,0,.16-.07.28-.23.32-.09.02-.19.02-.28.02-1.71,0-3.42,0-5.13,0-.09,0-.19,0-.28-.02-.16-.04-.24-.15-.24-.32,0-.16.09-.27.26-.3.07-.01.14-.01.22-.01.87,0,1.74,0,2.62,0Z"/>
  <path class="cls-1" d="m16.15,16.28c.86,0,1.72,0,2.57,0,.08,0,.16,0,.24.01.16.03.25.14.25.3,0,.16-.08.28-.24.32-.08.02-.17.02-.26.02-1.72,0-3.45,0-5.17,0-.34,0-.49-.1-.5-.32,0-.23.15-.33.5-.33.87,0,1.73,0,2.6,0Z"/>
  <path class="cls-1" d="m16.14,18.23c.87,0,1.73,0,2.6,0,.08,0,.16,0,.24.01.15.03.26.14.23.29-.02.12-.11.23-.21.31-.06.05-.18.03-.27.03-1.72,0-3.45,0-5.17,0-.35,0-.51-.11-.5-.33,0-.22.15-.32.49-.32.87,0,1.73,0,2.6,0Z"/>
  <path class="cls-1" d="m16.13,20.18c.87,0,1.73,0,2.6,0,.08,0,.16,0,.24.01.15.03.24.13.25.29.01.16-.06.28-.22.33-.09.02-.19.02-.28.02-1.72,0-3.43,0-5.15,0-.35,0-.51-.1-.51-.33,0-.22.15-.32.51-.32.86,0,1.72,0,2.57,0Z"/>
  <path class="cls-1" d="m11.45,12.39c.11,0,.23,0,.34,0,.17.02.27.13.28.3,0,.17-.08.31-.25.32-.26.02-.52.02-.77,0-.17-.01-.26-.14-.26-.32,0-.17.1-.29.27-.3.13-.01.26,0,.39,0Z"/>
  <path class="cls-1" d="m11.44,14.34c.11,0,.22,0,.32,0,.18.01.29.12.3.3.01.18-.1.32-.29.33-.24.01-.47.01-.71,0-.18-.01-.28-.14-.28-.32,0-.18.11-.29.29-.31.12-.01.24,0,.37,0,0,0,0,0,0,0Z"/>
  <path class="cls-1" d="m11.43,16.29c.11,0,.23,0,.34,0,.18.02.29.13.29.31,0,.17-.09.3-.26.32-.26.02-.52.02-.77,0-.17-.01-.26-.15-.25-.32,0-.17.1-.28.28-.3.12-.01.24,0,.37,0,0,0,0,0,0,0Z"/>
  <path class="cls-1" d="m11.43,18.24c.12,0,.25-.01.37,0,.16.02.26.13.27.29.01.17-.07.31-.24.33-.26.02-.53.02-.79,0-.17-.01-.26-.15-.25-.32,0-.17.11-.28.28-.3.12-.01.24,0,.37,0,0,0,0,0,0,0Z"/>
  <path class="cls-1" d="m11.44,20.18c.11,0,.22,0,.32,0,.18.01.29.12.3.3,0,.18-.09.31-.27.33-.24.02-.49.02-.73,0-.18-.01-.28-.14-.28-.32,0-.18.11-.29.29-.31.12,0,.24,0,.37,0Z"/>
  <path class="cls-1" d="m13.7,23.75c0,.18-.15.32-.34.31-.17,0-.31-.15-.31-.32,0-.18.15-.32.34-.31.17,0,.31.15.31.32Z"/>
</svg>