<?xml version="1.0" encoding="utf-8"?>
<!-- Generator: Adobe Illustrator 27.5.0, SVG Export Plug-In . SVG Version: 6.00 Build 0)  -->
<svg version="1.1" id="Camada_1" xmlns="http://www.w3.org/2000/svg" xmlns:xlink="http://www.w3.org/1999/xlink" x="0px" y="0px"
	 viewBox="0 0 30 30" style="enable-background:new 0 0 30 30;" xml:space="preserve">
<style type="text/css">
	.st0{fill:#DB334F;}
	.st1{fill:none;}
</style>
<g>
	<path class="st0" d="M19.23,17.37c-1.63,0-2.96,1.33-2.96,2.97c0,1.63,1.33,2.96,2.96,2.96c1.64,0,2.97-1.34,2.97-2.98
		C22.2,18.7,20.86,17.37,19.23,17.37z M19.23,22.46c-1.16,0-2.11-0.96-2.11-2.12c0-1.17,0.96-2.12,2.13-2.12
		c1.16,0.01,2.11,0.97,2.1,2.13C21.35,21.51,20.39,22.46,19.23,22.46z"/>
	<path class="st0" d="M21.81,10.34c0.23-0.02,0.39-0.21,0.39-0.43c0-0.21-0.16-0.39-0.38-0.41c-0.07-0.01-0.14,0-0.21,0
		c-1.43,0-2.85,0-4.28,0c-1.43,0-2.86,0-4.3,0c-0.07,0-0.14,0-0.21,0.01c-0.21,0.03-0.36,0.2-0.37,0.4
		c-0.01,0.21,0.15,0.4,0.36,0.43c0.07,0.01,0.14,0.01,0.21,0.01c2.86,0,5.73,0,8.59,0C21.69,10.34,21.75,10.34,21.81,10.34z"/>
	<path class="st0" d="M15.39,12.88c0.06,0.01,0.11,0,0.17,0c2.02,0,4.05,0,6.07,0c0.06,0,0.11,0,0.17,0c0.23-0.02,0.4-0.2,0.4-0.42
		c0-0.22-0.16-0.4-0.39-0.42c-0.06-0.01-0.13,0-0.19,0c-1,0-2,0-3,0s-2,0-3,0c-0.07,0-0.14,0-0.21,0c-0.23,0.02-0.4,0.2-0.4,0.42
		C15,12.67,15.16,12.85,15.39,12.88z"/>
	<path class="st0" d="M20.99,15.42c0.27,0,0.54,0.01,0.8,0c0.24-0.01,0.41-0.2,0.41-0.43c-0.01-0.22-0.17-0.39-0.4-0.41
		c-0.05,0-0.1,0-0.15,0c-2.03,0-4.06,0-6.09,0c-0.06,0-0.13,0-0.19,0.01c-0.33,0.05-0.49,0.44-0.26,0.67
		c0.09,0.1,0.27,0.16,0.41,0.16c1.03,0.01,2.06,0.01,3.09,0.01C19.4,15.42,20.19,15.42,20.99,15.42z"/>
	<path class="st0" d="M12.97,7.8c1.21,0,2.42,0,3.64,0c0.32,0,0.52-0.17,0.51-0.43c-0.01-0.25-0.2-0.41-0.51-0.41
		c-0.6,0-1.2,0-1.8,0c-0.61,0-1.23,0-1.84,0c-0.31,0-0.5,0.16-0.51,0.41C12.45,7.63,12.65,7.8,12.97,7.8z"/>
	<g>
		<path class="st1" d="M7.38,24.98c1.98,0,3.95,0,5.9,0c0-0.29,0-0.56,0-0.82c-1.98,0-3.94,0-5.9,0C7.38,24.44,7.38,24.7,7.38,24.98
			z"/>
		<rect x="6.12" y="21.37" class="st1" width="8.45" height="1.92"/>
		<path class="st1" d="M9.18,17.03c0.54,1.15,0.35,2.25-0.31,3.29c-0.04,0.06-0.07,0.11-0.12,0.18c1.03,0,2.03,0,3.06,0
			c-0.46-0.69-0.65-1.41-0.63-2.19c0.02-0.8,0.34-1.45,0.84-2.07c0.53-0.64,0.57-1.4,0.21-2.15c-0.35-0.73-1.12-1.2-1.93-1.2
			c-0.86,0-1.51,0.42-1.88,1.2c-0.39,0.81-0.26,1.58,0.3,2.28C8.89,16.58,9.07,16.79,9.18,17.03z"/>
		<path class="st0" d="M24.15,4.15h-4.17c-0.03,0-0.07,0-0.1,0h-9.36c-0.33,0-0.6,0.27-0.6,0.6c0,1.45,0,5.18,0,7.05
			c0,0.08,0,0.17,0,0.25c-0.04,0.01-0.06,0.02-0.08,0.02c-2.33,0.41-3.27,3.19-1.68,4.94c0.17,0.19,0.32,0.44,0.38,0.69
			c0.24,0.89,0.03,1.69-0.58,2.38c-0.25,0.29-0.58,0.43-0.98,0.42c-0.41-0.01-0.82,0-1.23,0c-0.28,0-0.5,0.22-0.5,0.5
			c0,0.88,0,1.76,0,2.65c0,0.33,0.16,0.49,0.49,0.49c0.25,0,0.5,0,0.78,0c0,0.39,0,0.76,0,1.14c0,0.31,0.25,0.56,0.56,0.56h17.09
			c0.31,0,0.57-0.25,0.57-0.56c0-6.02,0-17.77,0-20.54C24.75,4.42,24.48,4.15,24.15,4.15z M8.43,14.09c0.38-0.78,1.03-1.2,1.88-1.2
			c0.81,0,1.58,0.47,1.93,1.2c0.36,0.75,0.31,1.51-0.21,2.15c-0.5,0.62-0.83,1.27-0.84,2.07c-0.01,0.78,0.17,1.51,0.63,2.19
			c-1.03,0-2.03,0-3.06,0c0.05-0.07,0.08-0.12,0.12-0.18c0.67-1.04,0.85-2.14,0.31-3.29c-0.11-0.24-0.29-0.45-0.46-0.66
			C8.17,15.67,8.04,14.9,8.43,14.09z M6.12,23.29v-1.92h8.45v1.92H6.12z M13.29,24.98c-1.96,0-3.92,0-5.9,0c0-0.28,0-0.55,0-0.82
			c1.97,0,3.93,0,5.9,0C13.29,24.43,13.29,24.7,13.29,24.98z M23.88,24.99c-3.25,0-6.48,0-9.71,0c0-0.28,0-0.83,0-0.83h0.85v-0.01
			c0.21-0.01,0.38-0.18,0.39-0.39h0c0-0.82,0-2.63,0.01-2.69c0.03-0.3-0.21-0.55-0.5-0.55c-0.45,0-0.9-0.01-1.36,0
			c-0.36,0-0.72-0.13-0.96-0.4c-0.69-0.78-0.79-2.35-0.06-3.16c0.67-0.75,1.05-1.75,0.71-2.7c-0.46-1.29-1.31-1.99-2.47-2.2V5
			c0.54,0,1.07,0,1.6,0c1,0,11.44,0,11.51,0C23.88,11.68,23.88,18.34,23.88,24.99z"/>
	</g>
</g>
</svg>
