<?xml version="1.0" encoding="UTF-8"?>
<svg id="layout" xmlns="http://www.w3.org/2000/svg" viewBox="0 0 132.57 132.57">
  <defs>
    <style>
      .cls-1 {
        fill: #FF0000; /* Alterado de #fff para #FF0000 */
        stroke-width: 0px;
      }
    </style>
  </defs>
  <path class="cls-1" d="m62.08,108.59c-1.86-.11-3.73-.22-5.59-.33-5.66-.34-11.29-.95-16.81-2.33-2.89-.73-5-2.95-5.38-5.9-.27-2.08-.29-4.19.3-6.23,1.22-4.2,4-6.86,8.22-7.99.61-.16,1.23-.34,1.85-.4,2.83-.27,5.01-1.96,7.4-3.25,1.56-.84,2.65-1.91,3.17-3.64.33-1.1.87-2.14,1.36-3.18.21-.45.14-.74-.19-1.08-.7-.74-1.32-1.55-2.03-2.28-1.94-2.02-3.43-4.24-3.25-7.1-1.38,0-2.69.01-4,0-3.55-.05-5.87-2.39-5.88-5.94,0-1.82-.04-3.64.01-5.45.07-2.33,1.22-4.04,3.34-4.98.72-.32.88-.68.87-1.39-.07-5.82,1.66-11.05,5.58-15.37,6.09-6.71,13.72-9.21,22.49-6.99,8.7,2.2,14.18,7.99,16.39,16.7.48,1.89.47,3.92.62,5.89.04.55.14.85.71,1.09,2.24.94,3.44,2.68,3.51,5.12.05,1.93.06,3.85,0,5.78-.07,2.36-1.22,4.09-3.38,5.04-.68.30-.86.64-.83,1.33.11,2.68-.75,5-2.86,6.72-2.02,1.65-4.35,2.17-6.9,1.55-.51-.12-.84-.09-1.22.33-.39.43-.23.77-.06,1.18.68,1.56,1.32,3.14,2.03,4.69.18.39.53.75.88,1,.74.52,1.58.90,2.31,1.43,2.32,1.69,4.95,2.49,7.73,3.06,4.93,1,8.12,3.99,9.09,8.95.37,1.90.36,3.98.05,5.90-.47,2.85-2.37,4.76-5.19,5.37-3.57.77-7.18,1.42-10.80,1.85-3.66.43-7.35.51-11.03.75-.22.01-.43.07-.64.11h-11.89Zm5.95-16.57c-1.75,1.37-2.99,3.02-3.96,4.91-.72,1.40-1.96,1.85-3.39,1.24-.91-.39-1.81-.81-2.67-1.29-3.88-2.17-7.07-5.13-9.79-8.60-.40-.51-.75-.66-1.37-.49-1.16.32-2.37.50-3.53.83-3.18.89-5.28,2.93-6.02,6.15-.31,1.34-.28,2.78-.28,4.18-.01,2.15,1.25,3.70,3.34,4.24,6.40,1.66,12.95,2.17,19.52,2.44,8.56.35,17.12.28,25.64-.69,3.46-.39,6.89-1.09,10.30-1.79,1.95-.39,3.13-2,3.22-3.99.04-.93.05-1.87-.01-2.81-.25-3.87-2.73-6.83-6.49-7.78-1.09-.28-2.21-.47-3.29-.77-.65-.18-1.01-.02-1.44.51-3.30,4.14-7.17,7.59-12.09,9.72-1.89.82-2.96.42-3.91-1.41-.93-1.78-2.15-3.31-3.78-4.59Zm14.08-41.21c-.23-.02-.37-.04-.50-.05-2.84-.14-5.65-.48-8.38-1.29-3.35-1-6.39-2.52-8.62-5.34-.16-.21-.63-.30-.93-.26-3.88.56-7.05,2.37-9.41,5.52-.20.26-.31.65-.31.98-.02,4.90,0,9.80-.01,14.70,0,1.41.46,2.64,1.38,3.70,1.92,2.20,3.84,4.40,5.77,6.59.94,1.06,2.08,1.94,3.49,2.03,2.30.14,4.63.23,6.90-.01,2.62-.28,3.90-2.53,5.54-4.38-.90-.24-1.68-.44-2.44-.65-1.19,1.88-2,2.21-4.10,1.72-1.12-.26-2.25-.53-3.37-.82-2.37-.61-3.71-2.75-3.20-5.08.49-2.26,2.73-3.65,5.12-3.15,1.37.29,2.73.63,4.09.98,1.23.32,2.07,1.31,2.16,2.52.03.35,0,.70,0,1.08.70.19,1.44.28,2.07.58,1.33.63,2.15.18,3.02-.91,1.15-1.42,1.82-2.90,1.75-4.74-.06-1.59-.01-3.19-.01-4.79,0-2.94,0-5.89,0-8.92Zm-27.91-5.55c.29-.24.39-.33.49-.41,2.91-2.47,6.29-3.76,10.10-3.92.71-.03,1.22.19,1.70.77.79.97,1.59,1.99,2.58,2.72,2.67,1.98,5.83,2.77,9.07,3.20,1.29.17,2.60.25,3.93.37.12-1.92-.01-3.66-.50-5.37-1.89-6.56-8.33-10.88-15.09-10.02-3.68.47-6.53,2.46-8.85,5.27-1.72,2.09-2.87,4.46-3.43,7.38Zm-3.12,2.84c.02-.24.06-.48.06-.72.07-2.77.78-5.38,2.02-7.84,3.24-6.42,9.89-10.60,16.88-9.79,7.21.84,13.64,6.84,14.66,14.06.20,1.41.22,2.84.33,4.31.42-.05.85-.12,1.28-.14.46-.03.92,0,1.46,0,.16-7.98-2.91-14.16-9.64-18.33-6.67-4.14-15.32-3.73-21.68.99-5.77,4.28-8.35,10.12-8.13,17.29.98.06,1.84.12,2.77.18Zm26.10,29.06c-1.92,2.06-4.17,3.20-6.91,3.23-1.57.02-3.14.01-4.70,0-1.46-.02-2.84-.38-4.08-1.14-.92-.57-1.77-1.27-2.68-1.94-.52,1.22-1.04,2.49-1.61,3.73-.21.46-.19.77.13,1.17,2.66,3.31,6.03,5.49,10.15,6.51.33.08.72.09,1.05,0,4.15-1.03,7.56-3.20,10.19-6.58.18-.23.27-.67.17-.92-.52-1.33-1.10-2.63-1.72-4.06Zm-26.06-20.71c0-1.26,0-2.53,0-3.79,0-1.36-.49-1.85-1.83-1.86-.82,0-1.65-.03-2.47,0-1.58.07-2.73,1.24-2.75,2.82-.02,1.90-.03,3.79,0,5.69.02,1.52,1.13,2.65,2.64,2.73.90.05,1.81.03,2.72.02,1.16-.02,1.66-.50,1.68-1.66.02-1.32,0-2.64,0-3.96Zm33.81,0c0,1.35-.02,2.69,0,4.04.02,1.07.53,1.55,1.59,1.57.91.02,1.81.03,2.72,0,1.60-.07,2.71-1.21,2.73-2.82.02-1.84.02-3.68,0-5.52-.02-1.71-1.19-2.88-2.91-2.91-.74-.02-1.48,0-2.23,0-1.45,0-1.90.47-1.91,1.94,0,1.24,0,2.47,0,3.71Zm-20.13,34.46c-3.94-1.41-7.26-3.82-9.87-7.20-1.56.94-3.05,1.84-4.57,2.76,3.09,3.97,6.79,6.95,11.13,8.99,1.14-1.56,2.22-3.04,3.32-4.55Zm16.32-7.20c-2.63,3.39-5.95,5.78-9.87,7.21,1.11,1.52,2.19,3,3.28,4.50,3.26-1.09,9.69-6.29,11.07-9.02-1.47-.88-2.95-1.77-4.48-2.69Zm3.82-18.94c.09,2.52-.87,4.67-2.64,6.52,3.34.58,6.30-3.04,5.31-6.34-.86-.06-1.73-.12-2.67-.18Zm-12.47,3.97c-1.48-.34-2.88-.71-4.30-.98-.76-.14-1.35.35-1.52,1.07-.16.70.20,1.40.94,1.61,1.37.38,2.76.69,4.21,1.05.22-.93.43-1.80.66-2.75Z"/>
</svg>