<?xml version="1.0" encoding="utf-8"?>
<!-- Generator: Adobe Illustrator 27.5.0, SVG Export Plug-In . SVG Version: 6.00 Build 0)  -->
<svg version="1.1" id="Camada_1" xmlns="http://www.w3.org/2000/svg" xmlns:xlink="http://www.w3.org/1999/xlink" x="0px" y="0px"
	 viewBox="0 0 30 30" style="enable-background:new 0 0 30 30;" xml:space="preserve">
<style type="text/css">
	.st0{fill:#DB334F;}
	.st1{fill:none;}
</style>
<g>
	<path class="st0" d="M25.17,20.31c-0.91-0.91-6.51-6.55-8.27-8.29c0.44-0.43,0.85-0.84,1.26-1.25c0.08-0.08,0.2-0.1,0.31-0.06
		c0.64,0.24,1.34,0.01,1.71-0.54c0.44-0.65,0.32-1.54-0.37-2.01c-1.44-0.97-2.52-2.34-3.64-3.67c-0.48-0.57-1.29-0.66-1.89-0.26
		c-0.57,0.37-0.81,1.08-0.57,1.72c0.04,0.12,0.03,0.24-0.06,0.33c-1.68,1.67-3.36,3.35-5.03,5.03c-0.1,0.1-0.18,0.13-0.33,0.08
		c-0.64-0.24-1.34-0.01-1.72,0.55c-0.41,0.62-0.32,1.47,0.31,1.94c1.38,1.04,2.65,2.19,3.63,3.61c0.27,0.39,0.65,0.58,1.09,0.6
		c1.08,0.04,1.81-0.97,1.44-1.99c-0.02-0.07-0.03-0.18,0.01-0.22c0.42-0.44,0.86-0.87,1.34-1.35c0.07,0.08,8.43,8.53,8.63,8.7
		c0.8,0.71,2.08,0.56,2.68-0.33C26.27,22.05,25.97,21.12,25.17,20.31z M14.55,5.3c-0.06-0.25,0.31-0.61,0.61-0.46
		c0.45,0.12,2.15,2.67,4.31,4.17c0.3,0.21,0.17,0.52-0.07,0.76c-0.28,0.29-0.92-0.07-2.94-2.06C15.9,7.15,14.7,5.9,14.55,5.3z
		 M12.09,17.08c-0.28,0.27-0.72,0.22-0.98-0.17c-0.93-1.43-2.15-2.6-3.56-3.56c-0.33-0.22-0.46-0.5-0.32-0.83
		c0.09-0.22,0.31-0.36,0.58-0.4c0.14,0.08,0.3,0.13,0.41,0.24c1.29,1.27,2.57,2.56,3.84,3.84C12.34,16.46,12.34,16.84,12.09,17.08z
		 M12.41,15.25c-1.06-1.06-2.15-2.15-3.24-3.24c1.72-1.72,3.45-3.45,5.17-5.17c1.08,1.08,2.17,2.17,3.24,3.24
		C15.87,11.79,14.13,13.53,12.41,15.25z M15.01,13.95c0.42-0.42,0.85-0.86,1.27-1.28c0.39,0.39,0.78,0.78,1.15,1.16
		c-0.41,0.41-0.85,0.85-1.27,1.27C15.8,14.74,15.41,14.35,15.01,13.95z M25.12,22.14c-0.18,0.65-0.95,0.9-1.48,0.49
		c-0.06-0.04-0.11-0.09-0.16-0.14c-2.19-2.19-4.38-4.38-6.57-6.57c-0.04-0.04-0.08-0.08-0.1-0.11c0.45-0.45,0.88-0.88,1.33-1.33
		c0.02,0.02,0.05,0.04,0.08,0.07c2.2,2.2,4.41,4.41,6.61,6.61C25.11,21.44,25.23,21.75,25.12,22.14z"/>
	<path class="st0" d="M12.14,21.37c-0.23-0.01-0.43,0.18-0.44,0.41c-0.01,0.24,0.19,0.44,0.42,0.45c0.23,0,0.43-0.19,0.43-0.42
		C12.55,21.57,12.37,21.38,12.14,21.37z"/>
	<path class="st0" d="M20.34,22.64c-0.01-0.69-0.56-1.26-1.25-1.27c-0.21,0-0.41,0-0.64,0v-0.72c0-0.93-0.75-1.68-1.68-1.68
		c-3.07,0-6.13,0-9.2,0c-0.93,0-1.68,0.75-1.68,1.67c0,0.24,0,0.48,0,0.73c-0.08,0-0.42,0-0.79,0c-0.61,0-1.1,0.49-1.1,1.1l0,2.74
		c0,0.44,0.36,0.8,0.8,0.8h14.74c0.44,0,0.8-0.36,0.8-0.8C20.35,24.4,20.35,23.19,20.34,22.64z M4.86,25.13c0-0.85,0-1.69,0-2.53
		c0-0.24,0.18-0.38,0.43-0.38c0.47,0,0.95,0,1.42,0c1.07,0,2.15,0,3.22-0.01c0,0,0.01,0,0.01,0c0.23,0,0.43-0.19,0.43-0.42
		c0-0.23-0.18-0.43-0.41-0.44c-0.01,0-0.01,0-0.02,0v0c-0.47,0-2.57,0-3.17,0c0-0.34-0.03-0.68,0.01-1.01
		c0.04-0.33,0.34-0.54,0.7-0.54c0.75,0,1.5,0,2.26,0h7.01c0.46,0,0.84,0.38,0.84,0.84v0.71c-0.09,0-0.17,0-0.24,0
		c-1.03,0-2.06,0-3.1,0c-0.06,0-0.13,0-0.19,0c-0.22,0.03-0.38,0.21-0.38,0.42c0,0.21,0.16,0.4,0.38,0.43c0.07,0.01,0.14,0,0.21,0
		c1.56,0,3.12,0,4.68,0c0.29,0,0.53,0.24,0.53,0.53c0,0.79,0,1.57,0,2.38H4.86z"/>
</g>
</svg>
