<?xml version="1.0" encoding="utf-8"?>
<!-- Generator: Adobe Illustrator 27.5.0, SVG Export Plug-In . SVG Version: 6.00 Build 0)  -->
<svg version="1.1" id="Camada_1" xmlns="http://www.w3.org/2000/svg" xmlns:xlink="http://www.w3.org/1999/xlink" x="0px" y="0px"
	 viewBox="0 0 30 30" style="enable-background:new 0 0 30 30;" xml:space="preserve">
<style type="text/css">
	.st0{fill:#DB334F;}
	.st1{fill:none;}
</style>
<g>
	<path class="st0" d="M13.84,24.63c0,0.63,0,1.22,0,1.81c0,0.2-0.03,0.37-0.23,0.46c-0.2,0.09-0.35-0.01-0.5-0.13
		c-0.58-0.5-1.17-1-1.77-1.52c-0.37,0.32-0.74,0.63-1.12,0.95c-0.24,0.2-0.48,0.41-0.71,0.61c-0.13,0.11-0.27,0.17-0.44,0.09
		c-0.18-0.08-0.24-0.22-0.24-0.41c0-0.61,0-1.22,0-1.87c-0.13,0-0.26,0-0.38,0c-1.09-0.02-1.93-0.86-1.93-1.95
		c0-6.16,0-12.32,0-18.47c0-0.72,0.44-1.15,1.16-1.15c4.88,0,9.76,0,14.64,0c0.72,0,1.15,0.44,1.15,1.16c0,6.42,0,12.85,0,19.27
		c0,0.72-0.44,1.16-1.16,1.16c-2.72,0-5.44,0-8.16,0C14.06,24.63,13.97,24.63,13.84,24.63z M7.29,21.17
		c0.54-0.42,1.14-0.4,1.73-0.39c4.46,0,8.91,0,13.37,0c0.1,0,0.2,0,0.31,0c0-0.11,0-0.19,0-0.27c0-5.4,0-10.81,0-16.21
		c0-0.42-0.06-0.47-0.47-0.47c-3.73,0-7.47,0-11.2,0c-0.09,0-0.17,0-0.28,0c0,0.12,0,0.22,0,0.31c0,4.17,0,9.18,0,13.35
		c0,0.41-0.12,0.59-0.4,0.59c-0.27-0.01-0.38-0.18-0.38-0.58c0-4.17,0-9.2,0-13.37c0-0.09,0-0.19,0-0.29c-0.76,0-1.48,0-2.2,0
		c-0.45,0-0.5,0.05-0.5,0.49c0,5.52,0,11.03,0,16.55C7.29,20.95,7.29,21.04,7.29,21.17z M22.71,21.55c-0.11,0-0.2,0-0.29,0
		c-4.61,0-9.21,0-13.82,0c-0.07,0-0.14,0-0.22,0c-0.6,0.03-1.07,0.51-1.09,1.11c-0.03,0.8,0.65,1.33,1.54,1.17c0-0.32,0-0.65,0-0.98
		c0-0.41,0.12-0.53,0.53-0.53c1.32,0.01,2.65,0.02,3.97,0.03c0.39,0,0.51,0.12,0.51,0.53c0,0.33,0,0.65,0,0.98c0.09,0,0.13,0,0.18,0
		c2.76,0,5.52,0,8.28,0c0.03,0,0.06,0,0.1,0c0.19-0.01,0.3-0.11,0.3-0.3C22.71,22.9,22.71,22.25,22.71,21.55z M9.61,25.72
		c0.5-0.42,0.95-0.81,1.41-1.2c0.24-0.2,0.4-0.2,0.64,0c0.4,0.34,0.79,0.68,1.19,1.02c0.06,0.05,0.13,0.1,0.21,0.17
		c0-0.88,0-1.72,0-2.59c-1.15,0-2.3,0-3.45,0C9.61,23.97,9.61,24.82,9.61,25.72z"/>
	<path class="st0" d="M11.76,12.34C11.76,9.57,14,7.32,16.77,7.31c2.76-0.01,5.02,2.25,5.02,5.02c0,2.76-2.24,5.01-5,5.02
		C14.03,17.37,11.77,15.11,11.76,12.34z M12.53,12.34c0,2.35,1.89,4.24,4.24,4.25c2.35,0.01,4.25-1.9,4.25-4.26
		c0-2.35-1.9-4.24-4.24-4.24C14.43,8.08,12.53,9.98,12.53,12.34z"/>
	<path class="st0" d="M10.76,19.48c0,0.21-0.17,0.38-0.38,0.38c-0.21,0-0.38-0.18-0.38-0.39c0-0.2,0.19-0.38,0.39-0.38
		C10.6,19.09,10.77,19.26,10.76,19.48z"/>
	<path class="st0" d="M14.66,13.74c0.01-0.54,0.02-0.68-0.36-1.05c-0.16-0.16-0.5-0.58-0.64-0.77c-0.23-0.31-0.15-0.59,0.22-0.71
		c0.45-0.16,0.92-0.28,1.37-0.43c0.13-0.05,0.26-0.15,0.34-0.26c0.26-0.37,0.49-0.77,0.75-1.15c0.24-0.35,0.52-0.36,0.77-0.02
		c0.28,0.38,0.54,0.78,0.82,1.16c0.08,0.11,0.22,0.21,0.35,0.25c0.4,0.13,0.82,0.22,1.23,0.33c0.54,0.15,0.62,0.39,0.29,0.85
		c-0.26,0.36-0.55,0.71-0.81,1.08c-0.06,0.09-0.11,0.22-0.1,0.33c0.01,0.42,0.04,0.85,0.07,1.27c0.04,0.61-0.17,0.77-0.74,0.59
		c-0.41-0.14-0.81-0.29-1.23-0.42c-0.12-0.04-0.28-0.04-0.4,0.01c-0.4,0.14-0.79,0.31-1.19,0.46c-0.53,0.2-0.74,0.05-0.75-0.51
		C14.66,14.53,14.66,14.06,14.66,13.74z M16.76,10.15c-0.2,0.32-0.4,0.61-0.58,0.92c-0.13,0.23-0.31,0.35-0.56,0.42
		c-0.35,0.09-0.7,0.21-1.07,0.32c0.25,0.3,0.47,0.58,0.7,0.84c0.17,0.19,0.22,0.39,0.22,0.64c-0.01,0.37,0,0.73,0,1.12
		c0.34-0.14,0.68-0.29,1.03-0.4c0.18-0.05,0.4-0.06,0.58-0.01c0.37,0.1,0.73,0.24,1.12,0.38c-0.02-0.36-0.03-0.7-0.06-1.03
		c-0.04-0.3,0.05-0.54,0.24-0.77c0.22-0.26,0.42-0.54,0.64-0.83c-0.38-0.1-0.72-0.19-1.06-0.27c-0.23-0.05-0.4-0.17-0.53-0.37
		C17.21,10.79,16.99,10.49,16.76,10.15z"/>
</g>
</svg>
