<?xml version="1.0" encoding="UTF-8"?>
<svg id="layout" xmlns="http://www.w3.org/2000/svg" viewBox="0 0 132.57 132.57">
  <defs>
    <style>
      .cls-1 {
        fill: #db334f; /* Alterado de #fff para #FF0000 */
        stroke-width: 0px;
      }
    </style>
  </defs>
  <path class="cls-1" d="m105.4,63.06v16.81c-.56,1.52-1.66,2.12-3.26,2.05-1.73-.07-3.46-.02-5.19-.02-.63,0-1.26,0-1.91,0v19.56c1.13,0,2.2,0,3.27,0,1.23,0,1.87.46,1.87,1.32,0,.85-.63,1.29-1.89,1.29-3.08,0-6.16,0-9.24,0-.23,0-.46,0-.69-.03-.73-.1-1.18-.57-1.18-1.26,0-.68.42-1.17,1.16-1.28.35-.05.71-.04,1.07-.05.96,0,1.92,0,2.92,0v-10.39h-52.07v10.39c.52,0,1,0,1.48,0,.89.02,1.78,0,2.66.09.67.07,1,.58.99,1.24-.01.67-.37,1.09-1.04,1.22-.27.05-.56.06-.84.06-3.06,0-6.11,0-9.17,0-1.31,0-1.95-.43-1.95-1.3,0-.87.65-1.31,1.95-1.31,1.06,0,2.12,0,3.2,0v-19.56c-.32,0-.59,0-.87,0-2.24,0-4.48.02-6.72,0-1.76-.02-2.78-1.07-2.78-2.84,0-5.04,0-10.08,0-15.12,0-1.84,1.05-2.87,2.9-2.87,2.22,0,4.43,0,6.65,0,.27,0,.54,0,.8,0v-5.21c-.34,0-.62,0-.9,0-2.19,0-4.38.01-6.57,0-1.84-.02-2.89-1.07-2.89-2.91,0-5.02,0-10.03,0-15.05,0-1.87,1.06-2.91,2.95-2.92,2.19-.01,4.38,0,6.57,0,.27,0,.55,0,.88,0,0-1.61.08-3.13,1.09-4.41,1-1.27,2.29-1.98,3.91-2.06,1.19-.06,2.27.25,3.23.93,1.91,1.34,2.34,3.32,2.22,5.49h36.49c-.02-1.59.08-3.11,1.1-4.39,1.03-1.29,2.35-1.99,4.01-2.04,1.24-.03,2.35.34,3.33,1.1,1.75,1.36,2.11,3.26,2.02,5.38.33,0,.58,0,.83,0,2.04,0,4.08.06,6.11-.02,1.62-.06,2.82.44,3.48,1.99v16.96c-.66,1.54-1.87,2.03-3.48,1.97-2.03-.07-4.06-.02-6.1-.02h-.78v5.21c2.38,0,4.69.06,7-.02,1.61-.06,2.75.49,3.35,2.02Zm-13.06,18.9h-52.07v6.41h52.07v-6.41Zm-52.09-20.95h52.07v-5.11h-52.07v5.11Zm37.55-23.44c-3.23,0-6.26,0-9.28.02-.23,0-.5.22-.67.41-4.2,4.88-8.39,9.76-12.57,14.65-.13.15-.23.33-.41.59,3.13,0,6.1.01,9.08-.02.29,0,.65-.26.85-.5,3.92-4.54,7.82-9.1,11.73-13.66.38-.44.75-.88,1.26-1.48Zm-9.91,15.59c.24.04.36.07.47.07,2.87,0,5.75.01,8.62-.02.27,0,.62-.21.8-.43,4.22-4.89,8.42-9.8,12.62-14.7.11-.12.19-.27.35-.51h-.86c-2.57,0-5.14.02-7.71-.01-.67,0-1.12.18-1.56.7-3.39,3.99-6.81,7.96-10.22,11.94-.82.96-1.64,1.92-2.53,2.96Zm-3.18-15.53c-.33-.03-.52-.05-.71-.05-2.75,0-5.49-.02-8.24.02-.34,0-.78.23-1,.49-4.17,4.83-8.32,9.68-12.47,14.53-.14.16-.25.34-.46.62h.88c2.57,0,5.14-.02,7.71.02.67,0,1.12-.19,1.55-.7,3.64-4.28,7.3-8.54,10.96-12.81.57-.67,1.14-1.34,1.79-2.11Zm-13.04-.06h-.87c-2.62,0-5.24.02-7.86-.01-.56,0-.93.15-1.3.58-3.76,4.42-7.53,8.83-11.33,13.21-.49.57-.62,1.12-.45,1.82.1.02.2.06.29.06,2.6,0,5.19.02,7.79-.02.27,0,.6-.25.79-.47,4.17-4.84,8.32-9.69,12.48-14.54.14-.16.26-.34.48-.64Zm29.23,15.62c.27.02.39.04.5.04,2.85,0,5.7.02,8.55-.02.32,0,.71-.25.93-.5,3.84-4.45,7.65-8.92,11.5-13.37.49-.56.48-1.1.34-1.77-2.61,0-5.18.01-7.75-.01-.51,0-.84.16-1.16.54-3.91,4.59-7.84,9.16-11.77,13.74-.36.42-.71.84-1.15,1.35Zm-26.05,26.06c.39.02.63.04.87.04,2.65,0,5.29-.01,7.94.01.54,0,.89-.16,1.23-.56,4.09-4.8,8.2-9.59,12.31-14.39.16-.19.30-.38.49-.61-.13-.04-.20-.08-.26-.08-2.95,0-5.91-.02-8.86.02-.27,0-.59.25-.78.47-3.64,4.22-7.26,8.45-10.89,12.69-.66.76-1.31,1.53-2.05,2.41Zm13.04-.01c.28.03.40.05.52.05,2.85,0,5.70.02,8.55-.02.30,0,.67-.22.87-.46,4.17-4.83,8.33-9.69,12.49-14.54.14-.16.26-.34.43-.55-.16-.03-.23-.06-.30-.06-2.93,0-5.85-.02-8.78.02-.27,0-.61.22-.80.44-2.34,2.69-4.65,5.40-6.97,8.11-1.97,2.30-3.94,4.60-6.01,7.02Zm-3.14-15.58c-3.06,0-5.91.02-8.76-.01-.58,0-.98.16-1.36.61-4.04,4.75-8.10,9.47-12.16,14.21-.19.22-.37.46-.62.76.21.03.33.06.45.06,2.88,0,5.75.02,8.63-.02.29,0,.65-.24.86-.48,3.62-4.20,7.23-8.41,10.84-12.63.67-.78,1.34-1.57,2.13-2.50Zm-34.88,15.63c2.74,0,5.46.01,8.18-.02.24,0,.52-.27.71-.48,4.15-4.82,8.29-9.65,12.42-14.47.15-.18.28-.37.49-.65-3.04,0-5.93.01-8.83-.01-.50,0-.83.14-1.16.53-3.74,4.39-7.50,8.78-11.27,13.15-.49.57-.74,1.12-.53,1.96Zm51.07-.06c.24.03.36.06.47.06,2.88,0,5.75.02,8.63-.02.29,0,.65-.24.86-.48,3.79-4.39,7.55-8.82,11.35-13.20.50-.58.68-1.14.49-1.92-.25,0-.49,0-.74,0-2.34,0-4.68.02-7.03-.01-.51,0-.84.17-1.16.55-3.20,3.76-6.42,7.51-9.63,11.26-1.05,1.23-2.11,2.46-3.23,3.77Zm-42.29-41.59h-8.80v10.27c2.97-3.46,5.84-6.81,8.80-10.27Zm55.30,15.54h8.80v-10.27c-2.97,3.46-5.84,6.81-8.80,10.27Zm-64.12,20.82c2.99-3.48,5.86-6.84,8.80-10.27h-8.80v10.27Zm64.14,5.23h8.79v-10.26c-2.97,3.47-5.84,6.81-8.79,10.26Zm-48.63-44.31c.29-1.66-.11-2.83-1.16-3.47-.90-.55-2.10-.48-2.93.17-.92.72-1.28,2.01-.91,3.30h5Zm47.01,0c.10-1.40.06-2.69-1.27-3.47-.94-.55-1.91-.52-2.80.10-1.21.83-1.20,2.06-1.07,3.37h5.14Z"/>
</svg>