<?xml version="1.0" encoding="utf-8"?>
<!-- Generator: Adobe Illustrator 27.5.0, SVG Export Plug-In . SVG Version: 6.00 Build 0)  -->
<svg version="1.1" id="Camada_1" xmlns="http://www.w3.org/2000/svg" xmlns:xlink="http://www.w3.org/1999/xlink" x="0px" y="0px"
	 viewBox="0 0 41.29 37.75" style="enable-background:new 0 0 41.29 37.75;" xml:space="preserve">
<style type="text/css">
	.st0{fill:#FFFFFF;}
</style>
<g>
	<path class="st0" d="M22.98,21.21c0,0.95,0,1.85,0,2.75c0,0.55-0.2,0.76-0.74,0.76c-1.06,0-2.12,0-3.18,0
		c-0.57,0-0.76-0.2-0.76-0.78c0-0.9,0-1.8,0-2.73c-0.91,0-1.78,0-2.65,0c-0.69,0-0.86-0.16-0.86-0.86c0-1.02,0-2.05,0-3.07
		c0-0.55,0.2-0.75,0.75-0.75c0.9,0,1.8,0,2.76,0c0-0.13,0-0.24,0-0.36c0-0.82,0-1.63,0-2.45c0-0.48,0.21-0.7,0.69-0.7
		c1.1,0,2.19,0,3.29,0c0.49,0,0.7,0.21,0.7,0.72c0,0.91,0,1.82,0,2.77c0.13,0.01,0.25,0.02,0.37,0.02c0.83,0,1.66,0,2.48,0
		c0.43,0,0.65,0.22,0.65,0.66c0.01,1.12,0.01,2.24,0,3.36c0,0.44-0.23,0.65-0.69,0.66C24.88,21.22,23.95,21.21,22.98,21.21z
		 M21.82,14.22c-0.8,0-1.56,0-2.34,0c0,0.94,0,1.85,0,2.76c0,0.52-0.21,0.72-0.73,0.73c-0.57,0-1.14,0-1.72,0c-0.35,0-0.69,0-1.04,0
		c0,0.8,0,1.55,0,2.34c0.14,0,0.25,0,0.37,0c0.8,0,1.61,0,2.41,0c0.5,0,0.7,0.21,0.71,0.72c0,0.13,0,0.27,0,0.4
		c0,0.79,0,1.57,0,2.37c0.8,0,1.56,0,2.34,0c0-0.94,0-1.85,0-2.76c0-0.52,0.21-0.72,0.73-0.73c0.56,0,1.12,0,1.68,0
		c0.36,0,0.72,0,1.08,0c0-0.8,0-1.55,0-2.34c-0.93,0-1.84,0-2.75,0c-0.54,0-0.74-0.2-0.74-0.75C21.81,16.05,21.82,15.15,21.82,14.22
		z"/>
	<path class="st0" d="M19.81,35.2c-1.21,0-2.41,0.03-3.62-0.01c-0.93-0.03-1.81-0.36-2.65-0.77c-1.25-0.61-2.5-1.21-3.74-1.82
		c-1.18-0.58-2.42-0.88-3.73-0.86c-0.76,0.01-1.51,0-2.27,0c-0.45,0-0.72-0.24-0.71-0.6c0.01-0.35,0.27-0.58,0.71-0.56
		c1.33,0.04,2.66,0,3.97,0.16c0.83,0.1,1.64,0.43,2.42,0.77c1.32,0.58,2.61,1.25,3.91,1.88c0.95,0.46,1.94,0.7,3,0.69
		c1.88-0.01,3.75,0,5.63-0.01c0.19,0,0.39-0.04,0.56-0.11c1.51-0.61,3.01-1.25,4.52-1.85c0.28-0.11,0.37-0.26,0.32-0.55
		c-0.1-0.58-0.41-0.91-1-1c-0.72-0.12-1.4,0.09-2.08,0.27c-0.4,0.11-0.79,0.25-1.18,0.37c-0.41,0.13-0.73-0.01-0.83-0.36
		c-0.1-0.34,0.05-0.64,0.46-0.74c0.98-0.26,1.97-0.53,2.97-0.72c0.59-0.11,1.19,0.01,1.73,0.32c0.88,0.51,1.32,1.62,1.01,2.59
		c-0.12,0.37-0.33,0.64-0.7,0.79c-1.69,0.69-3.37,1.39-5.06,2.08c-0.15,0.06-0.33,0.08-0.5,0.08c-1.05,0.01-2.1,0-3.14,0
		C19.81,35.23,19.81,35.22,19.81,35.2z"/>
	<path class="st0" d="M36,7.18c-2.04,0.16-3.93-0.35-5.72-1.3c-1.06-0.56-2.16-1.06-3.25-1.58c-0.87-0.41-1.79-0.62-2.75-0.62
		c-1.92,0-3.85,0-5.77,0c-0.16,0-0.34,0.04-0.49,0.1c-1.52,0.62-3.03,1.26-4.56,1.87c-0.29,0.12-0.35,0.27-0.31,0.55
		c0.1,0.58,0.42,0.9,1.01,0.99c0.72,0.11,1.4-0.09,2.08-0.27c0.38-0.1,0.74-0.23,1.11-0.35c0.45-0.14,0.76-0.03,0.88,0.31
		c0.12,0.35-0.05,0.67-0.49,0.79c-0.97,0.26-1.95,0.53-2.94,0.7c-0.43,0.07-0.93-0.02-1.36-0.16c-1.07-0.35-1.67-1.52-1.41-2.61
		c0.11-0.44,0.35-0.76,0.78-0.94c1.66-0.67,3.3-1.36,4.96-2.04c0.16-0.07,0.35-0.1,0.53-0.1c1.99-0.01,3.97-0.01,5.96,0
		c1.18,0,2.29,0.26,3.35,0.77c1.41,0.68,2.82,1.38,4.24,2.05c0.99,0.47,2.05,0.69,3.15,0.69c0.82,0,1.63,0,2.45,0
		c0.46,0,0.73,0.22,0.73,0.58c0,0.36-0.27,0.59-0.72,0.59C36.98,7.18,36.49,7.18,36,7.18z"/>
	<path class="st0" d="M20.58,6.66c-0.17,0.79,0.04,1.44,0.6,1.93c0.37,0.32,0.81,0.59,1.26,0.79c1.13,0.51,2.29,0.96,3.43,1.45
		c0.17,0.08,0.37,0.22,0.45,0.39c0.65,1.33,1.75,2.02,3.17,2.25c1.01,0.17,1.99,0.02,2.95-0.32c0.18-0.06,0.38-0.12,0.56-0.12
		c1.5-0.01,3-0.01,4.5,0c0.19,0,0.44,0.08,0.54,0.21c0.11,0.14,0.14,0.41,0.09,0.6c-0.07,0.28-0.33,0.36-0.61,0.36
		c-1.39,0-2.78-0.01-4.17,0c-0.24,0-0.48,0.05-0.71,0.12c-2.09,0.66-4.1,0.58-5.9-0.8c-0.5-0.38-0.86-0.95-1.29-1.43
		c-0.12-0.13-0.25-0.27-0.4-0.34c-1.07-0.46-2.16-0.9-3.23-1.37c-0.77-0.34-1.45-0.8-1.94-1.51c-0.72-1.05-0.68-2.15-0.2-3.27
		c0.15-0.35,0.45-0.42,0.87-0.24c1.5,0.62,2.99,1.24,4.48,1.86c0.65,0.27,1.3,0.54,1.95,0.81c0.42,0.18,0.59,0.48,0.45,0.82
		c-0.14,0.33-0.47,0.44-0.9,0.26c-1.89-0.78-3.77-1.57-5.66-2.35C20.79,6.74,20.7,6.71,20.58,6.66z"/>
	<path class="st0" d="M20.71,31.09c0.18-0.81-0.04-1.48-0.64-1.97c-0.4-0.33-0.86-0.6-1.33-0.81c-1.1-0.49-2.22-0.92-3.33-1.4
		c-0.17-0.07-0.36-0.23-0.44-0.39c-0.65-1.33-1.75-2.01-3.17-2.24c-1.01-0.16-1.99-0.01-2.94,0.32c-0.17,0.06-0.35,0.11-0.53,0.12
		c-1.51,0.01-3.02,0.01-4.53,0c-0.19,0-0.44-0.08-0.54-0.21c-0.11-0.14-0.13-0.41-0.09-0.6c0.07-0.28,0.34-0.35,0.61-0.35
		c1.4,0,2.8,0.01,4.2,0c0.21,0,0.43-0.04,0.64-0.11c1.7-0.56,3.37-0.59,5.01,0.19c0.93,0.44,1.64,1.11,2.19,1.98
		c0.11,0.17,0.29,0.33,0.48,0.41c1,0.44,2.02,0.84,3.03,1.27c0.82,0.35,1.55,0.82,2.07,1.57c0.72,1.04,0.69,2.15,0.21,3.26
		c-0.15,0.36-0.46,0.43-0.9,0.24c-1.76-0.73-3.53-1.46-5.29-2.2c-0.37-0.15-0.74-0.31-1.11-0.46c-0.43-0.18-0.59-0.47-0.46-0.81
		c0.14-0.35,0.47-0.45,0.92-0.26c1.82,0.75,3.64,1.51,5.46,2.26C20.37,30.95,20.52,31.01,20.71,31.09z"/>
	<path class="st0" d="M32.92,18.91c-0.03,2.64-0.79,5.05-2.36,7.19c-0.13,0.17-0.37,0.33-0.58,0.35c-0.15,0.02-0.41-0.15-0.47-0.3
		c-0.07-0.17-0.05-0.44,0.04-0.6c0.26-0.48,0.61-0.91,0.87-1.39c1.24-2.3,1.61-4.74,1.15-7.31c-0.02-0.08-0.03-0.17-0.04-0.25
		c-0.03-0.38,0.16-0.64,0.49-0.69c0.31-0.04,0.6,0.15,0.65,0.51c0.1,0.7,0.17,1.4,0.25,2.1C32.94,18.65,32.92,18.78,32.92,18.91z"/>
	<path class="st0" d="M11.15,11.29c0.58,0.01,0.84,0.5,0.6,0.91c-0.2,0.33-0.44,0.64-0.64,0.97c-1.43,2.41-1.88,5-1.38,7.76
		c0.01,0.06,0.02,0.12,0.03,0.18c0.06,0.44-0.11,0.72-0.46,0.77c-0.36,0.05-0.61-0.15-0.69-0.58c-0.39-2.03-0.31-4.04,0.3-6.02
		c0.4-1.31,1.01-2.53,1.83-3.63C10.85,11.47,11.06,11.36,11.15,11.29z"/>
</g>
</svg>
