<?xml version="1.0" encoding="UTF-8"?>
<svg xmlns="http://www.w3.org/2000/svg" viewBox="0 0 200 200">
  <defs>
    <style>
      .cls-1 {
        fill: #db334f;
        stroke-width: 0px;
      }
    </style>
  </defs>
  <path class="cls-1" d="M158.9,95.1v25.4c-.8,2.3-2.5,3.2-4.9,3.1-2.6-.1-5.2,0-7.8,0-1,0-1.9,0-2.9,0v29.5c1.7,0,3.3,0,4.9,0,1.9,0,2.8.7,2.8,2,0,1.3-.9,1.9-2.8,1.9-4.6,0-9.3,0-13.9,0-.3,0-.7,0-1-.1-1.1-.1-1.8-.9-1.8-1.9,0-1,.6-1.8,1.7-1.9.5-.1,1.1-.1,1.6-.1,1.4,0,2.9,0,4.4,0v-15.7H78.4v15.7c.8,0,1.5,0,2.2,0,1.3,0,2.7.1,4,.1,1,.1,1.5.9,1.5,1.9,0,1-.6,1.6-1.6,1.8-.4.1-.8.1-1.3.1-4.6,0-9.2,0-13.8,0-2,0-2.9-.6-2.9-2,0-1.3,1-2,2.9-2,1.6,0,3.2,0,4.8,0v-29.5c-.5,0-.9,0-1.3,0-3.4,0-6.8,0-10.1,0-2.7,0-4.2-1.6-4.2-4.3,0-7.6,0-15.2,0-22.8,0-2.8,1.6-4.3,4.4-4.3,3.3,0,6.7,0,10,0,.4,0,.8,0,1.2,0v-7.9c-.5,0-.9,0-1.4,0-3.3,0-6.6,0-9.9,0-2.8,0-4.4-1.6-4.4-4.4,0-7.6,0-15.1,0-22.7,0-2.8,1.6-4.4,4.4-4.4,3.3,0,6.6,0,9.9,0,.4,0,.8,0,1.3,0,0-2.4.1-4.7,1.6-6.7,1.5-1.9,3.5-3,5.9-3.1,1.8-.1,3.4.4,4.9,1.4,2.9,2,3.5,5,3.3,8.3h55c0-2.4.1-4.7,1.7-6.6,1.6-1.9,3.5-3,6-3.1,1.9,0,3.5.5,5,1.7,2.6,2.1,3.2,4.9,3,8.1.5,0,.9,0,1.3,0,3.1,0,6.2.1,9.2,0,2.4-.1,4.3.7,5.2,3v25.6c-1,2.3-2.8,3.1-5.2,3-3.1-.1-6.1,0-9.2,0h-1.2v7.9c3.6,0,7.1.1,10.6,0,2.4-.1,4.1.7,5.1,3Zm-19.7,28.5H78.4v9.7h60.8v-9.7Zm-78.6-31.6h78.6v-7.7H78.4v7.7Zm56.7-35.4c-4.9,0-9.4,0-14,.1-.3,0-.8.3-1,.6-6.3,7.4-12.7,14.7-19,22-.2.2-.3.5-.6.9,4.7,0,9.2,0,13.7,0,.4,0,1-.4,1.3-.8,5.9-6.9,11.8-13.7,17.7-20.6.6-.7,1.1-1.3,1.9-2.2Zm-15,23.5c.4.1.5.1.7.1,4.3,0,8.7,0,13-.1,.4,0,.9-.3,1.2-.6,6.4-7.4,12.7-14.8,19-22.2.2-.2.3-.4.5-.8h-1.3c-3.9,0-7.8,0-11.6,0-1,0-1.7.3-2.3,1.1-5.1,6-10.3,12-15.4,18-1.2,1.4-2.5,2.9-3.8,4.5Zm-4.8-23.4c-.5,0-.8-.1-1.1-.1-4.1,0-8.3,0-12.4.1-.5,0-1.2.3-1.5.7-6.3,7.3-12.6,14.6-18.8,21.9-.2.2-.4.5-.7.9h1.3c3.9,0,7.8,0,11.6,0,1,0,1.7-.3,2.3-1.1,5.5-6.5,11-12.9,16.5-19.3.9-1,1.7-2,2.7-3.2Zm-19.7-.1h-1.3c-4,0-7.9,0-11.9,0-.8,0-1.4.2-2,.9-5.7,6.7-11.4,13.3-17.1,19.9-.7.9-1,1.7-.7,2.7,.1,0,.3,.1,.4,.1,3.9,0,7.8,0,11.8,0,.4,0,.9-.4,1.2-.7,6.3-7.3,12.6-14.6,18.8-21.9,.2-.2,.4-.5,.7-1Zm44.1,23.6c.4,0,.6,.1,.8,.1,4.3,0,8.6,0,12.9,0,.5,0,1.1-.4,1.4-.8,5.8-6.7,11.5-13.5,17.3-20.2,.7-.8,.7-1.7,.5-2.7-3.9,0-7.8,0-11.7,0-.8,0-1.3.2-1.7.8-5.9,6.9-11.8,13.8-17.8,20.7-.5,.6-1.1,1.3-1.7,2Zm-39.3,39.3c.6,0,.9,.1,1.3,.1,4,0,8-.1,12,0,.8,0,1.3-.2,1.9-.8,6.2-7.2,12.4-14.5,18.6-21.7,.2-.3,.5-.6,.7-.9-.2-.1-.3-.1-.4-.1-4.4,0-8.9,0-13.4,0-.4,0-.9.4-1.2,.7-5.5,6.4-11,12.7-16.4,19.1-1,1.1-2,2.3-3.1,3.6Zm19.7-.1c.4,0,.6,.1,.8,.1,4.3,0,8.6,0,12.9,0,.5,0,1-.3,1.3-.7,6.3-7.3,12.6-14.6,18.8-21.9,.2-.2,.4-.5,.6-.8-.2,0-.3-.1-.5-.1-4.4,0-8.8,0-13.2,0-.4,0-.9.3-1.2,.7-3.5,4.1-7,8.1-10.5,12.2-3,3.5-5.9,6.9-9.1,10.6Zm-4.7-23.5c-4.6,0-8.9,0-13.2,0-.9,0-1.5,.2-2,.9-6.1,7.2-12.2,14.3-18.3,21.4-.3,.3-.6,.7-.9,1.1,.3,0,.5,.1,.7,.1,4.3,0,8.7,0,13,0,.4,0,.9-.4,1.3-.7,5.5-6.3,10.9-12.7,16.4-19.1,1-1.2,2-2.4,3.2-3.8Zm-52.6,23.6c4.1,0,8.2,0,12.3,0,.4,0,.8-.4,1.1-.7,6.3-7.3,12.5-14.6,18.7-21.8,.2-.3,.4-.6,.7-1-4.6,0-8.9,0-13.3,0-.8,0-1.3,.2-1.7,.8-5.6,6.6-11.3,13.2-17,19.4-.7,.9-1.1,1.7-.8,3Zm77-.1c.4,0,.5,.1,.7,.1,4.3,0,8.7,0,13,0,.4,0,.9-.4,1.3-.7,5.7-6.6,11.4-13.3,17.1-19.9,.8-.9,1-1.7,.7-2.9-.4,0-.7,0-1.1,0-3.5,0-7.1,0-10.6,0-.8,0-1.3,.3-1.7,.8-4.8,5.7-9.7,11.3-14.5,17-1.6,1.9-3.2,3.7-4.9,5.7Zm-63.8-62.8h-13.3v15.5c4.5-5.2,8.8-10.3,13.3-15.5Zm83.5,23.5h13.3v-15.5c-4.5,5.2-8.8,10.3-13.3,15.5Zm-96.7,31.4c4.5-5.2,8.8-10.3,13.3-15.5h-13.3v15.5Zm96.7,7.9h13.3v-15.5c-4.5,5.2-8.8,10.3-13.3,15.5Zm-73.4-66.9c.4-2.5-.2-4.3-1.7-5.2-1.4-.8-3.2-.7-4.4,.3-1.4,1.1-1.9,3-.1,5h6.2Zm70.9,0c.2-2.1,.1-4.1-1.9-5.2-1.4-.8-2.9-.8-4.2,.2-1.8,1.3-1.8,3.1-1.6,5.1h7.7Z"/>
</svg>