<?xml version="1.0" encoding="utf-8"?>
<!-- Generator: Adobe Illustrator 27.5.0, SVG Export Plug-In . SVG Version: 6.00 Build 0)  -->
<svg version="1.1" id="Camada_1" xmlns="http://www.w3.org/2000/svg" xmlns:xlink="http://www.w3.org/1999/xlink" x="0px" y="0px"
	 viewBox="0 0 41.29 37.75" style="enable-background:new 0 0 41.29 37.75;" xml:space="preserve">
<style type="text/css">
	.st0{fill:#FFFFFF;}
</style>
<g>
	<path class="st0" d="M2.52,22.84c0.16-0.33,0.44-0.48,0.79-0.57c1.21-0.31,2.41-0.64,3.62-0.97c0.82-0.23,1.56-0.13,2.22,0.44
		c0.09,0.08,0.28,0.09,0.41,0.05c1.74-0.46,3.49-0.91,5.22-1.39c1.17-0.33,2.24-0.19,3.29,0.43c3.18,1.85,6.37,3.68,9.55,5.52
		c1.24,0.72,1.73,1.72,1.54,3.18c0.13-0.03,0.25-0.04,0.37-0.07c1.93-0.49,3.86-0.98,5.79-1.46c1.37-0.34,2.83,0.48,3.28,1.81
		c0.46,1.34-0.13,2.9-1.41,3.43c-1.18,0.5-2.41,0.87-3.63,1.28c-2.16,0.73-4.33,1.46-6.5,2.18c-0.43,0.14-0.89,0.21-1.33,0.31
		c-0.38,0-0.76,0-1.13,0c-1.66-0.17-3.01-1.08-4.41-1.88c-1.76-1.01-3.54-1.98-5.26-3.04c-0.94-0.57-1.84-0.53-2.81-0.21
		c-0.08,0.03-0.17,0.13-0.19,0.21c-0.26,0.81-0.82,1.3-1.63,1.51c-1.26,0.33-2.53,0.67-3.79,1.01c-0.62,0.16-0.93-0.02-1.1-0.65
		c-0.73-2.73-1.46-5.46-2.2-8.19C3,24.93,2.75,24.1,2.52,23.27C2.52,23.12,2.52,22.98,2.52,22.84z M11.82,30.48
		c0.33-0.07,0.63-0.14,0.93-0.2c0.97-0.21,1.86,0.01,2.71,0.5c2.48,1.43,4.96,2.86,7.46,4.26c1.12,0.62,2.34,0.76,3.56,0.36
		c3.28-1.07,6.55-2.18,9.82-3.28c0.82-0.27,1.21-1.01,0.98-1.78c-0.23-0.76-0.97-1.14-1.81-0.93c-1.77,0.45-3.54,0.9-5.31,1.36
		c-0.82,0.21-1.67,0.35-2.45,0.67c-1.04,0.42-1.98,0.39-2.94-0.17c-1.9-1.11-3.82-2.21-5.73-3.31c-0.11-0.06-0.22-0.13-0.32-0.22
		c-0.25-0.22-0.31-0.55-0.16-0.84c0.15-0.29,0.48-0.45,0.81-0.35c0.14,0.04,0.28,0.12,0.41,0.2c1.58,0.91,3.16,1.83,4.75,2.74
		c0.42,0.24,0.83,0.5,1.26,0.71c0.79,0.38,1.7-0.06,1.94-0.91c0.19-0.67-0.1-1.28-0.82-1.7c-3.23-1.86-6.45-3.72-9.68-5.59
		c-0.63-0.37-1.27-0.45-1.97-0.26c-1.68,0.46-3.37,0.9-5.05,1.36c-0.12,0.03-0.23,0.08-0.36,0.12
		C10.53,25.65,11.17,28.06,11.82,30.48z M6.65,33.09c0.14-0.03,0.25-0.05,0.36-0.08c0.92-0.25,1.84-0.5,2.76-0.74
		c0.78-0.21,0.93-0.47,0.72-1.26c-0.67-2.5-1.35-5-2.02-7.51C8.24,22.61,8,22.47,7.11,22.72c-0.09,0.02-0.17,0.06-0.27,0.1
		c0.02,0.07,0.03,0.13,0.04,0.18c0.4,1.48,0.79,2.96,1.18,4.44c0.13,0.51-0.05,0.89-0.45,1c-0.42,0.11-0.77-0.12-0.91-0.62
		C6.48,27,6.27,26.18,6.05,25.36c-0.19-0.72-0.39-1.45-0.59-2.19c-0.47,0.13-0.9,0.24-1.36,0.37C4.95,26.73,5.8,29.9,6.65,33.09z"/>
	<path class="st0" d="M38.77,15.05c-0.25,3.09-1.78,5.7-5.02,7.02c-2.9,1.18-5.61,0.6-7.93-1.52c-1.76-1.61-2.6-3.67-2.62-6.05
		c-0.01-1.36,0.34-2.65,1.06-3.8c2-3.18,4.03-6.35,6.05-9.52c0.38-0.59,0.95-0.59,1.32,0c2.02,3.16,4.04,6.31,6.04,9.49
		C38.46,11.9,38.79,13.26,38.77,15.05z M30.99,2.8c-0.06,0.07-0.08,0.1-0.1,0.13c-1.74,2.72-3.47,5.45-5.21,8.17
		c-0.5,0.78-0.87,1.63-0.99,2.55c-0.29,2.28,0.42,4.23,2.06,5.84c2.51,2.45,6.66,2.23,8.92-0.44c1.9-2.25,2.31-5.4,0.54-8.09
		c-1.7-2.59-3.34-5.22-5.01-7.84C31.14,3.02,31.07,2.93,30.99,2.8z"/>
	<path class="st0" d="M8.18,29.8c0.38,0,0.68,0.33,0.68,0.71c0,0.38-0.32,0.69-0.71,0.68c-0.39-0.01-0.68-0.31-0.68-0.71
		C7.48,30.1,7.79,29.8,8.18,29.8z"/>
	<path class="st0" d="M35.94,14.69c-0.02,2.57-1.96,4.76-4.49,5.07c-0.2,0.02-0.4,0.03-0.6,0c-0.34-0.06-0.57-0.35-0.57-0.67
		c0-0.32,0.22-0.61,0.56-0.68c0.21-0.04,0.42-0.04,0.63-0.08c1.41-0.27,2.32-1.15,2.82-2.46c0.41-1.07,0.28-2.1-0.29-3.09
		c-0.32-0.56-0.14-1.11,0.4-1.19c0.34-0.05,0.59,0.1,0.77,0.39C35.69,12.81,35.93,13.72,35.94,14.69z"/>
</g>
</svg>
