<?xml version="1.0" encoding="UTF-8"?>
<svg id="icones" xmlns="http://www.w3.org/2000/svg" viewBox="0 0 30 30">
  <defs>
    <style>
      .cls-1 {
        fill: #db334f;
      }

      .cls-2 {
        fill: #da334f;
      }
    </style>
  </defs>
  <g>
    <path class="cls-2" d="m24.26,18.32c-.04.06-.08.13-.13.18-.12.11-.27.14-.42.08-.17-.07-.25-.2-.25-.39,0-.65,0-1.3,0-1.94,0-.08,0-.15,0-.28-.08.07-.13.12-.18.16-1.81,1.81-3.62,3.62-5.43,5.43-.36.36-.5.36-.86,0-.9-.9-1.8-1.8-2.69-2.7-.05-.05-.09-.11-.14-.17-.31.19-.59.37-.86.55-2.54,1.62-3.45,2.19-5.99,3.81-.03.02-.05.03-.08.05-.24.14-.47.1-.6-.1-.13-.2-.07-.43.16-.58.8-.51-.03.02.77-.49,2.1-1.34,4.21-2.68,6.32-4.02.29-.19.44-.17.68.07.92.92,1.84,1.84,2.76,2.76.03.03.05.05.07.06,1.81-1.81,3.62-3.62,5.44-5.44-.06,0-.12,0-.18,0-.66,0-1.32,0-1.98,0-.26,0-.44-.19-.43-.42.01-.21.17-.38.4-.38,1.08,0,2.16,0,3.25,0,.19,0,.28.14.38.26v3.47Z"/>
    <path class="cls-2" d="m12.39,5.72c3.56.01,6.46,2.45,6.94,5.78.4,2.76-.59,4.99-2.81,6.67-.25.19-.48.17-.63-.03-.16-.21-.1-.43.16-.62,1.47-1.07,2.33-2.51,2.54-4.32.32-2.89-1.51-5.61-4.3-6.43-3.52-1.03-7.15,1.29-7.69,4.93-.4,2.67,1.06,5.3,3.54,6.39.05.02.1.04.16.07.25.11.35.32.26.54-.09.22-.31.3-.57.2-.65-.27-1.25-.61-1.79-1.07-1.82-1.56-2.63-3.55-2.43-5.93.25-3.02,2.63-5.57,5.63-6.07.39-.07.79-.09.98-.11Z"/>
  </g>
  <path class="cls-1" d="m12.72,15.49c-.6,0-1.1-.09-1.49-.26-.39-.17-.68-.42-.87-.73-.19-.31-.28-.68-.28-1.09v-.15h1.01v.1c0,.26.05.48.14.66.09.18.26.31.5.4.24.09.59.13,1.04.13.48,0,.81-.07,1-.2.19-.14.28-.35.28-.64,0-.2-.03-.36-.09-.48s-.17-.22-.34-.3c-.17-.08-.42-.15-.75-.21l-1.09-.22c-.37-.07-.68-.18-.92-.33-.25-.15-.44-.34-.57-.58-.13-.24-.2-.52-.2-.85s.08-.61.25-.89c.17-.28.43-.5.78-.67.35-.17.8-.26,1.35-.26.58,0,1.06.1,1.42.3.37.2.63.46.8.78.17.32.25.67.25,1.05v.11h-1.02v-.11c0-.27-.04-.49-.13-.66-.09-.17-.24-.31-.46-.4-.22-.09-.52-.14-.89-.14-.48,0-.82.07-1.02.21-.21.14-.31.35-.31.62,0,.2.03.35.1.47.07.11.18.21.35.27.16.07.39.14.69.2l1.09.23c.4.08.73.21.98.37s.44.36.56.6c.12.24.18.52.18.84s-.08.64-.25.92-.42.5-.77.67c-.35.16-.79.25-1.34.25Zm.33-6.1h-.95v-1.33h.95v1.33Zm0,6.96h-.95v-1.36h.95v1.36Z"/>
</svg>