<?xml version="1.0" encoding="UTF-8"?>
<svg id="icones" xmlns="http://www.w3.org/2000/svg" viewBox="0 0 30 30">
  <defs>
    <style>
      .cls-1 {
        fill: #db334f;
      }
    </style>
  </defs>
  <g>
    <path class="cls-1" d="m23.53,15.47c-.18,0-.34-.16-.33-.35,0-.18.16-.33.34-.32.19,0,.34.16.33.34,0,.18-.16.33-.34.33Z"/>
    <g>
      <path class="cls-1" d="m23.63,6.36c.18.1.24.25.24.46,0,2.22,0,4.44,0,6.67,0,.06,0,.11,0,.17-.02.17-.17.3-.33.3-.17,0-.31-.13-.33-.3,0-.06,0-.12,0-.19,0-2.07,0-4.14,0-6.21v-.21h-9.11v15.56c.25-.19.48-.37.71-.55.26-.2.39-.19.62.05.22.22.43.44.64.67.08.08.14.1.24.04.27-.16.55-.3.83-.45.15-.09.29-.09.45,0,.3.16.6.31.89.47.09.05.15.05.23-.02.3-.26.6-.51.9-.76.22-.18.35-.18.56,0,.32.27.63.54.95.81,0,0,.02,0,.04.02.3-.17.61-.34.92-.51.16-.1.31-.1.47,0,.2.12.41.23.64.36v-.21c0-1.91,0-3.82,0-5.74,0-.06,0-.11,0-.17.02-.17.16-.3.33-.3.18,0,.32.13.34.31,0,.04,0,.08,0,.12,0,2.16,0,4.32,0,6.48,0,.16-.03.29-.17.38-.12.07-.25.05-.37-.02-.28-.16-.57-.31-.85-.48-.12-.07-.21-.06-.32,0-.27.16-.54.3-.81.45-.23.13-.33.12-.53-.05-.31-.26-.61-.53-.93-.8-.31.26-.62.52-.92.77-.25.21-.32.22-.6.07-.29-.15-.59-.31-.88-.47-.09-.05-.16-.05-.25,0-.29.17-.59.32-.89.48-.24.13-.35.1-.54-.08-.25-.24-.52-.47-.77-.71.01-.02.02-.04.03-.06-.05.03-.1.07-.14.1-.31.24-.61.47-.92.71-.12.1-.25.15-.41.07-.15-.08-.19-.21-.19-.37,0-5.49,0-10.98,0-16.47,0-.19.08-.32.24-.41h9.99Z"/>
      <path class="cls-1" d="m20,19.93c-.14,0-.25,0-.37,0-.19-.01-.33-.16-.33-.34,0-.18.14-.33.33-.33.22,0,.45,0,.67,0,.32,0,.55-.22.56-.51,0-.29-.22-.52-.54-.53-.59-.03-1.07-.42-1.17-.96-.11-.59.17-1.12.74-1.36.09-.04.11-.08.1-.16,0-.08,0-.17,0-.25,0-.21.15-.34.34-.34.19,0,.33.14.33.35,0,.11,0,.21,0,.33.13,0,.24,0,.35,0,.2,0,.35.15.35.34,0,.19-.15.33-.35.34-.22,0-.44,0-.66,0-.32,0-.55.22-.56.51,0,.29.22.52.54.53.59.03,1.07.42,1.17.96.11.58-.17,1.11-.74,1.36-.08.04-.11.08-.1.16,0,.1,0,.19,0,.29-.02.18-.16.31-.34.31-.18,0-.32-.13-.33-.31,0-.12,0-.23,0-.37Z"/>
      <path class="cls-1" d="m16.93,16.19c-.48,0,.05,0-.43,0-.25,0-.4-.13-.4-.33,0-.21.15-.34.41-.34.95,0,.91,0,1.86,0,.25,0,.4.13.4.33,0,.21-.15.34-.41.34-.48,0-.95,0-1.43,0Z"/>
      <path class="cls-1" d="m16.93,17.54c-.47,0,.06,0-.42,0-.26,0-.42-.12-.42-.33,0-.21.15-.34.41-.34.95,0,.91,0,1.86,0,.25,0,.4.13.4.33,0,.21-.15.34-.41.34-.48,0-.95,0-1.43,0Z"/>
      <path class="cls-1" d="m16.93,18.21c.48,0,.95,0,1.43,0,.25,0,.4.13.41.33,0,.21-.15.34-.41.34-.95,0-.91,0-1.86,0-.25,0-.4-.13-.4-.33,0-.21.15-.34.41-.34.48,0-.05,0,.43,0Z"/>
      <path class="cls-1" d="m16.91,20.24c-.47,0,.06,0-.42,0-.25,0-.41-.14-.41-.35,0-.2.16-.33.41-.33.95,0,.91,0,1.86,0,.25,0,.4.13.41.33,0,.21-.15.34-.41.35-.48,0-.97,0-1.45,0Z"/>
      <g>
        <path class="cls-1" d="m21.05,10.41c-.1,0-.2,0-.3,0-.08-.14-.16-.27-.24-.41-.22-.37-.55-.55-.98-.55-.59,0-1.18,0-1.76,0-.43,0-.75.19-.98.55-.08.14-.17.27-.25.41-.11,0-.21,0-.32,0h-.06c-.2,0-.34.14-.34.33,0,.16.11.28.26.32-.16.24-.25.5-.26.78,0,.34,0,.69,0,1.04,0,.35.26.64.59.68.1.01.21.02.32.02.09,0,.18,0,.27-.01.3-.03.54-.24.61-.54,0,0,0-.02,0-.03h2.06c.07.32.3.53.62.57.11.01.21,0,.32,0h.11c.43,0,.74-.31.74-.74v-.32c0-.19,0-.38,0-.57,0-.32-.08-.61-.26-.87.15-.03.25-.16.26-.31,0-.09-.03-.17-.09-.23-.06-.07-.15-.1-.25-.1h-.07Zm-.24,2.42c0,.06-.02.08-.08.08-.07,0-.13,0-.2,0-.1,0-.21.03-.22-.07v-.17c0-.19-.14-.33-.33-.34-.07,0-.13,0-.2,0h-2.45c-.23,0-.36.13-.36.36v.15s0,.06-.06.06c-.13,0-.26,0-.39,0-.03,0-.05-.02-.05-.05,0-.34,0-.68,0-1.02,0-.12.03-.23.09-.33.06-.1.13-.2.2-.3l.02-.03.05.04c.24.15.51.23.79.23h1.99c.29,0,.56-.08.81-.24l.04-.03c.18.23.34.46.33.77,0,.2,0,.4,0,.6,0,.09,0,.19,0,.28Zm-1.2-2.03h0c-.32,0-.64,0-.96,0s-.64,0-.96,0h0c-.18,0-.34-.05-.51-.16l.03-.05c.07-.12.14-.23.22-.34.07-.09.18-.14.32-.14.61,0,1.22,0,1.82,0,.15,0,.27.06.36.19.07.1.13.2.19.31l.02.04c-.16.11-.33.16-.51.16Z"/>
        <path class="cls-1" d="m17.08,11.56h0c-.18,0-.32.14-.33.32,0,.18.14.33.32.34h0c.09,0,.17-.03.23-.09.06-.06.1-.15.1-.23,0-.18-.14-.33-.32-.33Z"/>
        <path class="cls-1" d="m20.17,11.56h0c-.18,0-.32.14-.33.32,0,.09.03.17.09.24.06.06.15.1.23.1.18,0,.33-.15.33-.33,0-.18-.14-.33-.32-.33Z"/>
      </g>
    </g>
  </g>
  <g>
    <path class="cls-1" d="m7.86,20c.38,0,.69.05.94.15.25.1.43.25.55.45.12.2.18.44.18.72v.07h-.85v-.06c0-.14-.02-.25-.07-.33-.05-.08-.13-.13-.25-.17s-.3-.05-.53-.05c-.25,0-.41.03-.49.08-.08.05-.12.15-.12.28,0,.09.01.16.04.21.03.05.08.1.16.14s.22.07.4.1l.68.12c.25.04.45.11.6.21.16.1.27.22.34.37s.11.32.11.52-.05.39-.15.57c-.1.18-.27.32-.5.44-.23.11-.53.17-.89.17s-.67-.06-.9-.17c-.23-.12-.4-.27-.51-.48-.11-.2-.16-.43-.16-.69v-.05h.86v.06c0,.13.02.24.06.32.04.08.12.13.23.17.11.03.26.05.45.05.25,0,.42-.03.51-.08.09-.06.14-.15.14-.27,0-.08-.02-.15-.05-.19-.03-.05-.09-.09-.16-.11-.08-.03-.19-.06-.34-.09l-.69-.13c-.27-.05-.48-.13-.64-.24s-.27-.24-.34-.4-.1-.33-.1-.51c0-.2.05-.4.15-.58.1-.18.26-.32.48-.43s.51-.16.88-.16Zm-.32,3.57h.8v.94h-.8v-.94Zm0-4.09h.8v.94h-.8v-.94Z"/>
    <g>
      <path class="cls-1" d="m7.94,5.74c.21,0,.38.17.38.38v11.29c0,.21-.17.38-.38.38s-.38-.17-.38-.38V6.12c0-.21.17-.38.38-.38Z"/>
      <path class="cls-1" d="m7.94,5.49c.11,0,.21.05.28.13l1.44,1.63c.14.16.12.39-.03.53-.16.14-.39.12-.53-.03l-1.16-1.31-1.16,1.31c-.14.15-.37.17-.53.03-.16-.14-.17-.37-.03-.53l1.44-1.63c.07-.08.17-.13.28-.13Z"/>
    </g>
  </g>
</svg>