<?xml version="1.0" encoding="utf-8"?>
<!-- Generator: Adobe Illustrator 27.5.0, SVG Export Plug-In . SVG Version: 6.00 Build 0)  -->
<svg version="1.1" id="Camada_1" xmlns="http://www.w3.org/2000/svg" xmlns:xlink="http://www.w3.org/1999/xlink" x="0px" y="0px"
	 viewBox="0 0 30 30" style="enable-background:new 0 0 30 30;" xml:space="preserve">
<style type="text/css">
	.st0{fill:#DB334F;}
	.st1{fill:none;}
</style>
<g>
	<path class="st0" d="M12.37,13.07c2.36,0.43,4.39-1.61,3.92-3.96c-0.26-1.3-1.34-2.36-2.64-2.6c-2.35-0.43-4.38,1.6-3.91,3.95
		C9.99,11.77,11.06,12.83,12.37,13.07z M13.36,7.19c1.04,0,2.16,1.11,2.25,2.23h-2.25V7.19z M12.66,7.18c0,0.76,0,1.51,0,2.26
		c0,0.38,0.31,0.7,0.7,0.7c0.66,0,1.33,0,1.99,0c0.08,0,0.17,0,0.25,0c0.04,1.06-1.18,2.23-2.37,2.29
		c-1.52,0.08-2.76-0.98-2.87-2.46C10.26,8.59,11.32,7.29,12.66,7.18z"/>
	<path class="st0" d="M17.85,19.33c-0.86,0-1.73,0-2.59,0c-0.87,0-1.74,0-2.61,0c-0.36,0-0.65,0.29-0.65,0.65
		c-0.01,0.97-0.01,1.94,0,2.91c0,0.36,0.3,0.66,0.66,0.66c1.73,0,3.45,0,5.18,0c0.37,0,0.67-0.3,0.67-0.67c0-0.96,0-1.93,0-2.89
		C18.51,19.63,18.21,19.33,17.85,19.33z M17.8,22.85H12.7v-2.81h5.09V22.85z"/>
	<path class="st0" d="M23.12,23.73c0-0.12,0-0.22,0-0.32c0-6.04,0-12.07,0-18.11c0-0.14,0-0.28-0.03-0.41
		c-0.12-0.58-0.58-0.92-1.21-0.92c-4.12,0-13.59,0-13.68,0c-0.83,0-1.32,0.54-1.32,1.31C6.89,10,6.89,24.12,6.89,24.69
		c0,0.9,0.45,1.35,1.35,1.35c4.51,0,9.02,0,13.53,0c0.08,0,0.15,0,0.23,0c0.62-0.03,1.1-0.52,1.12-1.14c0-0.15,0-0.3,0-0.48
		c0,0,0,0,0,0L23.12,23.73C23.12,23.73,23.12,23.73,23.12,23.73z M22.43,24.74c0,0.65-0.32,0.68-1.4,0.53c-4.06,0-8.06,0-12.12,0
		c-1.01,0.16-1.33,0.1-1.33-0.54c0-0.93,0-14.65,0-19.47c0-0.34,0.27-0.6,0.61-0.6l13.63,0c0.33,0,0.61,0.27,0.61,0.61V24.74z"/>
	<path class="st0" d="M20.74,14.47h-4.47c-0.18,0-0.33-0.15-0.33-0.33v0c0-0.18,0.15-0.33,0.33-0.33h4.47
		c0.18,0,0.33,0.15,0.33,0.33v0C21.06,14.32,20.92,14.47,20.74,14.47z"/>
	<path class="st0" d="M20.74,15.99h-4.47c-0.18,0-0.33-0.15-0.33-0.33l0,0c0-0.18,0.15-0.33,0.33-0.33h4.47
		c0.18,0,0.33,0.15,0.33,0.33l0,0C21.06,15.84,20.92,15.99,20.74,15.99z"/>
	<path class="st0" d="M20.74,17.49h-4.47c-0.18,0-0.33-0.15-0.33-0.33v0c0-0.18,0.15-0.33,0.33-0.33h4.47
		c0.18,0,0.33,0.15,0.33,0.33v0C21.06,17.35,20.92,17.49,20.74,17.49z"/>
	<path class="st0" d="M14.45,15.99H9.99c-0.18,0-0.33-0.15-0.33-0.33l0,0c0-0.18,0.15-0.33,0.33-0.33h4.47
		c0.18,0,0.33,0.15,0.33,0.33l0,0C14.78,15.84,14.63,15.99,14.45,15.99z"/>
	<path class="st0" d="M14.45,17.49H9.99c-0.18,0-0.33-0.15-0.33-0.33v0c0-0.18,0.15-0.33,0.33-0.33h4.47c0.18,0,0.33,0.15,0.33,0.33
		v0C14.78,17.35,14.63,17.49,14.45,17.49z"/>
</g>
</svg>
