<?xml version="1.0" encoding="utf-8"?>
<!-- Generator: Adobe Illustrator 27.5.0, SVG Export Plug-In . SVG Version: 6.00 Build 0)  -->
<svg version="1.1" id="Camada_1" xmlns="http://www.w3.org/2000/svg" xmlns:xlink="http://www.w3.org/1999/xlink" x="0px" y="0px"
	 viewBox="0 0 30 30" style="enable-background:new 0 0 30 30;" xml:space="preserve">
<style type="text/css">
	.st0{fill:#DB334F;}
	.st1{fill:none;}
</style>
<g>
	<path class="st0" d="M23.93,8.76c-0.02-0.22-0.16-0.36-0.35-0.35c-0.19,0-0.33,0.15-0.34,0.36c0,0.08,0,0.15,0,0.23
		c0,4.96,0,9.91,0,14.87c0,0.09,0.01,0.19-0.01,0.28c-0.04,0.22-0.16,0.37-0.39,0.4c-0.16,0.02-0.33,0-0.52,0c0-0.12,0-0.22,0-0.32
		c0-6.04,0-12.07,0-18.11c0-0.14,0-0.28-0.03-0.41c-0.12-0.58-0.58-0.92-1.21-0.92c-4.13,0-8.25,0-12.38,0c-0.1,0-0.2,0-0.3,0
		C8.39,4.7,8.27,3.87,9.08,3.87c4.51,0,9.02,0,13.53,0c0.46,0,0.62,0.16,0.62,0.61c0,0.86,0,1.71,0,2.57c0,0.27,0.13,0.43,0.34,0.43
		c0.21,0,0.35-0.16,0.35-0.43c0-0.89,0-1.79,0-2.68c0-0.29,0-1.19-0.92-1.19c-5.35,0-13.78-0.11-14.47,0.04
		C7.96,3.35,7.7,3.81,7.69,4.4c0,0.12,0,0.21,0,0.36C6.14,4.77,6.07,5.18,6.07,6.1c0,4.84,0.01,9.68,0.01,14.53v2.24h0
		c0,0.88,0,1.76,0,2.64c0,0.9,0.45,1.35,1.35,1.35c4.51,0,9.02,0,13.53,0c0.08,0,0.15,0,0.23,0c0.62-0.03,1.1-0.52,1.12-1.14
		c0-0.15,0-0.3,0-0.48c0.22,0,0.42,0.02,0.6,0c0.58-0.06,1.01-0.57,1.01-1.22c0-5.05,0-10.1,0-15.15
		C23.93,8.84,23.93,8.8,23.93,8.76z M21.62,25.56c0,0.45-0.16,0.61-0.61,0.61c-4.54,0-9.08,0-13.63,0c-0.45,0-0.61-0.16-0.61-0.62
		c0-0.89,0-4.97,0-4.97c0,0,0-9.66,0-14.48c0-0.46,0.15-0.61,0.61-0.61c4.54,0,9.08,0,13.63,0c0.46,0,0.61,0.15,0.61,0.6
		C21.62,12.58,21.62,19.07,21.62,25.56z"/>
	<path class="st0" d="M11.13,13.22c1.85,0,3.36-1.5,3.36-3.34c0-1.84-1.5-3.33-3.34-3.34c-1.84,0-3.35,1.48-3.35,3.32
		C7.78,11.72,9.28,13.22,11.13,13.22z M11.49,7.29c1.04,0,2.16,1.11,2.25,2.23c-0.74,0-1.49,0-2.25,0
		C11.49,8.76,11.49,8.02,11.49,7.29z M10.79,7.27c0,0.83,0,1.65,0,2.47c0,0.39,0.1,0.49,0.49,0.49c0.73,0,1.46,0,2.2,0
		c0.08,0,0.17,0,0.25,0c0.04,1.06-1.18,2.23-2.37,2.29c-1.52,0.08-2.76-0.98-2.87-2.46C8.39,8.69,9.45,7.39,10.79,7.27z"/>
	<path class="st0" d="M19.95,13.95c-0.86,0-1.73,0-2.59,0c-0.87,0-1.74,0-2.61,0c-0.43,0-0.65,0.2-0.65,0.63
		c-0.01,0.98-0.01,1.96,0,2.94c0,0.44,0.22,0.65,0.66,0.65c1.73,0,3.45,0,5.18,0c0.46,0,0.67-0.21,0.67-0.66c0-0.96,0-1.93,0-2.89
		C20.61,14.15,20.41,13.95,19.95,13.95z M19.9,17.46c-1.71,0-3.39,0-5.09,0c0-0.94,0-1.86,0-2.81c1.7,0,3.39,0,5.09,0
		C19.9,15.59,19.9,16.51,19.9,17.46z"/>
	<path class="st0" d="M9.2,18.72c-0.25,0-0.49,0-0.74,0c-0.45,0-0.67,0.22-0.67,0.66c0,0.75,0,1.5,0,2.24c0,0.77,0,1.54,0,2.31
		c0,0.38,0.23,0.6,0.6,0.61c0.29,0,0.57,0,0.86,0c0.38-0.01,0.6-0.22,0.61-0.6c0.01-0.19,0-0.39,0-0.58c0-1.33,0-2.65,0-3.98
		C9.86,18.94,9.64,18.73,9.2,18.72z M9.15,23.84c-0.21,0-0.42,0-0.65,0c0-1.46,0-2.93,0-4.42c0.22,0,0.43,0,0.65,0
		C9.15,20.9,9.15,22.36,9.15,23.84z"/>
	<path class="st0" d="M11.85,19.97c-0.31-0.01-0.62-0.01-0.92,0c-0.33,0.01-0.54,0.2-0.57,0.52c-0.01,0.14-0.01,0.28-0.01,0.42
		c0,0.99,0,1.97,0,2.96c0,0.49,0.2,0.69,0.68,0.69c0.25,0,0.49,0,0.74,0c0.43,0,0.64-0.21,0.64-0.64c0-0.55,0-1.09,0-1.64
		c0-0.58,0-1.16,0-1.73C12.41,20.2,12.19,19.97,11.85,19.97z M11.71,23.84c-0.21,0-0.42,0-0.65,0c0-1.05,0-2.1,0-3.18
		c0.22,0,0.43,0,0.65,0C11.71,21.72,11.71,22.78,11.71,23.84z"/>
	<path class="st0" d="M14.4,21.5c-0.3-0.01-0.6-0.01-0.9,0c-0.36,0.01-0.58,0.23-0.58,0.6c0,0.31,0,0.62,0,0.92
		c0,0.31,0,0.62,0,0.92c0.01,0.38,0.22,0.6,0.61,0.6c0.29,0,0.59,0.01,0.88,0c0.33-0.01,0.56-0.21,0.57-0.54
		c0.01-0.65,0.01-1.31,0-1.96C14.96,21.71,14.74,21.51,14.4,21.5z M14.27,23.84c-0.21,0-0.42,0-0.65,0c0-0.54,0-1.08,0-1.64
		c0.22,0,0.43,0,0.65,0C14.27,22.75,14.27,23.28,14.27,23.84z"/>
	<path class="st0" d="M15.55,10.34c1.43,0,2.87,0,4.3,0c0.26,0,0.42-0.13,0.41-0.33c0-0.2-0.16-0.31-0.43-0.31
		c-0.72,0-1.43,0-2.15,0c-0.72,0-1.45,0-2.17,0c-0.24,0-0.37,0.12-0.37,0.32C15.14,10.23,15.28,10.34,15.55,10.34z"/>
	<path class="st0" d="M15.53,8.83c0.72,0,1.45,0,2.17,0c0.73,0,1.46,0,2.2,0c0.23,0,0.37-0.14,0.37-0.32c0-0.18-0.14-0.3-0.36-0.32
		c-0.05,0-0.09,0-0.14,0c-1.38,0-2.76,0-4.14,0c-0.08,0-0.17,0-0.25,0.02C15.2,8.25,15.1,8.42,15.15,8.6
		C15.2,8.78,15.35,8.83,15.53,8.83z"/>
	<path class="st0" d="M8.56,14.98c-0.27,0-0.41,0.11-0.41,0.32c0,0.21,0.14,0.32,0.42,0.32c0.71,0,1.42,0,2.13,0
		c0.72,0,1.45,0,2.17,0c0.26,0,0.4-0.11,0.4-0.31c0.01-0.21-0.14-0.33-0.4-0.33C11.42,14.97,9.99,14.97,8.56,14.98z"/>
	<path class="st0" d="M19.77,11.21c-1.38,0-2.76,0-4.14,0c-0.08,0-0.17-0.02-0.23,0.02c-0.1,0.07-0.22,0.17-0.25,0.28
		c-0.05,0.16,0.06,0.28,0.22,0.33c0.08,0.02,0.17,0.02,0.25,0.02c0.69,0,1.39,0,2.08,0c0.69,0,1.39,0,2.08,0
		c0.08,0,0.19,0.02,0.25-0.03c0.1-0.08,0.21-0.19,0.23-0.31c0.02-0.15-0.09-0.27-0.26-0.3C19.92,11.21,19.84,11.21,19.77,11.21z"/>
	<path class="st0" d="M15.88,21.87c1.32,0,2.63,0,3.95,0c0.28,0,0.44-0.12,0.43-0.33c-0.01-0.2-0.16-0.31-0.43-0.31
		c-0.66,0-1.32,0-1.99,0c-0.65,0-1.31,0-1.96,0c-0.29,0-0.43,0.11-0.43,0.33C15.46,21.76,15.6,21.87,15.88,21.87z"/>
	<path class="st0" d="M15.86,20.28c1.33,0,2.66,0,4,0c0.25,0,0.4-0.12,0.4-0.32c0.01-0.2-0.15-0.33-0.41-0.33c-0.66,0-1.32,0-1.99,0
		c-0.67,0-1.34,0-2.01,0c-0.26,0-0.4,0.11-0.4,0.31C15.45,20.16,15.6,20.28,15.86,20.28z"/>
	<path class="st0" d="M19.85,22.8c-1.33,0-2.66,0-4,0c-0.26,0-0.4,0.11-0.4,0.31c-0.01,0.21,0.13,0.33,0.4,0.33
		c0.66,0,1.32,0,1.99,0c0.67,0,1.34,0,2.01,0c0.25,0,0.4-0.12,0.41-0.31C20.27,22.94,20.12,22.8,19.85,22.8z"/>
	<path class="st0" d="M8.56,16.48c-0.27,0-0.41,0.11-0.41,0.32c0,0.21,0.14,0.32,0.42,0.32c0.71,0,1.42,0,2.13,0
		c0.72,0,1.45,0,2.17,0c0.26,0,0.4-0.11,0.4-0.31c0.01-0.21-0.14-0.33-0.4-0.33C11.42,16.48,9.99,16.48,8.56,16.48z"/>
</g>
</svg>
