<?xml version="1.0" encoding="UTF-8"?>
<svg id="icones" xmlns="http://www.w3.org/2000/svg" viewBox="0 0 30 30">
  <defs>
    <style>
      .cls-1 {
        fill: #db334f;
      }
    </style>
  </defs>
  <g>
    <path class="cls-1" d="m23.67,13.92c0,.18,0,.34,0,.5-.01.5-.37.86-.86.89-.04,0-.09,0-.13,0-3.2,0-6.4,0-9.6,0-.3,0-.56-.07-.77-.3-.16-.18-.23-.39-.23-.63,0-1.37,0-2.74,0-4.11,0-.58.37-.93.95-.93.39,0,.78,0,1.19,0,.05-.35.1-.69.15-1.04.04-.28.07-.55.12-.83.08-.47.5-.8.98-.74,1.05.14,2.1.29,3.15.44,1.38.19,2.76.39,4.14.58.81.11,1.62.22,2.43.35.54.08.85.51.77,1.06-.19,1.36-.38,2.71-.57,4.07-.08.54-.51.87-1.06.79-.21-.03-.42-.06-.65-.09Zm-10.98-.93c.15,0,.28,0,.42,0,.97,0,1.76.62,1.99,1.56.03.14.09.17.22.17,1.71,0,3.42,0,5.13,0,.13,0,.18-.04.21-.17.23-.86.78-1.37,1.65-1.53.25-.04.5-.03.76-.05v-1.32c-.57.03-1.11-.01-1.59-.35-.47-.33-.75-.79-.86-1.35h-5.48c-.11.58-.39,1.03-.86,1.36-.47.34-1.02.38-1.58.35v1.34Zm10.98.32c.26.04.49.07.73.1.22.03.35-.06.39-.29.19-1.36.39-2.72.58-4.08.03-.2-.08-.34-.3-.37-.88-.13-1.77-.25-2.65-.37-1.56-.22-3.11-.44-4.67-.66-.77-.11-1.53-.21-2.3-.32-.23-.03-.34.06-.38.28-.02.11-.03.22-.05.33-.06.46-.13.92-.19,1.4.09,0,.17,0,.24,0,2.54,0,5.08,0,7.62,0,.62,0,.98.36.98.98,0,.93,0,1.86,0,2.79,0,.07,0,.13,0,.21Zm-10.99-2.27c.98.1,1.79-.39,1.82-1.11-.51,0-1.03,0-1.54,0-.17,0-.27.11-.28.27-.01.28,0,.55,0,.84Zm0,2.55c0,.29-.01.58,0,.87,0,.16.12.24.28.25.15,0,.3,0,.45,0,.36,0,.73,0,1.1,0-.09-.76-.88-1.24-1.82-1.12Zm10.39-2.55c0-.26,0-.5,0-.75,0-.26-.1-.36-.36-.36-.45,0-.9,0-1.36,0-.04,0-.08.01-.12.02.14.77.85,1.19,1.83,1.1Zm0,2.55c-1.02-.07-1.82.43-1.82,1.12.51,0,1.03,0,1.54,0,.17,0,.27-.11.27-.27.01-.28,0-.55,0-.84Z"/>
    <path class="cls-1" d="m12.83,17.35c.42-.19.82-.4,1.24-.55.79-.27,1.61-.29,2.41-.03.4.13.78.13,1.18.06.8-.14,1.61-.27,2.42-.39.69-.11,1.29.08,1.78.59.03.03.06.06.09.09,0,0,.01,0,.03.02.43-.33.86-.67,1.29-1.01.19-.15.37-.31.57-.44.7-.48,1.44-.56,2.22-.22.41.18.48.58.16.88-1.54,1.48-3.07,2.96-4.62,4.42-.81.77-1.79,1.03-2.89.93-1.23-.11-2.46-.19-3.69-.29-.31-.02-.57.06-.81.25-.12.1-.25.2-.38.3-.18.14-.35.27-.43.51-.1.27-.34.42-.63.47-.46.07-.93.14-1.4.2-.51.06-.92-.26-1-.78-.21-1.42-.42-2.84-.62-4.26-.08-.58.22-1,.8-1.09.44-.07.88-.14,1.32-.19.38-.04.68.11.88.44.03.05.05.1.06.11Zm8.92.63c-.02-.06-.03-.1-.04-.14-.25-.59-.85-.92-1.53-.82-.73.11-1.46.23-2.18.35-.58.1-1.14.13-1.73-.04-1.14-.33-2.2-.08-3.17.61-.1.07-.14.14-.11.28.09.56.16,1.11.24,1.67.08.52.15,1.05.23,1.6.13-.1.24-.17.34-.26.39-.33.83-.47,1.34-.42,1.2.1,2.4.18,3.59.29,1.01.09,1.88-.18,2.61-.89,1.42-1.38,2.85-2.74,4.28-4.11.04-.04.08-.08.13-.14-.58-.2-1.11-.14-1.58.22-.61.46-1.2.94-1.8,1.41-.07.06-.09.1-.06.2.15.47-.02.72-.5.79-.43.07-.86.14-1.28.21-.7.11-1.39.23-2.09.34-.23.04-.38-.05-.42-.23-.03-.19.09-.32.33-.36.7-.11,1.41-.23,2.11-.34.43-.07.85-.14,1.29-.22Zm-11.4-.02c.06.41.12.85.19,1.29.14.98.28,1.96.42,2.94.04.29.14.37.42.34.39-.05.77-.11,1.16-.16.34-.05.42-.16.36-.51-.1-.66-.19-1.31-.29-1.97-.11-.74-.21-1.47-.32-2.21-.03-.22-.15-.32-.35-.29-.44.06-.88.12-1.32.19-.19.03-.28.15-.27.37Z"/>
    <path class="cls-1" d="m17.87,14.46c-1.16,0-2.13-.95-2.13-2.11,0-1.22.92-2.15,2.14-2.14,1.21,0,2.12.93,2.12,2.14,0,1.16-.96,2.1-2.13,2.11Zm1.52-2.11c0-.88-.64-1.54-1.51-1.55-.87,0-1.53.66-1.53,1.53,0,.87.66,1.54,1.53,1.54.86,0,1.52-.65,1.52-1.52Z"/>
  </g>
  <g>
    <g>
      <path class="cls-1" d="m5.46,10c-.38,0-.69-.05-.94-.15-.25-.1-.43-.25-.55-.45-.12-.2-.18-.44-.18-.72v-.07h.85v.06c0,.14.02.25.07.33.05.08.13.13.25.17s.3.05.53.05c.25,0,.41-.03.49-.08.08-.05.12-.15.12-.28,0-.09-.01-.16-.04-.21-.03-.05-.08-.1-.16-.14s-.22-.07-.4-.1l-.68-.12c-.25-.04-.45-.11-.6-.21-.16-.1-.27-.22-.34-.37s-.11-.32-.11-.52.05-.39.15-.57c.1-.18.27-.32.5-.44.23-.11.53-.17.89-.17s.67.06.9.17c.23.12.4.27.51.48.11.2.16.43.16.69v.05h-.86v-.06c0-.13-.02-.24-.06-.32-.04-.08-.12-.13-.23-.17-.11-.03-.26-.05-.45-.05-.25,0-.42.03-.51.08-.09.06-.14.15-.14.27,0,.08.02.15.05.19.03.05.09.09.16.11.08.03.19.06.34.09l.69.13c.27.05.48.13.64.24s.27.24.34.4.1.33.1.51c0,.2-.05.4-.15.58-.1.18-.26.32-.48.43s-.51.16-.88.16Zm.32-3.57h-.8v-.94h.8v.94Zm0,4.09h-.8v-.94h.8v.94Z"/>
      <path class="cls-1" d="m5.38,24.26c-.21,0-.38-.17-.38-.38v-11.29c0-.21.17-.38.38-.38s.38.17.38.38v11.29c0,.21-.17.38-.38.38Z"/>
    </g>
    <path class="cls-1" d="m5.38,24.51c-.11,0-.21-.05-.28-.13l-1.44-1.63c-.14-.16-.12-.39.03-.53.16-.14.39-.12.53.03l1.16,1.31,1.16-1.31c.14-.15.37-.17.53-.03.16.14.17.37.03.53l-1.44,1.63c-.07.08-.17.13-.28.13Z"/>
  </g>
</svg>