<?xml version="1.0" encoding="UTF-8"?>
<svg id="icones" xmlns="http://www.w3.org/2000/svg" viewBox="0 0 30 30">
  <defs>
    <style>
      .cls-1 {
        fill: #db334f;
      }
    </style>
  </defs>
  <path class="cls-1" d="m4.79,9.78c.03-.13.06-.26.1-.38.31-1.09,1.29-1.85,2.43-1.88.54-.01,1.09,0,1.63,0,.23,0,.37.12.37.3,0,.19-.13.3-.37.3-.49,0-.98,0-1.48,0-1.24,0-2.08.85-2.08,2.08,0,2.71,0,5.42,0,8.14,0,1.04.69,1.86,1.72,2.01,0-.18,0-.35,0-.53,0-.04-.07-.09-.12-.1-.65-.23-.99-.71-.99-1.4,0-2.71,0-5.42,0-8.14,0-.85.56-1.43,1.41-1.45.05,0,.11,0,.16,0,4.96,0,9.92,0,14.87,0,.23,0,.47.02.68.1.56.19.88.7.88,1.34,0,1.62,0,3.24,0,4.87,0,1.08,0,2.17,0,3.25,0,.91-.56,1.48-1.48,1.49-1.08,0-2.15,0-3.23,0-.06,0-.12,0-.18,0-.15-.03-.26-.13-.24-.27.01-.1.11-.21.19-.29.05-.04.15-.03.23-.03,1.07,0,2.14,0,3.21,0,.59,0,.89-.3.89-.88,0-2.69,0-5.38,0-8.08,0-.57-.3-.87-.87-.88-5.02,0-10.05,0-15.07,0-.56,0-.86.31-.86.86,0,2.7,0,5.4,0,8.1,0,.43.15.67.51.81,0-.08,0-.14,0-.21,0-.58,0-1.17,0-1.75,0-.48.26-.74.74-.74,3.16,0,6.31,0,9.47,0,.49,0,.74.26.74.76,0,.99,0,1.98,0,2.97v.24c.08,0,.15.01.22.01,1.42,0,2.83,0,4.25,0,1.24,0,2.07-.84,2.07-2.08,0-2.69,0-5.38,0-8.08,0-1.25-.84-2.09-2.09-2.09-3.96,0-7.92,0-11.88,0-.09,0-.17,0-.26,0-.15-.02-.24-.11-.25-.27-.01-.15.06-.26.2-.3.07-.02.14-.02.22-.02,4.01,0,8.02,0,12.02,0,1.52,0,2.64,1.13,2.64,2.65,0,2.71,0,5.42,0,8.14,0,1.54-1.11,2.66-2.65,2.67-1.42,0-2.83,0-4.25,0-.07,0-.15,0-.25,0,0,.25,0,.48,0,.72,0,.55-.25.8-.81.8-3.12,0-6.23,0-9.35,0-.55,0-.8-.25-.8-.81,0-.24,0-.48,0-.72-.6-.08-1.12-.31-1.55-.73-.4-.4-.65-.87-.74-1.43,0-.03-.02-.06-.04-.09,0-2.98,0-5.96,0-8.93Zm12.68,10.32c0-.38,0-.76,0-1.14,0-.14-.03-.19-.17-.22-.82-.21-1.35-.72-1.56-1.54-.04-.17-.1-.22-.27-.22-1.91,0-3.83,0-5.74,0-.07,0-.14,0-.21,0-.02.03-.02.04-.03.05-.2.92-.75,1.5-1.67,1.72-.04,0-.1.09-.1.14,0,.95,0,1.9,0,2.85,0,.05.06.13.1.13.34.01.69,0,1.1,0-.12-.24-.22-.43-.32-.61-.1-.17-.08-.34.06-.44.14-.1.33-.07.43.1.14.25.27.52.36.79.05.13.09.17.23.17,1.94,0,3.88,0,5.82,0,.13,0,.19-.03.23-.17.18-.74.64-1.25,1.37-1.51.12-.04.24-.07.37-.1Zm0,.66c-.51.01-1.12.63-1.13,1.13.34,0,.67,0,1.01,0,.04,0,.11-.07.12-.12,0-.34,0-.67,0-1.01Zm-9.73-3.76v1.15c.57-.09,1.1-.64,1.12-1.15h-1.12Zm8.59,0c.04.54.64,1.15,1.14,1.14,0-.34,0-.68,0-1.01,0-.04-.07-.12-.11-.12-.34,0-.69,0-1.03,0Z"/>
  <path class="cls-1" d="m18.81,16.61c.02-1.12.94-2.02,2.04-2,1.13.02,2.03.95,2,2.06-.03,1.11-.96,2.02-2.05,1.99-1.12-.03-2.01-.95-1.99-2.05Zm.6.02c0,.79.63,1.42,1.41,1.42.78,0,1.42-.65,1.42-1.42,0-.77-.63-1.4-1.41-1.41-.78,0-1.42.63-1.42,1.41Z"/>
  <path class="cls-1" d="m15.01,12.93c-1.33,0-2.66,0-3.99,0-.06,0-.12,0-.18,0-.16-.02-.25-.12-.26-.28-.01-.16.08-.26.23-.31.05-.01.11-.01.16-.01,2.69,0,5.38,0,8.07,0,.05,0,.09,0,.14,0,.16.04.26.13.25.31,0,.17-.11.27-.27.29-.06,0-.12,0-.18,0-1.32,0-2.64,0-3.97,0Z"/>
  <path class="cls-1" d="m15,13.67c1.32,0,2.64,0,3.97,0,.07,0,.15,0,.22,0,.15.02.24.12.25.27.01.16-.07.27-.22.31-.07.02-.14.02-.22.02-2.66,0-5.31,0-7.97,0-.07,0-.15,0-.22-.02-.15-.04-.23-.14-.22-.29,0-.16.09-.26.26-.28.07-.01.15,0,.22,0,1.32,0,2.63,0,3.95,0Z"/>
  <path class="cls-1" d="m15,10.79c-.51,0-1.01,0-1.52,0-.23,0-.36-.15-.33-.35.04-.19.18-.25.35-.25.41,0,.82,0,1.24,0,.58,0,1.16,0,1.73,0,.18,0,.33.05.38.25.05.19-.1.35-.33.35-.51,0-1.02,0-1.54,0Z"/>
  <path class="cls-1" d="m14.45,19.43c0,1.03-.83,1.87-1.85,1.87-1.03,0-1.87-.82-1.87-1.85,0-1.04.83-1.89,1.86-1.89,1.03,0,1.86.84,1.86,1.87Zm-.6.01c0-.7-.56-1.27-1.26-1.27-.7,0-1.27.56-1.27,1.26,0,.7.56,1.27,1.26,1.27.7,0,1.27-.56,1.27-1.26Z"/>
</svg>