<?xml version="1.0" encoding="UTF-8"?>
<svg id="icones" xmlns="http://www.w3.org/2000/svg" viewBox="0 0 30 30">
  <defs>
    <style>
      .cls-1 {
        fill: #db334f;
      }
    </style>
  </defs>
  <path class="cls-1" d="m10.51,14.69c-.9,0-1.77,0-2.63,0-.86,0-1.71,0-2.57,0-.29,0-.4-.11-.4-.4,0-1.39,0-2.79,0-4.18,0-.29.11-.4.4-.4.3,0,.6,0,.89,0,.11,0,.23-.04.32-.1.82-.54,1.64-1.09,2.46-1.63.12-.08.27-.13.41-.13,1.16,0,2.32,0,3.48,0,.18,0,.32.06.45.19.5.51,1.02,1.02,1.52,1.53.11.11.21.16.37.16,2.84,0,5.69,0,8.53,0,.37,0,.46.09.46.46,0,2.18,0,4.37,0,6.55,0,.37-.09.46-.46.46-4.26,0-8.53,0-12.79,0-.35,0-.44-.09-.44-.45,0-.61,0-1.22,0-1.83v-.21Zm-4.97-.62h.18c2.4,0,4.81,0,7.21,0,.41,0,.69-.26.69-.63,0-.37-.29-.62-.7-.62-.67,0-1.33,0-2,0-.31,0-.41-.1-.41-.41,0-.76,0-1.52,0-2.27,0-.33.1-.43.43-.43.98,0,1.96,0,2.93,0,.07,0,.13,0,.24,0-.4-.4-.76-.77-1.14-1.13-.06-.06-.18-.11-.27-.11-1.06,0-2.13,0-3.19,0-.1,0-.22.04-.3.1-.77.51-1.55,1.02-2.31,1.54-.24.16-.47.25-.76.23-.2-.02-.41,0-.61,0v3.73Zm18.03-3.72h-12.43v1.84h.61c0-.28,0-.55,0-.82,0-.31.1-.41.41-.41,3.46,0,6.92,0,10.38,0,.31,0,.41.1.41.41,0,1.39,0,2.77,0,4.16,0,.31-.1.41-.4.41-3.47,0-6.93,0-10.4,0-.29,0-.39-.11-.39-.4,0-.28,0-.55,0-.83h-.61v1.84h12.43v-6.2Zm-8.08,3.1c0,1.03.84,1.86,1.87,1.86,1.03,0,1.86-.85,1.86-1.87,0-1.03-.84-1.86-1.87-1.86-1.03,0-1.86.84-1.86,1.87Zm3.52-1.86c.54.53.83,1.14.83,1.86,0,.73-.29,1.33-.82,1.85h3.3v-3.72h-3.31Zm-3.32,3.72c-.55-.53-.83-1.14-.83-1.86,0-.73.29-1.33.82-1.85h-3.3v.61c.2,0,.4,0,.59,0,.72,0,1.27.55,1.27,1.25,0,.7-.55,1.23-1.27,1.24-.19,0-.38,0-.58,0v.61h3.31Z"/>
  <path class="cls-1" d="m16.43,20.01c.13-.5.46-.73.92-.85.77-.21,1.52-.47,2.29-.66.75-.18,1.48-.07,2.16.3.72.39,1.43.79,2.15,1.17.18.09.25.22.25.42,0,1.28,0,2.57,0,3.85,0,.15-.02.28-.17.37-.15.08-.27.02-.4-.06-.71-.44-1.42-.88-2.12-1.33-.14-.09-.27-.13-.43-.13-1.51,0-3.02,0-4.53,0-.17,0-.31-.05-.44-.16-1.2-1.02-2.41-2.04-3.62-3.07-.34-.29-.49-.66-.41-1.11.08-.44.35-.75.78-.89.44-.14.86-.07,1.22.23.71.58,1.42,1.17,2.14,1.75.06.05.12.1.21.17Zm3.09,1.21s-.08,0-.11,0c-.67,0-1.35-.02-2.02,0-.33.01-.59-.09-.84-.3-.95-.8-1.91-1.57-2.87-2.35-.29-.23-.68-.2-.89.06-.2.26-.14.56.16.81,1.14.97,2.28,1.94,3.43,2.9.08.07.22.12.32.12,1.5,0,2.99,0,4.49,0,.19,0,.35.04.51.14.55.35,1.11.7,1.66,1.04.06.04.12.07.2.12,0-1.08,0-2.13,0-3.18,0-.06-.07-.15-.13-.18-.62-.35-1.25-.69-1.87-1.03-.65-.35-1.32-.43-2.03-.22-.71.21-1.41.42-2.12.63-.27.08-.4.25-.37.47.03.23.21.35.5.35.59,0,1.18,0,1.77,0,.07,0,.14,0,.21,0v.61Z"/>
  <path class="cls-1" d="m20.48,8.86c-.04-.1-.05-.2-.08-.3-.13-.49-.44-.83-.9-1.02-.15-.06-.27-.14-.27-.31,0-.17.11-.26.26-.32.49-.19.79-.54.92-1.05.02-.09.04-.18.07-.26.04-.14.14-.23.3-.24.16,0,.26.09.31.24.03.1.05.2.08.3.13.47.43.81.88.99.15.06.29.13.29.32,0,.2-.14.27-.3.34-.45.19-.75.52-.88,1-.03.1-.07.25-.1.34-.07.2-.48.21-.58-.03Zm.83-1.64c-.18-.19-.36-.39-.53-.58-.18.2-.36.4-.53.58.18.2.36.4.53.58.18-.2.36-.39.53-.58Z"/>
  <path class="cls-1" d="m9.89,19.05c0,.21-.12.25-.22.29-.57.22-.89.64-1.01,1.23-.01.06-.04.34-.32.34-.38,0-.35-.36-.37-.46-.06-.46-.44-.89-.94-1.08-.15-.06-.25-.14-.25-.31,0-.16.1-.26.24-.31.52-.2.83-.58.96-1.11.02-.06.03-.13.05-.19.04-.15.14-.25.3-.25.17,0,.27.1.32.26.02.09.04.18.07.26.13.49.44.83.9,1.02.15.06.28.02.28.32Zm-2.09,0c.18.19.36.39.53.58.18-.2.36-.39.53-.58-.18-.2-.36-.4-.53-.58-.18.2-.36.39-.53.58Z"/>
</svg>