<?xml version="1.0" encoding="UTF-8"?>
<svg id="icones" xmlns="http://www.w3.org/2000/svg" viewBox="0 0 30 30">
  <defs>
    <style>
      .cls-1 {
        fill: #db334f;
      }
    </style>
  </defs>
  <path class="cls-1" d="m12.65,19.86c0-.39,0-.74,0-1.09,0-.29.12-.41.4-.41,1.29,0,2.59,0,3.88,0,.3,0,.41.12.41.43,0,.35,0,.7,0,1.08.24-.1.45-.19.66-.28.57-.24,1.15-.47,1.67-.83.22-.15.5-.24.76-.36-.56-.55-.82-1.23-.72-2.02.08-.61.36-1.11.83-1.5.93-.77,2.29-.71,3.15.14.8.79,1.07,2.3-.08,3.42.07.03.13.05.19.08.75.29,1.25.96,1.26,1.77.01,1.47,0,2.94,0,4.41,0,.25-.13.38-.37.38-1.65,0-3.3,0-4.95,0-.26,0-.38-.14-.38-.42,0-.92,0-1.85,0-2.77,0-.08,0-.15,0-.26-.08.02-.14.04-.2.06-.55.18-1.1.38-1.65.55-.13.04-.17.1-.17.24,0,.5,0,1.01,0,1.51,0,.3-.12.42-.42.42-1.29,0-2.57,0-3.86,0-.3,0-.42-.12-.42-.42,0-.51,0-1.02,0-1.53,0-.1,0-.17-.12-.2-.6-.2-1.2-.41-1.81-.61-.02,0-.04,0-.09,0,0,.07,0,.15,0,.22,0,.92,0,1.83,0,2.75,0,.36-.11.46-.46.46-1.6,0-3.19,0-4.79,0-.36,0-.46-.11-.46-.46,0-1.38,0-2.77,0-4.15,0-.98.46-1.64,1.38-1.98.02,0,.05-.03.07-.04-1.18-1.16-.85-2.68-.06-3.43.9-.86,2.26-.89,3.2-.08.79.68,1.27,2.24.09,3.46.48.26.96.56,1.46.8.51.25,1.03.45,1.58.68Zm-3.98-.82c.07.52.14,1.03.22,1.54.05.32.05.61-.1.91-.19.41-.35.84-.51,1.26-.06.16-.15.29-.34.29-.19,0-.28-.12-.35-.28-.16-.41-.31-.82-.5-1.22-.15-.33-.17-.64-.11-.99.09-.49.14-.99.21-1.49-.89-.16-1.61.43-1.62,1.3,0,1.3,0,2.6,0,3.9,0,.04,0,.08,0,.12h4.35c0-.09,0-.17,0-.24,0-.96,0-1.93,0-2.89,0-.37.18-.51.54-.39.62.21,1.24.42,1.86.63.09.03.18.06.29.09,0-.3,0-.56,0-.83,0-.13-.05-.18-.16-.23-.89-.4-1.82-.71-2.64-1.26-.34-.23-.76-.27-1.18-.21Zm11.36,5.34h4.36c0-.06,0-.11,0-.16,0-1.28,0-2.56,0-3.84,0-.89-.7-1.47-1.6-1.32,0,.04,0,.08,0,.12.07.47.14.94.19,1.41.02.22.06.46,0,.65-.17.52-.4,1.01-.6,1.52-.06.16-.16.29-.34.29-.19,0-.28-.12-.34-.29-.2-.51-.41-1.01-.6-1.52-.04-.09-.06-.2-.05-.3.02-.22.06-.44.09-.66.06-.41.12-.82.17-1.24-.55-.07-1.01.09-1.45.36-.3.19-.62.35-.94.5-.52.24-1.05.46-1.57.68v.98c.09-.03.16-.04.23-.07.63-.21,1.27-.43,1.9-.65.17-.06.34-.09.45.08.06.08.08.21.08.31,0,1.04,0,2.08,0,3.14Zm-6.71-.67h3.33v-4.68h-3.33v4.68Zm-7-6.7c.1.78.87,1.38,1.71,1.34.75-.03,1.5-.68,1.53-1.34-.6.02-1.14-.17-1.62-.54-.48.39-1.03.54-1.62.54Zm15.71-.54c-.48.39-1.03.54-1.62.55.11.79.9,1.39,1.74,1.34.75-.05,1.48-.7,1.49-1.34-.6.02-1.13-.16-1.61-.54Zm1.63-.13c-.12-.78-.87-1.37-1.7-1.34-.75.03-1.49.66-1.54,1.33.5.03.92-.13,1.28-.46.29-.26.39-.26.69,0,.36.33.77.48,1.28.46Zm-17.34,0c.49.03.9-.12,1.26-.44.34-.3.4-.3.73,0,.36.32.77.48,1.26.44-.1-.72-.81-1.32-1.58-1.33-.81-.02-1.53.55-1.67,1.33Zm1.65,2.7s-.04,0-.05,0c-.02.06-.04.12-.05.19-.07.5-.13,1.01-.22,1.51-.07.4.17.69.29,1.08.08-.21.13-.36.21-.5.12-.22.11-.45.07-.69-.07-.44-.13-.88-.19-1.32-.01-.09-.04-.18-.06-.27Zm14.08,2.78c.1-.25.18-.44.25-.63.03-.09.07-.19.06-.28-.07-.57-.15-1.13-.23-1.7,0-.06-.03-.12-.05-.18-.02,0-.04,0-.05,0-.02.08-.03.16-.05.24-.07.45-.13.91-.19,1.37-.02.14-.05.3-.01.43.06.23.17.45.29.74Z"/>
  <path class="cls-1" d="m10.54,13.22c.04-.1.07-.19.11-.28.07-.15.12-.31.21-.43.18-.24.07-.45-.03-.66-.03-.05-.1-.09-.16-.12-.26-.09-.52-.17-.77-.26-.18-.06-.27-.18-.27-.37,0-.53,0-1.06,0-1.59,0-.2.1-.32.29-.38.24-.07.48-.16.72-.24.25-.09.4-.43.29-.67-.1-.21-.19-.42-.3-.62-.08-.16-.07-.3.04-.45.34-.45.73-.85,1.18-1.18.14-.1.28-.12.43-.05.23.11.45.22.68.32.19.09.55-.07.62-.27.09-.25.17-.5.25-.76.06-.19.18-.28.39-.28.52,0,1.05,0,1.57,0,.21,0,.34.1.4.3.07.24.16.48.24.72.07.22.46.38.67.28.21-.1.42-.19.62-.3.16-.08.3-.07.45.04.45.34.85.73,1.18,1.18.1.14.12.28.05.43-.08.17-.15.35-.25.51-.11.19-.11.35-.02.55.07.15.14.24.3.28.22.06.42.14.64.2.22.06.32.2.31.43,0,.51,0,1.02,0,1.53,0,.21-.09.34-.29.41-.25.08-.49.16-.74.24-.19.06-.36.45-.28.63.1.22.2.43.3.64.09.17.09.33-.04.46-.38.39-.76.77-1.15,1.16-.15.15-.32.14-.5.04-.19-.1-.38-.18-.57-.27-.25-.12-.62.04-.7.3-.08.23-.16.46-.23.7-.06.19-.18.29-.39.28-.52,0-1.05,0-1.57,0-.21,0-.34-.1-.4-.3-.07-.24-.16-.48-.24-.72-.08-.24-.43-.39-.66-.28-.21.1-.42.19-.62.3-.17.09-.31.07-.47-.04-.45-.33-.84-.72-1.16-1.17-.05-.07-.08-.16-.13-.24Zm8.16-.06s-.03-.08-.05-.12c-.08-.16-.14-.33-.24-.49-.12-.21-.13-.41,0-.63.08-.14.11-.32.2-.46.07-.12.17-.23.29-.29.21-.1.45-.15.67-.24.06-.02.12-.11.13-.17.01-.31,0-.62,0-.92,0-.11-.04-.16-.14-.19-.21-.06-.42-.14-.64-.21-.17-.05-.27-.15-.33-.32-.06-.19-.17-.36-.22-.54-.04-.14-.04-.3,0-.43.06-.2.17-.4.27-.59.05-.1.05-.18-.04-.26-.21-.2-.42-.41-.62-.62-.08-.09-.16-.08-.26-.03-.19.1-.38.21-.59.28-.13.04-.29.04-.42,0-.2-.05-.4-.14-.58-.24-.11-.06-.22-.17-.28-.28-.1-.21-.15-.45-.24-.67-.02-.06-.11-.13-.17-.13-.31-.01-.63-.01-.94,0-.06,0-.14.07-.16.13-.08.2-.14.41-.21.61-.13.37-.96.74-1.32.57-.2-.09-.39-.19-.59-.27-.06-.02-.17-.02-.22.02-.23.21-.44.42-.65.65-.04.05-.05.16-.03.22.08.21.19.41.28.61.12.25-.19,1.13-.44,1.25-.05.02-.1.04-.16.06-.2.07-.39.14-.6.2-.11.03-.14.08-.14.19,0,.3,0,.6,0,.9,0,.12.04.17.15.2.22.06.44.14.66.22.27.1.66.95.55,1.22-.01.04-.04.08-.05.11-.08.18-.16.36-.25.53-.05.1-.06.18.03.26.22.21.42.43.64.63.05.04.17.05.23.02.2-.08.39-.18.59-.27.26-.12,1.13.18,1.25.43.02.05.04.1.06.16.07.2.14.4.2.6.03.1.07.15.19.15.31,0,.62,0,.92,0,.06,0,.15-.07.17-.12.08-.19.15-.39.2-.59.06-.21.17-.34.38-.4.16-.04.32-.11.46-.19.18-.1.34-.09.52,0,.18.1.36.19.55.26.07.03.18.02.23-.03.22-.2.43-.42.64-.63.03-.03.06-.08.08-.12Z"/>
  <path class="cls-1" d="m16,21.06v.64h-2v-.64h2Z"/>
  <path class="cls-1" d="m14,23.04v-.65h1.99v.65h-1.99Z"/>
  <path class="cls-1" d="m14,20.36v-.65h2v.65h-2Z"/>
  <path class="cls-1" d="m14.99,7.28c1.67,0,3.03,1.36,3.03,3.03,0,1.66-1.36,3.01-3.02,3.02-1.67,0-3.03-1.36-3.03-3.03,0-1.66,1.36-3.01,3.02-3.01Zm2.35,3.02c0-1.29-1.06-2.35-2.35-2.35-1.29,0-2.35,1.06-2.35,2.35,0,1.29,1.06,2.35,2.35,2.35,1.29,0,2.35-1.06,2.35-2.35Z"/>
</svg>