<?xml version="1.0" encoding="UTF-8"?>
<svg id="icones" xmlns="http://www.w3.org/2000/svg" viewBox="0 0 30 30">
  <defs>
    <style>
      .cls-1 {
        fill: #db334f;
      }
    </style>
  </defs>
  <path class="cls-1" d="m7.13,5.96h12.4c.42,0,.76.34.76.76,0,1.6,0,5.23,0,5.9,0,.3-.14.47-.39.47-.24,0-.38-.18-.38-.48,0-.76,0-5.09,0-5.86H7.15v16.09h9.46c-.03-.06-.06-.12-.09-.18-.52-1.02-.68-2.1-.5-3.23.01-.09,0-.22-.05-.29-.29-.49-.59-.98-.89-1.46-.09-.15-.15-.3-.05-.47.09-.16.24-.19.41-.19.51,0,1.02,0,1.52,0,.13,0,.25-.06.34-.15.57-.62,1.25-1.07,2.05-1.34.15-.05.18-.12.17-.26,0-.89,0-1.79,0-2.68,0-.25.11-.41.31-.45.26-.05.46.13.46.42,0,.84,0,1.67,0,2.51,0,.07,0,.14,0,.22.7-.08,1.38-.05,2.04.12,2.34.61,3.89,2.66,3.78,5.07-.13,2.91-2.5,5.13-5.56,4.91-1.26-.09-2.35-.8-3.29-1.66-.08-.08-.17-.1-.28-.1-2.73,0-8.04,0-9.93-.01-.38,0-.69-.31-.69-.69V6.72c0-.42.34-.76.76-.76Zm8.94,11.82c.04.07.05.1.07.13.2.32.39.65.6.97.1.16.14.32.09.51-.11.47-.12.94-.06,1.42.23,1.91,1.6,3.44,3.5,3.75,3.26.54,5.9-2.48,4.84-5.63-.48-1.45-1.76-2.53-3.26-2.84-1.59-.33-2.97.19-4.1,1.44-.15.17-.37.26-.6.25-.35-.01-.69,0-1.08,0Z"/>
  <path class="cls-1" d="m9.53,10.23c-.23-.88-.08-1.47.46-1.83.45-.3,1.07-.29,1.5.03.51.38.65,1,.4,1.79.09.04.17.07.26.12.49.27.75.68.77,1.25,0,.24,0,.49,0,.73,0,.27-.15.42-.42.42-1.2,0-2.39,0-3.59,0-.26,0-.41-.14-.42-.4,0-.27-.02-.54,0-.81.05-.65.41-1.07,1.02-1.31Zm2.62,1.73c0-.11,0-.21,0-.31,0-.42-.27-.69-.68-.69-.51,0-1.03,0-1.54,0-.31,0-.57.19-.63.47-.04.17-.03.35-.04.53h2.89Zm-.92-2.4c0-.36-.18-.59-.48-.61-.28-.02-.51.16-.57.44-.07.38.08.68.38.76.37.1.66-.16.66-.59Z"/>
  <path class="cls-1" d="m14.16,10.47c0-.6,0-1.21,0-1.81,0-.34.13-.47.46-.47,1.06,0,2.12,0,3.18,0,.33,0,.47.13.47.47,0,1.21,0,2.42,0,3.62,0,.33-.14.47-.47.47-1.06,0-2.12,0-3.18,0-.33,0-.47-.13-.47-.47,0-.6,0-1.21,0-1.81Zm.78-1.5v3h2.55v-3h-2.55Z"/>
  <path class="cls-1" d="m13.39,14.05c1.44,0,2.88,0,4.32,0,.07,0,.14,0,.21,0,.19.02.33.16.35.35.01.18-.09.34-.27.39-.07.02-.15.02-.23.02-2.92,0-5.84,0-8.75,0-.29,0-.44-.09-.49-.3-.05-.22.09-.43.32-.46.07,0,.14,0,.21,0,1.45,0,2.89,0,4.34,0Z"/>
  <path class="cls-1" d="m11.52,21.05c-.82,0-1.65,0-2.47,0-.08,0-.17,0-.25-.02-.17-.03-.29-.19-.29-.36,0-.17.11-.33.28-.37.08-.02.17-.02.25-.02,1.65,0,3.3,0,4.95,0,.08,0,.17,0,.25.02.17.04.28.2.27.37,0,.17-.12.33-.29.36-.08.02-.17.02-.25.02-.82,0-1.63,0-2.45,0Z"/>
  <path class="cls-1" d="m11.38,18.98c-.8,0-1.6,0-2.41,0-.26,0-.41-.1-.45-.3-.05-.22.08-.42.3-.46.08-.01.15-.01.23-.01,1.55,0,3.11,0,4.66,0,.36,0,.53.12.54.38,0,.26-.17.39-.54.39-.78,0-1.55,0-2.33,0Z"/>
  <path class="cls-1" d="m11.26,16.13c.73,0,1.46,0,2.2,0,.06,0,.13,0,.19,0,.19.02.33.17.34.36.01.18-.1.34-.28.39-.08.02-.16.02-.25.02-1.48,0-2.95,0-4.43,0-.07,0-.14,0-.21-.01-.2-.04-.33-.21-.31-.4.01-.2.16-.34.37-.35.16,0,.32,0,.48,0,.64,0,1.27,0,1.91,0Z"/>
  <path class="cls-1" d="m18.84,20.34c-.14-.12-.23-.18-.31-.26-.24-.24-.27-.55-.11-.84.1-.17.2-.34.31-.51.21-.34.48-.46.88-.36q.31.07.41-.23c.11-.35.35-.53.71-.54.22,0,.43,0,.65,0,.37,0,.61.19.72.55.1.33.03.31.38.22.42-.1.69.01.91.39.09.16.19.31.28.47.18.31.14.62-.11.87-.08.08-.16.14-.3.25.11.08.19.12.26.19.3.29.34.59.12.96-.09.15-.18.3-.27.44-.21.35-.49.46-.89.37q-.3-.07-.39.23c-.11.35-.35.54-.73.55-.21,0-.42,0-.63,0-.38-.01-.62-.2-.73-.57,0-.01,0-.02,0-.03-.09-.3-.05-.26-.33-.19-.47.11-.72,0-.97-.41-.07-.12-.14-.23-.21-.35-.25-.42-.22-.69.13-1.03.05-.05.12-.09.23-.15Zm.54-1.37s-.07.05-.1.08c-.06.08-.1.16-.15.25q-.17.29.06.53c.29.3.29.69,0,1q-.23.25-.06.54t.56.24c.37-.08.72.1.84.45q.13.37.52.37.37,0,.48-.34c.12-.37.46-.56.84-.49q.39.08.59-.25.17-.28-.06-.53c-.28-.3-.29-.69,0-.98q.24-.26.06-.56-.19-.32-.55-.24c-.37.08-.7-.08-.84-.41-.05-.13-.07-.32-.17-.38-.11-.07-.29-.02-.44-.02-.01,0-.02,0-.03,0q-.27,0-.35.26c-.13.45-.47.65-.93.54-.08-.02-.16-.04-.26-.06Z"/>
  <path class="cls-1" d="m22.2,20.33c0,.61-.51,1.12-1.12,1.13-.61,0-1.13-.52-1.13-1.13,0-.62.52-1.13,1.14-1.12.61,0,1.12.52,1.11,1.13Zm-.65.02c.01-.26-.2-.49-.46-.5-.25,0-.48.2-.5.45-.02.26.2.51.47.51.25,0,.48-.21.49-.46Z"/>
</svg>