<?xml version="1.0" encoding="utf-8"?>
<!-- Generator: Adobe Illustrator 27.5.0, SVG Export Plug-In . SVG Version: 6.00 Build 0)  -->
<svg version="1.1" id="Camada_1" xmlns="http://www.w3.org/2000/svg" xmlns:xlink="http://www.w3.org/1999/xlink" x="0px" y="0px"
	 viewBox="0 0 17.96 15.41" style="enable-background:new 0 0 17.96 15.41;" xml:space="preserve">
<style type="text/css">
	.st0{fill:#FFFFFF;}
	.st1{fill:none;stroke:#FFFFFF;stroke-width:4;stroke-linecap:round;stroke-linejoin:round;stroke-miterlimit:10;}
</style>
<g>
	<path class="st0" d="M0,12.37c0.03-0.12,0.05-0.24,0.08-0.35c0.27-0.96,0.87-1.61,1.81-1.93c0.03-0.01,0.06-0.02,0.09-0.04
		c-0.45-1.8,0-3.3,1.59-4.29C5.01,4.87,6.44,5.05,7.8,6.02c0.8-1.06,1.85-1.72,3.18-1.89c0.99-0.13,1.93,0.07,2.8,0.55
		c1.63,0.9,2.82,2.95,2.16,5.35c0.15,0.06,0.3,0.12,0.45,0.19c1.11,0.52,1.72,1.73,1.51,2.94c-0.21,1.19-1.19,2.1-2.39,2.23
		c-0.13,0.01-0.26,0.02-0.38,0.02c-4.11,0-8.22,0-12.33,0c-1.45,0-2.54-0.92-2.79-2.35c0-0.02-0.02-0.04-0.03-0.06
		C0,12.79,0,12.58,0,12.37z M5.11,10.74c-0.08-0.02-0.15-0.04-0.22-0.06c-0.94-0.3-1.5-1.28-1.28-2.24c0.22-0.95,1.14-1.59,2.1-1.46
		C6.59,7.09,7.3,7.81,7.37,8.66C7.45,9.61,6.9,10.43,6,10.69c-0.15,0.04-0.18,0.11-0.18,0.25c0.01,1.19,0,2.38,0,3.58
		c0,0.06,0,0.12,0,0.19c0.6,0,1.17,0,1.76,0c0-0.08,0-0.15,0-0.21c0-1.46,0-2.91,0-4.37c0-0.39,0.1-0.49,0.48-0.49
		c0.48,0,0.96,0,1.44,0c0.06,0,0.12,0,0.2,0c0-0.08,0-0.15,0-0.21c0-0.37,0-0.75,0-1.12c0-0.26,0.13-0.38,0.39-0.39
		c0.12,0,0.24,0,0.38,0c0-0.39,0-0.75,0-1.11c0-0.32,0.12-0.43,0.44-0.43c0.2,0,0.41,0,0.62,0c0-0.13,0-0.24,0-0.35
		c0.01-0.23,0.14-0.38,0.35-0.38c0.2,0,0.34,0.15,0.35,0.38c0,0.11,0,0.23,0,0.33c0.04,0.01,0.05,0.02,0.06,0.02c0.2,0,0.4,0,0.6,0
		c0.27,0,0.4,0.13,0.4,0.4c0,0.23,0,0.46,0,0.68c0,0.15,0,0.3,0,0.46c0.11,0,0.19,0,0.27,0c0.4,0,0.5,0.1,0.5,0.49
		c0,2.03,0,4.07,0,6.1c0,0.07,0,0.13,0,0.21c0.43,0,0.82,0.01,1.22,0c1.04-0.03,1.9-0.86,1.97-1.89c0.06-1.06-0.67-1.98-1.72-2.13
		c-0.37-0.05-0.48-0.24-0.35-0.59c0.27-0.71,0.32-1.44,0.17-2.19C14.97,5.92,13,4.53,11.01,4.84C9.8,5.03,8.87,5.65,8.21,6.69
		c-0.06,0.1-0.17,0.2-0.28,0.24C7.77,6.98,7.65,6.86,7.54,6.75C6.51,5.76,4.97,5.63,3.8,6.43c-1.17,0.81-1.6,2.32-1.03,3.62
		c0.17,0.38,0.06,0.57-0.35,0.63c-0.99,0.14-1.72,1-1.72,2.01c0.01,1,0.76,1.91,1.73,1.98c0.88,0.06,1.76,0.03,2.64,0.03
		c0.01,0,0.02-0.01,0.04-0.02C5.11,13.38,5.11,12.07,5.11,10.74z M13.35,14.7c0-2.03,0-4.06,0-6.08c-0.98,0-1.95,0-2.93,0
		c0,2.03,0,4.06,0,6.08C11.41,14.7,12.37,14.7,13.35,14.7z M8.3,10.34c0,1.46,0,2.91,0,4.36c0.47,0,0.94,0,1.4,0
		c0-1.46,0-2.91,0-4.36C9.23,10.34,8.77,10.34,8.3,10.34z M5.12,10c0-0.34,0-0.66,0-0.98c0-0.14,0.03-0.29,0.17-0.34
		c0.1-0.04,0.25-0.06,0.34-0.01c0.09,0.05,0.18,0.19,0.19,0.3C5.84,9.31,5.82,9.65,5.82,10c0.54-0.12,0.91-0.68,0.84-1.28
		C6.61,8.13,6.09,7.67,5.49,7.67c-0.61,0-1.14,0.45-1.21,1.05C4.22,9.3,4.58,9.87,5.12,10z M12.59,7.08c-0.47,0-0.93,0-1.39,0
		c0,0.28,0,0.55,0,0.82c0.47,0,0.93,0,1.39,0C12.59,7.62,12.59,7.36,12.59,7.08z"/>
	<path class="st0" d="M14.87,1.98c-0.13-0.09-0.24-0.14-0.33-0.22c-0.72-0.67-1.57-1.03-2.55-1.05c-1.06-0.03-1.98,0.33-2.76,1.05
		C9.17,1.82,9.09,1.88,9.01,1.91C8.86,1.96,8.7,1.89,8.62,1.75c-0.08-0.14-0.07-0.3,0.06-0.43c0.41-0.41,0.88-0.73,1.41-0.96
		c1.68-0.72,3.66-0.36,4.96,0.91c0.13,0.13,0.21,0.28,0.12,0.44C15.11,1.82,14.98,1.88,14.87,1.98z"/>
	<path class="st0" d="M11.79,1.67c0.87,0.02,1.54,0.28,2.1,0.82c0.13,0.12,0.17,0.26,0.09,0.43c-0.07,0.14-0.19,0.22-0.34,0.19
		c-0.1-0.02-0.19-0.08-0.27-0.15c-0.43-0.38-0.93-0.58-1.5-0.58c-0.55,0-1.04,0.19-1.45,0.56c-0.02,0.02-0.03,0.03-0.05,0.05
		c-0.18,0.16-0.39,0.16-0.53,0.01C9.71,2.84,9.72,2.64,9.89,2.48c0.38-0.37,0.83-0.62,1.35-0.73C11.45,1.7,11.66,1.69,11.79,1.67z"
		/>
	<path class="st0" d="M11.54,10.87c0-0.29,0-0.57,0-0.86c0-0.23,0.14-0.38,0.35-0.38c0.21,0,0.35,0.14,0.35,0.37
		c0,0.58,0,1.16,0,1.73c0,0.22-0.16,0.38-0.36,0.37c-0.2,0-0.34-0.16-0.34-0.39C11.53,11.44,11.54,11.15,11.54,10.87z"/>
	<path class="st0" d="M12.24,13.34c0,0.18-0.16,0.35-0.35,0.35c-0.19,0-0.35-0.16-0.35-0.34c0-0.2,0.15-0.36,0.35-0.35
		C12.08,13,12.24,13.15,12.24,13.34z"/>
</g>
</svg>
