<?xml version="1.0" encoding="UTF-8"?>
<svg id="Camada_1" data-name="Camada 1" xmlns="http://www.w3.org/2000/svg" viewBox="0 0 14.87 14.88">
  <defs>
    <style>
      .cls-1 {
        fill: #fff;
      }
    </style>
  </defs>
  <path class="cls-1" d="m0,7.91c.18-.17.34-.36.53-.51.66-.51,1.41-.87,2.19-1.18,1.07-.42,2.17-.66,3.31-.75.03,0,.06,0,.09-.01-.02-.29-.05-.58-.06-.87-.05-.8-.03-1.6.08-2.39.08-.57.2-1.13.3-1.7.04-.21.14-.34.36-.37.24-.03.48-.07.72-.11C7.58.02,7.63,0,7.67,0,7.95,0,8.23,0,8.52,0c.27.03.55.05.82.08,1.12.12,2.19.42,3.22.86.71.31,1.38.67,1.98,1.16.38.31.38.32.24.78-.51,1.67-1.28,3.2-2.38,4.57-.5.62-1.07,1.18-1.78,1.58-.52.29-1.08.45-1.68.39-.03,0-.06,0-.1,0-.01.26-.02.51-.04.77-.06.96-.22,1.9-.61,2.79-.25.57-.58,1.07-1.09,1.44-.7.5-1.47.58-2.28.32-.63-.21-1.15-.59-1.62-1.04-.99-.94-1.71-2.07-2.3-3.29-.35-.71-.63-1.44-.85-2.2-.01-.04-.03-.08-.05-.12,0-.06,0-.12,0-.17ZM6.92,1.08c.21-.02.41-.04.6-.06.21-.02.34.08.36.25.02.18-.1.3-.31.32-.2.02-.4.05-.61.06-.13,0-.18.06-.19.19-.04.45-.1.9-.13,1.34-.06,1-.01,2,.21,2.99.15.66.37,1.29.78,1.84.29.39.66.67,1.15.79.57.13,1.09-.03,1.59-.31.59-.33,1.07-.79,1.49-1.3,1.1-1.32,1.86-2.83,2.37-4.47.02-.08.02-.13-.05-.17-.34-.23-.67-.48-1.03-.68-1.24-.68-2.56-1.08-3.96-1.24-.61-.07-1.23-.09-1.84-.02-.35.04-.35.05-.43.4,0,0,0,.02,0,.05ZM.76,8.52c.19-.13.35-.25.52-.37.18-.12.37-.07.45.1.06.14.02.27-.13.38-.18.14-.37.27-.55.4-.06.04-.08.08-.05.15.59,1.43,1.32,2.76,2.4,3.88.43.45.92.83,1.5,1.07.69.27,1.34.22,1.93-.24.41-.32.67-.76.87-1.23.44-1.07.55-2.19.56-3.33,0-.03-.02-.08-.04-.1-.15-.09-.3-.17-.46-.26-.03.02-.05.05-.07.07-.49.49-1.18.6-1.79.28-.25-.13-.44-.31-.58-.55-.09-.15-.06-.31.07-.4.13-.09.29-.07.4.07.03.03.05.07.08.11.37.49,1.08.51,1.47.02-.61-.73-.9-1.6-1.09-2.52-.18.01-.35.02-.51.04-1.25.14-2.44.48-3.57,1.02-.51.25-1,.53-1.44.9-.04.03-.08.1-.07.14.02.13.07.25.12.39Z"/>
  <path class="cls-1" d="m11.66,3.75c.54.03.97.25,1.27.7.11.17.09.35-.06.45-.14.09-.3.05-.42-.12-.42-.59-1.15-.59-1.58,0-.13.18-.28.22-.43.12-.14-.1-.16-.27-.05-.45.3-.45.73-.67,1.27-.69Z"/>
  <path class="cls-1" d="m9.51,7.45c-.68,0-1.26-.43-1.46-1.05-.06-.19,0-.35.16-.41.16-.06.31.02.38.21.11.32.32.54.64.63.3.08.57.03.82-.16.02-.02.04-.04.07-.06.16-.13.33-.13.44,0,.12.13.09.3-.07.45-.29.26-.64.38-.99.39Z"/>
  <path class="cls-1" d="m9.4,4.11c.02.19-.05.32-.19.36-.14.04-.28-.01-.34-.14-.02-.05-.04-.11-.04-.17-.04-.72-.79-1.09-1.38-.78-.18.1-.35.04-.42-.11-.08-.16,0-.32.18-.41.97-.49,2.09.15,2.19,1.25Z"/>
  <path class="cls-1" d="m8.72,1.31c0,.16-.12.29-.28.29-.17,0-.3-.12-.31-.28,0-.16.12-.3.29-.3.17,0,.3.12.3.29Z"/>
  <path class="cls-1" d="m2.66,10.56c-.26,0-.5-.07-.72-.19-.16-.09-.22-.24-.15-.39.07-.15.23-.21.39-.13.21.1.43.15.66.1.41-.08.7-.42.74-.84,0-.03,0-.06.01-.09.03-.17.15-.28.3-.27.16.01.27.14.27.32,0,.68-.52,1.31-1.19,1.44-.1.02-.21.03-.32.04Z"/>
  <path class="cls-1" d="m5.82,11.64c.41,0,.77.12,1.07.4.15.13.17.31.05.44-.11.12-.28.13-.43,0-.22-.19-.46-.29-.75-.25-.38.04-.63.25-.77.6-.01.03-.02.05-.03.08-.07.17-.21.25-.37.2-.16-.05-.24-.21-.18-.39.1-.33.29-.6.57-.8.25-.18.52-.27.83-.28Z"/>
  <path class="cls-1" d="m2.17,8.25c-.15,0-.28-.14-.28-.29,0-.16.15-.29.31-.29.16,0,.29.14.28.3,0,.15-.15.28-.31.28Z"/>
</svg>