<?xml version="1.0" encoding="UTF-8"?>
<svg id="Camada_1" data-name="Camada 1" xmlns="http://www.w3.org/2000/svg" viewBox="0 0 15.35 11.4">
  <defs>
    <style>
      .cls-1 {
        fill: #fff;
      }
    </style>
  </defs>
  <path class="cls-1" d="m15.35,11.19c-.09.16-.22.22-.41.21-.71,0-1.42,0-2.13,0-.02,0-.05,0-.07,0-.19,0-.32-.13-.33-.3,0-.17.13-.3.32-.3.6,0,1.2,0,1.8,0,.06,0,.13,0,.2,0V1.51h-1.28c0,.05,0,.11,0,.17,0,2.5,0,5,0,7.5,0,.34-.09.42-.43.42-1.07,0-2.15,0-3.22,0-.62,0-1.18.21-1.68.59-.12.09-.18.19-.16.34,0,.08,0,.17,0,.27.06,0,.12,0,.17,0,.59,0,1.18,0,1.77,0,.04,0,.09,0,.13,0,.15.02.26.15.26.3,0,.15-.11.28-.26.3-.05,0-.1,0-.15,0-3.16,0-6.32,0-9.47,0-.34,0-.42-.09-.42-.43C0,7.76,0,4.54,0,1.33c0-.34.09-.43.42-.43.43,0,.87,0,1.3,0h.16c0-.19,0-.36,0-.53C1.89.11,2,0,2.25,0c1.08,0,2.17,0,3.25,0,.77,0,1.46.24,2.07.71.03.02.06.04.08.06,0,0,0,0,0-.03.33-.18.66-.37,1-.53.34-.15.72-.22,1.09-.22,1.12,0,2.24,0,3.36,0,.24,0,.35.11.35.35,0,.17,0,.35,0,.55.06,0,.11,0,.16,0,.44,0,.88,0,1.32,0,.18,0,.32.05.41.21v10.08ZM12.86.6s-.08,0-.11,0c-.98,0-1.96,0-2.94,0-.65,0-1.23.23-1.74.64-.07.06-.1.12-.1.22,0,2.65,0,5.3,0,7.94,0,.05,0,.09,0,.16.68-.46,1.42-.58,2.2-.57.83.02,1.67,0,2.5,0h.17V.6Zm-10.36,0v8.4c.06,0,.12,0,.17,0,.94,0,1.88,0,2.82,0,.44,0,.87.08,1.28.25.2.08.39.19.6.29,0-.04,0-.08,0-.12,0-2.66,0-5.32,0-7.97,0-.07-.04-.16-.09-.2-.49-.42-1.07-.64-1.72-.65-.99,0-1.98,0-2.97,0-.03,0-.06,0-.1,0Zm-.61.91H.61v9.28h6.77c0-.09,0-.18,0-.26.02-.15-.04-.25-.16-.34-.5-.38-1.06-.59-1.69-.59-1.07,0-2.14,0-3.21,0-.34,0-.43-.09-.43-.42,0-2.49,0-4.99,0-7.48v-.19Z"/>
  <path class="cls-1" d="m11.66,11.1c0,.17-.14.3-.31.3-.16,0-.29-.14-.29-.3,0-.17.14-.3.31-.3.16,0,.29.14.29.3Z"/>
  <path class="cls-1" d="m10.41,4.2c-.29,0-.59,0-.88,0-.22,0-.35-.12-.35-.3,0-.18.14-.3.36-.3.59,0,1.19,0,1.78,0,.22,0,.35.12.35.3,0,.18-.14.3-.36.3-.3,0-.6,0-.9,0Z"/>
  <path class="cls-1" d="m10.42,6c-.3,0-.6,0-.9,0-.21,0-.34-.12-.35-.29,0-.18.13-.31.35-.31.6,0,1.2,0,1.79,0,.21,0,.34.12.35.29,0,.18-.13.31-.35.31-.3,0-.6,0-.9,0Z"/>
  <path class="cls-1" d="m4.93,4.2c-.3,0-.6,0-.9,0-.21,0-.35-.12-.35-.31,0-.18.14-.29.34-.29.6,0,1.2,0,1.79,0,.21,0,.35.12.35.31,0,.18-.14.29-.34.29-.3,0-.6,0-.9,0Z"/>
  <path class="cls-1" d="m4.92,6c-.29,0-.59,0-.88,0-.21,0-.34-.12-.35-.29,0-.18.13-.31.35-.31.6,0,1.2,0,1.79,0,.21,0,.34.12.35.29,0,.18-.13.31-.35.31-.3,0-.61,0-.91,0Z"/>
  <path class="cls-1" d="m4.93,7.8c-.3,0-.6,0-.9,0-.21,0-.35-.12-.35-.31,0-.18.14-.29.34-.29.6,0,1.2,0,1.79,0,.21,0,.35.12.35.31,0,.18-.14.29-.34.29-.3,0-.6,0-.9,0Z"/>
</svg>