<?xml version="1.0" encoding="utf-8"?>
<!-- Generator: Adobe Illustrator 27.5.0, SVG Export Plug-In . SVG Version: 6.00 Build 0)  -->
<svg version="1.1" id="Camada_1" xmlns="http://www.w3.org/2000/svg" xmlns:xlink="http://www.w3.org/1999/xlink" x="0px" y="0px"
	 viewBox="0 0 41.29 37.75" style="enable-background:new 0 0 41.29 37.75;" xml:space="preserve">
<style type="text/css">
	.st0{fill:#FFFFFF;}
</style>
<g>
	<g>
		<path class="st0" d="M1.77,6.49C1.98,6.01,2.13,5.5,2.41,5.06C2.78,4.48,3.35,4.1,4.03,3.92c0.22-0.06,0.3-0.16,0.36-0.38
			c0.43-1.81,1.55-3,3.37-3.42c1.69-0.39,3.13,0.16,4.28,1.43c0.48,0.53,0.8,1.18,0.95,1.89c0.05,0.22,0.14,0.3,0.36,0.32
			c2.63,0.23,4.55,2.33,4.49,4.96c-0.02,0.63-0.21,1.25-0.32,1.87c3.71,0.74,5.88,5.24,3.36,9.05c1.91,1.07,3.11,2.65,3.47,4.83
			c0.24,1.46,0.04,2.87-0.67,4.18c-0.84,1.55-2.1,2.6-3.79,3.14c-1.68,0.53-3.29,0.33-4.87-0.49c0,1.75,0,3.44,0,5.16
			c3.54,0,7.08,0,10.65,0c0-0.6,0-1.2,0-1.87c-0.2,0-0.41,0.01-0.61,0c-0.35-0.02-0.58-0.26-0.61-0.58c-0.02-0.3,0.2-0.58,0.54-0.64
			c0.21-0.04,0.44-0.03,0.68-0.05c0-0.18,0-0.36,0-0.6c-0.17,0-0.35,0.01-0.53,0c-0.44-0.03-0.71-0.29-0.7-0.65
			c0.02-0.35,0.28-0.58,0.71-0.6c0.16-0.01,0.32,0,0.51,0c0-0.63,0-1.24,0-1.9c-0.18,0-0.37,0.01-0.56,0
			c-0.38-0.02-0.65-0.28-0.66-0.62c-0.01-0.34,0.26-0.61,0.64-0.63c0.19-0.01,0.39,0,0.59,0c0.1-0.37,0.28-0.63,0.69-0.61
			c0.37,0.02,0.53,0.26,0.61,0.6c3.35,0,6.69,0,10.04,0c0.09-0.33,0.25-0.6,0.64-0.6c0.38,0,0.57,0.24,0.63,0.5
			c0.4,0.12,0.77,0.2,1.1,0.35c0.1,0.04,0.16,0.28,0.16,0.42c0,0.42-0.27,0.55-1.21,0.61c0,0.6,0,1.21,0,1.88c0.19,0,0.4-0.01,0.6,0
			c0.37,0.03,0.61,0.27,0.62,0.6c0.01,0.31-0.22,0.57-0.56,0.62c-0.21,0.03-0.43,0.03-0.67,0.04c0,0.2,0,0.38,0,0.58
			c0.5,0.06,1.21-0.12,1.21,0.66c0,0.77-0.69,0.59-1.2,0.64c0,0.62,0,1.22,0,1.86c0.44,0.08,1.04-0.14,1.21,0.54
			c0.09,0.36-0.16,0.56-0.42,0.74c-12.44,0-24.87,0-37.31,0c0-0.27,0-0.54,0-0.81c0.19-0.35,0.49-0.45,0.89-0.45
			c2.7,0.01,5.4,0.01,8.1,0.01c0.14,0,0.28,0,0.43,0c0-1.75,0-3.44,0-5.18c-0.13,0.06-0.23,0.09-0.32,0.14
			c-3.15,1.49-6.97,0.14-8.43-3.04c-0.31-0.68-0.45-1.44-0.67-2.16c0-0.44,0-0.88,0-1.33c0.02-0.06,0.05-0.12,0.05-0.17
			c0.23-1.83,1.07-3.32,2.52-4.45c0.31-0.24,0.64-0.44,0.98-0.66c-1.11-1.71-1.43-3.53-0.72-5.45c0.72-1.93,2.17-3.1,4.14-3.59
			c-0.04-0.42-0.24-0.55-0.64-0.53c-0.99,0.03-1.99,0.01-2.99,0.01c-1.02,0-1.9-0.32-2.59-1.1c-0.41-0.46-0.59-1.03-0.77-1.6
			C1.77,7.08,1.77,6.79,1.77,6.49z M12.44,26.76c0.01-0.12,0.02-0.16,0.02-0.21c0-1.98,0.01-3.96-0.01-5.93
			c0-0.15-0.1-0.32-0.2-0.43c-0.86-0.88-1.73-1.74-2.6-2.61c-0.37-0.37-0.42-0.75-0.13-1.03c0.29-0.28,0.65-0.23,1.03,0.15
			c0.48,0.48,0.96,0.96,1.43,1.43c0.14,0.14,0.28,0.28,0.48,0.48c0-0.99,0-1.87,0-2.75c0-0.47,0.25-0.75,0.64-0.74
			c0.38,0,0.61,0.28,0.62,0.76c0,0.8,0,1.6,0,2.4c0,0.09,0.02,0.18,0.03,0.33c0.58-0.58,1.1-1.11,1.63-1.64
			c0.16-0.16,0.33-0.34,0.51-0.47c0.27-0.19,0.54-0.15,0.77,0.07c0.22,0.23,0.25,0.5,0.08,0.77c-0.07,0.11-0.17,0.21-0.27,0.3
			c-0.85,0.85-1.71,1.7-2.55,2.56c-0.11,0.12-0.21,0.31-0.21,0.47c-0.01,1.94-0.01,3.88-0.01,5.82c0,0.07,0.02,0.15,0.04,0.28
			c1.06-1.06,2.07-2.08,3.09-3.09c0.11-0.11,0.23-0.27,0.37-0.29c0.22-0.03,0.49-0.02,0.67,0.08c0.24,0.14,0.29,0.42,0.17,0.68
			c-0.07,0.14-0.18,0.26-0.29,0.37c-0.97,0.98-1.94,1.95-2.92,2.92c-0.35,0.35-0.7,0.68-1.04,1.02c1.02,1.74,3.24,2.69,5.17,2.25
			c2.31-0.54,3.98-2.44,4.17-4.76c0.19-2.35-1.15-4.48-3.37-5.39c-0.7-0.29-0.79-0.7-0.3-1.26c1.24-1.41,1.57-3.02,0.89-4.76
			c-0.66-1.69-1.98-2.6-3.8-2.76c-0.8-0.07-1.01-0.51-0.59-1.2c0.76-1.23,0.81-2.49,0.14-3.78c-0.71-1.35-2.44-2.1-3.85-1.7
			c-1.75,0.5-2.71,2.03-2.63,3.63c0.03,0.69,0.25,1.32,0.62,1.9c0.4,0.62,0.19,1.04-0.53,1.12c-0.21,0.02-0.42,0.03-0.62,0.07
			c-1.68,0.35-2.85,1.32-3.37,2.95c-0.52,1.64-0.21,3.16,0.94,4.46c0.55,0.62,0.47,0.99-0.3,1.33c-0.04,0.02-0.09,0.04-0.13,0.06
			c-3.19,1.38-4.23,5.4-2.11,8.16c2.15,2.8,6.46,2.64,8.28-0.36c-0.09-0.07-0.21-0.15-0.3-0.24c-1.21-1.21-2.42-2.41-3.62-3.62
			c-0.1-0.1-0.19-0.19-0.27-0.3c-0.18-0.26-0.15-0.6,0.06-0.81c0.22-0.21,0.55-0.24,0.81-0.05c0.11,0.08,0.2,0.18,0.3,0.27
			C10.38,24.7,11.38,25.71,12.44,26.76z M11.83,3.89c-0.18-0.41-0.3-0.83-0.52-1.18c-0.75-1.16-2.07-1.67-3.39-1.35
			c-1.27,0.3-2.18,1.37-2.35,2.75c-0.1,0.78-0.15,0.84-0.93,0.96C3.7,5.21,3,6.03,3.03,6.97c0.03,0.97,0.76,1.78,1.73,1.81
			c1.16,0.04,2.33,0.01,3.5,0.01c0.02,0,0.04-0.02,0.08-0.05C8.4,6.39,9.54,4.76,11.83,3.89z M26.96,29.58c0,0.64,0,1.24,0,1.86
			c3.36,0,6.7,0,10.02,0c0-0.64,0-1.24,0-1.86C33.63,29.58,30.32,29.58,26.96,29.58z M26.96,34.62c0,0.63,0,1.24,0,1.84
			c3.36,0,6.69,0,10.03,0c0-0.63,0-1.22,0-1.84C33.65,34.62,30.33,34.62,26.96,34.62z M13.72,36.47c0-0.16,0-0.29,0-0.42
			c0-1.68-0.03-3.36,0.02-5.04c0.02-0.6-0.22-0.96-0.65-1.29c-0.63,0.56-0.63,0.56-0.63,1.37c0,1.66,0,3.31,0,4.97
			c0,0.13,0,0.26,0,0.41C12.89,36.47,13.28,36.47,13.72,36.47z M37,32.75c-3.36,0-6.7,0-10.04,0c0,0.2,0,0.38,0,0.57
			c3.36,0,6.69,0,10.04,0C37,33.12,37,32.95,37,32.75z"/>
		<path class="st0" d="M32.56,15.71c-1.33,0-2.65,0.04-3.98-0.01c-1.5-0.05-2.71-1.28-2.87-2.82C25.55,11.44,26.5,10,27.89,9.6
			c0.24-0.07,0.36-0.17,0.41-0.42c0.39-1.84,1.86-3.2,3.74-3.48c1.71-0.25,3.56,0.68,4.41,2.26c0.21,0.39,0.34,0.84,0.46,1.27
			c0.05,0.2,0.13,0.28,0.31,0.34c1.45,0.45,2.3,1.62,2.29,3.1c-0.02,1.55-1.32,2.96-2.87,3.01C35.28,15.74,33.92,15.7,32.56,15.71z
			 M32.59,14.46C32.59,14.46,32.59,14.46,32.59,14.46c1.25,0.01,2.5,0.01,3.76,0c0.05,0,0.1,0,0.15-0.01
			c1.23-0.07,2.06-1.28,1.67-2.44c-0.27-0.81-0.86-1.22-1.69-1.31c-0.5-0.05-0.66-0.21-0.72-0.71c-0.01-0.11-0.03-0.22-0.04-0.33
			c-0.18-1.63-1.71-2.88-3.36-2.72c-1.56,0.15-2.71,1.31-2.86,2.87c-0.06,0.68-0.17,0.8-0.87,0.9c-0.61,0.09-1.09,0.38-1.4,0.91
			c-0.74,1.23,0.1,2.79,1.54,2.83C30.03,14.49,31.31,14.46,32.59,14.46z"/>
	</g>
</g>
</svg>
