<?xml version="1.0" encoding="utf-8"?>
<!-- Generator: Adobe Illustrator 27.5.0, SVG Export Plug-In . SVG Version: 6.00 Build 0)  -->
<svg version="1.1" id="Camada_1" xmlns="http://www.w3.org/2000/svg" xmlns:xlink="http://www.w3.org/1999/xlink" x="0px" y="0px"
	 viewBox="0 0 14.78 14.78" style="enable-background:new 0 0 14.78 14.78;" xml:space="preserve">
<style type="text/css">
	.st0{fill:#FFFFFF;}
	.st1{fill:none;stroke:#FFFFFF;stroke-width:4;stroke-linecap:round;stroke-linejoin:round;stroke-miterlimit:10;}
</style>
<path class="st0" d="M14.78,6.93c0,0.31,0,0.62,0,0.92c-0.03,0.24-0.06,0.49-0.1,0.73c-0.28,1.65-1.01,3.06-2.24,4.19
	c-1.87,1.72-4.08,2.34-6.58,1.84c-1.8-0.36-3.26-1.31-4.37-2.78C0.28,10.23-0.19,8.4,0.07,6.39c0.21-1.61,0.91-3.01,2.05-4.17
	c1.11-1.13,2.44-1.83,4-2.11C6.39,0.07,6.66,0.04,6.93,0c0.31,0,0.62,0,0.92,0c0.25,0.03,0.5,0.06,0.75,0.1
	c1.39,0.24,2.62,0.82,3.67,1.75c1.29,1.14,2.09,2.57,2.39,4.26C14.72,6.39,14.75,6.66,14.78,6.93z M7.9,0.76
	C7.83,2.57,7.21,4.15,6.05,5.48c0.46,0.46,0.91,0.91,1.34,1.35c1.46-1.46,2.93-2.93,4.41-4.41C10.7,1.45,9.4,0.89,7.9,0.76z
	 M8.73,9.31C8.27,8.85,7.82,8.4,7.37,7.95c-1.46,1.45-2.92,2.92-4.4,4.4c1.12,0.98,2.41,1.54,3.92,1.66
	c0.02-0.89,0.19-1.73,0.51-2.54C7.72,10.67,8.18,9.94,8.73,9.31z M9.29,8.74c0.65-0.59,1.37-1.05,2.18-1.39
	c0.81-0.33,1.66-0.51,2.53-0.55C14.06,5.8,13.08,3.53,12.37,3c-1.48,1.47-2.95,2.95-4.41,4.41C8.39,7.84,8.83,8.29,9.29,8.74z
	 M5.49,6.05C4.85,6.63,4.12,7.09,3.31,7.43C2.5,7.76,1.66,7.94,0.77,7.98c0.14,1.47,0.7,2.74,1.65,3.82
	c1.48-1.48,2.95-2.95,4.41-4.41C6.39,6.95,5.94,6.5,5.49,6.05z M0.76,7.23c1.58-0.04,3.2-0.74,4.19-1.71
	C4.11,4.68,3.26,3.83,2.42,2.99C1.47,3.93,0.62,6.09,0.76,7.23z M14.04,7.54c-1.63,0.08-3.03,0.65-4.21,1.71
	c0.85,0.85,1.7,1.7,2.55,2.55C13.42,10.59,13.98,9.18,14.04,7.54z M7.62,14.04c1.61-0.08,3-0.64,4.19-1.68
	c-0.85-0.85-1.69-1.69-2.54-2.54C8.23,11.02,7.69,12.42,7.62,14.04z M5.51,4.96C6.45,4,7.32,1.75,7.14,0.74
	C5.55,0.82,4.16,1.38,2.97,2.43C3.82,3.28,4.66,4.12,5.51,4.96z"/>
</svg>
