<?xml version="1.0" encoding="utf-8"?>
<!-- Generator: Adobe Illustrator 27.5.0, SVG Export Plug-In . SVG Version: 6.00 Build 0)  -->
<svg version="1.1" id="Camada_1" xmlns="http://www.w3.org/2000/svg" xmlns:xlink="http://www.w3.org/1999/xlink" x="0px" y="0px"
	 viewBox="0 0 18.49 18.49" style="enable-background:new 0 0 18.49 18.49;" xml:space="preserve">
<style type="text/css">
	.st0{fill:#FFFFFF;}
	.st1{fill:none;stroke:#FFFFFF;stroke-width:4;stroke-linecap:round;stroke-linejoin:round;stroke-miterlimit:10;}
</style>
<g>
	<path class="st0" d="M0.22,18.49c-0.24-0.17-0.27-0.27-0.14-0.55c0.67-1.43,1.33-2.85,1.99-4.28c0.05-0.11,0.08-0.25,0.08-0.38
		c0.01-0.9,0.01-1.79,0-2.69c0-0.33,0.02-0.65,0.18-0.94c0.07-0.14,0.03-0.21-0.09-0.29C2.1,9.28,1.98,9.23,1.8,9.24
		C1.32,9.26,0.85,9.25,0.37,9.25C0.11,9.24,0,9.13,0,8.87c0-1.8,0-3.6,0-5.4c0-0.28,0.11-0.39,0.4-0.39c0.76,0,1.53,0,2.29,0
		c0.7,0,1.4,0,2.09,0c0.13,0,0.28,0.03,0.4,0.09c1.57,0.78,3.14,1.57,4.71,2.35c0.21,0.1,0.29,0.24,0.29,0.47
		c-0.01,0.73,0.02,1.47-0.01,2.2c-0.03,0.81,0.08,1.61,0.21,2.4c0.12,0.75,0.23,1.51,0.35,2.26c0.01,0.08,0.05,0.19,0.11,0.23
		c1.04,0.71,2.08,1.41,3.13,2.12c0.03-0.05,0.06-0.1,0.09-0.14c0.27-0.4,0.65-0.61,1.13-0.57c0.5,0.04,0.86,0.3,1.05,0.76
		c0.05,0.12,0.1,0.15,0.23,0.17c0.5,0.06,0.84,0.33,1.02,0.8c0.04,0.1,0.09,0.15,0.19,0.19c0.39,0.14,0.64,0.42,0.76,0.81
		c0.02,0.05,0.03,0.1,0.05,0.15c0,0.37,0,0.75,0,1.12c-2.19,0-4.38,0-6.57,0c-0.17-0.1-0.22-0.25-0.21-0.44c0.01-0.16,0-0.32,0-0.49
		c0.03-0.53,0.28-0.92,0.78-1.14c0.03-0.01,0.07-0.03,0.12-0.05c-1.13-0.76-2.24-1.51-3.36-2.27c0,1.35,0,2.66,0,3.97
		c0,0.19-0.05,0.33-0.22,0.42c-0.78,0-1.57,0-2.35,0c-0.17-0.1-0.22-0.25-0.22-0.44c0.01-1.3,0.01-2.61,0-3.91
		c0-0.1-0.04-0.21-0.1-0.29c-0.43-0.57-0.87-1.12-1.3-1.68C5.03,12.13,5,12.09,4.93,12.02c0,0.1,0,0.16,0,0.22
		c0,0.49,0.01,0.99,0,1.48c0,0.14-0.03,0.29-0.09,0.41c-0.67,1.36-1.35,2.72-2.04,4.08c-0.05,0.11-0.15,0.19-0.23,0.29
		C1.78,18.49,1,18.49,0.22,18.49z M8.63,17.87c0-0.08,0-0.14,0-0.21c0-1.38,0-2.76,0-4.14c0-0.11-0.04-0.24-0.11-0.33
		c-0.63-0.91-1.26-1.82-1.9-2.72c-0.13-0.19-0.16-0.35-0.07-0.57c0.2-0.47,0.38-0.95,0.57-1.42C7.32,8,7.52,7.5,7.72,7
		c0.06-0.16,0.18-0.24,0.35-0.21c0.15,0.02,0.24,0.14,0.25,0.33c0,0.05,0,0.1,0,0.14c0,0.79,0,1.59,0,2.38c0,0.07,0,0.15,0.02,0.21
		c0.27,0.99,0.54,1.98,0.81,2.97c0.01,0.04,0.06,0.1,0.1,0.1c0.29,0.01,0.57,0,0.87,0c0-0.05,0-0.07,0-0.09
		c-0.11-0.73-0.22-1.46-0.34-2.19C9.64,9.85,9.52,9.04,9.55,8.22c0.02-0.67,0-1.34,0.01-2c0-0.13-0.04-0.19-0.16-0.25
		C7.93,5.24,6.47,4.5,5,3.77C4.91,3.72,4.79,3.7,4.69,3.7c-1.29,0-2.58,0-3.86,0c-0.06,0-0.13,0-0.2,0c0,1.66,0,3.29,0,4.92
		c0.31,0,0.61,0,0.92,0c0-0.09,0-0.16,0-0.23c0-1.02,0-2.03,0-3.05c0-0.31,0.09-0.4,0.4-0.4c0.76,0,1.52,0,2.28,0
		c0.36,0,0.48,0.17,0.35,0.51c-0.57,1.54-1.15,3.07-1.72,4.61c-0.04,0.11-0.06,0.23-0.06,0.35c0,1,0,2-0.01,3
		c0,0.14-0.03,0.29-0.09,0.41c-0.59,1.29-1.2,2.57-1.79,3.86c-0.03,0.06-0.05,0.12-0.09,0.2c0.44,0,0.85-0.01,1.26,0
		c0.16,0,0.24-0.04,0.32-0.19c0.61-1.24,1.23-2.47,1.85-3.71c0.06-0.11,0.09-0.25,0.09-0.38c0.01-0.81,0-1.61,0-2.42
		c0-0.23,0.08-0.35,0.25-0.39c0.17-0.03,0.27,0.06,0.36,0.18c0.68,0.88,1.36,1.75,2.03,2.63c0.07,0.1,0.12,0.24,0.12,0.36
		c0.01,1.23,0.01,2.46,0.01,3.68c0,0.07,0,0.14,0,0.22C7.61,17.87,8.1,17.87,8.63,17.87z M17.86,17.87c0.07-0.6-0.1-0.83-0.64-0.93
		c-0.17-0.03-0.24-0.14-0.27-0.3c-0.07-0.45-0.26-0.62-0.73-0.62c-0.41,0-0.44-0.03-0.52-0.43c0-0.02-0.01-0.05-0.02-0.07
		c-0.09-0.28-0.36-0.46-0.64-0.43c-0.3,0.03-0.53,0.26-0.56,0.58c-0.02,0.23-0.12,0.33-0.34,0.34c-0.07,0-0.14,0-0.22,0
		c-0.41,0-0.63,0.2-0.68,0.61c-0.02,0.19-0.11,0.28-0.3,0.3c-0.5,0.07-0.72,0.41-0.61,0.92C14.18,17.87,16.02,17.87,17.86,17.87z
		 M3.86,5.56c-0.58,0-1.13,0-1.7,0c0,0.54,0,1.07,0,1.6c0,0.04,0.02,0.09,0.05,0.1c0.26,0.18,0.53,0.36,0.81,0.55
		C3.31,7.05,3.58,6.31,3.86,5.56z M9.62,13.56c-0.01,0.01-0.01,0.03-0.02,0.04c1.11,0.75,2.22,1.5,3.31,2.24
		c0.15-0.11,0.28-0.21,0.4-0.31c-0.01-0.02-0.02-0.03-0.03-0.03c-0.93-0.63-1.85-1.25-2.78-1.88c-0.04-0.03-0.1-0.05-0.15-0.05
		C10.11,13.56,9.87,13.56,9.62,13.56z M7.72,8.8c-0.02,0-0.04,0-0.06,0C7.58,8.99,7.51,9.18,7.43,9.38
		c-0.1,0.25-0.29,0.51-0.26,0.75c0.03,0.24,0.27,0.46,0.43,0.67c0.12,0.15,0.27,0.28,0.4,0.42c0.02-0.01,0.04-0.02,0.06-0.04
		C7.81,10.41,7.6,9.63,7.72,8.8z M2.63,8.86c0.04-0.11,0.09-0.23,0.13-0.35C2.77,8.47,2.77,8.4,2.75,8.38
		C2.57,8.25,2.38,8.12,2.19,8C2.07,8.43,2.2,8.72,2.63,8.86z"/>
	<path class="st0" d="M9.25,4.31c-1.19,0-2.16-0.97-2.16-2.16C7.09,0.97,8.06,0,9.24,0c1.19,0,2.17,0.96,2.17,2.15
		C11.41,3.34,10.44,4.31,9.25,4.31z M9.24,3.69c0.85,0,1.54-0.68,1.54-1.53c0.01-0.84-0.69-1.54-1.53-1.55
		C8.41,0.61,7.7,1.31,7.7,2.16C7.7,3,8.4,3.69,9.24,3.69z"/>
	<path class="st0" d="M15.71,16.34c0,0.2,0,0.39,0,0.59c-0.2,0-0.39,0-0.59,0c0-0.19,0-0.39,0-0.59
		C15.31,16.34,15.5,16.34,15.71,16.34z"/>
	<path class="st0" d="M13.88,17.25c0-0.2,0-0.39,0-0.59c0.19,0,0.39,0,0.59,0c0,0.19,0,0.38,0,0.59
		C14.28,17.25,14.08,17.25,13.88,17.25z"/>
</g>
</svg>
