<?xml version="1.0" encoding="utf-8"?>
<!-- Generator: Adobe Illustrator 27.5.0, SVG Export Plug-In . SVG Version: 6.00 Build 0)  -->
<svg version="1.1" id="Camada_1" xmlns="http://www.w3.org/2000/svg" xmlns:xlink="http://www.w3.org/1999/xlink" x="0px" y="0px"
	 viewBox="0 0 20.62 12.77" style="enable-background:new 0 0 20.62 12.77;" xml:space="preserve">
<style type="text/css">
	.st0{fill:#FFFFFF;}
	.st1{fill:none;stroke:#FFFFFF;stroke-width:4;stroke-linecap:round;stroke-linejoin:round;stroke-miterlimit:10;}
</style>
<g>
	<path class="st0" d="M17.66,10.97c-0.43,1.22-1.18,1.82-2.25,1.8c-1.04-0.02-1.8-0.64-2.17-1.79c-0.06,0-0.12-0.01-0.18-0.01
		c-1.83,0-3.65,0-5.48,0c-0.15,0-0.21,0.04-0.25,0.18c-0.3,0.99-1.16,1.63-2.17,1.62c-1.01-0.01-1.85-0.66-2.14-1.65
		c-0.01-0.04-0.03-0.08-0.05-0.15c-0.41,0-0.83,0.01-1.25,0c-0.81-0.02-1.48-0.56-1.67-1.35C0.02,9.44,0,9.26,0,9.08
		c0-2.4,0-4.8,0-7.2C0,0.74,0.74,0,1.89,0c4.9,0,9.79,0,14.69,0c2.04,0,3.64,1.35,3.99,3.36c0.04,0.21,0.05,0.43,0.05,0.64
		c0,1.71,0.01,3.43,0,5.14c0,0.93-0.6,1.67-1.48,1.8c-0.36,0.05-0.73,0.02-1.09,0.03C17.93,10.97,17.8,10.97,17.66,10.97z
		 M19.02,1.98c-0.11-0.12-0.17-0.18-0.23-0.25c-0.61-0.56-1.32-0.85-2.15-0.85c-3.63,0-7.25,0-10.88,0c-1.32,0-2.64,0-3.96,0
		c-0.52,0-0.9,0.36-0.9,0.86c0,2.49,0,4.98,0,7.48c0,0.45,0.32,0.82,0.77,0.86c0.44,0.03,0.88,0.01,1.32,0.01
		C3.34,8.98,4.06,8.35,5.01,8.3c0.48-0.03,0.92,0.07,1.33,0.32c0.56,0.34,0.89,0.85,1.05,1.48c0.09,0,0.16,0,0.23,0
		c1.8,0,3.6,0,5.4,0c0.18,0,0.25-0.05,0.3-0.23c0.29-0.96,1.16-1.59,2.15-1.58c0.99,0.01,1.85,0.66,2.13,1.62
		c0.02,0.06,0.04,0.12,0.06,0.18c0.42,0,0.84,0.01,1.25,0c0.42-0.02,0.77-0.32,0.82-0.72c0.03-0.22,0.01-0.45,0.01-0.7
		c-0.1,0-0.19,0-0.28,0c-0.27,0-0.54,0.01-0.81-0.01c-0.25-0.02-0.41-0.22-0.4-0.45c0.01-0.22,0.18-0.4,0.41-0.42
		c0.1-0.01,0.2,0,0.3,0c0.26,0,0.52,0,0.77,0c0-0.49,0-0.95,0-1.42c-0.96,0-1.9,0-2.84,0c-4.78,0-9.55,0-14.33,0
		c-0.42,0-0.57-0.15-0.57-0.56c0-0.37,0-0.74,0-1.11c0-0.73,0-1.46,0-2.19c0-0.36,0.16-0.52,0.52-0.53c0.08,0,0.16,0,0.24,0
		c5.3,0,10.61,0,15.91,0C18.75,1.98,18.85,1.98,19.02,1.98z M5.51,5.48c0-0.89,0-1.74,0-2.61c-0.89,0-1.76,0-2.64,0
		c0,0.88,0,1.74,0,2.61C3.76,5.48,4.63,5.48,5.51,5.48z M6.42,5.47c0.89,0,1.77,0,2.65,0c0-0.87,0-1.73,0-2.6c-0.89,0-1.77,0-2.65,0
		C6.42,3.74,6.42,4.6,6.42,5.47z M9.97,5.47c0.9,0,1.77,0,2.65,0c0-0.87,0-1.73,0-2.6c-0.89,0-1.77,0-2.65,0
		C9.97,3.75,9.97,4.6,9.97,5.47z M13.53,2.87c0,0.88,0,1.74,0,2.61c0.89,0,1.76,0,2.64,0c0-0.88,0-1.74,0-2.61
		C15.29,2.87,14.42,2.87,13.53,2.87z M17.08,5.47c0.9,0,1.77,0,2.66,0c0-0.54,0.02-1.06-0.01-1.58c-0.01-0.28-0.09-0.56-0.13-0.84
		c-0.02-0.15-0.1-0.2-0.26-0.2c-0.69,0.01-1.38,0-2.08,0c-0.06,0-0.12,0.01-0.18,0.01C17.08,3.75,17.08,4.6,17.08,5.47z
		 M14.08,10.53c0,0.75,0.61,1.36,1.36,1.36c0.74,0,1.36-0.61,1.37-1.36c0.01-0.75-0.62-1.38-1.37-1.37
		C14.69,9.17,14.08,9.79,14.08,10.53z M6.54,10.54c0-0.75-0.61-1.36-1.36-1.37c-0.74,0-1.36,0.61-1.37,1.36
		c0,0.74,0.62,1.37,1.36,1.37C5.92,11.9,6.54,11.28,6.54,10.54z"/>
</g>
</svg>
