<?xml version="1.0" encoding="utf-8"?>
<!-- Generator: Adobe Illustrator 27.5.0, SVG Export Plug-In . SVG Version: 6.00 Build 0)  -->
<svg version="1.1" id="Camada_1" xmlns="http://www.w3.org/2000/svg" xmlns:xlink="http://www.w3.org/1999/xlink" x="0px" y="0px"
	 viewBox="0 0 41.29 37.75" style="enable-background:new 0 0 41.29 37.75;" xml:space="preserve">
<style type="text/css">
	.st0{fill:#FFFFFF;}
</style>
<g>
	<path class="st0" d="M34.31,27.39c-0.8,2.27-2.2,3.38-4.19,3.35c-1.93-0.03-3.34-1.19-4.03-3.33c-0.11-0.01-0.22-0.02-0.34-0.02
		c-3.4,0-6.79,0-10.19-0.01c-0.27,0-0.38,0.07-0.46,0.34c-0.55,1.84-2.15,3.03-4.03,3.01c-1.88-0.02-3.45-1.23-3.98-3.08
		c-0.02-0.08-0.05-0.15-0.09-0.28c-0.77,0-1.55,0.01-2.32,0c-1.5-0.03-2.76-1.04-3.1-2.51c-0.07-0.32-0.1-0.66-0.1-0.99
		c-0.01-4.46-0.01-8.92,0-13.38c0-2.13,1.38-3.51,3.52-3.51c9.1,0,18.21,0,27.31,0c3.79,0,6.77,2.52,7.42,6.24
		c0.07,0.39,0.09,0.79,0.1,1.19c0.01,3.19,0.01,6.37,0,9.56c0,1.74-1.11,3.11-2.74,3.35c-0.66,0.1-1.35,0.04-2.03,0.05
		C34.81,27.4,34.57,27.39,34.31,27.39z M36.83,10.68c-0.2-0.22-0.31-0.34-0.43-0.46c-1.13-1.05-2.46-1.58-4.01-1.58
		c-6.74,0-13.49,0-20.23,0c-2.46,0-4.91,0-7.37,0c-0.96,0-1.67,0.66-1.67,1.6c-0.01,4.63-0.01,9.27,0,13.9
		c0,0.84,0.59,1.53,1.43,1.59c0.81,0.06,1.64,0.01,2.45,0.01c0.69-2.07,2.03-3.23,3.78-3.33c0.89-0.05,1.72,0.13,2.48,0.59
		c1.04,0.63,1.66,1.57,1.95,2.75c0.16,0,0.29,0,0.42,0c3.35,0,6.69-0.01,10.04,0.01c0.34,0,0.46-0.1,0.56-0.42
		c0.54-1.78,2.15-2.95,4-2.94c1.84,0.01,3.44,1.23,3.96,3c0.03,0.11,0.07,0.22,0.11,0.34c0.79,0,1.56,0.02,2.32-0.01
		c0.77-0.03,1.43-0.6,1.52-1.33c0.06-0.41,0.01-0.84,0.01-1.31c-0.19,0-0.36,0-0.53,0c-0.5,0-1.01,0.02-1.51-0.02
		c-0.46-0.03-0.75-0.4-0.74-0.83c0.02-0.41,0.33-0.74,0.77-0.78c0.18-0.02,0.37-0.01,0.56-0.01c0.48,0,0.97,0,1.44,0
		c0-0.92,0-1.77,0-2.64c-1.78,0-3.54,0-5.29,0c-8.88,0-17.76,0-26.64,0c-0.77,0-1.06-0.28-1.07-1.05c0-0.69,0-1.38,0-2.07
		c0-1.35,0-2.71,0-4.06c0-0.68,0.3-0.97,0.97-0.98c0.15,0,0.29,0,0.44,0c9.86,0,19.73,0,29.59,0
		C36.33,10.68,36.51,10.68,36.83,10.68z M11.72,17.19c0-1.65,0-3.24,0-4.85c-1.65,0-3.28,0-4.9,0c0,1.63,0,3.24,0,4.85
		C8.46,17.19,10.08,17.19,11.72,17.19z M13.4,17.18c1.66,0,3.29,0,4.93,0c0-1.62,0-3.22,0-4.83c-1.65,0-3.29,0-4.93,0
		C13.4,13.97,13.4,15.56,13.4,17.18z M20.01,17.18c1.66,0,3.29,0,4.93,0c0-1.63,0-3.22,0-4.83c-1.66,0-3.29,0-4.93,0
		C20.01,13.97,20.01,15.56,20.01,17.18z M26.63,12.33c0,1.64,0,3.24,0,4.85c1.65,0,3.27,0,4.91,0c0-1.63,0-3.24,0-4.85
		C29.89,12.33,28.28,12.33,26.63,12.33z M33.23,17.18c1.67,0,3.29,0,4.94,0c0-1,0.03-1.97-0.01-2.93c-0.02-0.52-0.16-1.04-0.24-1.57
		c-0.05-0.28-0.19-0.37-0.49-0.37c-1.29,0.02-2.57,0.01-3.86,0.01c-0.11,0-0.23,0.01-0.34,0.02C33.23,13.97,33.23,15.56,33.23,17.18
		z M27.66,26.59c0,1.39,1.14,2.53,2.53,2.54c1.38,0,2.53-1.14,2.55-2.53c0.02-1.39-1.16-2.56-2.56-2.55
		C28.79,24.05,27.65,25.2,27.66,26.59z M13.63,26.6c0-1.39-1.14-2.54-2.53-2.54c-1.38-0.01-2.54,1.14-2.54,2.53
		c-0.01,1.38,1.15,2.54,2.53,2.54C12.48,29.13,13.63,27.98,13.63,26.6z"/>
</g>
</svg>
