<?xml version="1.0" encoding="utf-8"?>
<!-- Generator: Adobe Illustrator 27.5.0, SVG Export Plug-In . SVG Version: 6.00 Build 0)  -->
<svg version="1.1" id="Camada_1" xmlns="http://www.w3.org/2000/svg" xmlns:xlink="http://www.w3.org/1999/xlink" x="0px" y="0px"
	 viewBox="0 0 19.98 16.61" style="enable-background:new 0 0 19.98 16.61;" xml:space="preserve">
<style type="text/css">
	.st0{fill:#FFFFFF;}
	.st1{fill:none;stroke:#FFFFFF;stroke-width:4;stroke-linecap:round;stroke-linejoin:round;stroke-miterlimit:10;}
</style>
<g>
	<g>
		<g>
			<path class="st0" d="M12.08,7.58H4.39c-0.09,0-0.18-0.03-0.25-0.09l-4-3.43C0.01,3.95-0.03,3.77,0.02,3.62
				c0.06-0.15,0.2-0.25,0.36-0.25h9.91c0.21,0,0.39,0.17,0.39,0.39c0,0.21-0.17,0.39-0.39,0.39H1.44l3.1,2.66h7.54
				c0.21,0,0.39,0.17,0.39,0.39C12.47,7.4,12.29,7.58,12.08,7.58z"/>
		</g>
		<g>
			<path class="st0" d="M14.57,16.61H0.39c-0.16,0-0.31-0.1-0.36-0.25s-0.01-0.32,0.11-0.43l4.04-3.43
				c0.07-0.06,0.16-0.09,0.25-0.09h12.62c0.21,0,0.39,0.17,0.39,0.39v0.95C17.44,15.32,16.15,16.61,14.57,16.61z M1.45,15.83h13.12
				c1.16,0,2.09-0.94,2.09-2.09v-0.56H4.58L1.45,15.83z"/>
		</g>
		<g>
			<path class="st0" d="M17.05,13.17H4.43c-0.16,0-0.31-0.1-0.36-0.25s-0.01-0.32,0.11-0.43l2.73-2.32C6.98,10.11,7,10.03,7,9.99
				C7,9.95,6.98,9.87,6.91,9.8L4.18,7.49C4.06,7.38,4.01,7.21,4.07,7.06S4.27,6.8,4.43,6.8h7.65c0.21,0,0.39,0.17,0.39,0.39
				c0,0.21-0.17,0.39-0.39,0.39H5.49l1.92,1.63C7.64,9.4,7.77,9.69,7.77,9.99c0,0.3-0.13,0.58-0.36,0.78L5.49,12.4h11.17V9.3
				c0-0.21,0.17-0.39,0.39-0.39s0.39,0.17,0.39,0.39v3.49C17.44,13,17.26,13.17,17.05,13.17z"/>
		</g>
		<g>
			<path class="st0" d="M0.39,16.61c-0.06,0-0.11-0.01-0.16-0.04C0.09,16.51,0,16.37,0,16.22V3.76C0,3.6,0.09,3.47,0.23,3.4
				c0.14-0.06,0.3-0.04,0.41,0.06l6.77,5.75C7.64,9.4,7.77,9.69,7.77,9.99c0,0.3-0.13,0.58-0.36,0.78l-6.77,5.75
				C0.57,16.58,0.48,16.61,0.39,16.61z M0.78,4.59v10.79l6.13-5.21C6.98,10.11,7,10.03,7,9.99C7,9.95,6.98,9.87,6.91,9.8L0.78,4.59z
				"/>
		</g>
	</g>
	<g>
		<path class="st0" d="M17.44,9.68c-0.16,0-0.32-0.04-0.47-0.12l-1.91-1c-0.07-0.04-0.15-0.04-0.22,0l-1.91,1
			c-0.34,0.18-0.75,0.15-1.06-0.08c-0.31-0.23-0.47-0.61-0.4-0.99l0.36-2.13c0.01-0.08-0.01-0.15-0.07-0.21l-1.55-1.51
			C9.94,4.39,9.84,3.99,9.96,3.62c0.12-0.37,0.43-0.63,0.82-0.69l2.14-0.31c0.08-0.01,0.14-0.06,0.18-0.13l0.96-1.94
			C14.21,0.22,14.56,0,14.95,0c0,0,0,0,0,0c0.39,0,0.73,0.22,0.91,0.56l0.96,1.94c0.03,0.07,0.1,0.12,0.18,0.13l2.14,0.31
			c0.38,0.06,0.7,0.32,0.82,0.69c0.12,0.37,0.02,0.77-0.26,1.04l-1.55,1.51c-0.06,0.05-0.08,0.13-0.07,0.21l0.36,2.13
			c0.07,0.38-0.09,0.76-0.4,0.99C17.85,9.62,17.64,9.68,17.44,9.68z M14.95,0.78c-0.04,0-0.15,0.01-0.21,0.13l-0.96,1.94
			c-0.15,0.3-0.43,0.5-0.76,0.55l-2.14,0.31c-0.13,0.02-0.18,0.12-0.19,0.16c-0.01,0.04-0.03,0.15,0.06,0.24l1.55,1.51
			c0.24,0.23,0.35,0.57,0.29,0.89l-0.36,2.13c-0.02,0.13,0.06,0.2,0.09,0.23c0.04,0.03,0.13,0.08,0.25,0.02l1.91-1
			c0.29-0.15,0.65-0.15,0.94,0l1.91,1c0.12,0.06,0.21,0.01,0.25-0.02c0.04-0.03,0.12-0.1,0.09-0.23L17.3,6.5
			c-0.06-0.33,0.05-0.66,0.29-0.89l1.55-1.51c0.09-0.09,0.07-0.2,0.06-0.24c-0.01-0.04-0.06-0.14-0.19-0.16l-2.14-0.31
			c-0.33-0.05-0.61-0.25-0.76-0.55l-0.96-1.94c0,0,0,0,0,0C15.1,0.79,14.99,0.78,14.95,0.78C14.95,0.78,14.95,0.78,14.95,0.78z"/>
	</g>
</g>
</svg>
