<?xml version="1.0" encoding="utf-8"?>
<!-- Generator: Adobe Illustrator 27.5.0, SVG Export Plug-In . SVG Version: 6.00 Build 0)  -->
<svg version="1.1" id="Camada_1" xmlns="http://www.w3.org/2000/svg" xmlns:xlink="http://www.w3.org/1999/xlink" x="0px" y="0px"
	 viewBox="0 0 16.9 19.38" style="enable-background:new 0 0 16.9 19.38;" xml:space="preserve">
<style type="text/css">
	.st0{fill:#FFFFFF;}
	.st1{fill:none;stroke:#FFFFFF;stroke-width:4;stroke-linecap:round;stroke-linejoin:round;stroke-miterlimit:10;}
</style>
<g>
	<g>
		<path class="st0" d="M4.7,7.11c0.16,0.02,0.33,0.02,0.48,0.07c0.49,0.17,0.78,0.66,0.7,1.17C5.82,8.84,5.4,9.24,4.92,9.27
			C4.39,9.31,3.92,9,3.78,8.51c-0.15-0.5,0.07-1.02,0.53-1.27C4.35,7.22,4.38,7.2,4.42,7.18C4.51,7.15,4.61,7.13,4.7,7.11z
			 M4.73,7.84C4.54,7.89,4.42,8.08,4.46,8.27C4.5,8.46,4.7,8.59,4.89,8.55c0.19-0.04,0.32-0.24,0.28-0.44
			C5.12,7.92,4.92,7.8,4.73,7.84z"/>
		<path class="st0" d="M2.56,15.08c-0.19-0.64-0.32-1.28-0.34-1.95C2.19,12,2.61,11.09,3.5,10.4c0.95-0.74,2.01-1.13,3.22-1.03
			C7.2,9.41,7.65,9.56,7.98,9.93c0.46,0.52,0.51,1.12,0.3,1.76c-0.13,0.41-0.37,0.75-0.64,1.08c-0.22,0.26-0.44,0.51-0.66,0.77
			c-0.1,0.12-0.18,0.25-0.26,0.39c-0.21,0.38-0.21,0.77,0.03,1.14c0.15,0.24,0.34,0.46,0.52,0.68c0.25,0.31,0.51,0.62,0.67,0.99
			c0.52,1.19-0.21,2.47-1.5,2.62c-0.63,0.07-1.23,0-1.79-0.32c-0.49-0.29-0.83-0.72-1.11-1.21c-0.39-0.68-0.63-1.42-0.84-2.17
			C2.64,15.47,2.61,15.27,2.56,15.08z M3.24,14.94c0.06,0.2,0.17,0.58,0.28,0.96c0.18,0.6,0.4,1.19,0.73,1.72
			c0.34,0.55,0.79,0.96,1.46,1.02c0.23,0.02,0.46,0.02,0.68-0.01c0.61-0.08,1-0.55,0.98-1.15c-0.01-0.32-0.14-0.59-0.33-0.84
			c-0.24-0.31-0.51-0.61-0.75-0.93c-0.41-0.55-0.6-1.16-0.35-1.84c0.12-0.33,0.31-0.62,0.53-0.88c0.23-0.28,0.48-0.54,0.7-0.82
			c0.24-0.3,0.43-0.62,0.47-1.01c0.06-0.52-0.22-0.91-0.74-1.02c-0.16-0.03-0.32-0.05-0.48-0.06c-0.96-0.02-1.79,0.32-2.53,0.91
			c-0.69,0.54-1.01,1.25-0.98,2.13C2.96,13.67,3.06,14.22,3.24,14.94z"/>
		<path class="st0" d="M7.22,6.55c0.71-0.17,1.43,0.27,1.6,0.98c0.17,0.71-0.27,1.43-0.98,1.6C7.13,9.3,6.41,8.86,6.24,8.15
			C6.07,7.44,6.51,6.72,7.22,6.55z M8.11,7.7c-0.08-0.32-0.4-0.52-0.73-0.45c-0.32,0.08-0.52,0.4-0.45,0.72
			C7.02,8.3,7.34,8.5,7.66,8.43C7.99,8.35,8.19,8.03,8.11,7.7z"/>
		<path class="st0" d="M3.65,9.1c0.14,0.58-0.23,1.17-0.81,1.3c-0.58,0.13-1.16-0.23-1.3-0.81C1.4,9.02,1.77,8.43,2.35,8.29
			C2.93,8.16,3.51,8.52,3.65,9.1z M2.66,9.71c0.19-0.04,0.32-0.23,0.29-0.42C2.91,9.1,2.72,8.96,2.53,8.99
			C2.33,9.03,2.2,9.23,2.24,9.42C2.27,9.61,2.47,9.74,2.66,9.71z"/>
		<path class="st0" d="M0.84,10.27c0.58-0.14,1.17,0.23,1.3,0.81c0.13,0.58-0.23,1.16-0.81,1.3c-0.58,0.14-1.17-0.23-1.3-0.81
			C-0.11,10.99,0.26,10.4,0.84,10.27z M1.17,11.68c0.19-0.04,0.31-0.24,0.27-0.43c-0.04-0.19-0.24-0.32-0.43-0.27
			c-0.19,0.04-0.32,0.24-0.28,0.44C0.78,11.6,0.98,11.72,1.17,11.68z"/>
	</g>
	<g>
		<path class="st0" d="M12.08,0.36c0.04,0.02,0.08,0.04,0.12,0.05c0.48,0.2,0.75,0.7,0.65,1.21c-0.09,0.5-0.53,0.86-1.06,0.87
			c-0.48,0.01-0.94-0.34-1.05-0.82c-0.12-0.5,0.12-1.01,0.59-1.23c0.15-0.07,0.31-0.08,0.47-0.12C11.89,0.33,11.99,0.34,12.08,0.36z
			 M11.43,1.36c-0.03,0.2,0.12,0.39,0.32,0.41c0.19,0.02,0.38-0.12,0.4-0.32c0.02-0.19-0.12-0.38-0.31-0.4
			C11.64,1.03,11.46,1.17,11.43,1.36z"/>
		<path class="st0" d="M14.63,8.63c-0.14,0.77-0.3,1.53-0.63,2.24c-0.23,0.51-0.52,0.98-0.99,1.31c-0.52,0.38-1.12,0.5-1.75,0.49
			c-1.3-0.02-2.15-1.23-1.75-2.46c0.13-0.39,0.35-0.72,0.57-1.05c0.16-0.24,0.32-0.47,0.45-0.73c0.2-0.39,0.17-0.78-0.08-1.14
			c-0.09-0.13-0.18-0.25-0.29-0.36C9.92,6.7,9.67,6.48,9.43,6.24c-0.3-0.3-0.58-0.62-0.75-1.01C8.42,4.62,8.41,4.01,8.82,3.45
			c0.29-0.41,0.72-0.59,1.19-0.68c1.2-0.22,2.29,0.07,3.31,0.7c0.95,0.6,1.47,1.46,1.55,2.59c0.05,0.66-0.02,1.32-0.15,1.97
			C14.69,8.23,14.67,8.43,14.63,8.63z M14.14,6.12c-0.06-0.88-0.45-1.55-1.19-2.02c-0.8-0.51-1.65-0.76-2.6-0.65
			c-0.16,0.02-0.32,0.06-0.47,0.1c-0.5,0.16-0.74,0.57-0.63,1.09c0.08,0.38,0.3,0.69,0.57,0.96c0.25,0.26,0.52,0.5,0.78,0.75
			c0.25,0.24,0.46,0.51,0.62,0.83c0.31,0.66,0.19,1.27-0.17,1.87c-0.2,0.34-0.44,0.66-0.65,1c-0.17,0.26-0.26,0.55-0.24,0.87
			c0.04,0.6,0.48,1.03,1.09,1.05c0.23,0.01,0.46-0.01,0.68-0.06c0.66-0.13,1.07-0.58,1.35-1.16c0.28-0.57,0.43-1.17,0.56-1.79
			c0.08-0.39,0.15-0.78,0.19-0.99C14.13,7.23,14.17,6.68,14.14,6.12z"/>
		<path class="st0" d="M10.37,1.51c-0.1,0.72-0.77,1.23-1.49,1.13c-0.72-0.1-1.23-0.77-1.13-1.49c0.1-0.72,0.77-1.23,1.49-1.13
			C9.96,0.11,10.47,0.78,10.37,1.51z M8.98,1.92C9.31,1.96,9.61,1.73,9.65,1.4c0.04-0.32-0.19-0.62-0.51-0.67
			C8.81,0.68,8.5,0.91,8.46,1.24C8.42,1.57,8.65,1.88,8.98,1.92z"/>
		<path class="st0" d="M14.25,1.27c0.59,0.08,1.02,0.62,0.94,1.22c-0.08,0.59-0.62,1.01-1.21,0.93c-0.59-0.08-1.02-0.62-0.94-1.22
			C13.12,1.61,13.67,1.19,14.25,1.27z M14.48,2.38c0.02-0.2-0.13-0.38-0.33-0.4c-0.19-0.01-0.37,0.14-0.39,0.33
			c-0.02,0.19,0.13,0.37,0.33,0.39C14.28,2.72,14.46,2.57,14.48,2.38z"/>
		<path class="st0" d="M16.89,4.29c-0.08,0.59-0.62,1.02-1.22,0.94c-0.59-0.08-1.01-0.62-0.93-1.21c0.08-0.6,0.62-1.02,1.22-0.94
			C16.54,3.16,16.96,3.7,16.89,4.29z M16.17,4.2c0.03-0.2-0.12-0.39-0.32-0.41c-0.19-0.02-0.38,0.12-0.4,0.32
			c-0.02,0.19,0.12,0.38,0.31,0.4C15.96,4.54,16.14,4.4,16.17,4.2z"/>
	</g>
</g>
</svg>
