<?xml version="1.0" encoding="utf-8"?>
<!-- Generator: Adobe Illustrator 27.5.0, SVG Export Plug-In . SVG Version: 6.00 Build 0)  -->
<svg version="1.1" id="Camada_1" xmlns="http://www.w3.org/2000/svg" xmlns:xlink="http://www.w3.org/1999/xlink" x="0px" y="0px"
	 viewBox="0 0 17.82 17.82" style="enable-background:new 0 0 17.82 17.82;" xml:space="preserve">
<style type="text/css">
	.st0{fill:#FFFFFF;}
	.st1{fill:none;stroke:#FFFFFF;stroke-width:4;stroke-linecap:round;stroke-linejoin:round;stroke-miterlimit:10;}
</style>
<g>
	<path class="st0" d="M0,10.86c0.08-0.16,0.22-0.24,0.39-0.28c0.59-0.15,1.19-0.31,1.78-0.48c0.4-0.11,0.77-0.06,1.09,0.21
		c0.04,0.04,0.14,0.04,0.2,0.03c0.86-0.22,1.71-0.45,2.57-0.68C6.6,9.5,7.13,9.57,7.64,9.87c1.56,0.91,3.13,1.81,4.69,2.71
		c0.61,0.35,0.85,0.84,0.76,1.56c0.07-0.01,0.12-0.02,0.18-0.04c0.95-0.24,1.9-0.48,2.85-0.72c0.67-0.17,1.39,0.24,1.61,0.89
		c0.23,0.66-0.06,1.42-0.69,1.69c-0.58,0.24-1.19,0.43-1.78,0.63c-1.06,0.36-2.13,0.72-3.19,1.07c-0.21,0.07-0.44,0.1-0.65,0.15
		c-0.19,0-0.37,0-0.56,0c-0.82-0.08-1.48-0.53-2.17-0.93c-0.86-0.5-1.74-0.97-2.59-1.49c-0.46-0.28-0.91-0.26-1.38-0.1
		c-0.04,0.01-0.08,0.06-0.1,0.1c-0.13,0.4-0.4,0.64-0.8,0.74c-0.62,0.16-1.24,0.33-1.86,0.5c-0.3,0.08-0.46-0.01-0.54-0.32
		c-0.36-1.34-0.72-2.68-1.08-4.02C0.24,11.89,0.12,11.48,0,11.07C0,11,0,10.93,0,10.86z M4.57,14.61c0.16-0.04,0.31-0.07,0.46-0.1
		c0.48-0.1,0.92,0,1.33,0.24c1.22,0.7,2.44,1.41,3.67,2.09c0.55,0.31,1.15,0.37,1.75,0.18c1.61-0.53,3.22-1.07,4.83-1.61
		c0.4-0.13,0.6-0.5,0.48-0.87c-0.11-0.37-0.48-0.56-0.89-0.46c-0.87,0.22-1.74,0.44-2.61,0.67c-0.4,0.1-0.82,0.17-1.2,0.33
		c-0.51,0.21-0.97,0.19-1.44-0.08c-0.94-0.55-1.88-1.08-2.81-1.63c-0.05-0.03-0.11-0.07-0.16-0.11c-0.12-0.11-0.15-0.27-0.08-0.41
		c0.07-0.14,0.24-0.22,0.4-0.17c0.07,0.02,0.14,0.06,0.2,0.1c0.78,0.45,1.56,0.9,2.33,1.35c0.21,0.12,0.41,0.25,0.62,0.35
		c0.39,0.18,0.84-0.03,0.95-0.45c0.09-0.33-0.05-0.63-0.4-0.83c-1.59-0.92-3.17-1.83-4.76-2.75c-0.31-0.18-0.63-0.22-0.97-0.13
		c-0.83,0.22-1.66,0.44-2.48,0.67C3.73,11,3.68,11.02,3.61,11.04C3.94,12.24,4.25,13.43,4.57,14.61z M2.03,15.9
		c0.07-0.01,0.12-0.02,0.18-0.04c0.45-0.12,0.91-0.24,1.36-0.37c0.38-0.1,0.46-0.23,0.35-0.62c-0.33-1.23-0.66-2.46-0.99-3.69
		c-0.12-0.44-0.24-0.51-0.67-0.38c-0.04,0.01-0.08,0.03-0.13,0.05c0.01,0.04,0.01,0.06,0.02,0.09c0.19,0.73,0.39,1.45,0.58,2.18
		c0.07,0.25-0.02,0.44-0.22,0.49c-0.21,0.05-0.38-0.06-0.45-0.3c-0.11-0.4-0.21-0.81-0.32-1.21c-0.1-0.36-0.19-0.71-0.29-1.08
		C1.22,11.08,1,11.14,0.78,11.2C1.2,12.77,1.61,14.33,2.03,15.9z"/>
	<path class="st0" d="M17.82,7.03c-0.12,1.52-0.88,2.8-2.47,3.45c-1.43,0.58-2.76,0.3-3.9-0.75c-0.87-0.79-1.28-1.8-1.29-2.97
		c0-0.67,0.17-1.3,0.52-1.87c0.98-1.56,1.98-3.12,2.98-4.68c0.18-0.29,0.47-0.29,0.65,0c0.99,1.55,1.99,3.1,2.97,4.66
		C17.66,5.48,17.83,6.15,17.82,7.03z M13.99,1.01c-0.03,0.04-0.04,0.05-0.05,0.06c-0.85,1.34-1.71,2.68-2.56,4.02
		c-0.25,0.39-0.43,0.8-0.49,1.25c-0.14,1.12,0.2,2.08,1.01,2.87c1.23,1.2,3.27,1.1,4.38-0.22c0.94-1.11,1.13-2.65,0.27-3.98
		c-0.84-1.27-1.64-2.57-2.46-3.85C14.07,1.12,14.04,1.07,13.99,1.01z"/>
	<path class="st0" d="M2.78,14.28c0.19,0,0.34,0.16,0.33,0.35c0,0.19-0.16,0.34-0.35,0.33c-0.19,0-0.34-0.15-0.33-0.35
		C2.44,14.43,2.59,14.28,2.78,14.28z"/>
	<path class="st0" d="M16.43,6.86c-0.01,1.26-0.96,2.34-2.21,2.49c-0.1,0.01-0.2,0.01-0.29,0c-0.17-0.03-0.28-0.17-0.28-0.33
		c0-0.16,0.11-0.3,0.27-0.34c0.1-0.02,0.21-0.02,0.31-0.04c0.69-0.13,1.14-0.56,1.39-1.21c0.2-0.52,0.14-1.03-0.14-1.52
		c-0.16-0.28-0.07-0.54,0.2-0.59c0.17-0.03,0.29,0.05,0.38,0.19C16.3,5.93,16.42,6.38,16.43,6.86z"/>
</g>
</svg>
