<?xml version="1.0" encoding="utf-8"?>
<!-- Generator: Adobe Illustrator 27.5.0, SVG Export Plug-In . SVG Version: 6.00 Build 0)  -->
<svg version="1.1" id="Camada_1" xmlns="http://www.w3.org/2000/svg" xmlns:xlink="http://www.w3.org/1999/xlink" x="0px" y="0px"
	 viewBox="0 0 13.25 15.15" style="enable-background:new 0 0 13.25 15.15;" xml:space="preserve">
<style type="text/css">
	.st0{fill:#FFFFFF;}
	.st1{fill:none;stroke:#FFFFFF;stroke-width:4;stroke-linecap:round;stroke-linejoin:round;stroke-miterlimit:10;}
</style>
<g>
	<path class="st0" d="M11,0c0.11,0.08,0.22,0.14,0.32,0.24c0.58,0.57,1.15,1.15,1.73,1.72c0.27,0.27,0.27,0.48,0.01,0.77
		c-0.34,0.38-0.66,0.78-0.72,1.3c-0.05,0.41-0.02,0.85,0.06,1.26c0.08,0.44,0.23,0.87,0.4,1.29c0.37,0.93,0.52,1.9,0.43,2.89
		c-0.1,1.01-0.59,1.82-1.35,2.47c-0.68,0.58-1.47,0.96-2.27,1.34c-0.57,0.27-1.14,0.54-1.7,0.83C7.53,14.3,7.21,14.56,7,14.93
		c-0.16,0.27-0.56,0.29-0.72,0.02c-0.28-0.48-0.72-0.77-1.19-1c-0.67-0.33-1.36-0.64-2.04-0.97c-0.62-0.3-1.22-0.65-1.74-1.11
		c-1-0.88-1.38-2-1.3-3.31c0.05-0.74,0.22-1.45,0.51-2.13C0.77,5.85,0.9,5.24,0.95,4.6C1,4.01,0.8,3.51,0.46,3.06
		C0.36,2.92,0.26,2.8,0.14,2.67c-0.19-0.21-0.19-0.46,0.01-0.66c0.62-0.62,1.23-1.24,1.85-1.85C2.07,0.1,2.17,0.05,2.25,0
		c0.07,0,0.14,0,0.21,0c0.16,0.12,0.33,0.23,0.49,0.35C3.92,1.1,5.28,1.05,6.2,0.24C6.29,0.15,6.4,0.08,6.51,0c0.08,0,0.16,0,0.24,0
		c0.08,0.06,0.17,0.11,0.25,0.18c0.95,0.88,2.33,0.94,3.35,0.15c0.15-0.11,0.3-0.22,0.45-0.32C10.87,0,10.93,0,11,0z M1.07,2.38
		C1.13,2.47,1.2,2.55,1.26,2.64c0.4,0.57,0.62,1.2,0.58,1.91C1.8,5.29,1.66,6,1.38,6.68C1.12,7.29,0.95,7.92,0.9,8.59
		c-0.09,1.18,0.3,2.12,1.25,2.84c0.45,0.34,0.95,0.6,1.45,0.85c1.03,0.51,2.15,0.87,3.02,1.66c0.18-0.14,0.34-0.28,0.52-0.4
		c0.58-0.4,1.23-0.67,1.87-0.97c0.7-0.32,1.4-0.64,2.02-1.09c0.7-0.51,1.19-1.16,1.3-2.05c0.09-0.78,0.01-1.55-0.28-2.28
		c-0.29-0.74-0.55-1.48-0.63-2.28C11.35,4.04,11.52,3.3,12,2.63c0.06-0.09,0.12-0.17,0.18-0.25c-0.45-0.45-0.89-0.89-1.32-1.32
		c-1.41,0.97-2.83,0.93-4.23,0c-1.42,0.93-2.83,0.98-4.24,0C1.95,1.49,1.52,1.93,1.07,2.38z"/>
	<path class="st0" d="M4.23,9.75c0.05-0.3,0.11-0.63,0.16-0.96C4.44,8.49,4.5,8.19,4.55,7.88c0.01-0.06-0.03-0.15-0.07-0.2
		C4.06,7.26,3.64,6.86,3.22,6.45C3.06,6.3,2.97,6.14,3.05,5.92c0.07-0.21,0.24-0.28,0.44-0.31c0.59-0.08,1.17-0.17,1.75-0.25
		c0.09-0.01,0.13-0.05,0.16-0.12c0.26-0.53,0.52-1.05,0.77-1.58c0.09-0.19,0.21-0.33,0.44-0.34c0.23,0,0.36,0.15,0.45,0.34
		c0.25,0.52,0.51,1.04,0.77,1.56c0.04,0.08,0.08,0.11,0.17,0.13C8.61,5.44,9.2,5.53,9.8,5.62c0.2,0.03,0.34,0.12,0.41,0.31
		c0.07,0.2,0,0.36-0.15,0.49C9.64,6.84,9.21,7.26,8.78,7.67C8.71,7.74,8.69,7.8,8.71,7.9c0.11,0.59,0.21,1.18,0.31,1.77
		C9.05,9.86,9,10.02,8.85,10.14c-0.16,0.12-0.33,0.12-0.5,0.03C7.81,9.88,7.28,9.6,6.74,9.32c-0.08-0.04-0.14-0.05-0.23,0
		C5.99,9.6,5.45,9.88,4.92,10.16c-0.17,0.09-0.34,0.11-0.5-0.01C4.29,10.06,4.23,9.94,4.23,9.75z M8.83,6.39
		c-0.06-0.01-0.1-0.02-0.14-0.03C8.31,6.3,7.93,6.24,7.55,6.19C7.38,6.17,7.27,6.07,7.19,5.92C7.08,5.69,6.97,5.46,6.85,5.23
		C6.78,5.09,6.71,4.95,6.63,4.78c-0.04,0.06-0.06,0.1-0.08,0.15C6.39,5.25,6.23,5.56,6.08,5.88C5.99,6.07,5.86,6.18,5.65,6.2
		C5.48,6.22,5.31,6.25,5.14,6.27c-0.23,0.03-0.46,0.07-0.69,0.1C4.44,6.39,4.43,6.41,4.42,6.42c0.04,0.03,0.09,0.05,0.12,0.08
		c0.26,0.25,0.51,0.5,0.77,0.75c0.13,0.13,0.19,0.27,0.16,0.45C5.45,7.86,5.42,8.02,5.4,8.17c-0.04,0.26-0.09,0.52-0.14,0.8
		C5.64,8.78,5.99,8.6,6.34,8.4c0.2-0.11,0.38-0.11,0.57,0c0.35,0.19,0.7,0.37,1.07,0.56C7.98,8.92,7.98,8.89,7.97,8.85
		C7.91,8.47,7.84,8.09,7.78,7.7C7.75,7.53,7.8,7.39,7.93,7.26c0.19-0.18,0.37-0.36,0.55-0.54C8.59,6.62,8.7,6.51,8.83,6.39z"/>
</g>
</svg>
